<!-- prettier-ignore -->
<svg
  width="24"
  height="26"
  viewBox="0 0 24 26"
  fill="none"
  xmlns="http://www.w3.org/2000/svg"
>
  <mask
    id="mask0"
    mask-type="alpha"
    maskUnits="userSpaceOnUse"
    x="0"
    y="0"
    width="24"
    height="26"
  >
    <rect width="24" height="26" fill="#C4C4C4" />
  </mask>
  <g mask="url(#mask0)">
    <path
      d="M19.3755 11.1318C20.5033 12.6976 19.0759 14.1653 19.0759 14.1653C19.0759 14.1653 19.936 15.2948 19.936 16.3078C19.936 17.5723 19.0759 18.4507 19.0759 18.4507C19.0759 18.4507 20.4964 19.8353 19.5664 21.5292C18.2025 23.5371 15.8213 23.5371 13.112 23.5371C8.8772 23.5371 3.9237 23.8824 3.92371 16.3078C3.92371 8.80824 8.67526 9.94813 8.67526 5.64549C8.67526 3.94152 10.2193 2.63972 11.408 3.08954C14.512 4.26409 13.0157 7.75392 12.0303 11.1318C14.5673 10.1957 17.3634 8.86031 19.3755 11.1318Z"
      stroke="white"
    />
    <path
      d="M19.3755 11.1318C20.5033 12.6976 19.0759 14.1653 19.0759 14.1653C19.0759 14.1653 19.936 15.2948 19.936 16.3078C19.936 17.5723 19.0759 18.4507 19.0759 18.4507C19.0759 18.4507 20.4964 19.8353 19.5664 21.5292C18.2025 23.5371 15.8213 23.5371 13.112 23.5371C8.8772 23.5371 3.9237 23.8824 3.92371 16.3078C3.92371 8.80824 8.67526 9.94813 8.67526 5.64549C8.67526 3.94152 10.2193 2.63972 11.408 3.08954C14.512 4.26409 13.0157 7.75392 12.0303 11.1318C14.5673 10.1957 17.3634 8.86031 19.3755 11.1318Z"
      stroke="#11269C"
      stroke-opacity="0.6"
    />
    <path
      d="M14.6539 23.5737C11.4733 22.5838 12.2507 19.8966 13.6643 19.3315C15.078 18.7663 17.3576 18.5314 19.4074 18.4843"
      stroke="white"
    />
    <path
      d="M14.6539 23.5737C11.4733 22.5838 12.2507 19.8966 13.6643 19.3315C15.078 18.7663 17.3576 18.5314 19.4074 18.4843"
      stroke="#11269C"
      stroke-opacity="0.6"
    />
    <path
      d="M14.2892 19.08C11.1086 18.0901 11.634 15.8712 12.9814 15.1624C14.3862 14.4233 16.9377 14.2626 18.9874 14.2154"
      stroke="white"
    />
    <path
      d="M14.2892 19.08C11.1086 18.0901 11.634 15.8712 12.9814 15.1624C14.3862 14.4233 16.9377 14.2626 18.9874 14.2154"
      stroke="#11269C"
      stroke-opacity="0.6"
    />
    <path
      d="M13.5007 14.951C10.4809 15.3192 10.4881 11.8385 12.3609 11.0897C14.2336 10.3409 16.4985 9.08731 18.9017 10.713"
      stroke="white"
    />
    <path
      d="M13.5007 14.951C10.4809 15.3192 10.4881 11.8385 12.3609 11.0897C14.2336 10.3409 16.4985 9.08731 18.9017 10.713"
      stroke="#11269C"
      stroke-opacity="0.6"
    />
  </g>
</svg>
