<svg width="368" height="253" viewBox="0 0 368 253" fill="none" xmlns="http://www.w3.org/2000/svg">
<path d="M0 0H368V253H0V0Z" fill="white"/>
<mask id="mask0" mask-type="alpha" maskUnits="userSpaceOnUse" x="0" y="0" width="368" height="253">
<rect width="368" height="253" fill="#C4C4C4"/>
</mask>
<g mask="url(#mask0)">
<path fill-rule="evenodd" clip-rule="evenodd" d="M174.803 147.971C213.909 135.714 243.005 142.74 253.107 148.179L250.434 153.143C241.863 148.529 214.369 141.479 176.489 153.351L174.803 147.971Z" fill="#11269C"/>
<path d="M273.489 120.811L281.945 118.556L279.792 123.115C283.826 125.17 286.626 127.862 287.452 129.501C288.063 130.587 288.591 131.635 289.043 132.649H299.501L291.279 142.035C291.31 149.019 287.274 153.955 283.589 158.462C282.373 159.95 281.194 161.391 280.213 162.844C277.032 167.554 277.387 172.791 277.657 178.128C278.11 187.081 278.127 192.674 262.671 197.721C248.748 202.267 218.675 192.556 235.738 151.156C247.48 122.667 262.656 118.415 273.572 120.862L273.489 120.811Z" fill="#11269C"/>
<path fill-rule="evenodd" clip-rule="evenodd" d="M240.707 187.84C241.857 187.853 242.929 187.865 243.9 187.865V193.738C242.822 193.738 241.67 193.726 240.464 193.713C234.894 193.655 228.141 193.584 221.877 194.631C214.156 195.922 208.422 198.715 206.278 204.075C201.28 216.57 207.188 228.44 214.122 237.648L209.43 241.181C202.258 231.658 194.603 217.448 200.824 201.894C204.183 193.499 212.761 190.2 220.909 188.838C227.742 187.696 235.146 187.778 240.707 187.84Z" fill="#11269C"/>
<path d="M215.202 236.848C219.189 240.127 218.141 250.559 211.403 250.559H181.563C178.148 250.559 176.694 245.907 177.312 242.733C179.626 230.843 195.839 233.088 199.961 234.944C204.718 237.085 210.219 232.749 215.202 236.848Z" fill="white" stroke="#11269C"/>
<path fill-rule="evenodd" clip-rule="evenodd" d="M216.418 247.473C218.257 244.127 217.792 238.978 215.202 236.848C212.375 234.522 209.381 234.912 206.451 235.293C204.217 235.584 202.019 235.87 199.961 234.944C195.839 233.088 179.626 230.843 177.312 242.733C177.023 244.217 177.187 246.025 177.793 247.529C192.366 246.534 201.772 246.672 216.418 247.473Z" fill="white"/>
<path d="M215.202 236.848L215.52 236.462L215.202 236.848ZM216.418 247.473L216.391 247.973L216.705 247.99L216.857 247.714L216.418 247.473ZM206.451 235.293L206.386 234.797L206.451 235.293ZM199.961 234.944L199.756 235.4L199.961 234.944ZM177.312 242.733L176.821 242.637L177.312 242.733ZM177.793 247.529L177.329 247.716L177.465 248.052L177.827 248.028L177.793 247.529ZM214.884 237.234C216.043 238.187 216.772 239.863 216.974 241.758C217.175 243.644 216.843 245.662 215.98 247.233L216.857 247.714C217.833 245.938 218.187 243.708 217.968 241.651C217.75 239.602 216.95 237.639 215.52 236.462L214.884 237.234ZM206.516 235.789C209.465 235.405 212.244 235.062 214.884 237.234L215.52 236.462C212.506 233.983 209.297 234.419 206.386 234.797L206.516 235.789ZM199.756 235.4C201.965 236.394 204.308 236.076 206.516 235.789L206.386 234.797C204.125 235.092 202.074 235.346 200.166 234.488L199.756 235.4ZM177.803 242.828C178.358 239.978 179.737 237.997 181.548 236.639C183.369 235.272 185.653 234.518 188.029 234.179C192.799 233.498 197.786 234.513 199.756 235.4L200.166 234.488C198.014 233.519 192.834 232.483 187.888 233.189C185.406 233.543 182.945 234.34 180.947 235.839C178.939 237.346 177.423 239.543 176.821 242.637L177.803 242.828ZM178.257 247.342C177.687 245.926 177.533 244.217 177.803 242.828L176.821 242.637C176.514 244.218 176.688 246.123 177.329 247.716L178.257 247.342ZM177.827 248.028C192.375 247.035 201.76 247.172 216.391 247.973L216.446 246.974C201.785 246.172 192.358 246.034 177.759 247.03L177.827 248.028Z" fill="#11269C"/>
<mask id="path-9-inside-1" fill="white">
<path fill-rule="evenodd" clip-rule="evenodd" d="M205.109 219.749C206.574 226.325 210.182 232.416 214.122 237.647L209.43 241.181C205.535 236.008 201.496 229.452 199.617 222.05C201.216 221.252 203.123 220.418 205.109 219.749Z"/>
</mask>
<path fill-rule="evenodd" clip-rule="evenodd" d="M205.109 219.749C206.574 226.325 210.182 232.416 214.122 237.647L209.43 241.181C205.535 236.008 201.496 229.452 199.617 222.05C201.216 221.252 203.123 220.418 205.109 219.749Z" fill="white"/>
<path d="M205.109 219.749L206.085 219.531L205.843 218.446L204.789 218.801L205.109 219.749ZM214.122 237.647L214.723 238.446L215.522 237.845L214.921 237.046L214.122 237.647ZM209.43 241.181L208.631 241.782L209.233 242.581L210.032 241.979L209.43 241.181ZM199.617 222.05L199.17 221.155L198.449 221.515L198.648 222.296L199.617 222.05ZM204.133 219.966C205.642 226.743 209.345 232.967 213.323 238.249L214.921 237.046C211.019 231.865 207.505 225.908 206.085 219.531L204.133 219.966ZM213.52 236.848L208.828 240.382L210.032 241.979L214.723 238.446L213.52 236.848ZM210.229 240.579C206.37 235.455 202.419 229.023 200.586 221.804L198.648 222.296C200.574 229.882 204.699 236.561 208.631 241.782L210.229 240.579ZM204.789 218.801C202.752 219.488 200.802 220.341 199.17 221.155L200.063 222.944C201.63 222.163 203.494 221.348 205.428 220.696L204.789 218.801Z" fill="#11269C" mask="url(#path-9-inside-1)"/>
<path fill-rule="evenodd" clip-rule="evenodd" d="M187.658 233.728C187.274 235.606 187.048 237.535 187.288 239.331C187.473 240.71 188.308 242.226 189.509 241.734C190.965 241.138 191.876 238.67 192.557 236.826C192.657 236.554 192.753 236.295 192.844 236.058C193.004 235.645 193.168 235.229 193.334 234.809C193.496 234.4 193.659 233.987 193.82 233.571C193.991 233.587 194.162 233.604 194.33 233.622C194.13 235.365 194.049 237.179 194.223 238.829C194.323 239.774 194.535 240.943 195.167 241.532C196.203 242.498 197.44 240.533 198.047 239.569C198.082 239.513 198.115 239.461 198.146 239.413C199.008 238.058 199.722 236.612 200.341 235.1C202.289 235.834 204.354 235.565 206.451 235.292C209.381 234.911 212.375 234.521 215.202 236.847C217.792 238.977 218.258 244.126 216.418 247.473C201.773 246.672 192.367 246.534 177.794 247.529C177.188 246.024 177.023 244.217 177.312 242.732C178.445 236.91 182.911 234.477 187.658 233.728Z" fill="white"/>
<path d="M187.288 239.331L186.793 239.397V239.397L187.288 239.331ZM187.658 233.728L188.148 233.828L188.292 233.122L187.58 233.234L187.658 233.728ZM189.509 241.734L189.699 242.197H189.699L189.509 241.734ZM192.557 236.826L193.026 236.999V236.999L192.557 236.826ZM192.844 236.058L193.311 236.238L193.311 236.238L192.844 236.058ZM193.334 234.809L193.799 234.993V234.993L193.334 234.809ZM193.82 233.571L193.865 233.073L193.489 233.039L193.353 233.391L193.82 233.571ZM194.33 233.622L194.827 233.679L194.884 233.18L194.384 233.125L194.33 233.622ZM194.223 238.829L194.721 238.776V238.776L194.223 238.829ZM195.167 241.532L194.826 241.898L195.167 241.532ZM198.047 239.569L198.471 239.835V239.835L198.047 239.569ZM198.146 239.413L198.568 239.681L198.568 239.681L198.146 239.413ZM200.341 235.1L200.517 234.632L200.062 234.46L199.878 234.91L200.341 235.1ZM206.451 235.292L206.387 234.797L206.451 235.292ZM215.202 236.847L215.52 236.461V236.461L215.202 236.847ZM216.418 247.473L216.391 247.972L216.705 247.99L216.857 247.714L216.418 247.473ZM177.794 247.529L177.33 247.715L177.465 248.052L177.828 248.027L177.794 247.529ZM177.312 242.732L176.822 242.636L177.312 242.732ZM187.784 239.264C187.555 237.55 187.769 235.685 188.148 233.828L187.168 233.628C186.78 235.527 186.542 237.52 186.793 239.397L187.784 239.264ZM189.32 241.272C189.132 241.349 188.985 241.341 188.858 241.293C188.719 241.24 188.566 241.124 188.412 240.927C188.1 240.527 187.868 239.895 187.784 239.264L186.793 239.397C186.893 240.146 187.171 240.962 187.623 241.542C187.851 241.835 188.144 242.092 188.505 242.228C188.878 242.369 189.287 242.366 189.699 242.197L189.32 241.272ZM192.088 236.653C191.745 237.581 191.358 238.626 190.883 239.512C190.397 240.418 189.875 241.044 189.32 241.272L189.699 242.197C190.599 241.828 191.261 240.922 191.764 239.985C192.278 239.026 192.688 237.915 193.026 236.999L192.088 236.653ZM192.378 235.878C192.285 236.119 192.188 236.381 192.088 236.653L193.026 236.999C193.127 236.726 193.221 236.471 193.311 236.238L192.378 235.878ZM192.869 234.626C192.703 235.045 192.538 235.463 192.378 235.878L193.311 236.238C193.469 235.827 193.633 235.413 193.799 234.993L192.869 234.626ZM193.353 233.391C193.193 233.805 193.031 234.216 192.869 234.626L193.799 234.993C193.961 234.584 194.124 234.169 194.286 233.752L193.353 233.391ZM194.384 233.125C194.213 233.107 194.04 233.089 193.865 233.073L193.774 234.069C193.943 234.085 194.11 234.101 194.276 234.119L194.384 233.125ZM194.721 238.776C194.552 237.176 194.63 235.401 194.827 233.679L193.833 233.566C193.631 235.328 193.547 237.182 193.726 238.881L194.721 238.776ZM195.508 241.166C195.286 240.96 195.108 240.619 194.975 240.171C194.843 239.731 194.769 239.238 194.721 238.776L193.726 238.881C193.777 239.366 193.859 239.929 194.017 240.457C194.172 240.977 194.416 241.515 194.826 241.898L195.508 241.166ZM197.624 239.302C197.313 239.797 196.885 240.472 196.423 240.913C196.191 241.134 195.999 241.248 195.855 241.282C195.752 241.306 195.65 241.298 195.508 241.166L194.826 241.898C195.203 242.249 195.644 242.358 196.083 242.255C196.482 242.162 196.831 241.906 197.113 241.636C197.681 241.094 198.175 240.305 198.471 239.835L197.624 239.302ZM197.724 239.145C197.693 239.194 197.659 239.247 197.624 239.302L198.471 239.835C198.506 239.779 198.538 239.728 198.568 239.681L197.724 239.145ZM199.878 234.91C199.268 236.401 198.567 237.82 197.724 239.145L198.568 239.681C199.449 238.296 200.176 236.822 200.804 235.289L199.878 234.91ZM206.387 234.797C204.264 235.073 202.328 235.315 200.517 234.632L200.165 235.567C202.249 236.354 204.443 236.058 206.516 235.788L206.387 234.797ZM215.52 236.461C212.506 233.982 209.297 234.418 206.387 234.797L206.516 235.788C209.465 235.404 212.244 235.061 214.885 237.233L215.52 236.461ZM216.857 247.714C217.833 245.937 218.188 243.708 217.968 241.651C217.75 239.601 216.951 237.638 215.52 236.461L214.885 237.233C216.044 238.187 216.772 239.863 216.974 241.757C217.175 243.644 216.843 245.662 215.98 247.232L216.857 247.714ZM177.828 248.027C192.375 247.035 201.76 247.172 216.391 247.972L216.446 246.974C201.786 246.172 192.358 246.034 177.759 247.03L177.828 248.027ZM176.822 242.636C176.514 244.217 176.688 246.123 177.33 247.715L178.257 247.342C177.687 245.926 177.533 244.216 177.803 242.828L176.822 242.636ZM187.58 233.234C185.153 233.617 182.762 234.435 180.824 235.932C178.876 237.436 177.411 239.607 176.822 242.636L177.803 242.828C178.346 240.035 179.681 238.078 181.436 236.723C183.2 235.36 185.416 234.588 187.736 234.222L187.58 233.234Z" fill="#11269C"/>
<path fill-rule="evenodd" clip-rule="evenodd" d="M266.882 187.84C265.731 187.853 264.659 187.865 263.688 187.865V193.738C264.767 193.738 265.918 193.726 267.124 193.713C272.695 193.655 279.447 193.584 285.711 194.631C293.432 195.922 299.166 198.715 301.31 204.075C306.308 216.57 300.4 228.44 293.467 237.648L298.158 241.181C305.33 231.658 312.985 217.448 306.764 201.894C303.406 193.499 294.827 190.2 286.68 188.838C279.846 187.696 272.442 187.778 266.882 187.84Z" fill="#11269C"/>
<path d="M292.386 236.848C288.4 240.127 289.447 250.559 296.185 250.559H326.026C329.44 250.559 330.894 245.907 330.276 242.733C327.962 230.843 311.749 233.088 307.627 234.944C302.87 237.085 297.369 232.749 292.386 236.848Z" fill="white" stroke="#11269C"/>
<path fill-rule="evenodd" clip-rule="evenodd" d="M291.17 247.473C289.331 244.127 289.796 238.978 292.386 236.848C295.213 234.522 298.207 234.912 301.137 235.293C303.372 235.584 305.569 235.87 307.627 234.944C311.749 233.088 327.962 230.843 330.276 242.733C330.565 244.217 330.401 246.025 329.795 247.529C315.222 246.534 305.816 246.672 291.17 247.473Z" fill="white"/>
<path d="M292.386 236.848L292.068 236.462V236.462L292.386 236.848ZM291.17 247.473L291.197 247.973L290.883 247.99L290.731 247.714L291.17 247.473ZM301.137 235.293L301.202 234.797L301.137 235.293ZM307.627 234.944L307.832 235.4V235.4L307.627 234.944ZM330.276 242.733L330.767 242.637L330.276 242.733ZM329.795 247.529L330.259 247.716L330.123 248.052L329.761 248.028L329.795 247.529ZM292.704 237.234C291.545 238.187 290.816 239.863 290.614 241.758C290.413 243.644 290.745 245.662 291.608 247.233L290.731 247.714C289.755 245.938 289.401 243.708 289.62 241.651C289.839 239.602 290.638 237.639 292.068 236.462L292.704 237.234ZM301.073 235.789C298.123 235.405 295.344 235.062 292.704 237.234L292.068 236.462C295.082 233.983 298.291 234.419 301.202 234.797L301.073 235.789ZM307.832 235.4C305.623 236.394 303.28 236.076 301.073 235.789L301.202 234.797C303.463 235.092 305.514 235.346 307.422 234.488L307.832 235.4ZM329.785 242.828C329.231 239.978 327.852 237.997 326.041 236.639C324.219 235.272 321.935 234.518 319.559 234.179C314.79 233.498 309.802 234.513 307.832 235.4L307.422 234.488C309.574 233.519 314.754 232.483 319.7 233.189C322.182 233.543 324.643 234.34 326.641 235.839C328.649 237.346 330.165 239.543 330.767 242.637L329.785 242.828ZM329.331 247.342C329.902 245.926 330.055 244.217 329.785 242.828L330.767 242.637C331.074 244.218 330.9 246.123 330.259 247.716L329.331 247.342ZM329.761 248.028C315.213 247.035 305.828 247.172 291.197 247.973L291.142 246.974C305.803 246.172 315.23 246.034 329.829 247.03L329.761 248.028Z" fill="#11269C"/>
<mask id="path-17-inside-2" fill="white">
<path fill-rule="evenodd" clip-rule="evenodd" d="M307.898 222.334C306.222 221.634 304.209 221.106 302.247 220.722C300.656 226.926 297.211 232.675 293.467 237.647L298.159 241.18C302.004 236.074 305.989 229.62 307.898 222.334Z"/>
</mask>
<path fill-rule="evenodd" clip-rule="evenodd" d="M307.898 222.334C306.222 221.634 304.209 221.106 302.247 220.722C300.656 226.926 297.211 232.675 293.467 237.647L298.159 241.18C302.004 236.074 305.989 229.62 307.898 222.334Z" fill="white"/>
<path d="M307.898 222.334L308.866 222.587L309.086 221.746L308.284 221.411L307.898 222.334ZM302.247 220.722L302.439 219.74L301.512 219.559L301.278 220.473L302.247 220.722ZM293.467 237.647L292.668 237.045L292.066 237.844L292.865 238.446L293.467 237.647ZM298.159 241.18L297.557 241.979L298.356 242.58L298.957 241.782L298.159 241.18ZM308.284 221.411C306.521 220.675 304.435 220.131 302.439 219.74L302.054 221.703C303.983 222.08 305.924 222.593 307.513 223.256L308.284 221.411ZM301.278 220.473C299.734 226.496 296.375 232.122 292.668 237.045L294.266 238.248C298.047 233.227 301.579 227.356 303.215 220.97L301.278 220.473ZM292.865 238.446L297.557 241.979L298.76 240.381L294.068 236.848L292.865 238.446ZM298.957 241.782C302.839 236.627 306.909 230.053 308.866 222.587L306.931 222.08C305.068 229.187 301.169 235.52 297.36 240.579L298.957 241.782Z" fill="#11269C" mask="url(#path-17-inside-2)"/>
<path fill-rule="evenodd" clip-rule="evenodd" d="M319.931 233.728C320.314 235.606 320.54 237.535 320.3 239.33C320.116 240.71 319.28 242.226 318.079 241.734C316.624 241.138 315.713 238.67 315.032 236.826C314.931 236.554 314.836 236.295 314.744 236.058C314.585 235.645 314.421 235.229 314.255 234.809C314.093 234.4 313.93 233.987 313.769 233.571C313.597 233.587 313.427 233.604 313.259 233.622C313.458 235.364 313.539 237.179 313.365 238.829C313.265 239.774 313.054 240.943 312.421 241.532C311.385 242.498 310.148 240.533 309.541 239.569C309.506 239.513 309.473 239.461 309.443 239.413C308.581 238.058 307.867 236.612 307.248 235.1C305.3 235.834 303.235 235.565 301.137 235.292C298.207 234.911 295.213 234.521 292.386 236.847C289.797 238.977 289.331 244.126 291.17 247.472C305.816 246.671 315.222 246.533 329.795 247.528C330.401 246.024 330.565 244.216 330.276 242.732C329.143 236.91 324.677 234.477 319.931 233.728Z" fill="white"/>
<path d="M320.3 239.33L319.805 239.264L320.3 239.33ZM319.931 233.728L319.441 233.828L319.296 233.122L320.008 233.234L319.931 233.728ZM318.079 241.734L318.269 241.272H318.269L318.079 241.734ZM315.032 236.826L314.563 236.999V236.999L315.032 236.826ZM314.744 236.058L314.278 236.238L314.278 236.238L314.744 236.058ZM314.255 234.809L313.79 234.993V234.993L314.255 234.809ZM313.769 233.571L313.724 233.073L314.099 233.039L314.235 233.391L313.769 233.571ZM313.259 233.622L312.762 233.679L312.705 233.18L313.204 233.125L313.259 233.622ZM313.365 238.829L312.868 238.776V238.776L313.365 238.829ZM312.421 241.532L312.762 241.898V241.898L312.421 241.532ZM309.541 239.569L309.964 239.302L309.541 239.569ZM309.443 239.413L309.021 239.681L309.021 239.681L309.443 239.413ZM307.248 235.1L307.071 234.632L307.526 234.46L307.71 234.91L307.248 235.1ZM301.137 235.292L301.202 234.797L301.137 235.292ZM292.386 236.847L292.069 236.461V236.461L292.386 236.847ZM291.17 247.472L291.197 247.971L290.883 247.989L290.731 247.713L291.17 247.472ZM329.795 247.528L330.259 247.714L330.124 248.051L329.761 248.026L329.795 247.528ZM330.276 242.732L330.767 242.636L330.276 242.732ZM319.805 239.264C320.034 237.55 319.82 235.685 319.441 233.828L320.42 233.628C320.808 235.527 321.047 237.52 320.796 239.397L319.805 239.264ZM318.269 241.272C318.457 241.349 318.604 241.34 318.73 241.293C318.87 241.24 319.023 241.124 319.177 240.927C319.489 240.527 319.72 239.895 319.805 239.264L320.796 239.397C320.696 240.146 320.418 240.962 319.965 241.542C319.737 241.834 319.445 242.092 319.084 242.228C318.71 242.369 318.302 242.366 317.89 242.197L318.269 241.272ZM315.501 236.653C315.844 237.581 316.23 238.626 316.706 239.512C317.192 240.418 317.713 241.044 318.269 241.272L317.89 242.197C316.99 241.828 316.328 240.922 315.825 239.984C315.31 239.026 314.901 237.915 314.563 236.999L315.501 236.653ZM315.211 235.878C315.304 236.119 315.401 236.381 315.501 236.653L314.563 236.999C314.462 236.726 314.368 236.471 314.278 236.238L315.211 235.878ZM314.72 234.626C314.885 235.045 315.051 235.463 315.211 235.878L314.278 236.238C314.119 235.827 313.956 235.413 313.79 234.993L314.72 234.626ZM314.235 233.391C314.395 233.805 314.558 234.216 314.72 234.626L313.79 234.993C313.628 234.584 313.464 234.169 313.303 233.752L314.235 233.391ZM313.204 233.125C313.376 233.107 313.549 233.089 313.724 233.073L313.814 234.069C313.646 234.085 313.478 234.101 313.313 234.119L313.204 233.125ZM312.868 238.776C313.037 237.176 312.959 235.401 312.762 233.679L313.755 233.566C313.957 235.328 314.042 237.181 313.862 238.881L312.868 238.776ZM312.08 241.166C312.302 240.959 312.48 240.619 312.614 240.171C312.745 239.731 312.819 239.238 312.868 238.776L313.862 238.881C313.811 239.365 313.73 239.929 313.572 240.457C313.417 240.977 313.173 241.515 312.762 241.898L312.08 241.166ZM309.964 239.302C310.275 239.797 310.704 240.472 311.165 240.913C311.398 241.134 311.59 241.248 311.733 241.282C311.837 241.306 311.939 241.298 312.08 241.166L312.762 241.898C312.386 242.249 311.945 242.358 311.506 242.255C311.107 242.162 310.758 241.906 310.475 241.636C309.907 241.094 309.414 240.305 309.118 239.835L309.964 239.302ZM309.865 239.144C309.896 239.194 309.929 239.247 309.964 239.302L309.118 239.835C309.083 239.779 309.051 239.728 309.021 239.681L309.865 239.144ZM307.71 234.91C308.321 236.401 309.022 237.82 309.865 239.144L309.021 239.681C308.14 238.296 307.413 236.822 306.785 235.289L307.71 234.91ZM301.202 234.797C303.324 235.073 305.26 235.315 307.071 234.632L307.424 235.567C305.339 236.354 303.146 236.058 301.073 235.788L301.202 234.797ZM292.069 236.461C295.082 233.982 298.291 234.418 301.202 234.797L301.073 235.788C298.123 235.404 295.345 235.061 292.704 237.233L292.069 236.461ZM290.731 247.713C289.756 245.936 289.401 243.707 289.62 241.65C289.839 239.601 290.638 237.638 292.069 236.461L292.704 237.233C291.545 238.187 290.817 239.862 290.615 241.756C290.413 243.643 290.745 245.661 291.608 247.231L290.731 247.713ZM329.761 248.026C315.214 247.034 305.829 247.171 291.197 247.971L291.142 246.973C305.803 246.171 315.23 246.033 329.83 247.029L329.761 248.026ZM330.767 242.636C331.075 244.217 330.9 246.122 330.259 247.714L329.332 247.341C329.902 245.925 330.056 244.216 329.785 242.828L330.767 242.636ZM320.008 233.234C322.436 233.617 324.826 234.435 326.764 235.932C328.712 237.436 330.177 239.607 330.767 242.636L329.785 242.828C329.242 240.035 327.908 238.078 326.153 236.723C324.388 235.36 322.172 234.588 319.853 234.222L320.008 233.234Z" fill="#11269C"/>
<path d="M285.057 46.7612L264.022 85.5599C262.817 87.6482 265.75 88.8681 267.013 87.1492L291.321 52.0902L285.057 46.7612Z" fill="#FF94B8"/>
<path d="M274.773 64.1504C278.513 64.5992 280.794 69.6828 281.037 73.1256C281.28 76.5683 280.925 80.0813 275.989 82.4746C271.052 84.868 269.319 80.2309 269.07 77.6131L265.705 82.4746C260.619 77.9123 264.146 75.6169 266.546 75.0396C264.153 70.7369 267.917 69.6024 270.099 69.5729C268.79 67.5161 270.099 63.5895 274.773 64.1504Z" fill="white" stroke="#11269C"/>
<path d="M282.282 76.3139C283.95 77.848 283.988 81.1306 281.919 83.3803C279.849 85.6314 276.784 85.8161 275.185 84.3459C273.325 82.6351 273.442 79.7168 275.521 77.4557C277.617 75.176 280.639 74.8027 282.282 76.3139Z" fill="white" stroke="#11269C"/>
<path fill-rule="evenodd" clip-rule="evenodd" d="M276.83 80.1605C277.183 78.5775 278.752 77.5804 280.335 77.9333C285.344 79.0501 293.508 82.8679 300.199 89.7708C306.979 96.7639 312.314 107.006 311.246 120.791C309.953 137.485 303.09 147.914 295.188 153.639C291.273 156.475 287.144 158.124 283.408 158.804C279.75 159.471 276.183 159.255 273.552 157.992C272.09 157.29 271.474 155.536 272.175 154.073C272.877 152.611 274.632 151.995 276.094 152.697C277.223 153.239 279.415 153.562 282.356 153.026C285.219 152.504 288.531 151.209 291.742 148.883C298.089 144.284 304.214 135.519 305.39 120.337C306.308 108.491 301.784 99.844 295.982 93.8589C290.093 87.7837 282.953 84.5346 279.057 83.666C277.474 83.313 276.477 81.7436 276.83 80.1605Z" fill="#11269C"/>
<path d="M265.94 136.937C266.984 137.311 268.134 136.768 268.508 135.724C268.882 134.68 268.339 133.531 267.295 133.157C266.251 132.783 265.101 133.326 264.727 134.37C264.353 135.414 264.896 136.563 265.94 136.937Z" fill="#11269C" stroke="white" stroke-miterlimit="10"/>
<path d="M263.914 131.045C265.436 131.59 267.111 130.798 267.657 129.277C268.202 127.755 267.41 126.08 265.889 125.535C264.367 124.989 262.692 125.781 262.146 127.302C261.601 128.824 262.393 130.5 263.914 131.045Z" fill="white" stroke="#11269C" stroke-miterlimit="10"/>
<path d="M274.48 138.412C276.002 138.957 277.677 138.166 278.222 136.644C278.767 135.122 277.976 133.447 276.454 132.902C274.933 132.357 273.257 133.148 272.712 134.67C272.167 136.191 272.958 137.867 274.48 138.412Z" fill="white" stroke="#11269C" stroke-miterlimit="10"/>
<path d="M271.172 147.784C270.22 148.975 268.317 149.519 265.909 149.211C263.525 148.906 260.767 147.773 258.283 145.787C255.775 143.783 253.916 141.524 253.025 139.371C252.139 137.229 252.223 135.245 253.493 133.656C254.549 132.335 255.724 131.754 256.864 131.624C258.018 131.493 259.19 131.818 260.226 132.402L260.471 131.967L260.226 132.402C260.927 132.798 261.663 133.562 262.473 134.455C262.572 134.565 262.673 134.677 262.774 134.789C263.471 135.563 264.21 136.385 264.966 136.989C265.724 137.595 266.74 138.165 267.723 138.716C267.904 138.817 268.083 138.918 268.259 139.018C269.434 139.685 270.478 140.327 271.093 141.019C271.847 141.868 272.37 142.926 272.458 144.074C272.546 145.213 272.21 146.484 271.172 147.784Z" fill="#11269C" stroke="white"/>
<path d="M257.626 134.512C256.794 135.865 256.371 137.571 257.625 138.794C258.497 139.644 259.81 140.133 261.028 139.919C261.825 139.779 262.519 139.255 263.13 138.754C263.402 138.531 263.644 138.272 263.87 138.002C264.012 137.833 263.99 137.845 263.866 138.017C263.262 138.854 262.76 139.612 262.678 140.69C262.586 141.895 263.804 143.128 264.764 143.682C265.788 144.271 267.194 144.55 268.254 143.845C268.831 143.462 269.155 142.805 269.513 142.241" stroke="white" stroke-linecap="round" stroke-linejoin="round"/>
<path d="M326.303 65.7367L298.194 72.1414C295.419 43.2319 268.895 39.962 255.979 41.9408L254.521 52.1465L231.437 32.221L254.521 7.43555L255.979 17.3983C310.799 4.37381 325.703 44.197 326.303 65.7367Z" fill="#11269C" stroke="#FF94B8"/>
<path fill-rule="evenodd" clip-rule="evenodd" d="M289.934 173.118C292.726 172.439 297.778 171.722 301.956 175.621L300.032 177.682L301.956 175.621C303.995 177.524 304.819 179.835 305.401 181.467C305.476 181.678 305.547 181.877 305.617 182.063C306.238 183.733 306.82 184.895 308.398 185.907C308.738 186.125 309.281 186.289 310.322 186.322C310.834 186.338 311.393 186.321 312.05 186.294C312.171 186.289 312.296 186.283 312.425 186.277C312.964 186.254 313.563 186.228 314.16 186.219C317.234 186.178 321.168 186.599 324.363 190.461C327.1 193.768 328.199 197.032 327.578 200.293C326.996 203.349 324.993 205.793 323.051 207.755C321.956 208.861 320.171 208.87 319.064 207.774C317.958 206.679 317.949 204.894 319.044 203.787C320.832 201.982 321.788 200.554 322.039 199.238C322.251 198.125 322.056 196.517 320.02 194.056C318.442 192.149 316.657 191.825 314.236 191.857C313.734 191.864 313.242 191.886 312.711 191.909C312.572 191.915 312.431 191.921 312.286 191.927C311.615 191.955 310.879 191.98 310.146 191.957C308.698 191.912 306.953 191.678 305.355 190.654C302.244 188.659 301.108 186.114 300.333 184.031C300.246 183.799 300.165 183.578 300.088 183.368C299.46 181.657 299.094 180.663 298.109 179.743C296.124 177.891 293.632 178.021 291.267 178.597C290.917 178.682 290.487 178.885 289.884 179.306C289.435 179.619 289.024 179.951 288.525 180.354C288.304 180.533 288.066 180.725 287.799 180.936C286.23 182.179 283.989 183.814 280.87 183.996C277.576 184.188 275.149 183.607 273.241 182.015C272.363 181.283 271.72 180.437 271.203 179.672C270.944 179.29 270.693 178.893 270.462 178.526L270.455 178.515C270.219 178.141 269.995 177.784 269.752 177.421C268.889 176.126 269.239 174.375 270.534 173.512C271.83 172.648 273.58 172.998 274.444 174.293C274.726 174.717 274.984 175.126 275.212 175.487L275.232 175.519C275.471 175.899 275.673 176.218 275.872 176.511C276.269 177.098 276.565 177.446 276.852 177.685C277.273 178.036 278.08 178.511 280.542 178.367C281.791 178.294 282.841 177.67 284.299 176.516C284.462 176.387 284.64 176.243 284.828 176.091C285.386 175.64 286.035 175.116 286.659 174.68C287.539 174.067 288.628 173.436 289.934 173.118Z" fill="#11269C"/>
<mask id="mask1" mask-type="alpha" maskUnits="userSpaceOnUse" x="36" y="0" width="200" height="199">
<circle cx="135.693" cy="99.3726" r="98.8726" fill="#FF596A" stroke="white"/>
</mask>
<g mask="url(#mask1)">
<circle cx="135.693" cy="99.3726" r="97.8726" fill="white"/>
<circle cx="135.693" cy="99.3726" r="97.8726" fill="#FF94B8"/>
<circle cx="135.693" cy="99.3726" r="97.8726" stroke="#11269C" stroke-width="3"/>
<path d="M120.244 79.1176C127.692 68.7818 130.572 54.1771 130.849 43.7812L136.486 43.9316C136.193 54.9242 133.184 70.8051 124.818 82.414C120.597 88.2717 114.953 93.1185 107.556 95.5925C101.149 97.7357 93.6367 98.0279 84.9137 95.9033C83.2746 99.7876 81.1535 103.934 78.4748 108.347C57.7354 142.515 31.7262 135.14 26.2532 123.268C20.363 110.491 26.6359 103.547 33.4061 96.0534C33.531 95.9153 33.656 95.7771 33.781 95.6388C37.5659 91.4534 41.4038 87.2093 43.3645 81.3724C42.6252 80.9624 41.896 80.5499 41.1786 80.1441L41.1784 80.1439C41.0073 80.0472 40.837 79.9508 40.6673 79.8549C38.9193 78.8672 37.2315 77.9251 35.5099 77.0806C31.623 75.1738 27.641 73.4262 23.6038 71.6664C22.1765 71.0443 21.5238 69.3828 22.146 67.9555C22.7681 66.5282 24.4296 65.8755 25.8569 66.4977C29.8866 68.2542 33.9776 70.0485 37.9932 72.0184C39.8782 72.9431 41.6942 73.9589 43.441 74.9459C43.604 75.038 43.7662 75.1297 43.9279 75.2212L43.9469 75.2319C44.263 75.4107 44.5767 75.5881 44.8889 75.7641C47.9464 65.4041 53.5724 57.0454 61.1207 53.3376L62.7813 45.8255L65.9588 51.6749C68.9183 51.0666 72.1054 51.1177 75.4907 51.948C78.7972 53.1544 82.2509 55.6321 84.91 59.4289L91.7086 56.9685L87.6155 64.5084C90.0973 70.8592 90.5746 79.5149 86.9187 90.584C94.4843 92.3221 100.686 91.9451 105.768 90.2452C111.815 88.2223 116.558 84.2321 120.244 79.1176Z" fill="white" stroke="#11269C" stroke-linecap="round" stroke-linejoin="round"/>
<path d="M64.8132 71.256C63.9565 71.3409 63.1288 71.004 62.5741 70.3445C61.8959 69.5381 61.7306 68.3769 62.1478 67.3489L63.5995 63.7714C63.9041 63.0208 64.4874 62.423 65.2095 62.1215C66.5709 61.5531 68.073 62.1646 68.6525 63.5231C68.8977 64.0979 68.9483 64.7459 68.8041 65.3656L65.763 65.6901L67.9369 67.6044L67.2051 69.4076C66.788 70.4356 65.8608 71.1521 64.8132 71.256Z" fill="#11269C"/>
<path d="M75.2588 75.3995C74.402 75.4845 73.5743 75.1475 73.0197 74.488C72.3415 73.6817 72.1762 72.5204 72.5933 71.4925L74.045 67.915C74.3496 67.1643 74.9329 66.5666 75.655 66.2651C77.0164 65.6966 78.5186 66.3081 79.0981 67.6667C79.3432 68.2414 79.3938 68.8895 79.2497 69.5092L76.2085 69.8336L78.3824 71.748L77.6507 73.5512C77.2336 74.5792 76.3063 75.2957 75.2588 75.3995Z" fill="#11269C"/>
<ellipse rx="1.65787" ry="1.50568" transform="matrix(0.777987 0.628281 -0.685066 0.728481 67.7202 74.0745)" fill="#11269C"/>
<path d="M66.4138 75.057C66.663 75.1796 66.9107 75.3005 67.1563 75.4199L67.1547 75.4236C68.4501 76.0611 69.2683 76.3961 70.8476 76.2497C75.0711 75.8582 79.347 79.3232 75.7689 84.5921C73.6383 87.7296 67.7519 90.0753 61.8517 87.5945L61.8498 87.5989C61.5995 87.4902 61.3496 87.3746 61.1003 87.2521C60.851 87.1295 60.6063 87.0019 60.3663 86.8696L60.3682 86.8652C54.7694 83.6927 52.6435 77.4078 53.5163 73.6519C54.9821 67.3445 60.236 68.5647 62.6884 72.2383C63.6054 73.612 64.3753 74.0578 65.6712 74.6943L65.6728 74.6906C65.9175 74.8122 66.1645 74.9345 66.4138 75.057Z" fill="white" stroke="#11269C"/>
<path d="M61.2322 73.3717C59.6825 72.9006 58.0162 73.5548 57.362 76.1572C56.7473 78.6023 58.1481 82.6611 61.9209 84.6687L61.9196 84.6716C62.0814 84.7553 62.2463 84.8359 62.4144 84.9131C62.5825 84.9904 62.7511 85.0631 62.92 85.1314L62.9213 85.1285C66.9025 86.6845 70.9046 85.1088 72.3675 83.0535C73.9127 80.8827 73.3487 79.2031 72.005 78.3284C71.1948 78.9911 70.4566 79.3678 69.7841 79.4956C69.0068 79.6434 68.361 79.45 67.8507 79.0618C67.0434 78.4476 66.0899 76.9515 66.0899 76.9515C66.0899 76.9515 63.1868 77.4221 62.0097 76.0418C61.3888 75.3139 61.2112 74.2796 61.2322 73.3717Z" fill="#11269C" stroke="#11269C"/>
<path d="M68.7088 82.4296L67.8773 79.0814C68.8187 79.8785 70.0611 79.5593 70.6822 79.3998L68.7088 82.4296Z" fill="white"/>
<path d="M62.0094 79.4018L61.7131 76.2129C62.0381 76.7231 63.1036 77.4882 63.7248 77.3287L62.0094 79.4018Z" fill="white"/>
<path d="M66.5154 90.562L60.6476 90.882L57.0112 87.2153L55.463 92.9557L60.3895 91.8387L63.8969 95.9837L66.5154 90.562Z" fill="#11269C"/>
<path fill-rule="evenodd" clip-rule="evenodd" d="M69.0314 59.6597C67.9553 59.0432 66.7253 59.0659 65.438 59.5451C64.9204 59.7378 64.3446 59.4744 64.152 58.9568C63.9593 58.4392 64.2227 57.8634 64.7403 57.6708C66.3959 57.0544 68.2821 56.9254 70.0257 57.9244C70.8368 58.3891 71.5126 59.0615 71.9864 59.8597C72.4769 60.6861 72.5909 61.5269 72.6843 62.2167C72.6926 62.2777 72.7007 62.3375 72.7089 62.3959C72.7855 62.9429 72.4042 63.4484 71.8572 63.5249C71.3103 63.6015 70.8048 63.2202 70.7282 62.6732C70.7235 62.6392 70.7188 62.6058 70.7142 62.573C70.6069 61.8035 70.5431 61.3465 70.2665 60.8805C69.9658 60.3739 69.5379 59.9499 69.0314 59.6597Z" fill="#11269C"/>
<path fill-rule="evenodd" clip-rule="evenodd" d="M79.4053 63.9398C78.2685 63.4439 77.0483 63.6002 75.8207 64.2165C75.3271 64.4643 74.7261 64.2651 74.4783 63.7715C74.2305 63.2779 74.4298 62.6769 74.9233 62.4291C76.5021 61.6365 78.3631 61.3031 80.205 62.1067C81.0618 62.4805 81.8067 63.0753 82.3645 63.8173C82.9419 64.5855 83.1466 65.409 83.3145 66.0845C83.3294 66.1442 83.3439 66.2027 83.3584 66.26C83.494 66.7954 83.1699 67.3393 82.6345 67.4749C82.0991 67.6105 81.5552 67.2863 81.4196 66.751C81.4112 66.7177 81.4029 66.685 81.3948 66.6528C81.2044 65.8996 81.0914 65.4522 80.7658 65.0191C80.4118 64.5482 79.9403 64.1732 79.4053 63.9398Z" fill="#11269C"/>
<path d="M107.998 44.4355L109.925 56.5659C105.961 61.179 103.566 67.1787 103.566 73.7378C103.566 85.4463 111.199 95.3721 121.76 98.8105C121.18 107.196 120.585 113.453 119.556 113.941C103.116 121.735 91.0435 147.605 91.0435 178.317C91.0435 215.197 108.453 245.095 129.928 245.095C151.404 245.095 168.813 215.197 168.813 178.317C168.813 147.605 156.74 121.735 140.3 113.941C139.272 113.453 138.677 107.196 138.097 98.8105C148.658 95.3721 156.291 85.4463 156.291 73.7378C156.291 67.1787 153.895 61.179 149.932 56.5659L151.859 44.4355L141.357 49.9748C140.973 49.7897 140.584 49.6137 140.19 49.447C137.036 48.1129 133.568 47.3753 129.928 47.3753C125.833 47.3753 121.957 48.3089 118.499 49.9748L107.998 44.4355Z" fill="#11269C"/>
<path d="M123.393 114.259C122.052 117.276 118.551 115.051 116.968 113.561C117.58 115.125 118.436 118.517 116.968 119.568C115.499 120.619 112.99 119.13 111.919 118.254C112.445 119.393 113.475 122.027 113.391 123.457C113.286 125.244 107.19 125.992 105.514 119.846C103.838 113.7 111.66 106.158 116.968 106.018C122.275 105.878 124.478 111.818 123.393 114.259Z" fill="white" stroke="#11269C"/>
<path d="M193.135 37.8744C194.615 38.4032 193.752 47.5259 193.135 52.0212C197.305 51.6635 205.894 51.4007 206.883 53.2111C208.119 55.4741 207.678 63.2214 206.883 65.4288C206.248 67.1947 197.453 66.8337 193.135 66.4325C193.391 69.3943 193.75 75.8302 193.135 77.8786C192.365 80.4393 182.602 80.351 180.971 78.585C179.666 77.1723 180.427 69.8947 180.971 66.4325H167.353C165.37 66.4325 166.031 55.1943 166.427 53.2111C166.745 51.6246 176.255 51.7568 180.971 52.0212C180.53 48.4074 179.702 40.7566 179.913 39.0643C180.178 36.9489 191.284 37.2133 193.135 37.8744Z" fill="white" stroke="#11269C"/>
<path d="M139.994 42.4294C139.994 43.0393 139.832 43.4444 139.58 43.7332C139.321 44.0312 138.922 44.2575 138.357 44.4188C137.205 44.7479 135.581 44.7524 133.668 44.7524C131.776 44.7524 130.197 44.6723 129.074 44.3086C128.52 44.1294 128.112 43.8917 127.833 43.5916C127.561 43.299 127.384 42.9167 127.339 42.3877C127.289 41.785 127.428 41.3952 127.66 41.1195C127.904 40.8298 128.303 40.6035 128.886 40.4409C130.07 40.1107 131.755 40.1064 133.668 40.1064C135.539 40.1064 137.177 40.2628 138.33 40.6648C138.904 40.8649 139.322 41.1138 139.593 41.4022C139.853 41.6789 139.994 42.0086 139.994 42.4294Z" fill="white" stroke="#11269C"/>
<path d="M132.513 28.81C132.648 28.8182 132.781 28.8326 132.911 28.8529C132.505 28.7684 132.113 28.7462 131.766 28.79C130.277 23.7879 129.253 13.1868 133.063 12.9235C136.11 12.7129 136.702 21.2166 136.617 25.4947C137.185 16.4728 141.352 10.6199 143.923 12.1995C145.979 13.4632 143.428 22.6062 141.829 26.9185C143.012 26.6934 144.317 27.3675 145.239 28.81C146.681 31.0668 143.848 37.5365 141.352 39.4671C138.227 41.8845 127.435 42.8522 125.555 36.6461C123.674 30.4399 129.25 28.6114 132.513 28.81Z" fill="white"/>
<path d="M129.253 33.2609H131.573M131.573 33.2609C132.054 34.7654 133.556 37.0833 135.334 35.5177C137.763 33.379 136.013 29.023 132.513 28.81C129.25 28.6114 123.674 30.4399 125.555 36.6461C127.435 42.8522 138.227 41.8845 141.352 39.4671C143.848 37.5365 146.681 31.0668 145.239 28.81C143.797 26.5532 141.415 26.1771 140.036 28.1831C138.657 30.1892 136.651 34.3893 139.409 35.5177C141.616 36.4204 143.337 33.0101 143.923 31.1922C143.138 33.5951 141.016 37.1063 138.575 34.9474C136.78 33.3599 139.845 26.9185 141.829 26.9185C143.428 22.6062 145.979 13.4632 143.923 12.1995C141.352 10.6199 137.185 16.4728 136.617 25.4947C136.702 21.2166 136.11 12.7129 133.063 12.9235C129.253 13.1868 130.277 23.7879 131.766 28.79C133.624 28.5556 136.764 30.2109 136.412 33.1889C136.063 36.1368 133.134 37.725 131.573 33.2609Z" stroke="#11269C"/>
</g>
<path d="M278.604 217.299C276.249 215.062 272.844 213.097 269.318 213.896C263.588 215.193 261.488 221.853 260.059 226.384C259.615 227.791 259.236 228.993 258.833 229.765C258.162 231.051 256.432 232.183 254.592 233.386C251.769 235.232 248.688 237.248 248.773 240.25C248.869 243.597 251.612 247.074 254.299 248.675C253.608 247.175 253.371 245.439 253.703 243.62C254.106 241.414 256.896 240.228 259.493 239.124C261.017 238.477 262.474 237.858 263.343 237.077C265.29 235.33 266.413 232.67 268.61 227.469C269.065 226.391 269.567 225.203 270.131 223.892C272.468 218.465 275.876 217.27 278.604 217.299Z" fill="white" stroke="#11269C"/>
<mask id="mask2" mask-type="alpha" maskUnits="userSpaceOnUse" x="145" y="74" width="119" height="168">
<path d="M242.78 80.8752C245.193 81.1305 247.972 81.4245 250.687 83.007C253.784 84.8127 257.092 88.6066 257.749 97.7084C258.01 101.325 256.556 104.716 253.496 107.954C250.4 111.23 245.785 114.198 240.167 116.774C229.11 121.845 214.831 125.101 202.695 126.435C202.319 124.734 201.964 123.004 201.611 121.287C199.818 112.558 198.093 104.164 194.062 101.477C193.925 101.385 193.783 101.296 193.638 101.209L191.471 93.2632L188.124 99.2884C181.508 98.1072 172.499 99.4766 165.659 104.176L164.538 99.6917L162.117 107.128C160.569 108.696 159.231 110.504 158.183 112.566C151.657 129.376 162.937 172.086 176.647 184.752C173.628 185.245 170.531 185.937 167.536 186.886C159.658 189.383 151.83 193.881 148.608 201.938C142.411 217.431 150.031 231.594 157.198 241.11L161.702 237.718C154.763 228.505 148.821 216.588 153.843 204.032C156.123 198.333 161.929 194.578 169.24 192.261C175.5 190.277 182.388 189.506 187.819 189.336C196.767 189.997 205.21 184.977 211.205 179.624L250.788 238.011L255.455 234.847L215.267 175.569C216.135 174.598 216.899 173.663 217.546 172.799C223.418 164.971 216.677 151.272 208.849 142.357C206.726 139.939 205.243 136.211 204.053 131.956C216.434 130.529 230.987 127.187 242.517 121.899C248.482 119.164 253.81 115.831 257.594 111.827C261.414 107.785 263.778 102.915 263.373 97.3026C262.612 86.762 258.563 81.0721 253.527 78.1359C249.621 75.8587 245.247 75.4319 242.889 75.2018C242.419 75.156 242.03 75.118 241.74 75.0747L240.907 80.6514C241.499 80.7397 242.126 80.806 242.78 80.8752Z" fill="white" stroke="#11269C"/>
</mask>
<g mask="url(#mask2)">
<path d="M242.78 80.8752C245.193 81.1305 247.972 81.4245 250.687 83.007C253.784 84.8127 257.092 88.6066 257.749 97.7084C258.01 101.325 256.556 104.716 253.496 107.954C250.4 111.23 245.785 114.198 240.167 116.774C229.11 121.845 214.831 125.101 202.695 126.435C202.319 124.734 201.964 123.004 201.611 121.287C199.818 112.558 198.093 104.164 194.062 101.477C193.925 101.385 193.783 101.296 193.638 101.209L191.471 93.2632L188.124 99.2884C181.508 98.1072 172.499 99.4766 165.659 104.176L164.538 99.6917L162.117 107.128C160.569 108.696 159.231 110.504 158.183 112.566C151.657 129.376 162.937 172.086 176.647 184.752C173.628 185.245 170.531 185.937 167.536 186.886C159.658 189.383 151.83 193.881 148.608 201.938C142.411 217.431 150.031 231.594 157.198 241.11L161.702 237.718C154.763 228.505 148.821 216.588 153.843 204.032C156.123 198.333 161.929 194.578 169.24 192.261C175.5 190.277 182.388 189.506 187.819 189.336C196.767 189.997 205.21 184.977 211.205 179.624L250.788 238.011L255.455 234.847L215.267 175.569C216.135 174.598 216.899 173.663 217.546 172.799C223.418 164.971 216.677 151.272 208.849 142.357C206.726 139.939 205.243 136.211 204.053 131.956C216.434 130.529 230.987 127.187 242.517 121.899C248.482 119.164 253.81 115.831 257.594 111.827C261.414 107.785 263.778 102.915 263.373 97.3026C262.612 86.762 258.563 81.0721 253.527 78.1359C249.621 75.8587 245.247 75.4319 242.889 75.2018C242.419 75.156 242.03 75.118 241.74 75.0747L240.907 80.6514C241.499 80.7397 242.126 80.806 242.78 80.8752Z" fill="white" stroke="#11269C"/>
<path fill-rule="evenodd" clip-rule="evenodd" d="M172.742 94.4596C173.569 94.7467 174.007 95.6502 173.72 96.4776C172.344 100.445 171.272 103.929 171.009 107.943C170.952 108.817 170.197 109.479 169.323 109.422C168.449 109.364 167.787 108.609 167.844 107.735C168.137 103.27 169.333 99.4461 170.724 95.438C171.011 94.6106 171.914 94.1725 172.742 94.4596Z" fill="#11269C"/>
<path fill-rule="evenodd" clip-rule="evenodd" d="M185.819 92.7719C186.613 93.1401 186.959 94.0828 186.591 94.8775C186.453 95.1742 186.316 95.4677 186.181 95.7584C184.59 99.1674 183.178 102.194 183.068 105.619C183.039 106.494 182.307 107.181 181.431 107.153C180.556 107.125 179.869 106.392 179.898 105.517C180.03 101.407 181.724 97.7929 183.27 94.4919C183.42 94.1731 183.568 93.8571 183.713 93.5439C184.081 92.7493 185.024 92.4036 185.819 92.7719Z" fill="#11269C"/>
<path fill-rule="evenodd" clip-rule="evenodd" d="M181.241 90.2242C181.995 90.6698 182.245 91.6422 181.8 92.3962C178.936 97.2423 177.128 102.35 177.128 107.839C177.128 108.715 176.418 109.425 175.542 109.425C174.666 109.425 173.956 108.715 173.956 107.839C173.956 101.625 176.009 95.9614 179.069 90.7827C179.515 90.0287 180.487 89.7787 181.241 90.2242Z" fill="#11269C"/>
</g>
<path d="M172.093 118.13C171.379 114.888 169.333 112.584 167.521 112.982C165.71 113.381 164.819 116.332 165.533 119.574C166.247 122.816 168.293 125.12 170.105 124.721C171.916 124.323 172.807 121.372 172.093 118.13Z" fill="#11269C"/>
<path d="M172.48 116.597L169.752 119.007L173.316 120.395L172.48 116.597Z" fill="white"/>
<path d="M185.938 115.093C185.225 111.851 183.178 109.546 181.367 109.945C179.555 110.344 178.665 113.295 179.378 116.536C180.092 119.778 182.139 122.083 183.95 121.684C185.762 121.285 186.652 118.334 185.938 115.093Z" fill="#11269C"/>
<path d="M186.322 113.55L183.594 115.961L187.158 117.348L186.322 113.55Z" fill="white"/>
<path d="M186.106 123.355C181.458 127.104 175.689 128.319 168.798 127.001C167.973 126.999 167.164 127.185 166.429 127.545C165.693 127.905 165.051 128.429 164.547 129.081C164.044 129.733 163.692 130.495 163.518 131.312C163.344 132.129 163.352 132.981 163.541 133.806C166.139 147.172 196.599 141.615 193.854 127.419C193.665 126.595 193.3 125.818 192.784 125.146C192.269 124.474 191.616 123.924 190.874 123.535C190.132 123.145 189.319 122.927 188.494 122.896C187.67 122.865 186.854 123.022 186.106 123.355Z" fill="white" stroke="#11269C" stroke-miterlimit="10"/>
<path d="M178.661 127.346C179.757 126.774 180.183 125.421 179.611 124.324C179.039 123.227 177.686 122.802 176.589 123.374C175.492 123.946 175.066 125.299 175.638 126.396C176.211 127.493 177.564 127.919 178.661 127.346Z" fill="#11269C" stroke="#11269C" stroke-miterlimit="10"/>
<path d="M183.994 127.415C180.577 129.803 176.474 130.585 171.685 129.762C169.212 129.764 167.292 131.859 167.718 134.09C169.005 142.567 190.633 138.981 189.275 129.979C188.85 127.748 186.294 126.507 183.994 127.415Z" fill="#11269C" stroke="#11269C" stroke-miterlimit="10"/>
<path d="M169.969 130.187L171.036 134.665C171.066 134.789 171.134 134.899 171.23 134.982C171.326 135.064 171.446 135.113 171.573 135.123C171.699 135.132 171.825 135.102 171.933 135.035C172.04 134.968 172.124 134.869 172.172 134.751L173.75 130.852L174.527 134.679C174.553 134.808 174.62 134.924 174.718 135.01C174.816 135.096 174.94 135.148 175.07 135.157C175.201 135.166 175.33 135.132 175.44 135.061C175.549 134.989 175.632 134.884 175.675 134.761L177.266 130.279L178.813 133.891C178.867 134.015 178.961 134.118 179.08 134.182C179.2 134.246 179.338 134.268 179.471 134.243C179.604 134.219 179.725 134.149 179.814 134.047C179.903 133.944 179.954 133.815 179.96 133.679L180.118 129.7L182.933 133.755C183.007 133.861 183.113 133.941 183.236 133.981C183.359 134.022 183.492 134.021 183.615 133.98C183.738 133.938 183.844 133.858 183.917 133.751C183.99 133.644 184.026 133.516 184.02 133.387L183.8 128.569L185.847 131.409C185.924 131.517 186.035 131.596 186.162 131.633C186.29 131.671 186.426 131.665 186.549 131.617C186.673 131.569 186.776 131.481 186.844 131.367C186.913 131.253 186.941 131.12 186.925 130.988L186.482 127.327" fill="white"/>
<path d="M169.969 130.187L171.036 134.665C171.066 134.789 171.134 134.899 171.23 134.982C171.326 135.064 171.446 135.113 171.573 135.123C171.699 135.132 171.825 135.102 171.933 135.035C172.04 134.968 172.124 134.869 172.172 134.751L173.75 130.852L174.527 134.679C174.553 134.808 174.62 134.924 174.718 135.01C174.816 135.096 174.94 135.148 175.07 135.157C175.201 135.166 175.33 135.132 175.44 135.061C175.549 134.989 175.632 134.884 175.675 134.761L177.266 130.279L178.813 133.891C178.867 134.015 178.961 134.118 179.08 134.182C179.2 134.246 179.338 134.268 179.471 134.243C179.604 134.219 179.725 134.149 179.814 134.047C179.903 133.944 179.954 133.815 179.96 133.679L180.118 129.7L182.933 133.755C183.007 133.861 183.113 133.941 183.236 133.981C183.359 134.022 183.492 134.021 183.615 133.98C183.738 133.938 183.844 133.858 183.917 133.751C183.99 133.644 184.026 133.516 184.02 133.387L183.8 128.569L185.847 131.409C185.924 131.517 186.035 131.596 186.162 131.633C186.29 131.671 186.426 131.665 186.549 131.617C186.673 131.569 186.776 131.481 186.844 131.367C186.913 131.253 186.941 131.12 186.925 130.988L186.482 127.327" stroke="#11269C" stroke-miterlimit="10"/>
<path d="M178.43 128.193C178.753 129.658 177.337 131.215 175.268 131.671C173.199 132.126 171.163 130.87 170.841 129.404" fill="white"/>
<path d="M178.43 128.193C178.753 129.658 177.337 131.215 175.268 131.671C173.199 132.126 171.163 130.87 170.841 129.404" stroke="#11269C" stroke-miterlimit="10" stroke-linecap="round"/>
<path d="M186.039 126.571C186.361 128.036 184.975 129.981 182.905 130.437C180.836 130.892 178.801 129.635 178.478 128.17" fill="white"/>
<path d="M186.039 126.571C186.361 128.036 184.974 129.981 182.905 130.437C180.836 130.892 178.801 129.635 178.478 128.17" stroke="#11269C" stroke-miterlimit="10" stroke-linecap="round"/>
<path d="M233.164 68.9489C234.366 72.8336 237.049 69.0414 238.898 74.8684C239.176 76.8108 239.453 81.3429 238.343 83.9327C236.956 87.17 226.689 86.985 224.285 85.0427C222.361 83.4888 223.483 81.4971 224.285 80.6955C223.545 80.5413 222.065 79.6966 222.065 77.5507C222.065 75.4049 225.703 74.8684 227.522 74.8684C212.353 73.5735 212.076 70.6138 213.185 68.9489C214.073 67.617 223.976 69.5038 228.817 70.6138C227.244 68.3014 229.464 60.6245 233.164 62.2894C236.864 63.9543 231.961 65.0642 233.164 68.9489Z" fill="white" stroke="#11269C"/>
<path d="M243.671 78.8613C243.671 79.7286 243.729 80.5656 243.782 81.328C243.795 81.5049 243.807 81.6777 243.818 81.8461C243.877 82.7578 243.904 83.5219 243.804 84.1453C243.706 84.7552 243.497 85.1714 243.128 85.4509C242.744 85.7411 242.108 85.9457 241.026 85.9457C240.767 85.9457 240.474 85.8212 240.159 85.4997C239.842 85.1765 239.534 84.683 239.264 84.0328C238.726 82.7345 238.381 80.9064 238.381 78.8613C238.381 76.8161 238.726 74.988 239.264 73.6898C239.534 73.0395 239.842 72.5461 240.159 72.2229C240.474 71.9014 240.767 71.7769 241.026 71.7769C241.954 71.7769 242.522 71.9753 242.883 72.2638C243.242 72.55 243.47 72.9817 243.6 73.6013C243.732 74.2281 243.754 74.9964 243.739 75.9003C243.733 76.2328 243.722 76.588 243.71 76.9578C243.691 77.5646 243.671 78.2109 243.671 78.8613Z" fill="white" stroke="#11269C"/>
<path fill-rule="evenodd" clip-rule="evenodd" d="M281.692 221.56C280.984 219.198 275.326 212.536 269.319 213.897C263.589 215.194 261.488 221.854 260.059 226.385C259.616 227.792 259.237 228.994 258.834 229.766C258.163 231.052 256.433 232.184 254.592 233.387C251.77 235.233 248.688 237.249 248.774 240.251C248.915 245.21 254.866 250.453 257.842 249.461C259.064 249.053 263.523 246.496 268.263 242.71C268.26 242.709 268.257 242.708 268.255 242.708L268.348 240.466L270.488 240.817C270.49 240.828 270.492 240.839 270.494 240.85C276.574 235.55 282.362 228.478 281.692 221.56Z" fill="#11269C"/>
<path d="M269.319 213.897L269.429 214.384L269.319 213.897ZM281.692 221.56L282.19 221.511C282.187 221.479 282.181 221.447 282.171 221.416L281.692 221.56ZM260.059 226.385L259.583 226.234L260.059 226.385ZM258.834 229.766L259.277 229.997L258.834 229.766ZM254.592 233.387L254.866 233.806L254.592 233.387ZM248.774 240.251L249.274 240.237L248.774 240.251ZM257.842 249.461L258 249.935L257.842 249.461ZM268.263 242.71L268.575 243.101C268.725 242.981 268.793 242.787 268.751 242.6C268.709 242.414 268.565 242.267 268.378 242.223L268.263 242.71ZM268.255 242.708L267.755 242.687C267.745 242.926 267.906 243.139 268.139 243.194L268.255 242.708ZM268.348 240.466L268.429 239.973C268.288 239.949 268.144 239.988 268.033 240.078C267.922 240.169 267.855 240.302 267.849 240.445L268.348 240.466ZM270.488 240.817L270.98 240.731C270.944 240.522 270.779 240.358 270.569 240.323L270.488 240.817ZM270.494 240.85L270.001 240.935C270.031 241.113 270.156 241.261 270.326 241.321C270.496 241.382 270.686 241.346 270.822 241.227L270.494 240.85ZM269.429 214.384C272.219 213.753 274.981 214.976 277.182 216.724C278.275 217.593 279.208 218.575 279.909 219.481C280.619 220.397 281.062 221.199 281.213 221.703L282.171 221.416C281.968 220.739 281.439 219.823 280.7 218.869C279.954 217.904 278.964 216.863 277.804 215.941C275.497 214.108 272.426 212.681 269.208 213.409L269.429 214.384ZM260.536 226.535C261.254 224.261 262.12 221.519 263.506 219.183C264.888 216.854 266.749 214.991 269.429 214.384L269.208 213.409C266.159 214.1 264.104 216.215 262.646 218.673C261.192 221.124 260.294 223.978 259.583 226.234L260.536 226.535ZM259.277 229.997C259.705 229.176 260.099 227.923 260.536 226.535L259.583 226.234C259.133 227.661 258.768 228.811 258.39 229.535L259.277 229.997ZM254.866 233.806C255.781 233.207 256.695 232.61 257.463 231.999C258.227 231.391 258.893 230.734 259.277 229.997L258.39 229.535C258.104 230.084 257.569 230.636 256.84 231.216C256.115 231.793 255.244 232.364 254.319 232.969L254.866 233.806ZM249.274 240.237C249.236 238.929 249.882 237.8 250.945 236.74C252.015 235.673 253.444 234.736 254.866 233.806L254.319 232.969C252.918 233.885 251.395 234.878 250.239 236.032C249.078 237.19 248.226 238.57 248.274 240.265L249.274 240.237ZM257.684 248.986C257.108 249.178 256.316 249.086 255.391 248.68C254.477 248.279 253.498 247.599 252.592 246.727C250.768 244.972 249.339 242.538 249.274 240.237L248.274 240.265C248.35 242.923 249.968 245.59 251.898 247.448C252.87 248.383 253.945 249.137 254.989 249.595C256.021 250.048 257.088 250.239 258 249.935L257.684 248.986ZM267.951 242.319C265.597 244.199 263.313 245.774 261.468 246.928C259.605 248.093 258.231 248.804 257.684 248.986L258 249.935C258.675 249.71 260.141 248.938 261.998 247.776C263.873 246.603 266.189 245.006 268.575 243.101L267.951 242.319ZM268.139 243.194C268.142 243.195 268.145 243.196 268.148 243.196L268.378 242.223C268.375 242.223 268.373 242.222 268.37 242.221L268.139 243.194ZM267.849 240.445L267.755 242.687L268.754 242.729L268.848 240.487L267.849 240.445ZM270.569 240.323L268.429 239.973L268.267 240.959L270.407 241.31L270.569 240.323ZM270.986 240.765C270.984 240.754 270.982 240.743 270.98 240.731L269.995 240.902C269.997 240.913 269.999 240.924 270.001 240.935L270.986 240.765ZM281.195 221.608C281.514 224.912 280.295 228.296 278.204 231.541C276.115 234.783 273.185 237.84 270.165 240.473L270.822 241.227C273.882 238.56 276.886 235.432 279.044 232.083C281.2 228.737 282.54 225.126 282.19 221.511L281.195 221.608Z" fill="white"/>
<path d="M256.765 235.996L251.508 227.42C252.553 225.822 251.137 224.419 249.708 225.044C248.278 225.67 244.687 228.453 243.972 229.019C243.258 229.585 242.454 230.537 243.347 231.501C244.062 232.271 245.074 231.822 245.492 231.501L251.508 239.8L256.765 235.996Z" fill="white" stroke="#11269C"/>
<path fill-rule="evenodd" clip-rule="evenodd" d="M269.319 213.897C274.403 212.745 279.237 217.34 281.032 220.211C280.133 219.491 279.048 219.276 277.768 219.756C272.676 221.666 269.933 229.5 267.976 235.089L267.976 235.089C267.57 236.251 267.197 237.317 266.844 238.211L270.521 240.826C270.512 240.834 270.503 240.842 270.494 240.85C270.492 240.839 270.49 240.828 270.488 240.817L268.348 240.466L268.255 242.704L264.616 240.014C261.045 241.11 254.201 244.066 255.389 247.121C255.761 248.077 256.139 248.894 256.575 249.549C253.441 249.118 248.897 244.577 248.774 240.251C248.688 237.249 251.77 235.233 254.592 233.387C256.433 232.184 258.163 231.052 258.834 229.766C259.237 228.994 259.616 227.792 260.059 226.385C261.488 221.854 263.589 215.194 269.319 213.897ZM268.263 242.71L268.263 242.71C268.263 242.71 268.263 242.71 268.263 242.71C268.263 242.71 268.263 242.71 268.263 242.71Z" fill="#11269C"/>
<path d="M281.032 220.211L280.719 220.601C280.91 220.754 281.182 220.747 281.364 220.585C281.546 220.423 281.585 220.153 281.456 219.946L281.032 220.211ZM269.319 213.897L269.208 213.409L269.319 213.897ZM277.768 219.756L277.592 219.288L277.768 219.756ZM267.976 235.089L268.448 235.256L268.448 235.254L267.976 235.089ZM267.976 235.089L267.505 234.922L267.505 234.924L267.976 235.089ZM266.844 238.211L266.378 238.028C266.294 238.242 266.366 238.486 266.554 238.619L266.844 238.211ZM270.521 240.826L270.85 241.203C270.965 241.102 271.028 240.954 271.02 240.801C271.013 240.649 270.935 240.508 270.811 240.419L270.521 240.826ZM270.494 240.85L270.001 240.935C270.031 241.113 270.156 241.261 270.326 241.321C270.496 241.382 270.686 241.346 270.822 241.227L270.494 240.85ZM270.488 240.817L270.98 240.731C270.944 240.522 270.779 240.358 270.569 240.323L270.488 240.817ZM268.348 240.466L268.429 239.973C268.288 239.949 268.144 239.988 268.033 240.078C267.922 240.169 267.855 240.302 267.849 240.445L268.348 240.466ZM268.255 242.704L267.958 243.106C268.106 243.216 268.304 243.235 268.471 243.155C268.637 243.075 268.747 242.91 268.754 242.725L268.255 242.704ZM264.616 240.014L264.913 239.612C264.786 239.518 264.621 239.49 264.47 239.536L264.616 240.014ZM255.389 247.121L255.855 246.939L255.389 247.121ZM256.575 249.549L256.507 250.045C256.701 250.071 256.894 249.982 256.998 249.815C257.103 249.649 257.1 249.436 256.991 249.273L256.575 249.549ZM248.774 240.251L249.274 240.237L248.774 240.251ZM254.592 233.387L254.866 233.806L254.592 233.387ZM258.834 229.766L258.39 229.535L258.39 229.535L258.834 229.766ZM260.059 226.385L260.536 226.535L260.059 226.385ZM268.263 242.71L268.379 242.223C268.148 242.168 267.91 242.283 267.809 242.499C267.709 242.714 267.774 242.97 267.965 243.112L268.263 242.71ZM268.263 242.71L267.966 243.112C268.147 243.246 268.397 243.242 268.574 243.102L268.263 242.71ZM268.263 242.71L268.574 243.101C268.724 242.982 268.793 242.788 268.751 242.601C268.71 242.415 268.565 242.268 268.379 242.223L268.263 242.71ZM281.456 219.946C280.523 218.454 278.817 216.534 276.684 215.128C274.552 213.723 271.932 212.792 269.208 213.409L269.429 214.384C271.79 213.85 274.129 214.641 276.134 215.963C278.138 217.284 279.746 219.097 280.608 220.476L281.456 219.946ZM277.944 220.225C279.063 219.805 279.961 219.994 280.719 220.601L281.345 219.821C280.304 218.987 279.034 218.748 277.592 219.288L277.944 220.225ZM268.448 235.254C269.429 232.453 270.592 229.135 272.136 226.281C273.688 223.412 275.573 221.114 277.944 220.225L277.592 219.288C274.871 220.309 272.838 222.882 271.257 225.805C269.668 228.742 268.48 232.136 267.505 234.924L268.448 235.254ZM268.448 235.256L268.448 235.256L267.505 234.922L267.505 234.922L268.448 235.256ZM267.309 238.395C267.666 237.489 268.042 236.414 268.448 235.254L267.505 234.924C267.097 236.089 266.727 237.144 266.378 238.028L267.309 238.395ZM270.811 240.419L267.133 237.804L266.554 238.619L270.231 241.234L270.811 240.419ZM270.822 241.227C270.831 241.219 270.84 241.211 270.85 241.203L270.192 240.45C270.183 240.457 270.174 240.465 270.165 240.473L270.822 241.227ZM270.986 240.765C270.984 240.754 270.982 240.743 270.98 240.731L269.995 240.902C269.997 240.913 269.999 240.924 270.001 240.935L270.986 240.765ZM270.569 240.323L268.429 239.973L268.267 240.959L270.407 241.31L270.569 240.323ZM267.849 240.445L267.755 242.683L268.754 242.725L268.848 240.487L267.849 240.445ZM264.319 240.417L267.958 243.106L268.552 242.302L264.913 239.612L264.319 240.417ZM255.855 246.939C255.64 246.388 255.762 245.81 256.231 245.171C256.706 244.522 257.501 243.872 258.483 243.257C260.442 242.031 263.001 241.033 264.763 240.492L264.47 239.536C262.661 240.092 260.012 241.12 257.953 242.409C256.926 243.052 256.009 243.782 255.424 244.58C254.831 245.389 254.543 246.326 254.923 247.302L255.855 246.939ZM256.991 249.273C256.585 248.661 256.222 247.883 255.855 246.939L254.923 247.302C255.3 248.271 255.694 249.127 256.158 249.826L256.991 249.273ZM248.274 240.265C248.34 242.587 249.583 244.912 251.172 246.694C252.754 248.466 254.773 249.806 256.507 250.045L256.643 249.054C255.243 248.861 253.424 247.715 251.919 246.028C250.421 244.349 249.331 242.241 249.274 240.237L248.274 240.265ZM254.319 232.969C252.918 233.885 251.395 234.878 250.239 236.032C249.078 237.19 248.226 238.57 248.274 240.265L249.274 240.237C249.236 238.929 249.882 237.8 250.945 236.74C252.015 235.673 253.444 234.736 254.866 233.806L254.319 232.969ZM258.39 229.535C258.104 230.084 257.569 230.636 256.84 231.216C256.115 231.793 255.244 232.364 254.319 232.969L254.866 233.806C255.781 233.207 256.695 232.61 257.463 231.999C258.227 231.391 258.893 230.734 259.277 229.997L258.39 229.535ZM259.583 226.234C259.133 227.661 258.768 228.811 258.39 229.535L259.277 229.997C259.705 229.176 260.099 227.923 260.536 226.535L259.583 226.234ZM269.208 213.409C266.159 214.1 264.104 216.215 262.646 218.673C261.192 221.124 260.294 223.978 259.583 226.234L260.536 226.535C261.254 224.261 262.12 221.519 263.506 219.183C264.888 216.854 266.749 214.991 269.429 214.384L269.208 213.409ZM267.965 243.112L267.966 243.112L268.561 242.308L268.56 242.308L267.965 243.112ZM268.574 243.102L268.574 243.101L267.952 242.318L267.952 242.318L268.574 243.102ZM268.147 243.196H268.147C268.147 243.196 268.147 243.196 268.147 243.196C268.147 243.196 268.147 243.196 268.147 243.196H268.147C268.147 243.196 268.147 243.196 268.147 243.196C268.147 243.196 268.147 243.196 268.147 243.196L268.147 243.196C268.147 243.196 268.147 243.196 268.147 243.196C268.147 243.196 268.147 243.196 268.147 243.196H268.147C268.147 243.196 268.147 243.196 268.147 243.196H268.147C268.147 243.196 268.147 243.196 268.147 243.196C268.147 243.196 268.147 243.196 268.147 243.196H268.147C268.147 243.196 268.147 243.196 268.147 243.196C268.147 243.196 268.147 243.196 268.147 243.196C268.147 243.196 268.147 243.196 268.147 243.196H268.147C268.147 243.196 268.147 243.196 268.147 243.196C268.147 243.196 268.147 243.196 268.147 243.196C268.147 243.196 268.147 243.196 268.147 243.196C268.147 243.196 268.147 243.196 268.147 243.196H268.147C268.147 243.196 268.147 243.196 268.147 243.196C268.147 243.196 268.147 243.196 268.147 243.196C268.147 243.196 268.147 243.196 268.147 243.196H268.147C268.147 243.196 268.147 243.196 268.147 243.196C268.147 243.196 268.147 243.196 268.147 243.196C268.147 243.196 268.147 243.196 268.147 243.196C268.147 243.196 268.147 243.196 268.147 243.196H268.147C268.147 243.196 268.147 243.196 268.147 243.196C268.147 243.196 268.147 243.196 268.147 243.196H268.147C268.147 243.196 268.147 243.196 268.147 243.196H268.147V243.196C268.147 243.196 268.147 243.196 268.147 243.196C268.147 243.196 268.147 243.196 268.147 243.196H268.147C268.147 243.196 268.147 243.196 268.147 243.196C268.147 243.196 268.147 243.196 268.147 243.196H268.147C268.147 243.196 268.147 243.196 268.147 243.196H268.147C268.147 243.196 268.147 243.196 268.147 243.196C268.147 243.196 268.147 243.196 268.147 243.196H268.147C268.147 243.196 268.147 243.196 268.147 243.196C268.147 243.196 268.147 243.196 268.147 243.196H268.147C268.147 243.196 268.147 243.196 268.147 243.196H268.147C268.147 243.196 268.147 243.196 268.147 243.196C268.147 243.196 268.147 243.196 268.147 243.196H268.147C268.147 243.196 268.147 243.196 268.147 243.196C268.147 243.196 268.147 243.196 268.147 243.196V243.196H268.147C268.147 243.196 268.147 243.196 268.147 243.196H268.147C268.147 243.196 268.147 243.196 268.147 243.196C268.147 243.196 268.147 243.196 268.147 243.196H268.147C268.147 243.196 268.147 243.196 268.147 243.196C268.147 243.196 268.147 243.196 268.147 243.196C268.147 243.196 268.147 243.196 268.147 243.196C268.147 243.196 268.147 243.196 268.147 243.196H268.147C268.147 243.196 268.147 243.196 268.147 243.196C268.147 243.196 268.147 243.196 268.147 243.196C268.147 243.196 268.147 243.196 268.147 243.196H268.147C268.147 243.196 268.147 243.196 268.147 243.196C268.147 243.196 268.147 243.196 268.147 243.196C268.147 243.196 268.147 243.196 268.147 243.196C268.147 243.196 268.147 243.196 268.147 243.196H268.147C268.147 243.196 268.147 243.196 268.147 243.196C268.147 243.196 268.147 243.196 268.147 243.196C268.147 243.196 268.147 243.196 268.147 243.196H268.147C268.147 243.196 268.147 243.196 268.147 243.196C268.147 243.196 268.147 243.196 268.147 243.196H268.147V243.196C268.147 243.196 268.147 243.196 268.147 243.196C268.147 243.196 268.147 243.196 268.147 243.196C268.147 243.196 268.147 243.196 268.147 243.196C268.147 243.196 268.147 243.196 268.147 243.196L268.147 243.196C268.147 243.196 268.147 243.196 268.147 243.196C268.147 243.196 268.147 243.196 268.147 243.196H268.147C268.147 243.196 268.147 243.196 268.147 243.196C268.147 243.196 268.147 243.196 268.147 243.196C268.147 243.196 268.147 243.196 268.147 243.196C268.147 243.196 268.147 243.196 268.147 243.196H268.147C268.147 243.196 268.147 243.196 268.147 243.196C268.147 243.196 268.147 243.196 268.147 243.196C268.147 243.196 268.147 243.196 268.147 243.196H268.147C268.147 243.196 268.147 243.196 268.147 243.196C268.147 243.196 268.147 243.196 268.147 243.196C268.147 243.196 268.147 243.196 268.147 243.196C268.147 243.196 268.147 243.196 268.147 243.196H268.147V243.196C268.147 243.196 268.147 243.196 268.147 243.196C268.147 243.196 268.147 243.196 268.147 243.196H268.147C268.147 243.196 268.147 243.196 268.147 243.196C268.147 243.196 268.147 243.196 268.147 243.196C268.147 243.196 268.147 243.196 268.147 243.196C268.147 243.196 268.147 243.196 268.147 243.196H268.147C268.147 243.196 268.147 243.196 268.147 243.196C268.147 243.196 268.147 243.196 268.147 243.196H268.147C268.147 243.196 268.147 243.196 268.147 243.196C268.147 243.196 268.147 243.196 268.147 243.196C268.147 243.196 268.147 243.196 268.147 243.196C268.147 243.196 268.147 243.196 268.147 243.196C268.147 243.196 268.147 243.196 268.147 243.196H268.147C268.147 243.196 268.147 243.196 268.147 243.196C268.147 243.196 268.147 243.196 268.147 243.196H268.147C268.147 243.196 268.147 243.196 268.147 243.196C268.147 243.196 268.147 243.196 268.147 243.196C268.147 243.196 268.147 243.196 268.147 243.196C268.147 243.196 268.147 243.196 268.147 243.196C268.147 243.196 268.147 243.196 268.147 243.196H268.147C268.147 243.196 268.147 243.196 268.147 243.196C268.147 243.196 268.147 243.196 268.147 243.196H268.147C268.147 243.196 268.147 243.196 268.147 243.196C268.147 243.196 268.147 243.196 268.147 243.196C268.147 243.196 268.147 243.196 268.147 243.196C268.147 243.196 268.147 243.196 268.147 243.196H268.147C268.147 243.196 268.147 243.196 268.147 243.196C268.147 243.196 268.147 243.196 268.147 243.196C268.147 243.196 268.147 243.196 268.147 243.196H268.147C268.147 243.196 268.147 243.196 268.147 243.196C268.147 243.196 268.147 243.196 268.147 243.196C268.147 243.196 268.147 243.196 268.147 243.196C268.147 243.196 268.147 243.196 268.147 243.196H268.147C268.147 243.196 268.147 243.196 268.147 243.196C268.147 243.196 268.147 243.196 268.147 243.196C268.147 243.196 268.147 243.196 268.147 243.196H268.147C268.147 243.196 268.147 243.196 268.147 243.196C268.147 243.196 268.147 243.196 268.147 243.196C268.147 243.196 268.147 243.196 268.147 243.196C268.147 243.196 268.147 243.196 268.147 243.196H268.147C268.147 243.196 268.147 243.196 268.147 243.196C268.147 243.196 268.147 243.196 268.147 243.196L268.147 243.196C268.147 243.196 268.147 243.196 268.147 243.196C268.147 243.196 268.147 243.196 268.147 243.196C268.147 243.196 268.147 243.196 268.147 243.196C268.147 243.196 268.147 243.196 268.147 243.196V243.196H268.147C268.147 243.196 268.147 243.196 268.147 243.196C268.147 243.196 268.147 243.196 268.147 243.196H268.147C268.147 243.196 268.147 243.196 268.147 243.196C268.147 243.196 268.147 243.196 268.147 243.196C268.147 243.196 268.147 243.196 268.147 243.196C268.147 243.196 268.147 243.196 268.147 243.196C268.147 243.196 268.147 243.196 268.147 243.196C268.147 243.196 268.147 243.196 268.147 243.196C268.147 243.196 268.147 243.196 268.147 243.196C268.147 243.196 268.147 243.196 268.147 243.196H268.147C268.147 243.196 268.147 243.196 268.147 243.196C268.147 243.196 268.147 243.196 268.147 243.196C268.147 243.196 268.147 243.196 268.147 243.196C268.147 243.196 268.147 243.196 268.147 243.196C268.147 243.196 268.147 243.196 268.147 243.196C268.147 243.196 268.147 243.196 268.147 243.196C268.147 243.196 268.147 243.196 268.147 243.196C268.147 243.196 268.147 243.196 268.147 243.196H268.147C268.147 243.196 268.147 243.196 268.147 243.196C268.147 243.196 268.147 243.196 268.147 243.196C268.147 243.196 268.147 243.196 268.147 243.196C268.147 243.196 268.147 243.196 268.147 243.196H268.147V243.196C268.147 243.196 268.147 243.196 268.147 243.196C268.147 243.196 268.147 243.196 268.147 243.196H268.147C268.147 243.196 268.147 243.196 268.147 243.196C268.147 243.196 268.147 243.196 268.147 243.196H268.147C268.147 243.196 268.147 243.196 268.147 243.196H268.147C268.147 243.196 268.147 243.196 268.147 243.196C268.147 243.196 268.147 243.196 268.147 243.196H268.147C268.147 243.196 268.147 243.196 268.147 243.196C268.147 243.196 268.147 243.196 268.147 243.196H268.147C268.147 243.196 268.147 243.196 268.147 243.196H268.147C268.147 243.196 268.147 243.196 268.147 243.196C268.147 243.196 268.147 243.196 268.147 243.196H268.147C268.147 243.196 268.147 243.196 268.147 243.196C268.147 243.196 268.147 243.196 268.147 243.196V243.196H268.147C268.147 243.196 268.147 243.196 268.147 243.196H268.147C268.147 243.196 268.147 243.196 268.147 243.196C268.147 243.196 268.147 243.196 268.147 243.196H268.147C268.147 243.196 268.147 243.196 268.147 243.196C268.147 243.196 268.147 243.196 268.147 243.196C268.147 243.196 268.147 243.196 268.147 243.196C268.147 243.196 268.147 243.196 268.147 243.196H268.147C268.147 243.196 268.147 243.196 268.147 243.196C268.147 243.196 268.147 243.196 268.147 243.196H268.147C268.147 243.196 268.147 243.196 268.147 243.196C268.147 243.196 268.147 243.196 268.147 243.196C268.147 243.196 268.147 243.196 268.147 243.196C268.147 243.196 268.147 243.196 268.147 243.196H268.147C268.147 243.196 268.147 243.196 268.147 243.196C268.147 243.196 268.147 243.196 268.147 243.196V243.196H268.147C268.147 243.196 268.147 243.196 268.147 243.196C268.147 243.196 268.147 243.196 268.147 243.196H268.147C268.147 243.196 268.147 243.196 268.147 243.196H268.147C268.147 243.196 268.147 243.196 268.147 243.196C268.147 243.196 268.147 243.196 268.147 243.196C268.147 243.196 268.147 243.196 268.147 243.196C268.147 243.196 268.147 243.196 268.147 243.196C268.147 243.196 268.147 243.196 268.147 243.196H268.147C268.147 243.196 268.147 243.196 268.147 243.196C268.147 243.196 268.147 243.196 268.147 243.196H268.147C268.147 243.196 268.147 243.196 268.147 243.196C268.147 243.196 268.147 243.196 268.147 243.196C268.147 243.196 268.147 243.196 268.147 243.196C268.147 243.196 268.147 243.196 268.147 243.196C268.147 243.196 268.147 243.196 268.147 243.196H268.147C268.147 243.196 268.147 243.196 268.147 243.196C268.147 243.196 268.147 243.196 268.147 243.196H268.147C268.147 243.196 268.147 243.196 268.147 243.196C268.147 243.196 268.147 243.196 268.147 243.196H268.147V243.196C268.147 243.196 268.147 243.196 268.147 243.196C268.147 243.196 268.147 243.196 268.147 243.196H268.147C268.147 243.196 268.147 243.196 268.147 243.196L268.147 243.196C268.147 243.196 268.147 243.196 268.147 243.196C268.147 243.196 268.147 243.196 268.147 243.196H268.147C268.147 243.196 268.147 243.196 268.147 243.196C268.147 243.196 268.147 243.196 268.147 243.196H268.147C268.147 243.196 268.147 243.196 268.147 243.196H268.147C268.147 243.196 268.147 243.196 268.147 243.196C268.147 243.196 268.147 243.196 268.147 243.196C268.147 243.196 268.147 243.196 268.147 243.196H268.147C268.147 243.196 268.147 243.196 268.147 243.196C268.147 243.196 268.147 243.196 268.147 243.196H268.147C268.147 243.196 268.147 243.196 268.147 243.196H268.147C268.147 243.196 268.147 243.196 268.147 243.196C268.147 243.196 268.147 243.196 268.147 243.196C268.147 243.196 268.147 243.196 268.147 243.196H268.147C268.147 243.196 268.147 243.196 268.147 243.196C268.147 243.196 268.147 243.196 268.147 243.196H268.147C268.147 243.196 268.147 243.196 268.147 243.196H268.147C268.147 243.196 268.147 243.196 268.147 243.196C268.147 243.196 268.147 243.196 268.147 243.196H268.147C268.147 243.196 268.147 243.196 268.147 243.196C268.147 243.196 268.147 243.196 268.147 243.196C268.147 243.196 268.147 243.196 268.147 243.196H268.147C268.147 243.196 268.147 243.196 268.147 243.196H268.147C268.147 243.196 268.147 243.196 268.147 243.196C268.147 243.196 268.147 243.196 268.147 243.196H268.147C268.148 243.196 268.148 243.196 268.148 243.196C268.148 243.196 268.148 243.196 268.148 243.196C268.148 243.196 268.148 243.196 268.148 243.196H268.148C268.148 243.196 268.148 243.196 268.148 243.196H268.148C268.148 243.196 268.148 243.196 268.148 243.196C268.148 243.196 268.148 243.196 268.148 243.196H268.148C268.148 243.196 268.148 243.196 268.148 243.196C268.148 243.196 268.148 243.196 268.148 243.196L268.148 243.196C268.148 243.196 268.148 243.196 268.148 243.196H268.148C268.148 243.196 268.148 243.196 268.148 243.196C268.148 243.196 268.148 243.196 268.148 243.196V243.196H268.148C268.148 243.196 268.148 243.196 268.148 243.196C268.148 243.196 268.148 243.196 268.148 243.196H268.148C268.148 243.196 268.148 243.196 268.148 243.196C268.148 243.196 268.148 243.196 268.148 243.196H268.148C268.148 243.196 268.148 243.196 268.148 243.196C268.148 243.196 268.148 243.196 268.148 243.196C268.148 243.196 268.148 243.196 268.148 243.196H268.148C268.148 243.196 268.148 243.196 268.148 243.196C268.148 243.196 268.148 243.196 268.148 243.196L268.379 242.223C268.379 242.223 268.379 242.223 268.379 242.223H268.379C268.379 242.223 268.379 242.223 268.379 242.223C268.379 242.223 268.379 242.223 268.379 242.223L268.379 242.223C268.379 242.223 268.379 242.223 268.379 242.223C268.379 242.223 268.379 242.223 268.379 242.223H268.379C268.379 242.223 268.379 242.223 268.379 242.223H268.379C268.379 242.223 268.379 242.223 268.379 242.223C268.379 242.223 268.379 242.223 268.379 242.223H268.379C268.379 242.223 268.379 242.223 268.379 242.223C268.379 242.223 268.379 242.223 268.379 242.223C268.379 242.223 268.379 242.223 268.379 242.223H268.379C268.379 242.223 268.379 242.223 268.379 242.223C268.379 242.223 268.379 242.223 268.379 242.223C268.379 242.223 268.379 242.223 268.379 242.223C268.379 242.223 268.379 242.223 268.379 242.223H268.379C268.379 242.223 268.379 242.223 268.379 242.223C268.379 242.223 268.379 242.223 268.379 242.223C268.379 242.223 268.379 242.223 268.379 242.223H268.379C268.379 242.223 268.379 242.223 268.379 242.223C268.379 242.223 268.379 242.223 268.379 242.223C268.379 242.223 268.379 242.223 268.379 242.223C268.379 242.223 268.379 242.223 268.379 242.223H268.379C268.379 242.223 268.379 242.223 268.379 242.223C268.379 242.223 268.379 242.223 268.379 242.223H268.379C268.379 242.223 268.379 242.223 268.379 242.223H268.379V242.223C268.379 242.223 268.379 242.223 268.379 242.223C268.379 242.223 268.379 242.223 268.379 242.223H268.379C268.379 242.223 268.379 242.223 268.379 242.223C268.379 242.223 268.379 242.223 268.379 242.223H268.379C268.379 242.223 268.379 242.223 268.379 242.223H268.379C268.379 242.223 268.379 242.223 268.379 242.223C268.379 242.223 268.379 242.223 268.379 242.223H268.379C268.379 242.223 268.379 242.223 268.379 242.223C268.379 242.223 268.379 242.223 268.379 242.223H268.379C268.379 242.223 268.379 242.223 268.379 242.223H268.379C268.379 242.223 268.379 242.223 268.379 242.223C268.379 242.223 268.379 242.223 268.379 242.223H268.379C268.379 242.223 268.379 242.223 268.379 242.223C268.379 242.223 268.379 242.223 268.379 242.223V242.223H268.379C268.379 242.223 268.379 242.223 268.379 242.223H268.379C268.379 242.223 268.379 242.223 268.379 242.223C268.379 242.223 268.379 242.223 268.379 242.223H268.379C268.379 242.223 268.379 242.223 268.379 242.223C268.379 242.223 268.379 242.223 268.379 242.223C268.379 242.223 268.379 242.223 268.379 242.223C268.379 242.223 268.379 242.223 268.379 242.223C268.379 242.223 268.379 242.223 268.379 242.223C268.379 242.223 268.379 242.223 268.379 242.223C268.379 242.223 268.379 242.223 268.379 242.223H268.379C268.379 242.223 268.379 242.223 268.379 242.223C268.379 242.223 268.379 242.223 268.379 242.223C268.379 242.223 268.379 242.223 268.379 242.223C268.379 242.223 268.379 242.223 268.379 242.223C268.379 242.223 268.379 242.223 268.379 242.223C268.379 242.223 268.379 242.223 268.379 242.223C268.379 242.223 268.379 242.223 268.379 242.223V242.223H268.379C268.379 242.223 268.379 242.223 268.379 242.223C268.379 242.223 268.379 242.223 268.379 242.223H268.379V242.223C268.379 242.223 268.379 242.223 268.379 242.223C268.379 242.223 268.379 242.223 268.379 242.223C268.379 242.223 268.379 242.223 268.379 242.223C268.379 242.223 268.379 242.223 268.379 242.223C268.379 242.223 268.379 242.223 268.379 242.223C268.379 242.223 268.379 242.223 268.379 242.223C268.379 242.223 268.379 242.223 268.379 242.223H268.379C268.379 242.223 268.379 242.223 268.379 242.223C268.379 242.223 268.379 242.223 268.379 242.223C268.379 242.223 268.379 242.223 268.379 242.223C268.379 242.223 268.379 242.223 268.379 242.223C268.379 242.223 268.379 242.223 268.379 242.223C268.379 242.223 268.379 242.223 268.379 242.223C268.379 242.223 268.379 242.223 268.379 242.223H268.379C268.379 242.223 268.379 242.223 268.379 242.223C268.379 242.223 268.379 242.223 268.379 242.223C268.379 242.223 268.379 242.223 268.379 242.223C268.379 242.223 268.379 242.223 268.379 242.223H268.379V242.223C268.379 242.223 268.379 242.223 268.379 242.223C268.379 242.223 268.379 242.223 268.379 242.223H268.379C268.379 242.223 268.379 242.223 268.379 242.223C268.379 242.223 268.379 242.223 268.379 242.223C268.379 242.223 268.379 242.223 268.379 242.223C268.379 242.223 268.379 242.223 268.379 242.223H268.379C268.379 242.223 268.379 242.223 268.379 242.223C268.379 242.223 268.379 242.223 268.379 242.223H268.379C268.379 242.223 268.379 242.223 268.379 242.223C268.379 242.223 268.379 242.223 268.379 242.223C268.379 242.223 268.379 242.223 268.379 242.223C268.379 242.223 268.379 242.223 268.379 242.223C268.379 242.223 268.379 242.223 268.379 242.223H268.379C268.379 242.223 268.379 242.223 268.379 242.223C268.379 242.223 268.379 242.223 268.379 242.223H268.379C268.379 242.223 268.379 242.223 268.379 242.223C268.379 242.223 268.379 242.223 268.379 242.223C268.379 242.223 268.379 242.223 268.379 242.223C268.379 242.223 268.379 242.223 268.379 242.223C268.379 242.223 268.379 242.223 268.379 242.223H268.379C268.379 242.223 268.379 242.223 268.379 242.223C268.379 242.223 268.379 242.223 268.379 242.223H268.379C268.379 242.223 268.379 242.223 268.379 242.223C268.379 242.223 268.379 242.223 268.379 242.223C268.379 242.223 268.379 242.223 268.379 242.223C268.379 242.223 268.379 242.223 268.379 242.223H268.379C268.379 242.223 268.379 242.223 268.379 242.223C268.379 242.223 268.379 242.223 268.379 242.223C268.379 242.223 268.379 242.223 268.379 242.223H268.379C268.379 242.223 268.379 242.223 268.379 242.223C268.379 242.223 268.379 242.223 268.379 242.223C268.379 242.223 268.379 242.223 268.379 242.223C268.379 242.223 268.379 242.223 268.379 242.223H268.379C268.379 242.223 268.379 242.223 268.379 242.223C268.379 242.223 268.379 242.223 268.379 242.223C268.379 242.223 268.379 242.223 268.379 242.223H268.379C268.379 242.223 268.379 242.223 268.379 242.223C268.379 242.223 268.379 242.223 268.379 242.223C268.379 242.223 268.379 242.223 268.379 242.223C268.379 242.223 268.379 242.223 268.379 242.223H268.379C268.379 242.223 268.379 242.223 268.379 242.223C268.379 242.223 268.379 242.223 268.379 242.223L268.379 242.223C268.379 242.223 268.379 242.223 268.379 242.223C268.379 242.223 268.379 242.223 268.379 242.223C268.379 242.223 268.379 242.223 268.379 242.223C268.379 242.223 268.379 242.223 268.379 242.223C268.379 242.223 268.379 242.223 268.379 242.223H268.379C268.379 242.223 268.379 242.223 268.379 242.223C268.379 242.223 268.379 242.223 268.379 242.223H268.379C268.379 242.223 268.379 242.223 268.379 242.223C268.379 242.223 268.379 242.223 268.379 242.223C268.379 242.223 268.379 242.223 268.379 242.223C268.379 242.223 268.379 242.223 268.379 242.223C268.379 242.223 268.379 242.223 268.379 242.223C268.379 242.223 268.379 242.223 268.379 242.223H268.379C268.379 242.223 268.379 242.223 268.379 242.223C268.379 242.223 268.379 242.223 268.379 242.223H268.379C268.379 242.223 268.379 242.223 268.379 242.223C268.379 242.223 268.379 242.223 268.379 242.223C268.379 242.223 268.379 242.223 268.379 242.223H268.379C268.379 242.223 268.379 242.223 268.379 242.223L268.379 242.223C268.379 242.223 268.379 242.223 268.379 242.223C268.379 242.223 268.379 242.223 268.379 242.223H268.379C268.379 242.223 268.379 242.223 268.379 242.223C268.379 242.223 268.379 242.223 268.379 242.223H268.379C268.379 242.223 268.379 242.223 268.379 242.223H268.379C268.379 242.223 268.379 242.223 268.379 242.223C268.379 242.223 268.379 242.223 268.379 242.223C268.379 242.223 268.379 242.223 268.379 242.223H268.379C268.379 242.223 268.379 242.223 268.379 242.223C268.379 242.223 268.379 242.223 268.379 242.223H268.379C268.379 242.223 268.379 242.223 268.379 242.223H268.379C268.379 242.223 268.379 242.223 268.379 242.223C268.379 242.223 268.379 242.223 268.379 242.223C268.379 242.223 268.379 242.223 268.379 242.223H268.379C268.379 242.223 268.379 242.223 268.379 242.223C268.379 242.223 268.379 242.223 268.379 242.223H268.379C268.379 242.223 268.379 242.223 268.379 242.223H268.379C268.379 242.223 268.379 242.223 268.379 242.223C268.379 242.223 268.379 242.223 268.379 242.223H268.379C268.379 242.223 268.379 242.223 268.379 242.223C268.379 242.223 268.379 242.223 268.379 242.223V242.223H268.379C268.379 242.223 268.379 242.223 268.379 242.223H268.379C268.379 242.223 268.379 242.223 268.379 242.223C268.379 242.223 268.379 242.223 268.379 242.223H268.379C268.379 242.223 268.379 242.223 268.379 242.223C268.379 242.223 268.379 242.223 268.379 242.223C268.379 242.223 268.379 242.223 268.379 242.223C268.379 242.223 268.379 242.223 268.379 242.223H268.379C268.379 242.223 268.379 242.223 268.379 242.223C268.379 242.223 268.379 242.223 268.379 242.223H268.379C268.379 242.223 268.379 242.223 268.379 242.223C268.379 242.223 268.379 242.223 268.379 242.223C268.379 242.223 268.379 242.223 268.379 242.223C268.379 242.223 268.379 242.223 268.379 242.223H268.379C268.379 242.223 268.379 242.223 268.379 242.223C268.379 242.223 268.379 242.223 268.379 242.223V242.223H268.379C268.379 242.223 268.379 242.223 268.379 242.223C268.379 242.223 268.379 242.223 268.379 242.223H268.379C268.379 242.223 268.379 242.223 268.379 242.223H268.379C268.379 242.223 268.379 242.223 268.379 242.223C268.379 242.223 268.379 242.223 268.379 242.223C268.379 242.223 268.379 242.223 268.379 242.223C268.379 242.223 268.379 242.223 268.379 242.223C268.379 242.223 268.379 242.223 268.379 242.223H268.379C268.379 242.223 268.379 242.223 268.379 242.223C268.379 242.223 268.379 242.223 268.379 242.223H268.379C268.379 242.223 268.379 242.223 268.379 242.223C268.379 242.223 268.379 242.223 268.379 242.223C268.379 242.223 268.379 242.223 268.379 242.223C268.379 242.223 268.379 242.223 268.379 242.223C268.379 242.223 268.379 242.223 268.379 242.223H268.379C268.379 242.223 268.379 242.223 268.379 242.223C268.379 242.223 268.379 242.223 268.379 242.223H268.379C268.379 242.223 268.379 242.223 268.379 242.223C268.379 242.223 268.379 242.223 268.379 242.223H268.379V242.223C268.379 242.223 268.379 242.223 268.379 242.223C268.379 242.223 268.379 242.223 268.379 242.223H268.379C268.379 242.223 268.379 242.223 268.379 242.223L268.379 242.223C268.379 242.223 268.379 242.223 268.379 242.223C268.379 242.223 268.379 242.223 268.379 242.223H268.379C268.379 242.223 268.379 242.223 268.379 242.223C268.379 242.223 268.379 242.223 268.379 242.223H268.379C268.379 242.223 268.379 242.223 268.379 242.223C268.379 242.223 268.379 242.223 268.379 242.223C268.379 242.223 268.379 242.223 268.379 242.223C268.379 242.223 268.379 242.223 268.379 242.223H268.379C268.379 242.223 268.379 242.223 268.379 242.223C268.379 242.223 268.379 242.223 268.379 242.223H268.379C268.379 242.223 268.379 242.223 268.379 242.223H268.379V242.223C268.379 242.223 268.379 242.223 268.379 242.223C268.379 242.223 268.379 242.223 268.379 242.223H268.379C268.379 242.223 268.379 242.223 268.379 242.223C268.379 242.223 268.379 242.223 268.379 242.223H268.379C268.379 242.223 268.379 242.223 268.379 242.223H268.379C268.379 242.223 268.379 242.223 268.379 242.223C268.379 242.223 268.379 242.223 268.379 242.223H268.379C268.379 242.223 268.379 242.223 268.379 242.223C268.379 242.223 268.379 242.223 268.379 242.223C268.379 242.223 268.379 242.223 268.379 242.223H268.379C268.379 242.223 268.379 242.223 268.379 242.223H268.379C268.379 242.223 268.379 242.223 268.379 242.223C268.379 242.223 268.379 242.223 268.379 242.223H268.379C268.379 242.223 268.379 242.223 268.379 242.223C268.379 242.223 268.379 242.223 268.379 242.223C268.379 242.223 268.379 242.223 268.379 242.223H268.379C268.379 242.223 268.379 242.223 268.379 242.223H268.379C268.379 242.223 268.379 242.223 268.379 242.223C268.379 242.223 268.379 242.223 268.379 242.223H268.379C268.379 242.223 268.379 242.223 268.379 242.223C268.379 242.223 268.379 242.223 268.379 242.223L268.379 242.223C268.379 242.223 268.379 242.223 268.379 242.223H268.379C268.379 242.223 268.379 242.223 268.379 242.223C268.379 242.223 268.379 242.223 268.379 242.223C268.379 242.223 268.379 242.223 268.379 242.223H268.379C268.379 242.223 268.379 242.223 268.379 242.223C268.379 242.223 268.379 242.223 268.379 242.223H268.379C268.379 242.223 268.379 242.223 268.379 242.223C268.379 242.223 268.379 242.223 268.379 242.223H268.379C268.379 242.223 268.379 242.223 268.379 242.223C268.379 242.223 268.379 242.223 268.379 242.223C268.379 242.223 268.379 242.223 268.379 242.223H268.379C268.379 242.223 268.379 242.223 268.379 242.223C268.379 242.223 268.379 242.223 268.379 242.223H268.379C268.379 242.223 268.379 242.223 268.379 242.223L268.147 243.196Z" fill="white"/>
<path d="M278.604 217.3C276.25 215.063 272.844 213.098 269.319 213.897C263.589 215.194 261.488 221.854 260.059 226.385C259.616 227.792 259.237 228.994 258.834 229.766C258.163 231.052 256.433 232.184 254.592 233.387C251.77 235.233 248.688 237.249 248.774 240.251C248.869 243.598 251.612 247.075 254.3 248.676C253.609 247.176 253.371 245.44 253.703 243.621C254.106 241.415 256.897 240.229 259.494 239.125C261.017 238.478 262.474 237.859 263.343 237.078C265.29 235.331 266.413 232.671 268.61 227.47C269.065 226.392 269.567 225.204 270.131 223.893C272.468 218.466 275.876 217.271 278.604 217.3Z" fill="#11269C" stroke="white" stroke-linecap="round" stroke-linejoin="round"/>
<path d="M264.594 239.99L264.894 237.462L266.837 238.193" stroke="white" stroke-linecap="round" stroke-linejoin="round"/>
<path d="M161.086 236.89L157.08 227.663C158.337 226.226 157.131 224.64 155.629 225.059C154.126 225.478 150.181 227.733 149.394 228.193C148.607 228.653 147.678 229.485 148.428 230.563C149.028 231.426 150.094 231.123 150.552 230.863L155.35 239.922L161.086 236.89Z" fill="white" stroke="#11269C"/>
<path d="M162.876 236.847C166.863 240.127 164.943 247.355 163.484 250.559H152.699L151.318 247.615L149.17 250.559H125.691C116.637 222.091 142.878 232.802 147.635 234.943C152.393 237.085 157.893 232.748 162.876 236.847Z" fill="#11269C" stroke="white"/>
<path d="M124.192 244.52L164.686 246.919" stroke="white"/>
</g>
</svg>
