<!-- prettier-ignore -->
<svg
  width="1440"
  height="323"
  viewBox="0 0 1440 323"
  fill="none"
  xmlns="http://www.w3.org/2000/svg"
>
  <path d="M0 0H1440V323H0V0Z" fill="white" />
  <mask
    id="mask0"
    mask-type="alpha"
    maskUnits="userSpaceOnUse"
    x="0"
    y="25"
    width="1440"
    height="298"
  >
    <rect y="25.001" width="1440" height="297.793" fill="#C4C4C4" />
  </mask>
  <g mask="url(#mask0)">
    <circle cx="321.654" cy="167.828" r="54.5513" fill="white" />
    <circle cx="321.654" cy="167.828" r="54.5513" fill="#FF596A" fill-opacity="0.3" />
    <path
      d="M316.216 258.297C292.235 259.017 267.476 253.299 244 256.252C164.497 246.12 -5.76946 240.147 -50.8095 297.313C-107.11 368.771 1525.59 463.968 1555.91 349.283C1586.22 234.598 1518.18 145.336 1449.35 109.005C1435.08 106.391 1422.21 101.26 1407.33 102.99C1384.36 105.662 1363.12 112.772 1343.52 124.163C1301.44 148.613 1251.13 156.577 1205.92 134.99C1187.27 126.086 1174.44 109.529 1156.55 99.3812C1134.75 87.0201 1112.43 78.957 1087.74 72.6747C1045.16 61.836 1001.66 75.2311 964.846 93.9677C919.666 116.964 877.731 156.694 823.303 158.689C764.619 160.839 708.79 144.8 649.984 153.516C572.674 164.974 503.301 205.129 432.943 234.598C396.865 249.709 355.853 257.106 316.216 258.297Z"
      fill="white"
      stroke="#FF94B8"
      stroke-width="4"
      stroke-linecap="round"
      stroke-linejoin="round"
    />
    <path
      d="M1223.77 267.479C1222.16 267.532 1220.55 267.7 1218.93 267.913C1202.52 270.08 1187.13 280.27 1178.94 266.195C1170.4 251.509 1169.37 232.092 1173.71 213.898C1178.05 195.704 1187.38 178.608 1198.41 163.182C1216.42 138.004 1239.82 116.212 1266.77 104.297C1293.72 92.3812 1324.33 91.1794 1347.72 104.54C1358.13 110.485 1367.14 119.454 1371.35 131.35C1374.83 141.178 1374.62 133.245 1374.63 144.169C1391.83 140 1407.79 150.605 1417.41 164.552C1421.76 170.854 1425.31 178.326 1424.82 186.645C1424.32 194.964 1418.62 204.048 1410.84 205.797C1421.9 214.96 1431.84 227.001 1433.54 242.48C1434.99 255.556 1430.08 269.907 1421.23 280.588C1412.37 291.269 1399.85 298.274 1387.24 300.447C1364.7 304.331 1344.16 293.56 1325.19 283.13C1306.22 272.701 1290.73 267.532 1263.04 266.195L1223.77 267.479Z"
      fill="#11269C"
    />
    <path
      d="M1315.31 218.215C1314.72 219.097 1314.2 220.026 1313.7 220.973C1308.6 230.602 1297.85 235.598 1287.19 234.622C1276.05 233.603 1265.24 226.753 1257.14 217.489C1249.03 208.224 1243.42 196.704 1239.35 184.904C1232.71 165.645 1229.94 144.784 1233.83 125.786C1237.71 106.788 1248.73 89.9107 1264.82 82.4548C1271.98 79.1375 1280.22 77.7261 1288.21 80.0023C1294.81 81.8827 1300.82 86.1181 1306.68 90.2803C1311 79.4637 1322.78 74.9423 1333.93 75.1006C1338.96 75.1721 1344.33 76.1146 1348.6 79.5518C1352.87 82.989 1355.57 89.5083 1353.54 94.3509C1362.68 91.9101 1372.92 91.1723 1381.88 96.1576C1389.44 100.37 1395.27 108.473 1397.62 117.294C1399.98 126.115 1398.96 135.502 1395.32 143.094C1388.81 156.667 1375.2 163.581 1362.37 169.779C1349.55 175.976 1340.87 182.316 1329.59 196.659L1315.31 218.215Z"
      fill="#11269C"
    />
    <path
      d="M1140.8 261.968C1140.76 263.025 1140.79 264.092 1140.86 265.16C1141.53 276.034 1134.96 285.899 1125.34 290.624C1115.31 295.555 1102.51 295.34 1090.77 291.654C1079.02 287.969 1068.23 281.062 1058.61 273.109C1042.91 260.129 1029.68 243.765 1023.09 225.526C1016.51 207.288 1017.13 187.137 1026.97 172.392C1031.35 165.831 1037.66 160.331 1045.66 158.113C1052.27 156.28 1059.61 156.765 1066.78 157.263C1064.83 145.779 1072.53 135.784 1082.13 130.111C1086.46 127.548 1091.53 125.558 1096.97 126.265C1102.41 126.973 1108.11 131.131 1108.9 136.322C1115.43 129.48 1123.79 123.512 1134.03 123.102C1142.68 122.756 1151.87 126.638 1158.48 132.94C1165.08 139.243 1169.11 147.785 1169.95 156.163C1171.47 171.14 1163.45 184.132 1155.73 196.105C1148.01 208.077 1143.91 218.011 1141.76 236.126L1140.8 261.968Z"
      fill="#11269C"
    />
    <ellipse cx="233.951" cy="392.55" rx="409.252" ry="197.01" fill="white" />
    <ellipse cx="233.951" cy="392.55" rx="409.252" ry="197.01" fill="#FF94B8" />
    <path
      d="M1542.51 324.45C1640.2 361.64 1691.33 404.28 1568.85 431.863C1510.08 521.832 1253.6 589.56 946.088 589.56C631.008 589.56 369.491 518.456 319.351 425.177C-149.957 374.99 -272.49 261.533 -84.4868 269.707C103.407 277.876 327.691 316.922 449.298 269.707C565.728 224.502 744.999 195.54 946.088 195.54C1219.81 195.54 1453.11 249.204 1542.51 324.45Z"
      fill="#FF596A"
    />
  </g>
  <path
    d="M83.09 158.529C82.2682 159.157 81.4905 159.838 80.731 160.539C73.0036 167.675 61.1251 169.593 51.0484 166.406C40.5335 163.081 32.0174 154.827 26.8247 145.098C21.6319 135.369 19.5072 124.254 18.9655 113.239C18.0815 95.2621 21.4186 76.7638 30.6749 61.3273C39.9312 45.8908 55.5098 33.8454 73.2814 30.9938C81.1885 29.725 89.6006 30.3301 96.6974 34.0406C102.56 37.1058 107.172 42.0611 111.66 46.9209C118.98 38.5969 131.719 37.3127 142.497 39.9031C147.367 41.0735 152.302 43.0626 155.458 46.9511C158.614 50.8396 159.353 57.0246 155.984 60.7304C165.556 60.6483 175.717 62.2717 182.97 68.5182C189.098 73.7956 192.414 82.0279 192.152 90.1106C191.891 98.1933 188.193 106.019 182.464 111.728C172.223 121.933 157.013 124.865 142.771 127.356C128.529 129.846 118.271 133.372 103.184 143.189L83.09 158.529Z"
    fill="#11269C"
    stroke="white"
    stroke-width="2"
  />
  <path
    d="M178.828 144.24C170.354 141.66 161.206 142.509 153.352 146.604C150.287 148.222 147.395 150.41 145.715 153.442C142.623 159.021 144.47 166.417 148.865 171.041C153.259 175.664 159.664 177.885 165.988 178.713C178.167 180.306 190.422 177.325 202.387 174.549C220.697 170.301 243.18 169.75 255.37 155.442C256.858 153.695 258.208 151.576 257.965 149.295C257.08 140.974 244.808 140.754 242.336 141.426C246.862 136.527 250.191 131.071 248.275 125.153C246.359 119.236 240.132 115.024 233.926 115.448C227.721 115.872 222.125 120.893 221.033 127.016C216.63 117.681 208.466 111.415 193.445 117.421C175.662 124.53 178.828 144.24 178.828 144.24Z"
    fill="white"
    stroke="#11269C"
    stroke-width="2"
  />
  <path
    d="M238.683 139.628C234.308 144.507 229.148 147.829 223.071 148.76C224.061 147.77 224.984 146.716 225.835 145.605C227.293 143.708 228.485 141.621 229.376 139.401C228.225 141.452 226.798 143.335 225.135 144.997C223.492 146.637 221.677 148.095 219.722 149.348C215.836 151.857 211.544 153.651 207.143 154.988C202.715 156.331 198.148 157.279 193.505 158.299C191.381 158.766 189.235 159.251 187.081 159.797C188.276 156.612 189.774 153.548 191.553 150.648C193.762 147.049 196.454 143.77 199.554 140.902C195.684 142.934 192.11 145.486 188.931 148.487C185.678 151.564 182.78 154.997 180.293 158.721C177.769 162.479 175.568 166.444 173.714 170.574C171.844 174.717 170.246 178.979 168.931 183.331C168.268 185.503 167.668 187.718 167.124 189.909C166.584 192.079 166.086 194.223 165.597 196.326C164.621 200.531 163.671 204.579 162.543 208.331C161.423 212.082 160.098 215.51 158.517 218.37C156.938 221.241 147.931 240.197 145.943 241.837H174.528C176.107 239.357 177.453 236.736 178.549 234.009C179.579 231.446 180.402 228.805 181.009 226.111C182.185 220.918 182.594 215.979 182.711 211.32C182.827 206.655 182.662 202.229 182.508 197.969C182.43 195.839 182.354 193.75 182.311 191.696C182.266 189.663 182.264 187.666 182.325 185.647C182.437 181.61 182.812 177.585 183.449 173.598C183.762 171.65 184.15 169.715 184.614 167.791C187.936 166.257 191.457 164.937 195.048 163.641C199.482 162.038 204.034 160.455 208.453 158.456C212.881 156.449 217.13 153.976 220.831 150.832C220.946 150.734 221.059 150.634 221.173 150.534C228.154 149.179 234.389 145.296 238.683 139.628Z"
    fill="#11269C"
  />
  <path
    d="M83.2105 134.164C83.6263 135.479 84.039 136.784 84.4413 138.078C83.3202 137.473 82.1948 136.889 81.0736 136.308C77.9077 134.667 74.776 133.043 71.8741 130.987L71.8737 130.987C67.8773 128.162 64.5421 124.417 62.0334 120.208C56.8112 111.426 54.6101 101.108 54.0085 90.9338L53.0096 90.9484C52.7099 101.001 53.9537 111.35 58.0827 120.647C52.5526 120.086 47.4517 116.239 45.3076 111.11L44.3539 111.39C45.786 119.473 53.1818 125.751 61.2371 126.497C63.2873 129.694 65.7944 132.597 68.6912 135.06C71.4629 137.421 74.5286 139.377 77.5592 141.309C77.7815 141.451 78.0035 141.593 78.2253 141.734C81.4425 143.79 84.5975 145.854 87.3752 148.413C95.2365 176.365 88.5617 202.257 75.3734 225.035L74.8391 225.957L75.8902 225.778L108.701 220.178L109.031 220.122L109.105 219.795C116.51 187.013 111.021 155.462 93.3366 126.146C92.6311 117.907 98.1773 110.626 103.938 105.022C105.967 103.077 108.09 101.234 110.224 99.3815L110.356 99.267C112.468 97.4338 114.588 95.5893 116.617 93.6395C122.278 94.5773 128.882 92.1592 134.493 88.4289C140.194 84.6392 145.003 79.4086 146.862 74.6917L145.951 74.2806C141.549 82.8837 130.908 89.1319 121.245 88.7507C127.071 81.8404 131.272 71.8424 127.599 62.8452L126.659 63.1832C129.353 71.813 124.422 81.0367 118.085 86.9893L118.085 86.9892L118.076 86.9975C115.418 89.6163 112.439 91.8846 109.377 94.091C108.581 94.6641 107.779 95.2338 106.976 95.8044C104.696 97.4238 102.404 99.0512 100.221 100.789L100.219 100.791C95.2933 104.774 90.864 109.466 87.9968 115.216C86.5084 111.828 85.2567 108.34 84.251 104.777C82.647 98.9546 81.8296 92.8084 81.5782 86.5722C81.3657 80.264 81.6241 73.9487 82.3512 67.6789L81.3758 67.4769C79.5128 73.6543 78.1135 79.9621 77.1898 86.3479L77.1894 86.351C76.2985 92.7976 75.9715 99.4315 76.5775 106.131C77.1797 112.852 78.7592 119.454 80.6105 125.735C81.446 128.583 82.3353 131.396 83.2105 134.164Z"
    fill="white"
    stroke="#11269C"
  />
  <path
    fill-rule="evenodd"
    clip-rule="evenodd"
    d="M1319.68 98.7319C1320.65 101.315 1319.35 104.201 1316.77 105.178C1300.03 111.511 1293.01 123.111 1289.55 133.132C1287.64 138.661 1287.34 145.466 1287.72 153.382C1287.9 157.147 1288.23 161.028 1288.57 165.049L1288.61 165.543C1288.97 169.704 1289.32 174.004 1289.51 178.268C1290.23 195.125 1288.36 213.488 1270.48 224.459C1265.23 227.678 1259.81 229.023 1254.37 228.652C1249 228.285 1243.94 226.265 1239.3 223.28C1236.97 221.787 1236.3 218.693 1237.79 216.371C1239.29 214.048 1242.38 213.375 1244.7 214.868C1248.32 217.194 1251.77 218.451 1255.05 218.675C1258.27 218.895 1261.65 218.146 1265.25 215.935C1278.08 208.06 1280.22 195.01 1279.52 178.699C1279.34 174.671 1279 170.568 1278.65 166.386C1278.63 166.201 1278.62 166.015 1278.6 165.829C1278.27 161.861 1277.92 157.817 1277.73 153.866C1277.33 145.67 1277.54 137.277 1280.1 129.87C1284.23 117.892 1292.97 103.491 1313.23 95.8249C1315.81 94.8477 1318.7 96.1492 1319.68 98.7319Z"
    fill="white"
    stroke="#11269C"
    stroke-width="2"
    stroke-linecap="round"
    stroke-linejoin="round"
  />
  <path
    d="M1230.99 120.864C1234.59 125.137 1234.42 132.848 1229.29 139.682C1224.21 146.443 1214.29 152.21 1198.79 152.219C1184.19 151.12 1174 145.584 1168.86 139.199C1166.29 136.006 1165.01 132.631 1165 129.492C1164.99 126.39 1166.24 123.432 1168.89 120.996C1172.39 118.466 1175.14 117.483 1177.44 117.335C1179.75 117.187 1181.75 117.869 1183.79 118.922C1184.75 119.415 1185.7 119.978 1186.69 120.57C1186.77 120.614 1186.85 120.659 1186.92 120.704C1187.99 121.34 1189.11 122 1190.31 122.593C1192.71 123.785 1195.43 124.72 1198.75 124.72C1201.27 124.72 1203.95 123.539 1206.57 122.156C1207.5 121.665 1208.43 121.148 1209.36 120.63C1211.13 119.64 1212.92 118.644 1214.77 117.811C1217.55 116.557 1220.29 115.778 1222.95 116.056C1225.58 116.331 1228.28 117.646 1230.99 120.864Z"
    stroke="#11269C"
    stroke-width="2"
  />
  <path
    d="M1282.01 256.711C1283.03 259.998 1286.25 266.517 1292.31 270.679C1295.71 273.012 1300.33 274.889 1304.81 276.706C1310.32 278.941 1315.61 281.085 1318.12 283.878C1322.66 288.942 1333.13 283.005 1326.36 276.44C1319.58 269.875 1309.73 265.719 1307.78 265.3C1311.29 264.008 1320.95 263.009 1331.45 269.35C1344.59 277.277 1347.03 270.642 1346.68 267.499C1346.33 264.356 1333.23 253.88 1321.29 252.344C1325.38 252.367 1335.08 255.785 1344.38 263.915C1344.69 264.188 1346.02 265.823 1346.02 265.823C1346.02 265.823 1346.99 266.032 1347.69 265.159C1348.82 263.745 1347.67 255.974 1341.3 250.808C1341.77 243.312 1325.57 234.995 1304.21 239.674C1302.33 236.773 1299.35 234.587 1295.7 233.806C1288.41 232.244 1281.23 236.888 1279.67 244.178C1278.87 247.912 1279.7 251.616 1281.68 254.551C1281.67 255.249 1281.77 255.969 1282.01 256.711Z"
    fill="white"
    stroke="#11269C"
    stroke-width="2"
  />
  <path
    d="M1292.31 270.679C1286.25 266.517 1283.03 259.998 1282.01 256.711C1279.79 249.588 1289.23 244.452 1296.43 241.903C1321.51 233.016 1341.82 242.425 1341.3 250.808C1347.67 255.974 1348.82 263.745 1347.69 265.159C1346.99 266.032 1346.02 265.823 1346.02 265.823C1346.02 265.823 1344.69 264.188 1344.38 263.915C1335.08 255.785 1325.38 252.367 1321.29 252.344C1333.24 253.88 1346.33 264.356 1346.68 267.499C1347.03 270.642 1344.59 277.277 1331.45 269.35C1320.95 263.009 1311.29 264.008 1307.78 265.3C1309.73 265.719 1319.58 269.875 1326.36 276.44C1333.13 283.005 1322.66 288.942 1318.12 283.878C1313.58 278.815 1299.89 275.882 1292.31 270.679Z"
    fill="white"
    stroke="#11269C"
  />
  <circle
    cx="1292.87"
    cy="247.006"
    r="13"
    transform="rotate(12.0925 1292.87 247.006)"
    fill="white"
    stroke="#11269C"
  />
  <path
    fill-rule="evenodd"
    clip-rule="evenodd"
    d="M1076.68 132.153C1073.51 118.738 1075.85 103.994 1078.85 94.5338L1089.94 98.0503C1087.32 106.315 1085.47 118.801 1088 129.473C1089.24 134.72 1091.48 139.297 1094.98 142.805C1098.43 146.267 1103.43 149.03 1110.84 150.153C1120.68 151.646 1127.27 150.754 1132.26 148.983C1137.35 147.174 1141.21 144.317 1145.71 140.908C1145.82 140.826 1145.92 140.744 1146.03 140.662C1150.33 137.4 1155.33 133.612 1161.97 131.249C1168.92 128.776 1177.23 127.985 1188.21 129.869L1186.25 141.333C1176.84 139.72 1170.6 140.522 1165.87 142.206C1161 143.94 1157.27 146.739 1152.73 150.178L1152.64 150.251C1148.24 153.58 1143.1 157.474 1136.15 159.943C1129.05 162.468 1120.47 163.378 1109.09 161.653C1099.52 160.201 1092.14 156.441 1086.74 151.013C1081.38 145.63 1078.29 138.949 1076.68 132.153Z"
    fill="white"
    stroke="#11269C"
    stroke-width="2"
  />
  <path
    fill-rule="evenodd"
    clip-rule="evenodd"
    d="M1074.31 187.161C1108.21 185.293 1137.32 200.055 1156.11 211.779C1158.98 213.571 1159.86 217.363 1158.08 220.249C1156.29 223.135 1152.52 224.022 1149.65 222.23C1131.52 210.915 1105.07 197.787 1074.98 199.445C1045.3 201.08 1010.67 217.207 976.156 267.347C974.233 270.141 970.42 270.84 967.64 268.907C964.859 266.975 964.164 263.143 966.087 260.349C1002.21 207.866 1040 189.051 1074.31 187.161Z"
    fill="white"
    stroke="#11269C"
    stroke-width="2"
    stroke-linecap="round"
  />
  <mask
    id="mask1"
    mask-type="alpha"
    maskUnits="userSpaceOnUse"
    x="1122"
    y="40"
    width="152"
    height="220"
  >
    <path
      d="M1177.55 56.9559L1187.57 42.3613L1190.03 51.4295C1192.84 50.5019 1195.83 49.6897 1199 49C1217.42 44.9967 1231.68 47.7124 1242.51 55.3072L1256.5 48.5L1252.36 64.6362C1267.68 83.7009 1272.86 116.301 1272 152.001C1270.91 197.5 1252.5 229.5 1218.5 248.5C1185.5 266.941 1137.5 261 1126.5 225.001C1116.02 190.688 1133.21 176.665 1145.73 166.452C1150.3 162.728 1154.25 159.51 1156 156C1159.59 148.811 1157.75 136.836 1155.77 124.007C1155.14 119.883 1154.49 115.67 1154 111.5C1151.3 88.3662 1157.63 68.5056 1177.55 56.9559Z"
      fill="white"
      stroke="#11269C"
      stroke-width="2"
    />
  </mask>
  <g mask="url(#mask1)">
    <path
      d="M1177.55 56.9559L1187.57 42.3613L1190.03 51.4295C1192.84 50.5019 1195.83 49.6897 1199 49C1217.42 44.9967 1231.68 47.7124 1242.51 55.3072L1256.5 48.5L1252.36 64.6362C1267.68 83.7009 1272.86 116.301 1272 152.001C1270.91 197.5 1252.5 229.5 1218.5 248.5C1185.5 266.941 1137.5 261 1126.5 225.001C1116.02 190.688 1133.21 176.665 1145.73 166.452C1150.3 162.728 1154.25 159.51 1156 156C1159.59 148.811 1157.75 136.836 1155.77 124.007C1155.14 119.883 1154.49 115.67 1154 111.5C1151.3 88.3662 1157.63 68.5056 1177.55 56.9559Z"
      fill="white"
      stroke="#11269C"
      stroke-width="2"
    />
    <path
      d="M1188.5 69C1191.17 60.1667 1201.2 41.2 1220 36"
      stroke="#11269C"
      stroke-width="8"
      stroke-linecap="round"
    />
    <path
      d="M1205 65.5C1208.5 51.5 1213.9 43.2 1227.5 36"
      stroke="#11269C"
      stroke-width="8"
      stroke-linecap="round"
    />
    <path
      d="M1223 64C1223.67 55.8333 1226.7 38.8 1233.5 36"
      stroke="#11269C"
      stroke-width="8"
      stroke-linecap="round"
    />
  </g>
  <path
    fill-rule="evenodd"
    clip-rule="evenodd"
    d="M1199.25 233.344C1200.87 236.547 1199.59 240.457 1196.39 242.079C1123.4 279.036 1115.61 284.082 1028.77 294.5C1025.2 294.928 1021.97 292.385 1021.54 288.821C1021.11 285.257 1023.65 282.021 1027.22 281.593C1112.21 271.396 1118.54 266.927 1190.51 230.481C1193.72 228.86 1197.63 230.141 1199.25 233.344Z"
    fill="white"
    stroke="#11269C"
    stroke-width="2"
    stroke-linecap="round"
  />
  <path
    fill-rule="evenodd"
    clip-rule="evenodd"
    d="M1242.15 123.894C1242.86 121.168 1245.82 119.487 1248.76 120.141C1264.19 123.568 1284.92 134.19 1297.63 154.988C1310.45 175.951 1314.63 206.429 1298.49 248.617C1297.48 251.26 1294.35 252.643 1291.49 251.707C1288.64 250.771 1287.15 247.869 1288.16 245.227C1303.51 205.077 1298.97 177.787 1288.09 159.99C1277.11 142.027 1259.18 132.896 1246.2 130.015C1243.26 129.361 1241.45 126.621 1242.15 123.894Z"
    fill="white"
    stroke="#11269C"
    stroke-width="2"
    stroke-linecap="round"
  />
  <path
    d="M1208.03 94.6421C1207.83 85.6779 1211.73 78.3189 1216.74 78.2053C1221.74 78.0916 1225.97 85.2665 1226.17 94.2307C1226.38 103.195 1222.48 110.554 1217.47 110.668C1212.46 110.781 1208.24 103.606 1208.03 94.6421Z"
    fill="#11269C"
  />
  <path
    d="M1206.17 91.1193L1214.61 95.7124L1206.26 101.916L1206.17 91.1193Z"
    fill="white"
  />
  <path
    d="M1169.75 95.5366C1169.55 86.5725 1173.44 79.2134 1178.45 79.0996C1183.46 78.9858 1187.69 86.1604 1187.89 95.1245C1188.1 104.089 1184.2 111.448 1179.19 111.562C1174.18 111.675 1169.96 104.501 1169.75 95.5366Z"
    fill="#11269C"
  />
  <path
    d="M1167.82 91.255L1176.27 95.8482L1167.92 102.052L1167.82 91.255Z"
    fill="white"
  />
  <path
    d="M1196.97 124.687C1196.9 128.792 1192.22 131.991 1186.53 131.832C1180.84 131.673 1176.3 126.99 1176.37 122.885"
    stroke="#11269C"
    stroke-width="2"
    stroke-miterlimit="10"
    stroke-linecap="round"
  />
  <path
    d="M1196.39 120.111C1193.41 119.378 1191.59 116.37 1192.33 113.392C1193.06 110.414 1196.07 108.594 1199.05 109.327C1202.03 110.061 1203.84 113.069 1203.11 116.047C1202.38 119.025 1199.37 120.845 1196.39 120.111Z"
    fill="#11269C"
    stroke="#11269C"
    stroke-width="2"
    stroke-miterlimit="10"
  />
  <path
    d="M1197.9 124.687C1197.97 128.792 1202.64 131.991 1208.34 131.832C1214.03 131.673 1218.56 126.99 1218.49 122.885"
    stroke="#11269C"
    stroke-width="2"
    stroke-miterlimit="10"
    stroke-linecap="round"
  />
  <path
    d="M981.947 236.503L972 248.012L983.368 260L994.263 246.573C996.632 248.491 999 248.012 999 246.094C999 244.176 993.316 236.503 985.737 232.187C979.674 228.735 980.684 233.626 981.947 236.503Z"
    fill="white"
    stroke="#11269C"
  />
  <path
    d="M1051.07 276.003L1027.59 278.134L1028.21 295.45L1053.77 292.494C1054.3 295.651 1056.5 296.944 1057.83 295.453C1059.16 293.961 1060.02 283.998 1057.05 275.312C1054.68 268.363 1052.08 272.877 1051.07 276.003Z"
    fill="white"
    stroke="#11269C"
  />
  <ellipse cx="1183" cy="234.5" rx="21" ry="19.5" fill="white" />
  <ellipse cx="1246" cy="127.5" rx="21" ry="19.5" fill="white" />
  <path
    d="M1083.54 104.069C1083.11 104.352 1082.68 104.633 1082.26 104.907C1081.26 105.571 1080.3 106.2 1079.38 106.753C1078.08 107.533 1076.9 108.133 1075.8 108.441C1074.71 108.746 1073.72 108.755 1072.81 108.385C1071.89 108.012 1070.97 107.228 1070.05 105.824C1069.22 104.549 1068.92 103.453 1068.96 102.48C1069.01 101.506 1069.41 100.592 1070.12 99.6835C1071.56 97.8367 1074.15 96.1455 1077.13 94.2057C1077.85 93.7358 1078.55 93.2626 1079.22 92.8081L1079.27 92.7681C1079.96 92.3002 1080.62 91.8536 1081.26 91.4453C1082.53 90.6251 1083.69 89.9822 1084.77 89.6471C1085.83 89.3158 1086.8 89.2935 1087.72 89.682C1088.66 90.0752 1089.62 90.9175 1090.62 92.4506C1091.45 93.7256 1091.75 94.8212 1091.71 95.7946C1091.66 96.7681 1091.26 97.6829 1090.55 98.5909C1089.11 100.438 1086.52 102.129 1083.54 104.069Z"
    fill="white"
    stroke="#11269C"
  />
  <path
    d="M1045.47 82.7226C1043.32 83.7824 1041.82 85.3769 1041.66 87.3587C1041.5 89.2606 1042.61 91.0194 1044.4 92.3857C1046.02 93.6235 1048.25 94.5903 1050.81 95.1185C1050.03 95.7858 1048.38 96.4728 1045.13 96.412C1044.14 96.3935 1043.14 96.3452 1042.15 96.2973L1042.14 96.2967C1040.69 96.2266 1039.25 96.157 1037.92 96.1885C1036.59 96.22 1035.35 96.3529 1034.29 96.7052C1033.22 97.0602 1032.32 97.6474 1031.73 98.5987C1031.15 99.5447 1030.93 100.785 1031.08 102.367C1031.26 104.264 1032.04 105.681 1033.18 106.715C1034.31 107.739 1035.76 108.365 1037.24 108.739C1040.21 109.485 1043.48 109.259 1045.08 109.031C1045.83 108.924 1046.84 108.433 1047.91 107.812C1049.01 107.179 1050.26 106.36 1051.54 105.527L1051.54 105.521C1053.38 104.322 1055.25 103.094 1056.86 102.277C1057.67 101.868 1058.38 101.576 1058.97 101.438C1059.57 101.296 1059.94 101.34 1060.16 101.468C1060.5 101.674 1060.89 102.01 1061.39 102.44L1061.41 102.458C1062.93 103.77 1065.18 105.707 1068.72 105.522C1068.86 105.801 1069.03 106.083 1069.21 106.37C1070.13 107.774 1071.11 108.697 1072.18 109.202C1073.26 109.71 1074.38 109.77 1075.53 109.535C1076.66 109.303 1077.83 108.779 1079.04 108.11C1080.24 107.441 1081.5 106.61 1082.81 105.744L1082.82 105.737L1082.83 105.735C1083.24 105.462 1083.66 105.186 1084.09 104.908L1084.15 104.865C1087.06 102.977 1089.79 101.201 1091.34 99.2061C1092.14 98.186 1092.65 97.0784 1092.71 95.8426C1092.76 94.6068 1092.37 93.3065 1091.46 91.9062C1090.61 90.6127 1089.75 89.7048 1088.83 89.1359C1090.15 86.4469 1090.38 84.1175 1089.71 82.1057C1089 79.9983 1087.34 78.3381 1085.18 77.0106C1079.07 73.2699 1077.03 66.8638 1077.62 61.5751C1077.79 60.0457 1077.23 58.6725 1076.28 57.5484C1075.34 56.4289 1074.02 55.5359 1072.61 54.9313C1071.2 54.3267 1069.68 53.9958 1068.32 54.0309C1066.97 54.0658 1065.69 54.4662 1064.92 55.4228C1064.47 55.975 1063.82 56.5937 1063.08 57.2956L1063.07 57.3053C1062.26 58.0743 1061.36 58.9298 1060.6 59.8413C1059.84 60.7542 1059.19 61.7618 1058.92 62.8438C1058.64 63.9494 1058.77 65.1053 1059.51 66.2621C1060.25 67.3983 1061.56 68.5079 1063.61 69.598C1066.79 71.2993 1069.14 71.3565 1070.8 70.3626C1070.84 70.3401 1070.88 70.3171 1070.91 70.2936C1070.33 71.3261 1069.62 72.2722 1068.76 73.0399C1067.73 73.9727 1066.49 74.6397 1065.05 74.8892C1063.66 75.1275 1062.06 74.9901 1060.23 74.3015C1059.85 72.37 1058.42 70.8503 1056.47 69.9181C1054.47 68.9569 1051.88 68.5924 1049.18 69.021C1046.48 69.4495 1044.13 70.5967 1042.52 72.1307C1040.92 73.6629 1040.02 75.6213 1040.34 77.6359C1040.72 80.0788 1042.77 81.8758 1045.47 82.7226Z"
    fill="white"
    stroke="#11269C"
  />
  <path
    d="M1045.12 96.9119C1050.62 97.0148 1051.97 95.018 1051.95 94.0067C1053.04 86.2426 1052.92 71.4974 1058.99 74.3242C1067.58 78.3182 1072.1 71.2883 1073.06 65.6408C1072.42 69.076 1070.06 72.4806 1063.84 69.157C1054.03 63.9187 1062.72 58.9247 1065.31 55.7379C1067.89 52.5512 1077.73 56.0717 1077.13 61.5197C1076.52 66.9676 1078.62 73.5784 1084.92 77.437C1091.21 81.2955 1092.51 87.689 1079.96 98.9795C1067.42 110.27 1063.01 102.605 1060.41 101.04C1057.81 99.4748 1048.15 108.089 1045.01 108.536C1041.86 108.983 1032.25 109.409 1031.58 102.32C1030.9 95.2303 1038.25 96.7833 1045.12 96.9119Z"
    fill="white"
    stroke="#11269C"
  />
  <circle
    cx="1059.29"
    cy="74.8342"
    r="8.66956"
    transform="rotate(15.1086 1059.29 74.8342)"
    stroke="#11269C"
    stroke-width="6"
  />
  <path
    d="M1059.27 74.6321C1059.52 76.2301 1058.82 77.8785 1057.38 79.2571C1055.94 80.6341 1053.78 81.7019 1051.26 82.1027C1048.73 82.5034 1046.35 82.1544 1044.55 81.2916C1042.75 80.4277 1041.58 79.0765 1041.32 77.4785C1041.07 75.8805 1041.77 74.2321 1043.21 72.8535C1044.66 71.4765 1046.81 70.4087 1049.34 70.0079C1051.86 69.6071 1054.24 69.9562 1056.04 70.819C1057.84 71.6829 1059.02 73.0341 1059.27 74.6321Z"
    fill="white"
    stroke="#11269C"
  />
  <path
    d="M1065.27 89.3344C1065.14 90.8953 1063.87 92.3165 1061.71 93.2982C1059.56 94.2722 1056.64 94.7566 1053.45 94.4895C1050.26 94.2224 1047.45 93.2585 1045.5 91.9414C1043.53 90.6139 1042.52 89.0024 1042.65 87.4414C1042.78 85.8804 1044.05 84.4593 1046.21 83.4776C1048.35 82.5035 1051.28 82.0191 1054.47 82.2862C1057.66 82.5534 1060.47 83.5173 1062.42 84.8343C1064.39 86.1618 1065.4 87.7734 1065.27 89.3344Z"
    fill="white"
    stroke="#11269C"
  />
  <path
    d="M1094.45 93.096C1111.74 90.8396 1112.4 70.8414 1110.5 60.2853L1063.77 62.7369C1062.98 73.4347 1065.73 93.2535 1083.17 93.6881C1087.01 93.7839 1090.64 93.5936 1094.45 93.096Z"
    fill="#11269C"
  />
  <path
    d="M1065.3 55.738C1067.89 52.5513 1077.63 56.4746 1077.02 61.9226C1076.1 62.1077 1076.21 61.706 1073.26 63.0652C1073.39 66.8419 1071.69 73.3478 1063.84 69.1571C1054.03 63.9188 1062.72 58.9248 1065.3 55.738Z"
    fill="white"
    stroke="#11269C"
  />
  <path
    d="M1078.78 22.2617C1077.39 27.4149 1077.63 30.0273 1080.89 34.2367C1082.34 36.1133 1084.39 38.342 1084.88 40.744C1085.62 44.3984 1081.48 46.8577 1082.68 50.4159"
    stroke="#11269C"
    stroke-linecap="round"
    stroke-linejoin="round"
  />
  <path
    d="M1090.29 8.53199C1088.9 11.7036 1086.9 14.759 1086.52 18.2812C1086.19 21.3241 1087.63 24.2994 1089.03 26.8767C1091.44 31.2875 1093 36.3526 1090.55 41.0418"
    stroke="#11269C"
    stroke-linecap="round"
    stroke-linejoin="round"
  />
  <path
    d="M951.31 254.651C945.849 243.121 940.809 228.951 942.064 217.559C944.572 194.775 984.823 206.447 977.183 230.86C972.571 245.597 978.001 250.846 982.149 254.857C984.873 257.49 987.044 259.589 985.458 263.488C982.255 271.359 969.21 275.041 963.089 275.898C963.011 275.749 962.758 275.342 962.365 274.708C960.93 272.395 956.791 265.883 953.24 259.034L954.069 255.885L951.31 254.651Z"
    fill="#11269C"
    stroke="#11269C"
    stroke-width="2"
  />
  <path d="M960.813 249.591L951.418 254.507" stroke="white" />
  <path d="M963.211 251.161L954.29 255.693" stroke="white" />
  <path d="M963.211 254.311L953.765 259.034" stroke="white" />
  <path
    d="M943.908 211.666C952.226 201.329 956.627 210.008 957.715 226.616C958.803 243.224 960.126 248.937 960.652 249.718L963.088 251.162L963.088 254.835C964.877 256.011 971.006 266.546 969.405 270.481C967.804 274.416 965.852 274.452 963.088 275.898"
    stroke="white"
  />
  <path
    d="M956.038 205.392C960.759 205.306 963.839 213.395 964.615 225.241C965.703 241.848 965.466 244.671 967.552 248.343C970.59 253.691 978.892 262.749 976.305 269.106C975.158 271.925 973.83 272.743 972.153 273.512"
    stroke="white"
  />
  <path
    d="M951.31 254.651C945.849 243.121 940.809 228.951 942.064 217.559C944.572 194.775 984.823 206.447 977.183 230.86C972.571 245.597 978.001 250.846 982.149 254.857C984.873 257.49 987.044 259.589 985.458 263.488C982.255 271.359 969.21 275.041 963.089 275.898C963.011 275.749 962.758 275.342 962.365 274.708C960.93 272.395 956.791 265.883 953.24 259.034L954.069 255.885L951.31 254.651Z"
    stroke="#11269C"
    stroke-width="2"
  />
  <path
    d="M1003.58 295.138C1007.57 298.458 1020.71 305.429 1028.98 298.355C1031.29 296.38 1032.11 294.18 1033.09 291.559C1034.47 287.89 1036.16 283.395 1042.65 277.534C1061.44 258.348 1057.15 238.709 1044.74 234.168C1034.47 226.064 1021.26 232.283 1016.17 251.32C1014.79 256.488 1014.28 260.002 1013.89 262.664C1013.52 265.116 1013.09 267.163 1013.09 267.163L1013.46 271.147L1010.02 272.103C1009.28 272.892 1008.37 273.748 1007.25 274.723C998.877 282.01 997.609 290.157 1003.58 295.138Z"
    fill="#11269C"
    stroke="#11269C"
    stroke-width="2"
  />
  <path d="M1013.09 267.163L1030.02 276.672" stroke="white" />
  <path d="M1012.91 270.694L1030.38 280.656" stroke="white" />
  <path d="M1010.01 271.961L1026.94 281.47" stroke="white" />
  <path
    d="M1025.57 234.434C1029.35 231.621 1040.64 231.683 1042.72 245.727C1045.32 263.282 1034.04 272.213 1029.9 276.542L1030.3 280.953L1027.3 281.225C1026.45 289.13 1021.96 304.012 1008.38 298.216"
    stroke="white"
  />
  <path
    d="M1029.49 232.038C1032.87 230.559 1040.58 229.224 1044.38 235.707C1049.13 243.81 1052.03 253.589 1044.92 263.773C1037.81 273.958 1031.56 282.557 1030.47 287.175C1029.39 291.792 1027.94 303.471 1016.17 301.024"
    stroke="white"
  />
  <path
    d="M1003.58 295.138C1007.57 298.458 1020.71 305.429 1028.98 298.355C1031.29 296.38 1032.11 294.18 1033.09 291.559C1034.47 287.89 1036.16 283.395 1042.65 277.534C1061.44 258.348 1057.15 238.709 1044.74 234.168C1034.47 226.064 1021.26 232.283 1016.17 251.32C1014.79 256.488 1014.28 260.002 1013.89 262.664C1013.52 265.116 1013.09 267.163 1013.09 267.163L1013.46 271.147L1010.02 272.103C1009.28 272.892 1008.37 273.748 1007.25 274.723C998.877 282.01 997.609 290.157 1003.58 295.138Z"
    stroke="#11269C"
    stroke-width="2"
  />
  <path
    d="M1232.5 126.272C1240.28 141.551 1215.83 154.062 1198.68 154.273C1181.93 154.479 1158.01 143.811 1164.49 128.363C1169.76 115.811 1184.39 121.715 1198 121.272C1211.71 120.826 1226.28 114.052 1232.5 126.272Z"
    fill="white"
    stroke="#11269C"
    stroke-width="2"
  />
  <path
    d="M1218.95 124.783C1218.68 127.789 1217.46 130.632 1215.05 132.66C1211.66 135.503 1206.39 136.123 1202.83 133.313C1200.2 131.245 1198.7 128.139 1198.37 124.783C1198.34 124.432 1198.2 121.53 1197.99 122.328C1197.77 123.116 1197.89 123.962 1197.81 124.769C1197.65 126.434 1197.18 128.047 1196.57 129.594C1195.29 132.86 1193.28 135.386 1189.72 135.924C1185 136.638 1181.81 132.186 1180.57 127.5"
    stroke="#11269C"
    stroke-width="2"
    stroke-linecap="round"
    stroke-linejoin="round"
  />
  <path
    d="M779.5 139.501C779.5 144.41 778.421 148.78 776.752 151.869C775.05 155.018 772.948 156.501 771 156.501C769.052 156.501 766.95 155.018 765.248 151.869C763.579 148.78 762.5 144.41 762.5 139.501C762.5 134.592 763.579 130.222 765.248 127.133C766.95 123.984 769.052 122.501 771 122.501C772.948 122.501 775.05 123.984 776.752 127.133C778.421 130.222 779.5 134.592 779.5 139.501Z"
    fill="#FF94B8"
    stroke="#11269C"
    stroke-width="3"
  />
  <path
    d="M755.936 143.867C759.51 147.246 761.958 151.028 763.073 154.352C764.211 157.746 763.857 160.263 762.549 161.647C761.241 163.03 758.748 163.525 755.296 162.579C751.914 161.653 748 159.421 744.427 156.042C740.853 152.664 738.404 148.882 737.29 145.557C736.152 142.163 736.506 139.647 737.814 138.263C739.122 136.88 741.614 136.385 745.067 137.33C748.449 138.257 752.363 140.489 755.936 143.867Z"
    fill="#FF94B8"
    stroke="#11269C"
    stroke-width="3"
  />
  <path
    d="M744.167 163.5C749.081 163.678 753.418 164.902 756.45 166.663C759.545 168.46 760.941 170.584 760.872 172.487C760.804 174.389 759.258 176.407 756.041 177.976C752.889 179.514 748.476 180.421 743.561 180.243C738.647 180.066 734.311 178.842 731.278 177.081C728.183 175.284 726.787 173.159 726.856 171.257C726.925 169.354 728.47 167.337 731.688 165.767C734.839 164.23 739.253 163.323 744.167 163.5Z"
    fill="#FF94B8"
    stroke="#11269C"
    stroke-width="3"
  />
  <path
    d="M786.404 143.867C782.83 147.246 780.382 151.028 779.267 154.352C778.129 157.746 778.483 160.263 779.791 161.647C781.099 163.03 783.592 163.525 787.044 162.579C790.426 161.653 794.34 159.421 797.913 156.042C801.487 152.664 803.936 148.882 805.051 145.557C806.189 142.163 805.834 139.647 804.527 138.263C803.219 136.88 800.726 136.385 797.273 137.33C793.891 138.257 789.978 140.489 786.404 143.867Z"
    fill="#FF94B8"
    stroke="#11269C"
    stroke-width="3"
  />
  <path
    d="M779.5 204.501C779.5 199.592 778.421 195.222 776.752 192.133C775.05 188.984 772.948 187.501 771 187.501C769.052 187.501 766.95 188.984 765.248 192.133C763.579 195.222 762.5 199.592 762.5 204.501C762.5 209.41 763.579 213.78 765.248 216.869C766.95 220.018 769.052 221.501 771 221.501C772.948 221.501 775.05 220.018 776.752 216.869C778.421 213.78 779.5 209.41 779.5 204.501Z"
    fill="#FF94B8"
    stroke="#11269C"
    stroke-width="3"
  />
  <path
    d="M755.936 200.488C759.51 197.11 761.958 193.328 763.073 190.003C764.211 186.609 763.857 184.092 762.549 182.709C761.241 181.325 758.748 180.831 755.296 181.776C751.914 182.703 748 184.935 744.427 188.313C740.853 191.691 738.404 195.474 737.29 198.798C736.152 202.192 736.506 204.709 737.814 206.092C739.122 207.476 741.614 207.971 745.067 207.025C748.449 206.099 752.363 203.866 755.936 200.488Z"
    fill="#FF94B8"
    stroke="#11269C"
    stroke-width="3"
  />
  <path
    d="M786.404 200.488C782.83 197.11 780.382 193.328 779.267 190.003C778.129 186.609 778.483 184.092 779.791 182.709C781.099 181.325 783.592 180.831 787.044 181.776C790.426 182.703 794.34 184.935 797.913 188.313C801.487 191.691 803.936 195.474 805.051 198.798C806.189 202.192 805.834 204.709 804.527 206.092C803.219 207.476 800.726 207.971 797.273 207.025C793.891 206.099 789.978 203.866 786.404 200.488Z"
    fill="#FF94B8"
    stroke="#11269C"
    stroke-width="3"
  />
  <path
    d="M798.173 163.5C793.259 163.678 788.923 164.902 785.89 166.663C782.795 168.46 781.399 170.584 781.468 172.487C781.537 174.389 783.082 176.407 786.299 177.976C789.451 179.514 793.864 180.421 798.779 180.243C803.693 180.066 808.029 178.842 811.062 177.081C814.157 175.284 815.553 173.159 815.484 171.257C815.416 169.354 813.87 167.337 810.653 165.767C807.501 164.23 803.088 163.323 798.173 163.5Z"
    fill="#FF94B8"
    stroke="#11269C"
    stroke-width="3"
  />
  <path
    d="M827 171.501C821 155.101 834.167 145.001 841.5 142.001C835 166.001 851.5 164.001 856.5 183.501C860.5 199.101 838.5 206.334 827 208.001C847.5 193.501 834.5 192.001 827 171.501Z"
    fill="#11269C"
    stroke="#11269C"
  />
  <path
    d="M842 141.501C838.5 145.168 832.8 155.601 838 168.001C844.5 183.501 858 194.001 827.5 208.001"
    stroke="white"
  />
  <path
    d="M792.6 236.923C780.174 212.92 814.792 209.386 828.741 209.741C804.566 210.486 801.094 240.359 821.308 231.637C837.478 224.66 839.258 231.388 838.126 235.624C831.471 222.704 807.256 265.234 792.6 236.923Z"
    fill="#11269C"
    stroke="#11269C"
  />
  <path
    d="M828 209.501C816.072 210.683 794.762 215.956 798.88 227.938C807.33 252.528 834.23 219.308 838.212 235.479"
    stroke="white"
  />
  <path
    d="M827 171.501C821 155.101 834.167 145.001 841.5 142.001C835 166.001 851.5 164.001 856.5 183.501C860.5 199.101 838.5 206.334 827 208.001C847.5 193.501 834.5 192.001 827 171.501Z"
    stroke="#11269C"
  />
  <path
    d="M792.6 236.923C780.174 212.92 814.792 209.386 828.741 209.741C804.566 210.486 801.094 240.359 821.308 231.637C837.478 224.66 839.258 231.388 838.126 235.624C831.471 222.704 807.256 265.234 792.6 236.923Z"
    stroke="#11269C"
  />
  <path
    d="M782.5 178.001C808.833 186.334 851 217.501 851 278.001"
    stroke="#11269C"
    stroke-width="5"
  />
  <circle cx="774" cy="169.001" r="22" fill="#11269C" />
  <path
    fill-rule="evenodd"
    clip-rule="evenodd"
    d="M769.413 164.936L768.574 167.448L771.088 167.534C772.328 169.999 772.556 172.281 771.532 172.914C770.355 173.642 767.968 171.914 766.2 169.055C764.433 166.196 763.954 163.289 765.131 162.561C766.087 161.97 767.841 162.998 769.413 164.936Z"
    fill="white"
  />
  <path
    fill-rule="evenodd"
    clip-rule="evenodd"
    d="M777.939 159.664L777.1 162.177L779.614 162.263C780.854 164.727 781.082 167.01 780.058 167.643C778.881 168.37 776.494 166.643 774.726 163.784C772.959 160.925 772.48 158.017 773.657 157.29C774.613 156.699 776.367 157.726 777.939 159.664Z"
    fill="white"
  />
  <path
    d="M768 178.501C774.5 180.668 787.3 180.901 786.5 164.501"
    stroke="#FF94B8"
    stroke-linecap="round"
  />
  <path
    d="M856 276.339C861.256 267.328 862 257.5 862 247.316"
    stroke="#11269C"
    stroke-width="2"
    stroke-linecap="round"
    stroke-linejoin="round"
  />
  <path
    d="M856 276.339C864.186 268.153 868.755 258.396 870.827 247.001"
    stroke="#11269C"
    stroke-width="2"
    stroke-linecap="round"
    stroke-linejoin="round"
  />
  <path
    d="M856 276.339C863.094 274.105 869.348 267.752 873.035 261.512"
    stroke="#11269C"
    stroke-width="2"
    stroke-linecap="round"
    stroke-linejoin="round"
  />
  <path
    d="M846.035 276.339C840.779 267.328 840.035 257.5 840.035 247.316"
    stroke="#11269C"
    stroke-width="2"
    stroke-linecap="round"
    stroke-linejoin="round"
  />
  <path
    d="M846.035 276.339C837.849 268.153 833.28 258.396 831.208 247.001"
    stroke="#11269C"
    stroke-width="2"
    stroke-linecap="round"
    stroke-linejoin="round"
  />
  <path
    d="M846.035 276.339C838.942 274.105 832.687 267.752 829 261.512"
    stroke="#11269C"
    stroke-width="2"
    stroke-linecap="round"
    stroke-linejoin="round"
  />
  <path
    d="M726.507 241.714C728.84 248.12 730.775 254.612 732.593 261.179C732.693 261.542 733.926 267.098 734.062 264.642C734.549 255.872 739.427 247.168 743.034 239.354"
    stroke="#11269C"
    stroke-width="2"
    stroke-linecap="round"
    stroke-linejoin="round"
  />
  <path
    d="M761.449 262.491C763.919 266.471 765.67 270.827 767.483 275.136C768.28 277.03 769.079 278.941 769.608 280.933C769.765 281.526 769.873 283.352 769.949 282.743C770.891 275.206 773.167 268.604 776.087 261.547"
    stroke="#11269C"
    stroke-width="2"
    stroke-linecap="round"
    stroke-linejoin="round"
  />
  <path
    d="M552.268 231.799C555.554 235.344 557.794 239.563 560.138 243.761C560.687 244.744 562.013 247.719 561.974 246.594C561.864 243.405 561.194 240.488 561.45 237.203C561.839 232.207 562.97 227.554 564.545 222.827"
    stroke="#11269C"
    stroke-width="2"
    stroke-linecap="round"
    stroke-linejoin="round"
  />
  <path
    d="M902 191.5C905 195 907.5 198.5 910.611 204.206M910.611 204.206C909.899 201.806 909.899 187.9 910.611 185.5M910.611 204.206C912.256 198.414 915.5 192.5 919.5 188"
    stroke="#11269C"
    stroke-width="2"
    stroke-linecap="round"
    stroke-linejoin="round"
  />
  <path
    d="M1377.19 283.739C1375.44 291.404 1373.43 299.334 1372.96 307.218C1372.96 307.28 1372.89 309.507 1372.94 308.765C1373.05 306.803 1375.51 304.573 1376.61 303.204C1380.21 298.719 1383.96 294.349 1387.58 289.878"
    stroke="#11269C"
    stroke-width="2"
    stroke-linecap="round"
    stroke-linejoin="round"
  />
  <path
    d="M1274.42 280.001C1273.86 286.22 1273 298.679 1273 298.679C1273 298.679 1273.89 296.354 1274.63 295.373C1278.6 290.102 1283.06 285.174 1287.17 280.001"
    stroke="#11269C"
    stroke-width="2"
    stroke-linecap="round"
    stroke-linejoin="round"
  />
  <path
    d="M650 171.501C645.5 186.834 642.1 228.201 660.5 251.001"
    stroke="#11269C"
    stroke-width="4"
  />
  <path
    d="M671.265 190.501C679.265 189.301 681.265 181.001 681.265 177.001C688.265 186.501 683.265 201.501 672.765 205.001C664.365 207.801 661.892 236.023 661.558 249.69C653.558 227.69 661.265 192.001 671.265 190.501Z"
    fill="white"
  />
  <path
    d="M671.265 190.501C679.265 189.301 681.265 181.001 681.265 177.001C688.265 186.501 683.265 201.501 672.765 205.001C664.365 207.801 661.892 236.023 661.558 249.69C653.558 227.69 661.265 192.001 671.265 190.501Z"
    fill="#FF596A"
    fill-opacity="0.3"
  />
  <path
    d="M671.265 190.501C679.265 189.301 681.265 181.001 681.265 177.001C688.265 186.501 683.265 201.501 672.765 205.001C664.365 207.801 661.892 236.023 661.558 249.69C653.558 227.69 661.265 192.001 671.265 190.501Z"
    stroke="#11269C"
  />
  <path
    d="M632 151.501C634 139.001 631.167 132.334 629.5 127.001L642.5 141.001L650.5 124.001C655.3 128.401 658.667 137.501 658.5 141.001L668 131.501C671.5 160.501 663 174.001 650.5 175.001C638.363 175.972 630.218 162.64 632 151.501Z"
    fill="#FF596A"
  />
  <path
    d="M653.909 150.357C653.679 152.168 653.494 155.427 655.857 155.848C658.692 156.354 659.266 152.894 659.36 150.831"
    stroke="#11269C"
    stroke-linecap="round"
    stroke-linejoin="round"
  />
  <path
    d="M652.25 155.927C652.815 155.721 653.521 155.36 654 155.001"
    stroke="#11269C"
    stroke-linecap="round"
    stroke-linejoin="round"
  />
  <path
    d="M654.383 157.824C654.665 157.468 655 157.001 655.568 156.165"
    stroke="#11269C"
    stroke-linecap="round"
    stroke-linejoin="round"
  />
  <path
    d="M657.108 158.299C657.108 157.43 657.108 156.777 657.108 155.908"
    stroke="#11269C"
    stroke-linecap="round"
    stroke-linejoin="round"
  />
  <path
    d="M641.659 149.001C641.429 150.812 641.244 154.07 643.608 154.492C646.442 154.997 647.017 151.537 647.11 149.475"
    stroke="#11269C"
    stroke-linecap="round"
    stroke-linejoin="round"
  />
  <path
    d="M640 154.571C640.565 154.364 641.272 154.004 641.75 153.645"
    stroke="#11269C"
    stroke-linecap="round"
    stroke-linejoin="round"
  />
  <path
    d="M642.133 156.468C642.415 156.111 642.75 155.645 643.318 154.809"
    stroke="#11269C"
    stroke-linecap="round"
    stroke-linejoin="round"
  />
  <path
    d="M644.859 156.942C644.859 156.073 644.859 155.421 644.859 154.552"
    stroke="#11269C"
    stroke-linecap="round"
    stroke-linejoin="round"
  />
  <path
    d="M646.094 161.669C646.545 162.459 648.339 163.512 648.339 163.512C648.339 163.512 646.81 164.43 647.272 165.5C647.623 166.312 650.057 166.507 650.117 165.408C650.144 164.904 649.995 164.43 649.761 163.986C649.666 163.806 649.432 163.42 649.432 163.42C649.432 163.42 650.879 163.196 651.058 162.031C651.214 161.019 650.734 160.421 649.702 161.089C648.806 161.669 649.022 163.565 648.925 163.321C648.568 162.43 647.373 160.918 646.338 160.918C645.867 160.918 645.919 161.363 646.094 161.669Z"
    fill="#11269C"
    stroke="#11269C"
    stroke-linecap="round"
    stroke-linejoin="round"
  />
  <path
    d="M619.166 158.049C612.681 149.274 612.22 143.044 611.39 138.298L606.939 154.183L594.061 144.346C592.113 149.622 593.127 157.927 594.64 160.541L583.578 157.043C592.366 180.637 604.243 187.595 614.248 183.393C623.961 179.314 624.945 165.869 619.166 158.049Z"
    fill="#11269C"
  />
  <path
    d="M616 179.501C622.833 181.668 636.7 199.501 637.5 253.501"
    stroke="#11269C"
    stroke-width="5"
  />
  <path
    d="M602 218.001C593.5 210.501 605.167 204.001 611.5 201.501C573 204.001 588.5 236.001 611.5 231.501C624.83 228.893 632.402 245.948 635.402 253.282C630.402 215.282 613.254 227.931 602 218.001Z"
    fill="white"
  />
  <path
    d="M602 218.001C593.5 210.501 605.167 204.001 611.5 201.501C573 204.001 588.5 236.001 611.5 231.501C624.83 228.893 632.402 245.948 635.402 253.282C630.402 215.282 613.254 227.931 602 218.001Z"
    fill="#11269C"
    fill-opacity="0.6"
  />
  <path
    d="M602 218.001C593.5 210.501 605.167 204.001 611.5 201.501C573 204.001 588.5 236.001 611.5 231.501C624.83 228.893 632.402 245.948 635.402 253.282C630.402 215.282 613.254 227.931 602 218.001Z"
    stroke="#11269C"
  />
  <path
    d="M601.853 165.919C602.747 167.216 604.179 169.64 602.535 170.9C600.562 172.41 598.751 169.986 597.862 168.442"
    stroke="white"
    stroke-linecap="round"
    stroke-linejoin="round"
  />
  <path
    d="M605.332 169.531C604.816 169.597 604.132 169.6 603.623 169.515"
    stroke="white"
    stroke-linecap="round"
    stroke-linejoin="round"
  />
  <path
    d="M604.448 171.83C604.091 171.669 603.649 171.444 602.882 171.028"
    stroke="white"
    stroke-linecap="round"
    stroke-linejoin="round"
  />
  <path
    d="M602.547 173.274C602.203 172.608 601.944 172.108 601.6 171.441"
    stroke="white"
    stroke-linecap="round"
    stroke-linejoin="round"
  />
  <path
    d="M610.705 160.025C611.599 161.322 613.032 163.746 611.387 165.006C609.414 166.517 607.603 164.092 606.714 162.549"
    stroke="white"
    stroke-linecap="round"
    stroke-linejoin="round"
  />
  <path
    d="M614.184 163.638C613.669 163.703 612.984 163.707 612.475 163.621"
    stroke="white"
    stroke-linecap="round"
    stroke-linejoin="round"
  />
  <path
    d="M613.3 165.937C612.943 165.775 612.501 165.55 611.735 165.135"
    stroke="white"
    stroke-linecap="round"
    stroke-linejoin="round"
  />
  <path
    d="M611.399 167.38C611.055 166.714 610.796 166.214 610.452 165.548"
    stroke="white"
    stroke-linecap="round"
    stroke-linejoin="round"
  />
  <path
    d="M612.648 171.484C612.527 172.21 611.331 173.712 611.331 173.712C611.331 173.712 612.972 173.634 612.938 174.55C612.911 175.245 610.866 176.467 610.438 175.765C610.242 175.443 610.208 175.063 610.26 174.664C610.28 174.502 610.351 174.141 610.351 174.141C610.351 174.141 609.019 174.642 608.465 173.951C607.983 173.351 608.194 172.739 609.319 172.719C610.294 172.701 610.756 174.053 610.757 173.848C610.762 173.098 611.281 171.561 612.18 171.096C612.588 170.885 612.695 171.203 612.648 171.484Z"
    fill="#FF596A"
    stroke="#FF596A"
    stroke-linecap="round"
    stroke-linejoin="round"
  />
  <path
    d="M681.5 178.001C683 183.168 683.3 194.101 672.5 196.501C659 199.501 659.5 237.001 661 248.001"
    stroke="#11269C"
  />
  <path
    d="M609.5 202.001C603.167 203.334 591.4 208.101 595 216.501C599.5 227.001 608.326 225.966 616 227.501C621 228.501 628.453 229.409 635.453 253.409"
    stroke="#11269C"
  />
  <path d="M677.5 187.001L676.5 195.001L684 191.501" stroke="#11269C" />
  <path d="M658 225.501L660 233.501L663.5 226.001" stroke="#11269C" />
  <path d="M597.5 204.501L596 209.001L602 207.001" stroke="#11269C" />
  <path
    d="M590 210.001C591.298 215.191 592.559 217.374 596.5 219.001L599 212.501"
    stroke="#11269C"
  />
  <path d="M591 224.001L603 224.501L602.5 218.501" stroke="#11269C" />
  <path
    d="M610 222.001L616 227.501C609.896 228.629 606.04 229.093 604.5 232.001"
    stroke="#11269C"
  />
  <path d="M623.5 226.501L628 236.501L620 232.501" stroke="#11269C" />
  <path d="M671 190.501L668 199.501L679.5 200.001" stroke="#11269C" />
  <path d="M664.5 197.001L663 210.001L671 206.001" stroke="#11269C" />
  <path d="M659.5 212.501L660.5 222.501L666 215.001" stroke="#11269C" />
  <path
    d="M40.725 192.861C40.725 194.788 40.4969 196.513 40.1394 197.741C39.9596 198.358 39.7552 198.821 39.5504 199.118C39.3349 199.431 39.1937 199.459 39.1574 199.459C39.1212 199.459 38.98 199.431 38.7645 199.118C38.5597 198.821 38.3553 198.358 38.1755 197.741C37.818 196.513 37.5899 194.788 37.5899 192.861C37.5899 190.934 37.818 189.209 38.1755 187.982C38.3553 187.364 38.5597 186.901 38.7645 186.604C38.98 186.291 39.1212 186.263 39.1574 186.263C39.1937 186.263 39.3349 186.291 39.5504 186.604C39.7552 186.901 39.9596 187.364 40.1394 187.982C40.4969 189.209 40.725 190.934 40.725 192.861Z"
    fill="white"
    stroke="#FF94B8"
  />
  <path
    d="M37.0794 192.78C38.0586 194.439 38.7391 196.041 39.0552 197.28C39.214 197.903 39.2733 198.405 39.2481 198.766C39.2215 199.145 39.1144 199.241 39.0832 199.259C39.052 199.278 38.9159 199.325 38.5712 199.165C38.2437 199.013 37.8323 198.718 37.3639 198.278C36.432 197.403 35.3587 196.033 34.3795 194.374C33.4002 192.714 32.7197 191.113 32.4037 189.874C32.2449 189.251 32.1856 188.748 32.2108 188.388C32.2373 188.009 32.3445 187.913 32.3757 187.894C32.4069 187.876 32.543 187.829 32.8877 187.989C33.2152 188.141 33.6265 188.436 34.095 188.876C35.0269 189.751 36.1002 191.121 37.0794 192.78Z"
    fill="white"
    stroke="#FF94B8"
  />
  <path
    d="M34.1497 194.988C35.845 195.903 37.2549 196.923 38.1653 197.821C38.6229 198.272 38.9333 198.672 39.0976 198.994C39.2707 199.332 39.2286 199.47 39.2114 199.502C39.1942 199.533 39.1021 199.644 38.7243 199.685C38.3653 199.724 37.8608 199.684 37.2324 199.549C35.9823 199.281 34.3557 198.662 32.6604 197.746C30.9651 196.831 29.5552 195.811 28.6448 194.913C28.1872 194.462 27.8769 194.062 27.7125 193.741C27.5395 193.402 27.5815 193.264 27.5987 193.233C27.6159 193.201 27.708 193.09 28.0858 193.049C28.4448 193.01 28.9493 193.05 29.5777 193.185C30.8278 193.454 32.4544 194.073 34.1497 194.988Z"
    fill="white"
    stroke="#FF94B8"
  />
  <path
    d="M40.725 205.939C40.725 204.012 40.4969 202.287 40.1394 201.059C39.9596 200.442 39.7552 199.979 39.5504 199.682C39.3349 199.369 39.1937 199.34 39.1574 199.34C39.1212 199.34 38.98 199.369 38.7645 199.682C38.5597 199.979 38.3553 200.442 38.1755 201.059C37.818 202.287 37.5899 204.012 37.5899 205.939C37.5899 207.865 37.818 209.591 38.1755 210.818C38.3553 211.435 38.5597 211.898 38.7645 212.196C38.98 212.509 39.1212 212.537 39.1574 212.537C39.1937 212.537 39.3349 212.509 39.5504 212.196C39.7552 211.898 39.9596 211.435 40.1394 210.818C40.4969 209.591 40.725 207.865 40.725 205.939Z"
    fill="white"
    stroke="#FF94B8"
  />
  <path
    d="M37.8969 203.181C35.4928 208.894 33.3073 222.738 43.7979 232.404"
    stroke="#11269C"
    stroke-width="2"
    stroke-linecap="round"
  />
  <path
    d="M35.9601 219.265C34.3086 217.572 30.0398 214.939 26.1766 217.949L35.9601 219.265Z"
    fill="#11269C"
  />
  <path
    d="M38.4084 223.405C40.0599 221.712 44.3287 219.079 48.1919 222.089L38.4084 223.405Z"
    fill="#11269C"
  />
  <path
    d="M37.0794 206.02C38.0586 204.36 38.7391 202.759 39.0552 201.52C39.214 200.897 39.2733 200.394 39.2481 200.034C39.2215 199.655 39.1144 199.559 39.0832 199.54C39.052 199.522 38.9159 199.475 38.5712 199.635C38.2437 199.787 37.8323 200.082 37.3639 200.522C36.432 201.397 35.3587 202.767 34.3795 204.426C33.4002 206.085 32.7197 207.687 32.4037 208.926C32.2449 209.549 32.1856 210.051 32.2108 210.412C32.2373 210.791 32.3445 210.887 32.3757 210.905C32.4069 210.924 32.543 210.971 32.8877 210.811C33.2152 210.659 33.6265 210.364 34.095 209.924C35.0269 209.049 36.1002 207.679 37.0794 206.02Z"
    fill="white"
    stroke="#FF94B8"
  />
  <path
    d="M34.1497 203.812C35.845 202.897 37.2549 201.877 38.1653 200.979C38.6229 200.527 38.9333 200.128 39.0976 199.806C39.2707 199.468 39.2286 199.33 39.2114 199.298C39.1942 199.266 39.1021 199.156 38.7243 199.115C38.3653 199.076 37.8608 199.116 37.2324 199.251C35.9823 199.519 34.3557 200.138 32.6604 201.053C30.9651 201.969 29.5552 202.989 28.6448 203.887C28.1872 204.338 27.8769 204.738 27.7125 205.059C27.5395 205.398 27.5815 205.535 27.5987 205.567C27.6159 205.599 27.708 205.71 28.0858 205.751C28.4448 205.79 28.9493 205.75 29.5777 205.615C30.8278 205.346 32.4544 204.727 34.1497 203.812Z"
    fill="white"
    stroke="#FF94B8"
  />
  <path
    d="M32.6888 201.281C34.6145 201.221 36.3318 200.939 37.5476 200.543C38.1588 200.344 38.6152 200.126 38.906 199.912C39.2121 199.686 39.2361 199.544 39.235 199.508C39.2338 199.472 39.201 199.332 38.8814 199.126C38.5778 198.931 38.1086 198.741 37.4862 198.58C36.248 198.262 34.5164 198.088 32.5908 198.148C30.6651 198.208 28.9478 198.49 27.732 198.886C27.1208 199.085 26.6644 199.304 26.3736 199.518C26.0675 199.743 26.0435 199.885 26.0447 199.921C26.0458 199.957 26.0786 200.097 26.3982 200.303C26.7018 200.498 27.171 200.688 27.7934 200.849C29.0316 201.168 30.7632 201.342 32.6888 201.281Z"
    fill="white"
    stroke="#FF94B8"
  />
  <path
    d="M41.1284 192.78C40.1491 194.439 39.4686 196.041 39.1526 197.28C38.9938 197.903 38.9345 198.405 38.9597 198.766C38.9862 199.145 39.0934 199.241 39.1246 199.259C39.1558 199.278 39.2919 199.325 39.6365 199.165C39.964 199.013 40.3754 198.718 40.8439 198.278C41.7757 197.403 42.8491 196.033 43.8283 194.374C44.8075 192.714 45.488 191.113 45.804 189.874C45.9629 189.251 46.0222 188.748 45.997 188.388C45.9704 188.009 45.8633 187.913 45.8321 187.894C45.8009 187.876 45.6648 187.829 45.3201 187.989C44.9926 188.141 44.5812 188.436 44.1128 188.876C43.1809 189.751 42.1076 191.121 41.1284 192.78Z"
    fill="white"
    stroke="#FF94B8"
  />
  <path
    d="M44.0581 194.988C42.3627 195.903 40.9529 196.923 40.0425 197.821C39.5848 198.272 39.2745 198.672 39.1101 198.994C38.9371 199.332 38.9792 199.47 38.9964 199.502C39.0136 199.533 39.1057 199.644 39.4835 199.685C39.8424 199.724 40.347 199.684 40.9754 199.549C42.2255 199.281 43.852 198.662 45.5474 197.746C47.2427 196.831 48.6526 195.811 49.5629 194.913C50.0206 194.462 50.3309 194.062 50.4953 193.741C50.6683 193.402 50.6262 193.264 50.609 193.233C50.5918 193.201 50.4997 193.09 50.1219 193.049C49.763 193.01 49.2584 193.05 48.63 193.185C47.3799 193.454 45.7534 194.073 44.0581 194.988Z"
    fill="white"
    stroke="#FF94B8"
  />
  <path
    d="M41.1284 206.02C40.1491 204.36 39.4686 202.759 39.1526 201.52C38.9938 200.897 38.9345 200.394 38.9597 200.034C38.9862 199.655 39.0934 199.559 39.1246 199.54C39.1558 199.522 39.2919 199.475 39.6365 199.635C39.964 199.787 40.3754 200.082 40.8439 200.522C41.7757 201.397 42.8491 202.767 43.8283 204.426C44.8075 206.085 45.488 207.687 45.804 208.926C45.9629 209.549 46.0222 210.051 45.997 210.412C45.9704 210.791 45.8633 210.887 45.8321 210.905C45.8009 210.924 45.6648 210.971 45.3201 210.811C44.9926 210.659 44.5812 210.364 44.1128 209.924C43.1809 209.049 42.1076 207.679 41.1284 206.02Z"
    fill="white"
    stroke="#FF94B8"
  />
  <path
    d="M44.0581 203.812C42.3627 202.897 40.9529 201.877 40.0425 200.979C39.5848 200.527 39.2745 200.128 39.1101 199.806C38.9371 199.468 38.9792 199.33 38.9964 199.298C39.0136 199.266 39.1057 199.156 39.4835 199.115C39.8424 199.076 40.347 199.116 40.9754 199.251C42.2255 199.519 43.852 200.138 45.5474 201.053C47.2427 201.969 48.6526 202.989 49.5629 203.887C50.0206 204.338 50.3309 204.738 50.4953 205.059C50.6683 205.398 50.6262 205.535 50.609 205.567C50.5918 205.599 50.4997 205.71 50.1219 205.751C49.763 205.79 49.2584 205.75 48.63 205.615C47.3799 205.346 45.7534 204.727 44.0581 203.812Z"
    fill="white"
    stroke="#FF94B8"
  />
  <path
    d="M45.5189 201.281C43.5933 201.221 41.8759 200.939 40.6601 200.543C40.049 200.344 39.5926 200.126 39.3018 199.912C38.9957 199.686 38.9717 199.544 38.9728 199.508C38.9739 199.472 39.0068 199.332 39.3263 199.126C39.63 198.931 40.0991 198.741 40.7216 198.58C41.9597 198.262 43.6913 198.088 45.617 198.148C47.5426 198.208 49.26 198.49 50.4758 198.886C51.087 199.085 51.5433 199.304 51.8342 199.518C52.1402 199.743 52.1642 199.885 52.1631 199.921C52.162 199.957 52.1291 200.097 51.8096 200.303C51.5059 200.498 51.0368 200.688 50.4143 200.849C49.1762 201.168 47.4446 201.342 45.5189 201.281Z"
    fill="white"
    stroke="#FF94B8"
  />
  <circle cx="39.1575" cy="199.715" r="4.74586" fill="#FF596A" />
  <circle cx="37.4558" cy="199.269" r="0.952545" fill="#11269C" />
  <circle cx="40.7519" cy="199.269" r="0.952545" fill="#11269C" />
  <path
    d="M37.8945 200.947C38.2877 201.764 39.3704 201.891 40.1931 200.947"
    stroke="#11269C"
  />
  <path
    d="M1335.42 143.862C1336.66 141.25 1342.42 129.312 1347.19 132.818C1349.17 134.277 1348.27 138.296 1347.51 140.101C1346.1 143.472 1341.38 147.443 1347.83 146.583C1352.38 145.976 1352.72 149.481 1352.15 152.185C1351.56 155.003 1346.86 155.359 1345.51 155.386"
    stroke="white"
    stroke-linecap="round"
    stroke-linejoin="round"
  />
  <path
    d="M1315.26 123.694C1314.61 120.896 1310.65 111.367 1313.5 108.689C1314.06 108.158 1315.19 107.524 1315.98 108.009C1318.12 109.316 1317.34 113.575 1317.42 115.611C1317.43 115.879 1320.15 111.549 1321.02 110.73C1323.64 108.256 1326.43 109.232 1326.02 112.89C1325.76 115.277 1324.17 116.471 1322.9 118.252C1322.62 118.643 1326.14 117.066 1326.82 116.852C1329.07 116.15 1331.25 118.107 1329.98 120.453C1328.69 122.856 1325.73 123.694 1323.18 123.694"
    stroke="white"
    stroke-linecap="round"
    stroke-linejoin="round"
  />
  <path
    d="M1375.04 186.358C1375.04 181.882 1374.73 177.698 1377.76 174.033C1378.38 173.285 1381.11 170.675 1381.48 173.113C1381.98 176.362 1379.55 185.96 1380.88 182.956C1382.04 180.355 1388.49 174.678 1388.72 180.595C1388.81 182.786 1386.28 188.958 1383.68 186.358"
    stroke="white"
    stroke-linecap="round"
    stroke-linejoin="round"
  />
  <path
    d="M1381.52 135.218C1383.29 133.399 1389.16 125.026 1384.24 123.134C1380.92 121.856 1379.47 124.229 1377.2 125.695C1375.44 126.837 1377.56 123.087 1377.92 122.094C1378.71 119.914 1379.24 115.174 1375.92 115.051C1373.01 114.943 1373.12 117.059 1371.28 118.492C1369.87 119.585 1370.6 114.598 1369.12 113.61C1362.12 108.945 1360.02 122.46 1362.07 126.575"
    stroke="white"
    stroke-linecap="round"
    stroke-linejoin="round"
  />
  <path
    d="M1316.02 175.768C1313.72 171.898 1310.16 162.249 1316.9 160.082C1320.07 159.063 1318.9 167.912 1318.9 169.846C1318.9 169.877 1323.46 165.251 1325.78 167.845C1328.42 170.793 1322.74 175.532 1321.06 177.209"
    stroke="white"
    stroke-linecap="round"
    stroke-linejoin="round"
  />
  <path
    d="M1310.94 208.685C1309.58 205.187 1306.62 198.198 1310.78 195.32C1313.42 193.492 1313.82 197.43 1313.82 199.082C1313.82 200.43 1312.86 206.005 1314.54 203.484C1315.68 201.769 1320.03 196.902 1322.1 200.122C1323.6 202.459 1323.59 205.563 1322.1 207.885C1320.55 210.294 1320.09 208.216 1322.86 206.925C1330.35 203.427 1328.79 215.168 1321.02 215.168"
    stroke="white"
    stroke-linecap="round"
    stroke-linejoin="round"
  />
  <path
    d="M1382.24 226.693C1381.71 222.708 1381.63 218.619 1384.84 215.649C1385.87 214.7 1389.66 212.441 1390.32 214.768C1391.33 218.294 1388.72 225.652 1388.72 225.652C1388.72 225.652 1390.89 223.254 1392.37 222.811C1393.86 222.364 1397.23 221.946 1397.93 223.972C1398.99 227.053 1394.85 234.978 1391.61 231.735"
    stroke="white"
    stroke-linecap="round"
    stroke-linejoin="round"
  />
  <path
    d="M1040.84 179.875C1039.28 177.215 1038.18 175.451 1039.55 172.432C1040.3 170.794 1042.29 169.955 1044.04 170.592C1045.28 171.045 1045.88 175.598 1045.88 173.393C1045.88 170.809 1047.24 166.99 1050.52 166.99C1052.69 166.99 1052.74 171.296 1053.08 172.672"
    stroke="white"
    stroke-linecap="round"
    stroke-linejoin="round"
  />
  <path
    d="M1259.67 286.026C1259.39 291.733 1259.52 297.282 1259.67 302.977"
    stroke="#11269C"
    stroke-width="2"
    stroke-linecap="round"
    stroke-linejoin="round"
  />
  <path
    d="M1253.01 292.08C1253.61 295.309 1254.22 298.537 1254.82 301.766"
    stroke="#11269C"
    stroke-width="2"
    stroke-linecap="round"
    stroke-linejoin="round"
  />
  <path
    d="M1243.32 291.475C1245.54 295.048 1247.44 298.652 1249.37 302.371"
    stroke="#11269C"
    stroke-width="2"
    stroke-linecap="round"
    stroke-linejoin="round"
  />
</svg>
