<svg width="140" height="115" viewBox="0 0 140 115" fill="none" xmlns="http://www.w3.org/2000/svg">
<mask id="mask0" mask-type="alpha" maskUnits="userSpaceOnUse" x="0" y="0" width="140" height="115">
<rect width="140" height="115" fill="#C4C4C4"/>
</mask>
<g mask="url(#mask0)">
<path fill-rule="evenodd" clip-rule="evenodd" d="M124.983 5L134 18.0828H126.722C126.543 30.7303 125.772 42.567 113.971 53.389C107.671 59.1673 97.821 61.5457 89.5948 58.5574C85.4671 57.058 82.405 54.364 80.7073 50.8949C80.2072 49.873 79.8323 48.7978 79.5826 47.6836C75.1226 44.6007 71.7691 40.2775 67.9436 36.4972C63.4838 32.0903 57.7742 29.4023 51.604 29.4023C43.5664 29.4023 35.1369 32.4182 30.1229 38.5077C26.4147 43.0113 23.4795 49.5536 27.3631 54.8704C32.0181 61.2432 41.3872 61.7374 48.2201 64.2728C54.0178 66.4241 60.9364 70.6915 58.6866 77.9894C56.3145 85.6838 46.5798 87.3374 39.6589 86.5565C34.357 85.9582 26.9582 83.6743 22.5003 87.8241C20.3106 89.8624 19.4007 92.5167 19.1255 95.6258C18.403 103.79 21.3002 111.664 21.8491 119.726L17.8386 120C17.2734 111.699 14.3772 103.679 15.1215 95.2704C15.448 91.5808 16.5918 87.8282 19.7635 84.8757C25.3484 79.6766 33.3748 81.7965 40.109 82.5563C44.9626 83.104 53.1035 82.453 54.8456 76.802C56.3578 71.8969 50.4286 69.3852 46.8234 68.0475C39.0321 65.1564 29.4253 64.5119 24.1187 57.247C19.0978 50.3732 22.1086 41.9134 27.0214 35.9468C32.9989 28.6873 42.72 25.3768 51.604 25.3768C58.9868 25.3768 65.6736 28.5988 70.767 33.6319C73.6623 36.4929 76.2552 39.662 79.3142 42.3565C79.428 41.3254 79.6342 40.2814 79.9326 39.2336C80.7043 36.5238 82.3232 33.2485 84.6798 30.8529C87.0673 28.4259 90.4715 26.689 94.5113 27.9163C98.3934 29.0957 100.21 32.5833 100.761 35.9072C101.311 39.224 100.731 42.9433 99.257 45.5408C96.1117 51.0822 90.17 51.9781 85.0836 50.4327C86.3627 52.286 88.3169 53.8111 90.9655 54.7732C97.6699 57.2086 105.967 55.2713 111.257 50.4204C122.085 40.4897 122.513 30.5676 122.688 18.0828H116.916L124.983 5ZM83.2706 45.2607C83.142 43.7244 83.3052 42.0688 83.7982 40.3376C84.4289 38.1233 85.76 35.4909 87.5435 33.6779C89.296 31.8963 91.2219 31.1236 93.3444 31.7684C95.1847 32.3275 96.3773 34.0461 96.7954 36.5667C97.2146 39.0944 96.7238 41.8578 95.7624 43.5516C93.1166 48.2128 87.295 47.5737 83.2706 45.2607Z" fill="#11269C"/>
<path d="M121.439 4.71599C121.343 4.57704 121.184 4.49587 121.015 4.50016C120.846 4.50446 120.691 4.59364 120.602 4.73729L112.575 17.7373C112.479 17.8915 112.475 18.0852 112.563 18.2436C112.652 18.4019 112.819 18.5 113 18.5H118.236C118.147 24.5039 117.965 29.8474 116.55 34.8829C115.101 40.0392 112.352 44.891 107.031 49.7641C101.893 54.4691 93.83 56.3395 87.3477 53.9881C85.3754 53.2727 83.8176 52.2391 82.6542 50.9981C87.507 51.9926 92.8837 50.772 95.8626 45.5313C97.3936 42.8379 97.9812 39.0234 97.4176 35.6297C96.8528 32.2292 94.9691 28.5422 90.8507 27.2928C86.591 26.0005 83.0197 27.8478 80.5662 30.3384C78.1499 32.7912 76.5032 36.1257 75.7177 38.8798C75.5045 39.6273 75.3373 40.3738 75.2162 41.1161C73.9752 39.9709 72.8017 38.75 71.6343 37.5054C71.3416 37.1934 71.0491 36.8796 70.756 36.5652C69.6678 35.3979 68.5713 34.2217 67.4292 33.0947C62.2822 28.0159 55.5068 24.7478 48.0093 24.7478C39.0639 24.7478 29.2299 28.0738 23.1619 35.4328C18.227 41.4177 15.0504 50.0954 20.2557 57.2115C22.9818 60.9383 26.8014 62.9473 30.8618 64.3835C32.8045 65.0707 34.8165 65.6313 36.7965 66.183C36.8842 66.2075 36.9719 66.2319 37.0596 66.2564C39.1309 66.8339 41.1626 67.4074 43.0785 68.1173C44.8741 68.7826 47.1746 69.7155 48.8394 71.0579C49.6674 71.7256 50.3114 72.474 50.6665 73.3137C51.0168 74.1421 51.0998 75.0906 50.7573 76.2C49.9626 78.7739 47.6991 80.2603 44.9294 81.0347C42.1645 81.8077 39.0005 81.836 36.6269 81.5686C35.6833 81.4622 34.7024 81.3269 33.699 81.1884C31.1999 80.8435 28.5616 80.4794 26.0158 80.4973C22.4175 80.5226 18.8894 81.304 15.985 84.0039C12.7067 87.0514 11.5395 90.9168 11.2082 94.6549C10.8319 98.9002 11.3771 103.034 12.0767 107.11C12.2307 108.007 12.3918 108.9 12.5526 109.791C13.1256 112.965 13.6934 116.112 13.9112 119.306C13.9202 119.438 13.9814 119.562 14.0814 119.649C14.1813 119.736 14.3117 119.78 14.4441 119.771L18.4348 119.499C18.7103 119.48 18.9184 119.241 18.8996 118.966C18.6825 115.782 18.0989 112.622 17.5214 109.495C17.3659 108.653 17.2109 107.814 17.0637 106.977C16.3659 103.014 15.8353 99.0837 16.1887 95.0963C16.4561 92.0793 17.3323 89.5781 19.3892 87.666C21.4618 85.7394 24.2457 85.2762 27.2503 85.4004C28.7485 85.4623 30.2793 85.6692 31.7769 85.9005C32.163 85.9602 32.548 86.0217 32.9297 86.0826C34.0183 86.2564 35.0805 86.426 36.067 86.5371C39.5651 86.9313 43.7882 86.7142 47.4546 85.4132C51.1271 84.11 54.2934 81.6961 55.5348 77.6749C56.7184 73.841 55.4746 70.7844 53.2118 68.447C50.9727 66.1341 47.7273 64.5076 44.8158 63.4288C43.09 62.7893 41.2102 62.2807 39.309 61.7818C39.1145 61.7308 38.9198 61.6798 38.7249 61.6288C37.0074 61.1796 35.2801 60.7277 33.6075 60.1808C29.8804 58.9622 26.5139 57.2981 24.2912 54.2595C22.4655 51.7635 22.232 48.9783 22.913 46.2429C23.5975 43.4941 25.2035 40.8162 27.0196 38.6137C31.8893 32.7079 40.1168 29.7478 48.0093 29.7478C53.9985 29.7478 59.5584 32.3525 63.9173 36.6538C65.0625 37.7838 66.1531 38.9502 67.252 40.1255C67.9794 40.9035 68.7105 41.6855 69.4634 42.4632C71.2924 44.3526 73.214 46.1772 75.4066 47.7138C75.6627 48.7905 76.034 49.8316 76.5205 50.8244C78.2724 54.3993 81.4262 57.1589 85.6427 58.6884C94.0179 61.7265 104.012 59.3082 110.408 53.4515C122.159 42.6894 123.057 30.9047 123.25 18.5H130C130.186 18.5 130.356 18.3969 130.443 18.2324C130.529 18.0678 130.517 17.8689 130.411 17.716L121.439 4.71599ZM86.2206 46.2563C84.1461 46.3774 81.8925 45.7385 79.9994 44.7014C79.9154 43.3135 80.0788 41.8189 80.526 40.2511C81.136 38.1123 82.4247 35.5765 84.1282 33.8473C85.7911 32.1592 87.5235 31.5084 89.3992 32.0775C90.9791 32.5568 92.0864 34.0477 92.4851 36.4488C92.886 38.8623 92.4087 41.4896 91.5158 43.0605C90.297 45.2046 88.3594 46.1316 86.2206 46.2563Z" fill="white" stroke="#11269C" stroke-linejoin="round"/>
<path d="M83 46L79.5 44.5C79.543 46.1501 80.0749 48.7927 81.5 50.5L85.5 51C83 49 82.8333 47 83 46Z" fill="#11269C"/>
<path d="M75.5 39.5C74.8333 42.8333 74.5 50.4 78.5 54" stroke="#11269C"/>
<path d="M105.696 82.9293C106.549 81.984 105.924 80.4256 104.614 80.4061C101.282 80.3564 98.8256 80.4983 95.1296 81.0923C94.243 77.5267 93.4619 75.6634 91.9978 72.6307C91.4482 71.4923 89.8478 71.5182 89.2717 72.5954C88.9888 73.1245 88.7148 73.6177 88.4494 74.0953C87.3122 76.1422 86.3344 77.9022 85.4978 80.9637C81.2852 80.3009 78.6781 80.452 74.897 80.9604C73.853 81.1008 73.2514 82.2784 73.86 83.1943C76.0932 86.5558 78.4529 88.0085 81.8342 90.0747C80.2582 93.0532 79.8695 95.3658 79.5183 98.7821C79.4114 99.8211 80.3961 100.678 81.4255 100.326C85.2192 99.0255 87.8629 97.0306 91.1669 94.2784C93.6535 96.9432 95.7008 98.4123 98.6704 100.234C99.7961 100.924 101.189 99.9165 100.892 98.6327C100.106 95.2318 99.442 92.9437 98.2568 89.9389C101.242 87.8918 103.01 85.9209 105.075 83.62C105.279 83.3931 105.485 83.163 105.696 82.9293Z" fill="#11269C" stroke="#11269C"/>
<path d="M74.8606 83.4403L75.228 83.1011L74.8606 83.4403C77.1302 85.8988 78.9382 87.3796 81.9295 89.2473C80.5652 91.8461 80.1627 93.9057 79.8491 96.7778C79.7159 97.9984 81.0319 98.8376 82.0842 98.22C85.0021 96.5074 87.0482 95.1781 89.9442 92.7731C92.2067 95.2048 94.0819 96.5696 96.7583 98.2256C97.8833 98.9217 99.279 97.9136 98.9819 96.6291C98.269 93.5474 97.6551 91.4378 96.5776 88.6898C99.5375 86.6812 101.304 85.1444 103.489 82.9011C104.396 81.9697 103.75 80.4146 102.451 80.3975C99.4383 80.3577 97.1781 80.494 93.817 81.0352C92.9971 77.7284 92.1745 75.5661 90.8098 72.651C90.2753 71.5091 88.6561 71.5127 88.1268 72.6572C86.8448 75.4293 86.0282 77.5784 85.1175 81.0415C81.3968 80.4563 79.0204 80.5587 75.7587 80.982C74.576 81.1355 74.0436 82.5552 74.8606 83.4403Z" fill="white" stroke="#11269C"/>
</g>
</svg>
