<!-- prettier-ignore -->
<svg
  width="140"
  height="115"
  viewBox="0 0 140 115"
  fill="none"
  xmlns="http://www.w3.org/2000/svg"
>
  <mask
    id="mask0"
    mask-type="alpha"
    maskUnits="userSpaceOnUse"
    x="0"
    y="0"
    width="140"
    height="115"
  >
    <rect width="140" height="115" transform="matrix(1 0 0 -1 0 115)" fill="#C4C4C4" />
  </mask>
  <g mask="url(#mask0)">
    <path
      fill-rule="evenodd"
      clip-rule="evenodd"
      d="M14.7884 35.4253C17.8135 35.7003 20.0429 38.3756 19.7679 41.4006C17.7271 63.8499 18.305 90.9842 21.6441 113.245C22.0947 116.249 20.0248 119.049 17.0208 119.5C14.0168 119.951 11.2164 117.881 10.7658 114.877C7.29268 91.7228 6.69479 63.7059 8.81307 40.4047C9.08808 37.3797 11.7633 35.1503 14.7884 35.4253Z"
      fill="white"
      stroke="#11269C"
      stroke-linecap="round"
      stroke-linejoin="round"
    />
    <path
      d="M13.091 5.97673L13.091 5.97674C11.6973 6.87269 11.2938 8.72884 12.1898 10.1226C12.6957 10.9095 13.4212 12.2769 14.1173 14.0127C12.5571 11.0075 10.8368 8.6853 9.73087 7.45535C8.62309 6.2233 6.72626 6.12255 5.49421 7.23034C4.26214 8.33812 4.16139 10.2349 5.26918 11.467C5.9921 12.271 7.41377 13.8821 8.75295 15.9467C10.0955 18.0167 11.333 20.5092 11.7188 23.0743C11.9606 24.6819 11.64 26.2312 11.1352 27.7468C10.8982 28.4586 10.6244 29.1524 10.3527 29.8407C10.3349 29.8858 10.3171 29.9309 10.2993 29.976C10.0127 30.7028 9.73039 31.4267 9.51575 32.1312C9.08815 33.5345 8.89767 34.9567 9.5366 36.2988C10.173 37.6356 11.5735 38.7713 14.0268 39.7574C19.2988 41.8766 23.3519 40.8124 26.2502 38.6399C29.1155 36.4921 30.8156 33.2925 31.51 31.1545C31.8642 30.0641 32.306 29.4685 32.7374 29.131C33.1663 28.7955 33.6364 28.6742 34.1324 28.6295C34.3776 28.6073 34.6195 28.6045 34.87 28.6016L34.8915 28.6014C35.1399 28.5985 35.4084 28.5951 35.6576 28.5632C35.9085 28.5311 36.1793 28.466 36.4239 28.3148C36.6796 28.1567 36.8748 27.9244 36.9987 27.6145C37.6141 26.0761 36.8658 24.3302 35.3274 23.7148L35.1418 24.1791L35.3274 23.7148C32.7027 22.665 29.4079 23.4028 28.03 26.1586C28.0173 26.184 28.0047 26.2093 27.992 26.2347C27.6179 26.9832 27.2358 27.7479 26.7443 28.4002C26.3543 28.9178 25.9114 29.3421 25.3757 29.6166C24.5827 26.354 24.9468 24.0147 25.5612 22.3728C25.887 21.502 26.2879 20.8149 26.6424 20.278C26.7857 20.061 26.9194 19.8712 27.041 19.6988C27.0711 19.656 27.1006 19.6143 27.1292 19.5735C27.1496 19.5443 27.1701 19.5151 27.1903 19.4859C28.0452 20.0359 28.7518 20.52 29.3554 20.9335C29.4005 20.9645 29.4451 20.995 29.4891 21.0252C30.2079 21.5174 30.7993 21.919 31.3142 22.1907C31.8342 22.4651 32.3274 22.6357 32.8513 22.6176C33.3777 22.5993 33.8642 22.3931 34.3775 22.0552C34.4032 22.0383 34.4273 22.019 34.4495 21.9976C35.0855 21.3845 35.4578 20.794 35.4705 20.1914C35.4838 19.5632 35.1065 19.1025 34.6988 18.7642C34.3267 18.4554 33.8407 18.1767 33.3815 17.9134C33.3398 17.8894 33.2984 17.8657 33.2572 17.842C32.7416 17.5454 32.2532 17.2547 31.8619 16.9156C31.4079 16.5221 31.0545 16.0712 30.7276 15.6068C30.6361 15.4768 30.544 15.3414 30.451 15.2048C30.2257 14.8737 29.9955 14.5354 29.7579 14.2497C29.4097 13.8308 28.9908 13.4517 28.4194 13.2577C27.8449 13.0628 27.1839 13.0775 26.3913 13.3144C24.7769 13.7968 23.5078 15.3173 22.5356 16.8914C21.9432 17.8504 21.4322 18.8792 21.0033 19.7982C20.662 17.2424 20.1477 14.8181 19.5625 12.7308C18.8453 10.1728 18.011 8.08234 17.2368 6.878C16.3409 5.48429 14.4847 5.08079 13.091 5.97673Z"
      fill="white"
      stroke="#11269C"
      stroke-linecap="round"
      stroke-linejoin="round"
    />
    <path
      d="M20.9715 41.1886L10.8311 37.1325C9.32268 36.5291 7.62517 37.3744 7.19769 38.9418C6.80956 40.365 7.62688 41.8381 9.03981 42.2619L19.5007 45.4002C20.626 45.7378 21.8204 45.1456 22.2329 44.0456C22.6592 42.9087 22.0989 41.6396 20.9715 41.1886Z"
      fill="white"
      stroke="#11269C"
    />
    <path
      d="M25.1942 29.6893C23.8116 29.3864 22.7819 29.0881 21.7345 30.1912C20.6423 31.3415 20.0695 32.7892 19.5183 34.2461"
      stroke="#11269C"
      stroke-linecap="round"
      stroke-linejoin="round"
    />
    <path
      d="M34.9903 37.2489L32.3843 23.3661C32.1746 22.2493 32.9364 21.1824 34.0609 21.0181L64.1848 16.6181C66.4748 16.2836 68.5699 17.9565 68.7507 20.2638L69.706 32.4591C69.8712 34.5679 68.366 36.4408 66.271 36.7331L39.4745 40.4725C37.3587 40.7678 35.3844 39.3484 34.9903 37.2489Z"
      fill="#11269C"
      stroke="#11269C"
    />
    <path
      d="M34.7923 35.7592L32.3881 23.0516C32.1765 21.9331 32.9398 20.8638 34.0664 20.7005L62.2747 16.6124C64.5624 16.2808 66.6541 17.9518 66.836 20.2562L67.7032 31.2403C67.8699 33.3515 66.362 35.2268 64.2642 35.5173L39.2712 38.9778C37.159 39.2703 35.1887 37.8544 34.7923 35.7592Z"
      fill="white"
      stroke="#11269C"
    />
    <path
      d="M96.7793 88.5245L96.4688 74.4026C96.4438 73.2666 97.3692 72.338 98.5054 72.359L128.944 72.9234C131.258 72.9663 133.052 74.958 132.855 77.2639L131.812 89.4521C131.631 91.5596 129.841 93.1623 127.726 93.1096L100.679 92.4353C98.5431 92.3821 96.8262 90.6602 96.7793 88.5245Z"
      fill="#11269C"
      stroke="#11269C"
    />
    <path
      d="M96.8265 87.0224L96.5239 74.093C96.4972 72.9549 97.4245 72.0242 98.5626 72.0466L127.06 72.6066C129.371 72.6521 131.163 74.6413 130.967 76.9446L130.034 87.9233C129.855 90.0335 128.062 91.6382 125.944 91.5832L100.721 90.9275C98.5898 90.8721 96.8764 89.1542 96.8265 87.0224Z"
      fill="white"
      stroke="#11269C"
    />
    <path
      d="M33.1244 18.3428C34.6116 19.1964 35.8802 19.9245 34.1025 21.638C32.9144 22.4203 32.205 22.2186 30.7227 21.2537"
      stroke="#11269C"
      stroke-width="2"
    />
    <path
      d="M33.0164 18.2803L30.6039 21.1754C32.1679 22.2068 32.883 22.4404 34.1025 21.6376C35.8802 19.9241 34.6116 19.1959 33.1244 18.3423C33.0885 18.3217 33.0525 18.301 33.0164 18.2803Z"
      fill="white"
    />
    <path
      fill-rule="evenodd"
      clip-rule="evenodd"
      d="M76.0528 65.165C78.6886 66.6748 79.6013 70.0354 78.0915 72.6712C73.5752 80.5557 69.997 88.4711 68.0634 96.9519C66.7367 102.771 66.3752 108.33 66.3752 114.608C66.3752 117.645 63.9127 120.108 60.8752 120.108C57.8376 120.108 55.3752 117.645 55.3752 114.608C55.3752 107.899 55.7587 101.436 57.3386 94.5066C59.5966 84.603 63.7124 75.6431 68.5466 67.2037C70.0564 64.5679 73.417 63.6552 76.0528 65.165Z"
      fill="white"
      stroke="#11269C"
      stroke-linecap="round"
      stroke-linejoin="round"
    />
    <path
      d="M81.1424 43.2995C80.323 46.714 79.1279 49.7699 77.7775 52.8488C77.7954 52.766 77.8131 52.6833 77.8305 52.6007C78.0527 51.5474 78.2386 50.4911 78.3288 49.5467C78.4177 48.6152 78.4193 47.7408 78.2384 47.0775C78.0423 46.3584 77.6572 45.5185 77.1209 44.8931C76.5907 44.2749 75.8087 43.7608 74.8685 44.0172C74.4089 44.1426 74.0363 44.3586 73.7477 44.6728C73.4629 44.9827 73.2858 45.3598 73.1691 45.768C72.9658 46.4788 72.9214 47.3892 72.8725 48.3913C72.8671 48.5011 72.8617 48.612 72.856 48.7239C72.7388 51.0343 72.5066 54.1124 70.5589 57.7643L70.5423 57.7955L70.5302 57.8287C70.0522 59.1431 69.3048 60.4661 68.5271 61.8424L68.5022 61.8865C67.725 63.2621 66.9209 64.6905 66.4039 66.1446C65.8842 67.6064 65.6402 69.1312 66.0136 70.7012C66.3877 72.2739 67.366 73.829 69.1747 75.3792C72.652 78.3598 76.5659 79.4301 80.1219 78.6709C83.6785 77.9116 86.7916 75.3403 88.7022 71.2095C89.5658 69.3424 90.7157 68.6209 91.7758 68.3071C92.3207 68.1457 92.8579 68.0877 93.3574 68.0539C93.4621 68.0468 93.5691 68.0407 93.6764 68.0346C94.0474 68.0136 94.4214 67.9924 94.7104 67.9282C96.3278 67.5687 97.3476 65.9662 96.9882 64.3488C96.766 63.3492 96.1157 62.6948 95.2885 62.3282C94.4794 61.9695 93.5002 61.882 92.5441 61.9672C91.583 62.0528 90.6044 62.3165 89.7737 62.7012C88.9549 63.0806 88.2218 63.6048 87.8232 64.2494C86.523 66.3516 85.2429 66.7199 84.3704 66.6731C83.9097 66.6484 83.5159 66.506 83.234 66.3661C83.1932 66.3459 83.155 66.3258 83.1196 66.3064C84.5247 62.9586 86.5111 60.319 88.4133 57.7914C88.4966 57.6806 88.5798 57.5701 88.6627 57.4598C90.6918 54.7605 92.611 52.1363 93.412 48.929C93.9226 47.3626 93.0737 45.6754 91.5083 45.1536C89.9365 44.6296 88.2375 45.4791 87.7135 47.0509C87.4602 47.8111 86.5773 49.7174 85.2975 52.0175C84.8596 52.8045 84.3777 53.6332 83.862 54.4728C85.1384 51.5432 86.3397 48.4387 86.9863 45.7446C87.1795 44.9395 87.0207 43.8938 86.6573 43.023C86.3018 42.1713 85.6692 41.3007 84.7597 41.0824C83.1486 40.6958 81.5291 41.6884 81.1424 43.2995Z"
      fill="white"
      stroke="#11269C"
    />
    <path
      d="M75.0658 61.0479C74.5436 63.2674 74.8109 65.0766 75.4844 67.2319C76.0368 68.9995 76.3999 71.1392 75.5519 72.8353"
      stroke="#11269C"
      stroke-linecap="round"
      stroke-linejoin="round"
    />
    <path
      d="M75.0659 61.0479C76.981 61.4146 78.8101 61.8717 80.6558 62.5061"
      stroke="#11269C"
      stroke-linecap="round"
      stroke-linejoin="round"
    />
    <path
      d="M75.5363 78.6945C71.8525 76.89 69.2373 75.1995 66.2389 72.4433C64.9696 71.2765 62.9151 71.5636 62.1092 73.0877C61.4849 74.2682 61.8823 75.7306 63.0182 76.4329L73.3426 82.8158C74.4098 83.4755 75.808 83.168 76.4999 82.1214C77.2872 80.9303 76.8185 79.3225 75.5363 78.6945Z"
      fill="white"
      stroke="#11269C"
    />
  </g>
</svg>
