<!-- prettier-ignore -->
<svg
  width="1440"
  height="234"
  viewBox="0 0 1440 234"
  fill="none"
  xmlns="http://www.w3.org/2000/svg"
>
  <mask
    id="mask0"
    mask-type="alpha"
    maskUnits="userSpaceOnUse"
    x="0"
    y="0"
    width="1440"
    height="234"
  >
    <rect width="1440" height="234" fill="#11269C" />
  </mask>
  <g mask="url(#mask0)">
    <rect width="1440" height="234" fill="#11269C" />
    <path
      fill-rule="evenodd"
      clip-rule="evenodd"
      d="M1216.5 -58H937V70H1229V92H836V63H603V183H836V131H1268V4H1280.5V160H881V278.5H1390V99.5H1351V239.5H920V199H1319.5V-35H1229V31H976V-19H1216.5V-58Z"
      fill="#11269C"
    />
    <path
      d="M937 -58V-59.5C936.172 -59.5 935.5 -58.8284 935.5 -58H937ZM1216.5 -58H1218C1218 -58.8284 1217.33 -59.5 1216.5 -59.5V-58ZM937 70H935.5C935.5 70.8284 936.172 71.5 937 71.5V70ZM1229 70H1230.5C1230.5 69.1716 1229.83 68.5 1229 68.5V70ZM1229 92V93.5C1229.83 93.5 1230.5 92.8284 1230.5 92H1229ZM836 92H834.5C834.5 92.8284 835.172 93.5 836 93.5V92ZM836 63H837.5C837.5 62.1716 836.828 61.5 836 61.5V63ZM603 63V61.5C602.172 61.5 601.5 62.1716 601.5 63H603ZM603 183H601.5C601.5 183.828 602.172 184.5 603 184.5V183ZM836 183V184.5C836.828 184.5 837.5 183.828 837.5 183H836ZM836 131V129.5C835.172 129.5 834.5 130.172 834.5 131H836ZM1268 131V132.5C1268.83 132.5 1269.5 131.828 1269.5 131H1268ZM1268 4V2.5C1267.17 2.5 1266.5 3.17157 1266.5 4H1268ZM1280.5 4H1282C1282 3.17157 1281.33 2.5 1280.5 2.5V4ZM1280.5 160V161.5C1281.33 161.5 1282 160.828 1282 160H1280.5ZM881 160V158.5C880.172 158.5 879.5 159.172 879.5 160H881ZM881 278.5H879.5C879.5 279.328 880.172 280 881 280V278.5ZM1390 278.5V280C1390.83 280 1391.5 279.328 1391.5 278.5H1390ZM1390 99.5H1391.5C1391.5 98.6716 1390.83 98 1390 98V99.5ZM1351 99.5V98C1350.17 98 1349.5 98.6716 1349.5 99.5H1351ZM1351 239.5V241C1351.83 241 1352.5 240.328 1352.5 239.5H1351ZM920 239.5H918.5C918.5 240.328 919.172 241 920 241V239.5ZM920 199V197.5C919.172 197.5 918.5 198.172 918.5 199H920ZM1319.5 199V200.5C1320.33 200.5 1321 199.828 1321 199H1319.5ZM1319.5 -35H1321C1321 -35.8284 1320.33 -36.5 1319.5 -36.5V-35ZM1229 -35V-36.5C1228.17 -36.5 1227.5 -35.8284 1227.5 -35H1229ZM1229 31V32.5C1229.83 32.5 1230.5 31.8284 1230.5 31H1229ZM976 31H974.5C974.5 31.8284 975.172 32.5 976 32.5V31ZM976 -19V-20.5C975.172 -20.5 974.5 -19.8284 974.5 -19H976ZM1216.5 -19V-17.5C1217.33 -17.5 1218 -18.1716 1218 -19H1216.5ZM935.5 -58V-55.6296H938.5V-58H935.5ZM935.5 -46.1481V-41.4074H938.5V-46.1481H935.5ZM935.5 -31.9259V-27.1852H938.5V-31.9259H935.5ZM935.5 -17.7037V-12.963H938.5V-17.7037H935.5ZM935.5 -3.48148V1.25926H938.5V-3.48148H935.5ZM935.5 10.7407V15.4815H938.5V10.7407H935.5ZM935.5 24.963V29.7037H938.5V24.963H935.5ZM935.5 39.1852V43.9259H938.5V39.1852H935.5ZM935.5 53.4074V58.1481H938.5V53.4074H935.5ZM935.5 67.6296V70H938.5V67.6296H935.5ZM937 71.5H939.561V68.5H937V71.5ZM949.807 71.5H954.93V68.5H949.807V71.5ZM965.175 71.5H970.298V68.5H965.175V71.5ZM980.544 71.5H985.667V68.5H980.544V71.5ZM995.912 71.5H1001.04V68.5H995.912V71.5ZM1011.28 71.5H1016.4V68.5H1011.28V71.5ZM1026.65 71.5H1031.77V68.5H1026.65V71.5ZM1042.02 71.5H1047.14V68.5H1042.02V71.5ZM1057.39 71.5H1062.51V68.5H1057.39V71.5ZM1072.75 71.5H1077.88V68.5H1072.75V71.5ZM1088.12 71.5H1093.25V68.5H1088.12V71.5ZM1103.49 71.5H1108.61V68.5H1103.49V71.5ZM1118.86 71.5H1123.98V68.5H1118.86V71.5ZM1134.23 71.5H1139.35V68.5H1134.23V71.5ZM1149.6 71.5H1154.72V68.5H1149.6V71.5ZM1164.96 71.5H1170.09V68.5H1164.96V71.5ZM1180.33 71.5H1185.46V68.5H1180.33V71.5ZM1195.7 71.5H1200.82V68.5H1195.7V71.5ZM1211.07 71.5H1216.19V68.5H1211.07V71.5ZM1226.44 71.5H1229V68.5H1226.44V71.5ZM1227.5 70V73.6667H1230.5V70H1227.5ZM1227.5 88.3333V92H1230.5V88.3333H1227.5ZM1229 90.5H1226.48V93.5H1229V90.5ZM1216.4 90.5H1211.37V93.5H1216.4V90.5ZM1201.29 90.5H1196.25V93.5H1201.29V90.5ZM1186.17 90.5H1181.13V93.5H1186.17V90.5ZM1171.06 90.5H1166.02V93.5H1171.06V90.5ZM1155.94 90.5H1150.9V93.5H1155.94V90.5ZM1140.83 90.5H1135.79V93.5H1140.83V90.5ZM1125.71 90.5H1120.67V93.5H1125.71V90.5ZM1110.6 90.5H1105.56V93.5H1110.6V90.5ZM1095.48 90.5H1090.44V93.5H1095.48V90.5ZM1080.37 90.5H1075.33V93.5H1080.37V90.5ZM1065.25 90.5H1060.21V93.5H1065.25V90.5ZM1050.13 90.5H1045.1V93.5H1050.13V90.5ZM1035.02 90.5H1029.98V93.5H1035.02V90.5ZM1019.9 90.5H1014.87V93.5H1019.9V90.5ZM1004.79 90.5H999.75V93.5H1004.79V90.5ZM989.673 90.5H984.635V93.5H989.673V90.5ZM974.558 90.5H969.519V93.5H974.558V90.5ZM959.442 90.5H954.404V93.5H959.442V90.5ZM944.327 90.5H939.288V93.5H944.327V90.5ZM929.211 90.5H924.173V93.5H929.211V90.5ZM914.096 90.5H909.058V93.5H914.096V90.5ZM898.981 90.5H893.942V93.5H898.981V90.5ZM883.865 90.5H878.827V93.5H883.865V90.5ZM868.75 90.5H863.711V93.5H868.75V90.5ZM853.635 90.5H848.596V93.5H853.635V90.5ZM838.519 90.5H836V93.5H838.519V90.5ZM837.5 92V89.5833H834.5V92H837.5ZM837.5 79.9167V75.0833H834.5V79.9167H837.5ZM837.5 65.4167V63H834.5V65.4167H837.5ZM836 61.5H833.573V64.5H836V61.5ZM823.865 61.5H819.01V64.5H823.865V61.5ZM809.302 61.5H804.448V64.5H809.302V61.5ZM794.74 61.5H789.885V64.5H794.74V61.5ZM780.177 61.5H775.323V64.5H780.177V61.5ZM765.615 61.5H760.76V64.5H765.615V61.5ZM751.052 61.5H746.198V64.5H751.052V61.5ZM736.49 61.5H731.635V64.5H736.49V61.5ZM721.927 61.5H717.073V64.5H721.927V61.5ZM707.365 61.5H702.51V64.5H707.365V61.5ZM692.802 61.5H687.948V64.5H692.802V61.5ZM678.24 61.5H673.385V64.5H678.24V61.5ZM663.677 61.5H658.823V64.5H663.677V61.5ZM649.115 61.5H644.26V64.5H649.115V61.5ZM634.552 61.5H629.698V64.5H634.552V61.5ZM619.99 61.5H615.135V64.5H619.99V61.5ZM605.427 61.5H603V64.5H605.427V61.5ZM601.5 63V65.5H604.5V63H601.5ZM601.5 75.5V80.5H604.5V75.5H601.5ZM601.5 90.5V95.5H604.5V90.5H601.5ZM601.5 105.5V110.5H604.5V105.5H601.5ZM601.5 120.5V125.5H604.5V120.5H601.5ZM601.5 135.5V140.5H604.5V135.5H601.5ZM601.5 150.5V155.5H604.5V150.5H601.5ZM601.5 165.5V170.5H604.5V165.5H601.5ZM601.5 180.5V183H604.5V180.5H601.5ZM603 184.5H605.427V181.5H603V184.5ZM615.135 184.5H619.99V181.5H615.135V184.5ZM629.698 184.5H634.552V181.5H629.698V184.5ZM644.26 184.5H649.115V181.5H644.26V184.5ZM658.823 184.5H663.677V181.5H658.823V184.5ZM673.385 184.5H678.24V181.5H673.385V184.5ZM687.948 184.5H692.802V181.5H687.948V184.5ZM702.51 184.5H707.365V181.5H702.51V184.5ZM717.073 184.5H721.927V181.5H717.073V184.5ZM731.635 184.5H736.49V181.5H731.635V184.5ZM746.198 184.5H751.052V181.5H746.198V184.5ZM760.76 184.5H765.615V181.5H760.76V184.5ZM775.323 184.5H780.177V181.5H775.323V184.5ZM789.885 184.5H794.74V181.5H789.885V184.5ZM804.448 184.5H809.302V181.5H804.448V184.5ZM819.01 184.5H823.865V181.5H819.01V184.5ZM833.573 184.5H836V181.5H833.573V184.5ZM837.5 183V180.111H834.5V183H837.5ZM837.5 168.556V162.778H834.5V168.556H837.5ZM837.5 151.222V145.444H834.5V151.222H837.5ZM837.5 133.889V131H834.5V133.889H837.5ZM836 132.5H838.483V129.5H836V132.5ZM848.414 132.5H853.379V129.5H848.414V132.5ZM863.31 132.5H868.276V129.5H863.31V132.5ZM878.207 132.5H883.172V129.5H878.207V132.5ZM893.103 132.5H898.069V129.5H893.103V132.5ZM908 132.5H912.966V129.5H908V132.5ZM922.897 132.5H927.862V129.5H922.897V132.5ZM937.793 132.5H942.759V129.5H937.793V132.5ZM952.69 132.5H957.655V129.5H952.69V132.5ZM967.586 132.5H972.552V129.5H967.586V132.5ZM982.483 132.5H987.448V129.5H982.483V132.5ZM997.379 132.5H1002.34V129.5H997.379V132.5ZM1012.28 132.5H1017.24V129.5H1012.28V132.5ZM1027.17 132.5H1032.14V129.5H1027.17V132.5ZM1042.07 132.5H1047.03V129.5H1042.07V132.5ZM1056.97 132.5H1061.93V129.5H1056.97V132.5ZM1071.86 132.5H1076.83V129.5H1071.86V132.5ZM1086.76 132.5H1091.72V129.5H1086.76V132.5ZM1101.66 132.5H1106.62V129.5H1101.66V132.5ZM1116.55 132.5H1121.52V129.5H1116.55V132.5ZM1131.45 132.5H1136.41V129.5H1131.45V132.5ZM1146.34 132.5H1151.31V129.5H1146.34V132.5ZM1161.24 132.5H1166.21V129.5H1161.24V132.5ZM1176.14 132.5H1181.1V129.5H1176.14V132.5ZM1191.03 132.5H1196V129.5H1191.03V132.5ZM1205.93 132.5H1210.9V129.5H1205.93V132.5ZM1220.83 132.5H1225.79V129.5H1220.83V132.5ZM1235.72 132.5H1240.69V129.5H1235.72V132.5ZM1250.62 132.5H1255.59V129.5H1250.62V132.5ZM1265.52 132.5H1268V129.5H1265.52V132.5ZM1269.5 131V128.354H1266.5V131H1269.5ZM1269.5 117.771V112.479H1266.5V117.771H1269.5ZM1269.5 101.896V96.6042H1266.5V101.896H1269.5ZM1269.5 86.0208V80.7292H1266.5V86.0208H1269.5ZM1269.5 70.1458V64.8542H1266.5V70.1458H1269.5ZM1269.5 54.2708V48.9792H1266.5V54.2708H1269.5ZM1269.5 38.3958V33.1042H1266.5V38.3958H1269.5ZM1269.5 22.5208V17.2292H1266.5V22.5208H1269.5ZM1269.5 6.64584V4H1266.5V6.64584H1269.5ZM1268 5.5H1270.08V2.5H1268V5.5ZM1278.42 5.5H1280.5V2.5H1278.42V5.5ZM1279 4V6.6H1282V4H1279ZM1279 17V22.2H1282V17H1279ZM1279 32.6V37.8H1282V32.6H1279ZM1279 48.2V53.4H1282V48.2H1279ZM1279 63.8V69H1282V63.8H1279ZM1279 79.4V84.6H1282V79.4H1279ZM1279 95V100.2H1282V95H1279ZM1279 110.6V115.8H1282V110.6H1279ZM1279 126.2V131.4H1282V126.2H1279ZM1279 141.8V147H1282V141.8H1279ZM1279 157.4V160H1282V157.4H1279ZM1280.5 158.5H1278.03V161.5H1280.5V158.5ZM1268.17 158.5H1263.24V161.5H1268.17V158.5ZM1253.37 158.5H1248.44V161.5H1253.37V158.5ZM1238.58 158.5H1233.65V161.5H1238.58V158.5ZM1223.78 158.5H1218.85V161.5H1223.78V158.5ZM1208.98 158.5H1204.05V161.5H1208.98V158.5ZM1194.19 158.5H1189.26V161.5H1194.19V158.5ZM1179.39 158.5H1174.46V161.5H1179.39V158.5ZM1164.6 158.5H1159.66V161.5H1164.6V158.5ZM1149.8 158.5H1144.87V161.5H1149.8V158.5ZM1135 158.5H1130.07V161.5H1135V158.5ZM1120.21 158.5H1115.27V161.5H1120.21V158.5ZM1105.41 158.5H1100.48V161.5H1105.41V158.5ZM1090.61 158.5H1085.68V161.5H1090.61V158.5ZM1075.82 158.5H1070.89V161.5H1075.82V158.5ZM1061.02 158.5H1056.09V161.5H1061.02V158.5ZM1046.23 158.5H1041.29V161.5H1046.23V158.5ZM1031.43 158.5H1026.5V161.5H1031.43V158.5ZM1016.63 158.5H1011.7V161.5H1016.63V158.5ZM1001.84 158.5H996.904V161.5H1001.84V158.5ZM987.04 158.5H982.108V161.5H987.04V158.5ZM972.244 158.5H967.312V161.5H972.244V158.5ZM957.448 158.5H952.515V161.5H957.448V158.5ZM942.651 158.5H937.719V161.5H942.651V158.5ZM927.855 158.5H922.923V161.5H927.855V158.5ZM913.059 158.5H908.127V161.5H913.059V158.5ZM898.262 158.5H893.33V161.5H898.262V158.5ZM883.466 158.5H881V161.5H883.466V158.5ZM879.5 160V162.469H882.5V160H879.5ZM879.5 172.344V177.281H882.5V172.344H879.5ZM879.5 187.156V192.094H882.5V187.156H879.5ZM879.5 201.969V206.906H882.5V201.969H879.5ZM879.5 216.781V221.719H882.5V216.781H879.5ZM879.5 231.594V236.531H882.5V231.594H879.5ZM879.5 246.406V251.344H882.5V246.406H879.5ZM879.5 261.219V266.156H882.5V261.219H879.5ZM879.5 276.031V278.5H882.5V276.031H879.5ZM881 280H883.495V277H881V280ZM893.476 280H898.466V277H893.476V280ZM908.446 280H913.436V277H908.446V280ZM923.417 280H928.407V277H923.417V280ZM938.387 280H943.377V277H938.387V280ZM953.358 280H958.348V277H953.358V280ZM968.328 280H973.319V277H968.328V280ZM983.299 280H988.289V277H983.299V280ZM998.27 280H1003.26V277H998.27V280ZM1013.24 280H1018.23V277H1013.24V280ZM1028.21 280H1033.2V277H1028.21V280ZM1043.18 280H1048.17V277H1043.18V280ZM1058.15 280H1063.14V277H1058.15V280ZM1073.12 280H1078.11V277H1073.12V280ZM1088.09 280H1093.08V277H1088.09V280ZM1103.06 280H1108.05V277H1103.06V280ZM1118.03 280H1123.02V277H1118.03V280ZM1133 280H1138V277H1133V280ZM1147.98 280H1152.97V277H1147.98V280ZM1162.95 280H1167.94V277H1162.95V280ZM1177.92 280H1182.91V277H1177.92V280ZM1192.89 280H1197.88V277H1192.89V280ZM1207.86 280H1212.85V277H1207.86V280ZM1222.83 280H1227.82V277H1222.83V280ZM1237.8 280H1242.79V277H1237.8V280ZM1252.77 280H1257.76V277H1252.77V280ZM1267.74 280H1272.73V277H1267.74V280ZM1282.71 280H1287.7V277H1282.71V280ZM1297.68 280H1302.67V277H1297.68V280ZM1312.65 280H1317.64V277H1312.65V280ZM1327.62 280H1332.61V277H1327.62V280ZM1342.59 280H1347.58V277H1342.59V280ZM1357.56 280H1362.55V277H1357.56V280ZM1372.53 280H1377.52V277H1372.53V280ZM1387.5 280H1390V277H1387.5V280ZM1391.5 278.5V276.014H1388.5V278.5H1391.5ZM1391.5 266.069V261.097H1388.5V266.069H1391.5ZM1391.5 251.153V246.181H1388.5V251.153H1391.5ZM1391.5 236.236V231.264H1388.5V236.236H1391.5ZM1391.5 221.319V216.347H1388.5V221.319H1391.5ZM1391.5 206.403V201.431H1388.5V206.403H1391.5ZM1391.5 191.486V186.514H1388.5V191.486H1391.5ZM1391.5 176.569V171.597H1388.5V176.569H1391.5ZM1391.5 161.653V156.681H1388.5V161.653H1391.5ZM1391.5 146.736V141.764H1388.5V146.736H1391.5ZM1391.5 131.819V126.847H1388.5V131.819H1391.5ZM1391.5 116.903V111.931H1388.5V116.903H1391.5ZM1391.5 101.986V99.5H1388.5V101.986H1391.5ZM1390 98H1387.83V101H1390V98ZM1379.17 98H1374.83V101H1379.17V98ZM1366.17 98H1361.83V101H1366.17V98ZM1353.17 98H1351V101H1353.17V98ZM1349.5 99.5V102.093H1352.5V99.5H1349.5ZM1349.5 112.463V117.648H1352.5V112.463H1349.5ZM1349.5 128.019V133.204H1352.5V128.019H1349.5ZM1349.5 143.574V148.759H1352.5V143.574H1349.5ZM1349.5 159.13V164.315H1352.5V159.13H1349.5ZM1349.5 174.685V179.87H1352.5V174.685H1349.5ZM1349.5 190.241V195.426H1352.5V190.241H1349.5ZM1349.5 205.796V210.981H1352.5V205.796H1349.5ZM1349.5 221.352V226.537H1352.5V221.352H1349.5ZM1349.5 236.907V239.5H1352.5V236.907H1349.5ZM1351 238H1348.52V241H1351V238ZM1338.61 238H1333.66V241H1338.61V238ZM1323.75 238H1318.8V241H1323.75V238ZM1308.89 238H1303.94V241H1308.89V238ZM1294.03 238H1289.07V241H1294.03V238ZM1279.17 238H1274.21V241H1279.17V238ZM1264.3 238H1259.35V241H1264.3V238ZM1249.44 238H1244.49V241H1249.44V238ZM1234.58 238H1229.63V241H1234.58V238ZM1219.72 238H1214.76V241H1219.72V238ZM1204.86 238H1199.9V241H1204.86V238ZM1189.99 238H1185.04V241H1189.99V238ZM1175.13 238H1170.18V241H1175.13V238ZM1160.27 238H1155.32V241H1160.27V238ZM1145.41 238H1140.45V241H1145.41V238ZM1130.55 238H1125.59V241H1130.55V238ZM1115.68 238H1110.73V241H1115.68V238ZM1100.82 238H1095.87V241H1100.82V238ZM1085.96 238H1081.01V241H1085.96V238ZM1071.1 238H1066.14V241H1071.1V238ZM1056.24 238H1051.28V241H1056.24V238ZM1041.37 238H1036.42V241H1041.37V238ZM1026.51 238H1021.56V241H1026.51V238ZM1011.65 238H1006.7V241H1011.65V238ZM996.787 238H991.833V241H996.787V238ZM981.925 238H976.971V241H981.925V238ZM967.063 238H962.109V241H967.063V238ZM952.201 238H947.247V241H952.201V238ZM937.339 238H932.385V241H937.339V238ZM922.477 238H920V241H922.477V238ZM921.5 239.5V237.25H918.5V239.5H921.5ZM921.5 228.25V223.75H918.5V228.25H921.5ZM921.5 214.75V210.25H918.5V214.75H921.5ZM921.5 201.25V199H918.5V201.25H921.5ZM920 200.5H922.466V197.5H920V200.5ZM932.33 200.5H937.262V197.5H932.33V200.5ZM947.127 200.5H952.059V197.5H947.127V200.5ZM961.923 200.5H966.855V197.5H961.923V200.5ZM976.719 200.5H981.651V197.5H976.719V200.5ZM991.515 200.5H996.448V197.5H991.515V200.5ZM1006.31 200.5H1011.24V197.5H1006.31V200.5ZM1021.11 200.5H1026.04V197.5H1021.11V200.5ZM1035.9 200.5H1040.84V197.5H1035.9V200.5ZM1050.7 200.5H1055.63V197.5H1050.7V200.5ZM1065.5 200.5H1070.43V197.5H1065.5V200.5ZM1080.29 200.5H1085.23V197.5H1080.29V200.5ZM1095.09 200.5H1100.02V197.5H1095.09V200.5ZM1109.89 200.5H1114.82V197.5H1109.89V200.5ZM1124.68 200.5H1129.61V197.5H1124.68V200.5ZM1139.48 200.5H1144.41V197.5H1139.48V200.5ZM1154.27 200.5H1159.21V197.5H1154.27V200.5ZM1169.07 200.5H1174V197.5H1169.07V200.5ZM1183.87 200.5H1188.8V197.5H1183.87V200.5ZM1198.66 200.5H1203.6V197.5H1198.66V200.5ZM1213.46 200.5H1218.39V197.5H1213.46V200.5ZM1228.26 200.5H1233.19V197.5H1228.26V200.5ZM1243.05 200.5H1247.98V197.5H1243.05V200.5ZM1257.85 200.5H1262.78V197.5H1257.85V200.5ZM1272.65 200.5H1277.58V197.5H1272.65V200.5ZM1287.44 200.5H1292.37V197.5H1287.44V200.5ZM1302.24 200.5H1307.17V197.5H1302.24V200.5ZM1317.03 200.5H1319.5V197.5H1317.03V200.5ZM1321 199V196.562H1318V199H1321ZM1321 186.812V181.938H1318V186.812H1321ZM1321 172.188V167.312H1318V172.188H1321ZM1321 157.562V152.688H1318V157.562H1321ZM1321 142.938V138.062H1318V142.938H1321ZM1321 128.312V123.438H1318V128.312H1321ZM1321 113.688V108.812H1318V113.688H1321ZM1321 99.0625V94.1875H1318V99.0625H1321ZM1321 84.4375V79.5625H1318V84.4375H1321ZM1321 69.8125V64.9375H1318V69.8125H1321ZM1321 55.1875V50.3125H1318V55.1875H1321ZM1321 40.5625V35.6875H1318V40.5625H1321ZM1321 25.9375V21.0625H1318V25.9375H1321ZM1321 11.3125V6.43749H1318V11.3125H1321ZM1321 -3.3125V-8.1875H1318V-3.3125H1321ZM1321 -17.9375V-22.8125H1318V-17.9375H1321ZM1321 -32.5625V-35H1318V-32.5625H1321ZM1319.5 -36.5H1316.99V-33.5H1319.5V-36.5ZM1306.93 -36.5H1301.9V-33.5H1306.93V-36.5ZM1291.85 -36.5H1286.82V-33.5H1291.85V-36.5ZM1276.76 -36.5H1271.74V-33.5H1276.76V-36.5ZM1261.68 -36.5H1256.65V-33.5H1261.68V-36.5ZM1246.6 -36.5H1241.57V-33.5H1246.6V-36.5ZM1231.51 -36.5H1229V-33.5H1231.51V-36.5ZM1227.5 -35V-32.25H1230.5V-35H1227.5ZM1227.5 -21.25V-15.75H1230.5V-21.25H1227.5ZM1227.5 -4.75V0.75H1230.5V-4.75H1227.5ZM1227.5 11.75V17.25H1230.5V11.75H1227.5ZM1227.5 28.25V31H1230.5V28.25H1227.5ZM1229 29.5H1226.52V32.5H1229V29.5ZM1216.6 29.5H1211.64V32.5H1216.6V29.5ZM1201.72 29.5H1196.75V32.5H1201.72V29.5ZM1186.83 29.5H1181.87V32.5H1186.83V29.5ZM1171.95 29.5H1166.99V32.5H1171.95V29.5ZM1157.07 29.5H1152.11V32.5H1157.07V29.5ZM1142.19 29.5H1137.23V32.5H1142.19V29.5ZM1127.3 29.5H1122.34V32.5H1127.3V29.5ZM1112.42 29.5H1107.46V32.5H1112.42V29.5ZM1097.54 29.5H1092.58V32.5H1097.54V29.5ZM1082.66 29.5H1077.7V32.5H1082.66V29.5ZM1067.77 29.5H1062.81V32.5H1067.77V29.5ZM1052.89 29.5H1047.93V32.5H1052.89V29.5ZM1038.01 29.5H1033.05V32.5H1038.01V29.5ZM1023.13 29.5H1018.17V32.5H1023.13V29.5ZM1008.25 29.5H1003.28V32.5H1008.25V29.5ZM993.363 29.5H988.402V32.5H993.363V29.5ZM978.48 29.5H976V32.5H978.48V29.5ZM977.5 31V28.2222H974.5V31H977.5ZM977.5 17.1111V11.5556H974.5V17.1111H977.5ZM977.5 0.444447V-5.11111H974.5V0.444447H977.5ZM977.5 -16.2222V-19H974.5V-16.2222H977.5ZM976 -17.5H978.505V-20.5H976V-17.5ZM988.526 -17.5H993.536V-20.5H988.526V-17.5ZM1003.56 -17.5H1008.57V-20.5H1003.56V-17.5ZM1018.59 -17.5H1023.6V-20.5H1018.59V-17.5ZM1033.62 -17.5H1038.63V-20.5H1033.62V-17.5ZM1048.65 -17.5H1053.66V-20.5H1048.65V-17.5ZM1063.68 -17.5H1068.69V-20.5H1063.68V-17.5ZM1078.71 -17.5H1083.72V-20.5H1078.71V-17.5ZM1093.74 -17.5H1098.76V-20.5H1093.74V-17.5ZM1108.78 -17.5H1113.79V-20.5H1108.78V-17.5ZM1123.81 -17.5H1128.82V-20.5H1123.81V-17.5ZM1138.84 -17.5H1143.85V-20.5H1138.84V-17.5ZM1153.87 -17.5H1158.88V-20.5H1153.87V-17.5ZM1168.9 -17.5H1173.91V-20.5H1168.9V-17.5ZM1183.93 -17.5H1188.94V-20.5H1183.93V-17.5ZM1198.96 -17.5H1203.97V-20.5H1198.96V-17.5ZM1213.99 -17.5H1216.5V-20.5H1213.99V-17.5ZM1218 -19V-21.1667H1215V-19H1218ZM1218 -29.8333V-34.1667H1215V-29.8333H1218ZM1218 -42.8333V-47.1667H1215V-42.8333H1218ZM1218 -55.8333V-58H1215V-55.8333H1218ZM1216.5 -59.5H1214.05V-56.5H1216.5V-59.5ZM1204.24 -59.5H1199.34V-56.5H1204.24V-59.5ZM1189.53 -59.5H1184.63V-56.5H1189.53V-59.5ZM1174.82 -59.5H1169.92V-56.5H1174.82V-59.5ZM1160.11 -59.5H1155.21V-56.5H1160.11V-59.5ZM1145.4 -59.5H1140.5V-56.5H1145.4V-59.5ZM1130.69 -59.5H1125.79V-56.5H1130.69V-59.5ZM1115.98 -59.5H1111.07V-56.5H1115.98V-59.5ZM1101.27 -59.5H1096.36V-56.5H1101.27V-59.5ZM1086.56 -59.5H1081.65V-56.5H1086.56V-59.5ZM1071.85 -59.5H1066.94V-56.5H1071.85V-59.5ZM1057.14 -59.5H1052.23V-56.5H1057.14V-59.5ZM1042.43 -59.5H1037.52V-56.5H1042.43V-59.5ZM1027.71 -59.5H1022.81V-56.5H1027.71V-59.5ZM1013 -59.5H1008.1V-56.5H1013V-59.5ZM998.294 -59.5H993.39V-56.5H998.294V-59.5ZM983.583 -59.5H978.68V-56.5H983.583V-59.5ZM968.873 -59.5H963.969V-56.5H968.873V-59.5ZM954.162 -59.5H949.259V-56.5H954.162V-59.5ZM939.452 -59.5H937V-56.5H939.452V-59.5Z"
      fill="#FF94B8"
    />
    <path
      fill-rule="evenodd"
      clip-rule="evenodd"
      d="M440 -26.5H559.5V9.5H815.5V-13H906V26H854.5V48.5H520.5V11.5H479V183.5H520.5V120.5H559.5V388.5H382V54H258.25V250.5H311V85H350V289.5H219.25V114H-12.5V153.5H167V270H128V192.5H-51.5V75H219.25V54H76V15H421V349.5H520.5V222.5H440V-26.5Z"
      fill="#11269C"
      stroke="#FF94B8"
      stroke-width="3"
      stroke-linejoin="round"
      stroke-dasharray="5 10"
    />
    <path
      fill-rule="evenodd"
      clip-rule="evenodd"
      d="M1371.5 -19.5H1488.5V19.5H1410.5V32H1463.5V234H1424.5V71H1371.5V-19.5Z"
      fill="#11269C"
      stroke="#FF94B8"
      stroke-width="3"
      stroke-linejoin="round"
      stroke-dasharray="5 10"
    />
    <path
      fill-rule="evenodd"
      clip-rule="evenodd"
      d="M614 197.5H822V259.5H784V235.5H652V259.5H614V197.5Z"
      fill="#11269C"
      stroke="#FF94B8"
      stroke-width="3"
      stroke-linejoin="round"
      stroke-dasharray="5 10"
    />
  </g>
</svg>
