<svg width="868" height="379" viewBox="0 0 868 379" fill="none" xmlns="http://www.w3.org/2000/svg">
<mask id="mask0" mask-type="alpha" maskUnits="userSpaceOnUse" x="0" y="0" width="868" height="379">
<rect width="868" height="379" fill="#C4C4C4"/>
</mask>
<g mask="url(#mask0)">
<mask id="mask1" mask-type="alpha" maskUnits="userSpaceOnUse" x="43" y="83" width="766" height="211">
<path d="M43.2233 293.148H808.932C795.855 214.688 727.566 90.4601 426.078 83.9217C184.887 78.6911 43.2233 201.611 43.2233 293.148Z" fill="#FF596A"/>
</mask>
<g mask="url(#mask1)">
<path d="M43.2233 293.148H808.932C795.855 214.688 727.566 90.4601 426.078 83.9217C184.887 78.6911 43.2233 201.611 43.2233 293.148Z" fill="white"/>
<path d="M43.2233 293.148H808.932C795.855 214.688 727.566 90.4601 426.078 83.9217C184.887 78.6911 43.2233 201.611 43.2233 293.148Z" fill="#FF596A" fill-opacity="0.3"/>
<rect x="26.0271" y="79.4697" width="20.0851" height="20.0851" stroke="white"/>
<rect x="47.1122" y="79.4697" width="20.0851" height="20.0851" stroke="white"/>
<rect x="68.1972" y="79.4697" width="20.0851" height="20.0851" stroke="white"/>
<rect x="89.2823" y="79.4697" width="20.0851" height="20.0851" stroke="white"/>
<rect x="110.367" y="79.4697" width="20.0851" height="20.0851" stroke="white"/>
<rect x="131.453" y="79.4697" width="20.0851" height="20.0851" stroke="white"/>
<rect x="152.538" y="79.4697" width="20.0851" height="20.0851" stroke="white"/>
<rect x="173.623" y="79.4697" width="20.0851" height="20.0851" stroke="white"/>
<rect x="194.708" y="79.4697" width="20.0851" height="20.0851" stroke="white"/>
<rect x="215.793" y="79.4697" width="20.0851" height="20.0851" stroke="white"/>
<rect x="236.878" y="79.4697" width="20.0851" height="20.0851" stroke="white"/>
<rect x="257.963" y="79.4697" width="20.0851" height="20.0851" stroke="white"/>
<rect x="279.048" y="79.4697" width="20.0851" height="20.0851" stroke="white"/>
<rect x="300.133" y="79.4697" width="20.0851" height="20.0851" stroke="white"/>
<rect x="321.218" y="79.4697" width="20.0851" height="20.0851" stroke="white"/>
<rect x="342.303" y="79.4697" width="20.0851" height="20.0851" stroke="white"/>
<rect x="363.388" y="79.4697" width="20.0851" height="20.0851" stroke="white"/>
<rect x="384.474" y="79.4697" width="20.0851" height="20.0851" stroke="white"/>
<rect x="405.559" y="79.4697" width="20.0851" height="20.0851" stroke="white"/>
<rect x="426.644" y="79.4697" width="20.0851" height="20.0851" stroke="white"/>
<rect x="447.729" y="79.4697" width="20.0851" height="20.0851" stroke="white"/>
<rect x="468.814" y="79.4697" width="20.0851" height="20.0851" stroke="white"/>
<rect x="489.899" y="79.4697" width="20.0851" height="20.0851" stroke="white"/>
<rect x="510.984" y="79.4697" width="20.0851" height="20.0851" stroke="white"/>
<rect x="532.069" y="79.4697" width="20.0851" height="20.0851" stroke="white"/>
<rect x="553.154" y="79.4697" width="20.085" height="20.0851" stroke="white"/>
<rect x="574.239" y="79.4697" width="20.0851" height="20.0851" stroke="white"/>
<rect x="595.324" y="79.4697" width="20.0851" height="20.0851" stroke="white"/>
<rect x="616.41" y="79.4697" width="20.0851" height="20.0851" stroke="white"/>
<rect x="637.495" y="79.4697" width="20.0851" height="20.0851" stroke="white"/>
<rect x="658.58" y="79.4697" width="20.0851" height="20.0851" stroke="white"/>
<rect x="679.665" y="79.4697" width="20.0851" height="20.0851" stroke="white"/>
<rect x="700.75" y="79.4697" width="20.0851" height="20.0851" stroke="white"/>
<rect x="721.835" y="79.4697" width="20.0851" height="20.0851" stroke="white"/>
<rect x="742.92" y="79.4697" width="20.0851" height="20.0851" stroke="white"/>
<rect x="764.005" y="79.4697" width="20.0851" height="20.0851" stroke="white"/>
<rect x="785.09" y="79.4697" width="20.0851" height="20.0851" stroke="white"/>
<rect x="806.175" y="79.4697" width="20.085" height="20.0851" stroke="white"/>
<rect x="26.0271" y="100.555" width="20.0851" height="20.0851" stroke="white"/>
<rect x="47.1122" y="100.555" width="20.0851" height="20.0851" stroke="white"/>
<rect x="68.1972" y="100.555" width="20.0851" height="20.0851" stroke="white"/>
<rect x="89.2823" y="100.555" width="20.0851" height="20.0851" stroke="white"/>
<rect x="110.367" y="100.555" width="20.0851" height="20.0851" stroke="white"/>
<rect x="131.453" y="100.555" width="20.0851" height="20.0851" stroke="white"/>
<rect x="152.538" y="100.555" width="20.0851" height="20.0851" stroke="white"/>
<rect x="173.623" y="100.555" width="20.0851" height="20.0851" stroke="white"/>
<rect x="194.708" y="100.555" width="20.0851" height="20.0851" stroke="white"/>
<rect x="215.793" y="100.555" width="20.0851" height="20.0851" stroke="white"/>
<rect x="236.878" y="100.555" width="20.0851" height="20.0851" stroke="white"/>
<rect x="257.963" y="100.555" width="20.0851" height="20.0851" stroke="white"/>
<rect x="279.048" y="100.555" width="20.0851" height="20.0851" stroke="white"/>
<rect x="300.133" y="100.555" width="20.0851" height="20.0851" stroke="white"/>
<rect x="321.218" y="100.555" width="20.0851" height="20.0851" stroke="white"/>
<rect x="342.303" y="100.555" width="20.0851" height="20.0851" stroke="white"/>
<rect x="363.388" y="100.555" width="20.0851" height="20.0851" stroke="white"/>
<rect x="384.474" y="100.555" width="20.0851" height="20.0851" stroke="white"/>
<rect x="405.559" y="100.555" width="20.0851" height="20.0851" stroke="white"/>
<rect x="426.644" y="100.555" width="20.0851" height="20.0851" stroke="white"/>
<rect x="447.729" y="100.555" width="20.0851" height="20.0851" stroke="white"/>
<rect x="468.814" y="100.555" width="20.0851" height="20.0851" stroke="white"/>
<rect x="489.899" y="100.555" width="20.0851" height="20.0851" stroke="white"/>
<rect x="510.984" y="100.555" width="20.0851" height="20.0851" stroke="white"/>
<rect x="532.069" y="100.555" width="20.0851" height="20.0851" stroke="white"/>
<rect x="553.154" y="100.555" width="20.085" height="20.0851" stroke="white"/>
<rect x="574.239" y="100.555" width="20.0851" height="20.0851" stroke="white"/>
<rect x="595.324" y="100.555" width="20.0851" height="20.0851" stroke="white"/>
<rect x="616.41" y="100.555" width="20.0851" height="20.0851" stroke="white"/>
<rect x="637.495" y="100.555" width="20.0851" height="20.0851" stroke="white"/>
<rect x="658.58" y="100.555" width="20.0851" height="20.0851" stroke="white"/>
<rect x="679.665" y="100.555" width="20.0851" height="20.0851" stroke="white"/>
<rect x="700.75" y="100.555" width="20.0851" height="20.0851" stroke="white"/>
<rect x="721.835" y="100.555" width="20.0851" height="20.0851" stroke="white"/>
<rect x="742.92" y="100.555" width="20.0851" height="20.0851" stroke="white"/>
<rect x="764.005" y="100.555" width="20.0851" height="20.0851" stroke="white"/>
<rect x="785.09" y="100.555" width="20.0851" height="20.0851" stroke="white"/>
<rect x="806.175" y="100.555" width="20.085" height="20.0851" stroke="white"/>
<rect x="26.0271" y="121.64" width="20.0851" height="20.0851" stroke="white"/>
<rect x="47.1122" y="121.64" width="20.0851" height="20.0851" stroke="white"/>
<rect x="68.1972" y="121.64" width="20.0851" height="20.0851" stroke="white"/>
<rect x="89.2823" y="121.64" width="20.0851" height="20.0851" stroke="white"/>
<rect x="110.367" y="121.64" width="20.0851" height="20.0851" stroke="white"/>
<rect x="131.453" y="121.64" width="20.0851" height="20.0851" stroke="white"/>
<rect x="152.538" y="121.64" width="20.0851" height="20.0851" stroke="white"/>
<rect x="173.623" y="121.64" width="20.0851" height="20.0851" stroke="white"/>
<rect x="194.708" y="121.64" width="20.0851" height="20.0851" stroke="white"/>
<rect x="215.793" y="121.64" width="20.0851" height="20.0851" stroke="white"/>
<rect x="236.878" y="121.64" width="20.0851" height="20.0851" stroke="white"/>
<rect x="257.963" y="121.64" width="20.0851" height="20.0851" stroke="white"/>
<rect x="279.048" y="121.64" width="20.0851" height="20.0851" stroke="white"/>
<rect x="300.133" y="121.64" width="20.0851" height="20.0851" stroke="white"/>
<rect x="321.218" y="121.64" width="20.0851" height="20.0851" stroke="white"/>
<rect x="342.303" y="121.64" width="20.0851" height="20.0851" stroke="white"/>
<rect x="363.388" y="121.64" width="20.0851" height="20.0851" stroke="white"/>
<rect x="384.474" y="121.64" width="20.0851" height="20.0851" stroke="white"/>
<rect x="405.559" y="121.64" width="20.0851" height="20.0851" stroke="white"/>
<rect x="426.644" y="121.64" width="20.0851" height="20.0851" stroke="white"/>
<rect x="447.729" y="121.64" width="20.0851" height="20.0851" stroke="white"/>
<rect x="468.814" y="121.64" width="20.0851" height="20.0851" stroke="white"/>
<rect x="489.899" y="121.64" width="20.0851" height="20.0851" stroke="white"/>
<rect x="510.984" y="121.64" width="20.0851" height="20.0851" stroke="white"/>
<rect x="532.069" y="121.64" width="20.0851" height="20.0851" stroke="white"/>
<rect x="553.154" y="121.64" width="20.085" height="20.0851" stroke="white"/>
<rect x="574.239" y="121.64" width="20.0851" height="20.0851" stroke="white"/>
<rect x="595.324" y="121.64" width="20.0851" height="20.0851" stroke="white"/>
<rect x="616.41" y="121.64" width="20.0851" height="20.0851" stroke="white"/>
<rect x="637.495" y="121.64" width="20.0851" height="20.0851" stroke="white"/>
<rect x="658.58" y="121.64" width="20.0851" height="20.0851" stroke="white"/>
<rect x="679.665" y="121.64" width="20.0851" height="20.0851" stroke="white"/>
<rect x="700.75" y="121.64" width="20.0851" height="20.0851" stroke="white"/>
<rect x="721.835" y="121.64" width="20.0851" height="20.0851" stroke="white"/>
<rect x="742.92" y="121.64" width="20.0851" height="20.0851" stroke="white"/>
<rect x="764.005" y="121.64" width="20.0851" height="20.0851" stroke="white"/>
<rect x="785.09" y="121.64" width="20.0851" height="20.0851" stroke="white"/>
<rect x="806.175" y="121.64" width="20.085" height="20.0851" stroke="white"/>
<rect x="26.0271" y="142.725" width="20.0851" height="20.0851" stroke="white"/>
<rect x="47.1122" y="142.725" width="20.0851" height="20.0851" stroke="white"/>
<rect x="68.1972" y="142.725" width="20.0851" height="20.0851" stroke="white"/>
<rect x="89.2823" y="142.725" width="20.0851" height="20.0851" stroke="white"/>
<rect x="110.367" y="142.725" width="20.0851" height="20.0851" stroke="white"/>
<rect x="131.453" y="142.725" width="20.0851" height="20.0851" stroke="white"/>
<rect x="152.538" y="142.725" width="20.0851" height="20.0851" stroke="white"/>
<rect x="173.623" y="142.725" width="20.0851" height="20.0851" stroke="white"/>
<rect x="194.708" y="142.725" width="20.0851" height="20.0851" stroke="white"/>
<rect x="215.793" y="142.725" width="20.0851" height="20.0851" stroke="white"/>
<rect x="236.878" y="142.725" width="20.0851" height="20.0851" stroke="white"/>
<rect x="257.963" y="142.725" width="20.0851" height="20.0851" stroke="white"/>
<rect x="279.048" y="142.725" width="20.0851" height="20.0851" stroke="white"/>
<rect x="300.133" y="142.725" width="20.0851" height="20.0851" stroke="white"/>
<rect x="321.218" y="142.725" width="20.0851" height="20.0851" stroke="white"/>
<rect x="342.303" y="142.725" width="20.0851" height="20.0851" stroke="white"/>
<rect x="363.388" y="142.725" width="20.0851" height="20.0851" stroke="white"/>
<rect x="384.474" y="142.725" width="20.0851" height="20.0851" stroke="white"/>
<rect x="405.559" y="142.725" width="20.0851" height="20.0851" stroke="white"/>
<rect x="426.644" y="142.725" width="20.0851" height="20.0851" stroke="white"/>
<rect x="447.729" y="142.725" width="20.0851" height="20.0851" stroke="white"/>
<rect x="468.814" y="142.725" width="20.0851" height="20.0851" stroke="white"/>
<rect x="489.899" y="142.725" width="20.0851" height="20.0851" stroke="white"/>
<rect x="510.984" y="142.725" width="20.0851" height="20.0851" stroke="white"/>
<rect x="532.069" y="142.725" width="20.0851" height="20.0851" stroke="white"/>
<rect x="553.154" y="142.725" width="20.085" height="20.0851" stroke="white"/>
<rect x="574.239" y="142.725" width="20.0851" height="20.0851" stroke="white"/>
<rect x="595.324" y="142.725" width="20.0851" height="20.0851" stroke="white"/>
<rect x="616.41" y="142.725" width="20.0851" height="20.0851" stroke="white"/>
<rect x="637.495" y="142.725" width="20.0851" height="20.0851" stroke="white"/>
<rect x="658.58" y="142.725" width="20.0851" height="20.0851" stroke="white"/>
<rect x="679.665" y="142.725" width="20.0851" height="20.0851" stroke="white"/>
<rect x="700.75" y="142.725" width="20.0851" height="20.0851" stroke="white"/>
<rect x="721.835" y="142.725" width="20.0851" height="20.0851" stroke="white"/>
<rect x="742.92" y="142.725" width="20.0851" height="20.0851" stroke="white"/>
<rect x="764.005" y="142.725" width="20.0851" height="20.0851" stroke="white"/>
<rect x="785.09" y="142.725" width="20.0851" height="20.0851" stroke="white"/>
<rect x="806.175" y="142.725" width="20.085" height="20.0851" stroke="white"/>
<rect x="26.0271" y="163.81" width="20.0851" height="20.0851" stroke="white"/>
<rect x="47.1122" y="163.81" width="20.0851" height="20.0851" stroke="white"/>
<rect x="68.1972" y="163.81" width="20.0851" height="20.0851" stroke="white"/>
<rect x="89.2823" y="163.81" width="20.0851" height="20.0851" stroke="white"/>
<rect x="110.367" y="163.81" width="20.0851" height="20.0851" stroke="white"/>
<rect x="131.453" y="163.81" width="20.0851" height="20.0851" stroke="white"/>
<rect x="152.538" y="163.81" width="20.0851" height="20.0851" stroke="white"/>
<rect x="173.623" y="163.81" width="20.0851" height="20.0851" stroke="white"/>
<rect x="194.708" y="163.81" width="20.0851" height="20.0851" stroke="white"/>
<rect x="215.793" y="163.81" width="20.0851" height="20.0851" stroke="white"/>
<rect x="236.878" y="163.81" width="20.0851" height="20.0851" stroke="white"/>
<rect x="257.963" y="163.81" width="20.0851" height="20.0851" stroke="white"/>
<rect x="279.048" y="163.81" width="20.0851" height="20.0851" stroke="white"/>
<rect x="300.133" y="163.81" width="20.0851" height="20.0851" stroke="white"/>
<rect x="321.218" y="163.81" width="20.0851" height="20.0851" stroke="white"/>
<rect x="342.303" y="163.81" width="20.0851" height="20.0851" stroke="white"/>
<rect x="363.388" y="163.81" width="20.0851" height="20.0851" stroke="white"/>
<rect x="384.474" y="163.81" width="20.0851" height="20.0851" stroke="white"/>
<rect x="405.559" y="163.81" width="20.0851" height="20.0851" stroke="white"/>
<rect x="426.644" y="163.81" width="20.0851" height="20.0851" stroke="white"/>
<rect x="447.729" y="163.81" width="20.0851" height="20.0851" stroke="white"/>
<rect x="468.814" y="163.81" width="20.0851" height="20.0851" stroke="white"/>
<rect x="489.899" y="163.81" width="20.0851" height="20.0851" stroke="white"/>
<rect x="510.984" y="163.81" width="20.0851" height="20.0851" stroke="white"/>
<rect x="532.069" y="163.81" width="20.0851" height="20.0851" stroke="white"/>
<rect x="553.154" y="163.81" width="20.085" height="20.0851" stroke="white"/>
<rect x="574.239" y="163.81" width="20.0851" height="20.0851" stroke="white"/>
<rect x="595.324" y="163.81" width="20.0851" height="20.0851" stroke="white"/>
<rect x="616.41" y="163.81" width="20.0851" height="20.0851" stroke="white"/>
<rect x="637.495" y="163.81" width="20.0851" height="20.0851" stroke="white"/>
<rect x="658.58" y="163.81" width="20.0851" height="20.0851" stroke="white"/>
<rect x="679.665" y="163.81" width="20.0851" height="20.0851" stroke="white"/>
<rect x="700.75" y="163.81" width="20.0851" height="20.0851" stroke="white"/>
<rect x="721.835" y="163.81" width="20.0851" height="20.0851" stroke="white"/>
<rect x="742.92" y="163.81" width="20.0851" height="20.0851" stroke="white"/>
<rect x="764.005" y="163.81" width="20.0851" height="20.0851" stroke="white"/>
<rect x="785.09" y="163.81" width="20.0851" height="20.0851" stroke="white"/>
<rect x="806.175" y="163.81" width="20.085" height="20.0851" stroke="white"/>
<rect x="26.0271" y="184.895" width="20.0851" height="20.0851" stroke="white"/>
<rect x="47.1122" y="184.895" width="20.0851" height="20.0851" stroke="white"/>
<rect x="68.1972" y="184.895" width="20.0851" height="20.0851" stroke="white"/>
<rect x="89.2823" y="184.895" width="20.0851" height="20.0851" stroke="white"/>
<rect x="110.367" y="184.895" width="20.0851" height="20.0851" stroke="white"/>
<rect x="131.453" y="184.895" width="20.0851" height="20.0851" stroke="white"/>
<rect x="152.538" y="184.895" width="20.0851" height="20.0851" stroke="white"/>
<rect x="173.623" y="184.895" width="20.0851" height="20.0851" stroke="white"/>
<rect x="194.708" y="184.895" width="20.0851" height="20.0851" stroke="white"/>
<rect x="215.793" y="184.895" width="20.0851" height="20.0851" stroke="white"/>
<rect x="236.878" y="184.895" width="20.0851" height="20.0851" stroke="white"/>
<rect x="257.963" y="184.895" width="20.0851" height="20.0851" stroke="white"/>
<rect x="279.048" y="184.895" width="20.0851" height="20.0851" stroke="white"/>
<rect x="300.133" y="184.895" width="20.0851" height="20.0851" stroke="white"/>
<rect x="321.218" y="184.895" width="20.0851" height="20.0851" stroke="white"/>
<rect x="342.303" y="184.895" width="20.0851" height="20.0851" stroke="white"/>
<rect x="363.388" y="184.895" width="20.0851" height="20.0851" stroke="white"/>
<rect x="384.474" y="184.895" width="20.0851" height="20.0851" stroke="white"/>
<rect x="405.559" y="184.895" width="20.0851" height="20.0851" stroke="white"/>
<rect x="426.644" y="184.895" width="20.0851" height="20.0851" stroke="white"/>
<rect x="447.729" y="184.895" width="20.0851" height="20.0851" stroke="white"/>
<rect x="468.814" y="184.895" width="20.0851" height="20.0851" stroke="white"/>
<rect x="489.899" y="184.895" width="20.0851" height="20.0851" stroke="white"/>
<rect x="510.984" y="184.895" width="20.0851" height="20.0851" stroke="white"/>
<rect x="532.069" y="184.895" width="20.0851" height="20.0851" stroke="white"/>
<rect x="553.154" y="184.895" width="20.085" height="20.0851" stroke="white"/>
<rect x="574.239" y="184.895" width="20.0851" height="20.0851" stroke="white"/>
<rect x="595.324" y="184.895" width="20.0851" height="20.0851" stroke="white"/>
<rect x="616.41" y="184.895" width="20.0851" height="20.0851" stroke="white"/>
<rect x="637.495" y="184.895" width="20.0851" height="20.0851" stroke="white"/>
<rect x="658.58" y="184.895" width="20.0851" height="20.0851" stroke="white"/>
<rect x="679.665" y="184.895" width="20.0851" height="20.0851" stroke="white"/>
<rect x="700.75" y="184.895" width="20.0851" height="20.0851" stroke="white"/>
<rect x="721.835" y="184.895" width="20.0851" height="20.0851" stroke="white"/>
<rect x="742.92" y="184.895" width="20.0851" height="20.0851" stroke="white"/>
<rect x="764.005" y="184.895" width="20.0851" height="20.0851" stroke="white"/>
<rect x="785.09" y="184.895" width="20.0851" height="20.0851" stroke="white"/>
<rect x="806.175" y="184.895" width="20.085" height="20.0851" stroke="white"/>
<rect x="26.0271" y="205.98" width="20.0851" height="20.0851" stroke="white"/>
<rect x="47.1122" y="205.98" width="20.0851" height="20.0851" stroke="white"/>
<rect x="68.1972" y="205.98" width="20.0851" height="20.0851" stroke="white"/>
<rect x="89.2823" y="205.98" width="20.0851" height="20.0851" stroke="white"/>
<rect x="110.367" y="205.98" width="20.0851" height="20.0851" stroke="white"/>
<rect x="131.453" y="205.98" width="20.0851" height="20.0851" stroke="white"/>
<rect x="152.538" y="205.98" width="20.0851" height="20.0851" stroke="white"/>
<rect x="173.623" y="205.98" width="20.0851" height="20.0851" stroke="white"/>
<rect x="194.708" y="205.98" width="20.0851" height="20.0851" stroke="white"/>
<rect x="215.793" y="205.98" width="20.0851" height="20.0851" stroke="white"/>
<rect x="236.878" y="205.98" width="20.0851" height="20.0851" stroke="white"/>
<rect x="257.963" y="205.98" width="20.0851" height="20.0851" stroke="white"/>
<rect x="279.048" y="205.98" width="20.0851" height="20.0851" stroke="white"/>
<rect x="300.133" y="205.98" width="20.0851" height="20.0851" stroke="white"/>
<rect x="321.218" y="205.98" width="20.0851" height="20.0851" stroke="white"/>
<rect x="342.303" y="205.98" width="20.0851" height="20.0851" stroke="white"/>
<rect x="363.388" y="205.98" width="20.0851" height="20.0851" stroke="white"/>
<rect x="384.474" y="205.98" width="20.0851" height="20.0851" stroke="white"/>
<rect x="405.559" y="205.98" width="20.0851" height="20.0851" stroke="white"/>
<rect x="426.644" y="205.98" width="20.0851" height="20.0851" stroke="white"/>
<rect x="447.729" y="205.98" width="20.0851" height="20.0851" stroke="white"/>
<rect x="468.814" y="205.98" width="20.0851" height="20.0851" stroke="white"/>
<rect x="489.899" y="205.98" width="20.0851" height="20.0851" stroke="white"/>
<rect x="510.984" y="205.98" width="20.0851" height="20.0851" stroke="white"/>
<rect x="532.069" y="205.98" width="20.0851" height="20.0851" stroke="white"/>
<rect x="553.154" y="205.98" width="20.085" height="20.0851" stroke="white"/>
<rect x="574.239" y="205.98" width="20.0851" height="20.0851" stroke="white"/>
<rect x="595.324" y="205.98" width="20.0851" height="20.0851" stroke="white"/>
<rect x="616.41" y="205.98" width="20.0851" height="20.0851" stroke="white"/>
<rect x="637.495" y="205.98" width="20.0851" height="20.0851" stroke="white"/>
<rect x="658.58" y="205.98" width="20.0851" height="20.0851" stroke="white"/>
<rect x="679.665" y="205.98" width="20.0851" height="20.0851" stroke="white"/>
<rect x="700.75" y="205.98" width="20.0851" height="20.0851" stroke="white"/>
<rect x="721.835" y="205.98" width="20.0851" height="20.0851" stroke="white"/>
<rect x="742.92" y="205.98" width="20.0851" height="20.0851" stroke="white"/>
<rect x="764.005" y="205.98" width="20.0851" height="20.0851" stroke="white"/>
<rect x="785.09" y="205.98" width="20.0851" height="20.0851" stroke="white"/>
<rect x="806.175" y="205.98" width="20.085" height="20.0851" stroke="white"/>
<rect x="26.0271" y="227.065" width="20.0851" height="20.0851" stroke="white"/>
<rect x="47.1122" y="227.065" width="20.0851" height="20.0851" stroke="white"/>
<rect x="68.1972" y="227.065" width="20.0851" height="20.0851" stroke="white"/>
<rect x="89.2823" y="227.065" width="20.0851" height="20.0851" stroke="white"/>
<rect x="110.367" y="227.065" width="20.0851" height="20.0851" stroke="white"/>
<rect x="131.453" y="227.065" width="20.0851" height="20.0851" stroke="white"/>
<rect x="152.538" y="227.065" width="20.0851" height="20.0851" stroke="white"/>
<rect x="173.623" y="227.065" width="20.0851" height="20.0851" stroke="white"/>
<rect x="194.708" y="227.065" width="20.0851" height="20.0851" stroke="white"/>
<rect x="215.793" y="227.065" width="20.0851" height="20.0851" stroke="white"/>
<rect x="236.878" y="227.065" width="20.0851" height="20.0851" stroke="white"/>
<rect x="257.963" y="227.065" width="20.0851" height="20.0851" stroke="white"/>
<rect x="279.048" y="227.065" width="20.0851" height="20.0851" stroke="white"/>
<rect x="300.133" y="227.065" width="20.0851" height="20.0851" stroke="white"/>
<rect x="321.218" y="227.065" width="20.0851" height="20.0851" stroke="white"/>
<rect x="342.303" y="227.065" width="20.0851" height="20.0851" stroke="white"/>
<rect x="363.388" y="227.065" width="20.0851" height="20.0851" stroke="white"/>
<rect x="384.474" y="227.065" width="20.0851" height="20.0851" stroke="white"/>
<rect x="405.559" y="227.065" width="20.0851" height="20.0851" stroke="white"/>
<rect x="426.644" y="227.065" width="20.0851" height="20.0851" stroke="white"/>
<rect x="447.729" y="227.065" width="20.0851" height="20.0851" stroke="white"/>
<rect x="468.814" y="227.065" width="20.0851" height="20.0851" stroke="white"/>
<rect x="489.899" y="227.065" width="20.0851" height="20.0851" stroke="white"/>
<rect x="510.984" y="227.065" width="20.0851" height="20.0851" stroke="white"/>
<rect x="532.069" y="227.065" width="20.0851" height="20.0851" stroke="white"/>
<rect x="553.154" y="227.065" width="20.085" height="20.0851" stroke="white"/>
<rect x="574.239" y="227.065" width="20.0851" height="20.0851" stroke="white"/>
<rect x="595.324" y="227.065" width="20.0851" height="20.0851" stroke="white"/>
<rect x="616.41" y="227.065" width="20.0851" height="20.0851" stroke="white"/>
<rect x="637.495" y="227.065" width="20.0851" height="20.0851" stroke="white"/>
<rect x="658.58" y="227.065" width="20.0851" height="20.0851" stroke="white"/>
<rect x="679.665" y="227.065" width="20.0851" height="20.0851" stroke="white"/>
<rect x="700.75" y="227.065" width="20.0851" height="20.0851" stroke="white"/>
<rect x="721.835" y="227.065" width="20.0851" height="20.0851" stroke="white"/>
<rect x="742.92" y="227.065" width="20.0851" height="20.0851" stroke="white"/>
<rect x="764.005" y="227.065" width="20.0851" height="20.0851" stroke="white"/>
<rect x="785.09" y="227.065" width="20.0851" height="20.0851" stroke="white"/>
<rect x="806.175" y="227.065" width="20.085" height="20.0851" stroke="white"/>
<rect x="26.0271" y="248.15" width="20.0851" height="20.0851" stroke="white"/>
<rect x="47.1122" y="248.15" width="20.0851" height="20.0851" stroke="white"/>
<rect x="68.1972" y="248.15" width="20.0851" height="20.0851" stroke="white"/>
<rect x="89.2823" y="248.15" width="20.0851" height="20.0851" stroke="white"/>
<rect x="110.367" y="248.15" width="20.0851" height="20.0851" stroke="white"/>
<rect x="131.453" y="248.15" width="20.0851" height="20.0851" stroke="white"/>
<rect x="152.538" y="248.15" width="20.0851" height="20.0851" stroke="white"/>
<rect x="173.623" y="248.15" width="20.0851" height="20.0851" stroke="white"/>
<rect x="194.708" y="248.15" width="20.0851" height="20.0851" stroke="white"/>
<rect x="215.793" y="248.15" width="20.0851" height="20.0851" stroke="white"/>
<rect x="236.878" y="248.15" width="20.0851" height="20.0851" stroke="white"/>
<rect x="257.963" y="248.15" width="20.0851" height="20.0851" stroke="white"/>
<rect x="279.048" y="248.15" width="20.0851" height="20.0851" stroke="white"/>
<rect x="300.133" y="248.15" width="20.0851" height="20.0851" stroke="white"/>
<rect x="321.218" y="248.15" width="20.0851" height="20.0851" stroke="white"/>
<rect x="342.303" y="248.15" width="20.0851" height="20.0851" stroke="white"/>
<rect x="363.388" y="248.15" width="20.0851" height="20.0851" stroke="white"/>
<rect x="384.474" y="248.15" width="20.0851" height="20.0851" stroke="white"/>
<rect x="405.559" y="248.15" width="20.0851" height="20.0851" stroke="white"/>
<rect x="426.644" y="248.15" width="20.0851" height="20.0851" stroke="white"/>
<rect x="447.729" y="248.15" width="20.0851" height="20.0851" stroke="white"/>
<rect x="468.814" y="248.15" width="20.0851" height="20.0851" stroke="white"/>
<rect x="489.899" y="248.15" width="20.0851" height="20.0851" stroke="white"/>
<rect x="510.984" y="248.15" width="20.0851" height="20.0851" stroke="white"/>
<rect x="532.069" y="248.15" width="20.0851" height="20.0851" stroke="white"/>
<rect x="553.154" y="248.15" width="20.085" height="20.0851" stroke="white"/>
<rect x="574.239" y="248.15" width="20.0851" height="20.0851" stroke="white"/>
<rect x="595.324" y="248.15" width="20.0851" height="20.0851" stroke="white"/>
<rect x="616.41" y="248.15" width="20.0851" height="20.0851" stroke="white"/>
<rect x="637.495" y="248.15" width="20.0851" height="20.0851" stroke="white"/>
<rect x="658.58" y="248.15" width="20.0851" height="20.0851" stroke="white"/>
<rect x="679.665" y="248.15" width="20.0851" height="20.0851" stroke="white"/>
<rect x="700.75" y="248.15" width="20.0851" height="20.0851" stroke="white"/>
<rect x="721.835" y="248.15" width="20.0851" height="20.0851" stroke="white"/>
<rect x="742.92" y="248.15" width="20.0851" height="20.0851" stroke="white"/>
<rect x="764.005" y="248.15" width="20.0851" height="20.0851" stroke="white"/>
<rect x="785.09" y="248.15" width="20.0851" height="20.0851" stroke="white"/>
<rect x="806.175" y="248.15" width="20.085" height="20.0851" stroke="white"/>
<rect x="26.0271" y="269.235" width="20.0851" height="20.0851" stroke="white"/>
<rect x="47.1122" y="269.235" width="20.0851" height="20.0851" stroke="white"/>
<rect x="68.1972" y="269.235" width="20.0851" height="20.0851" stroke="white"/>
<rect x="89.2823" y="269.235" width="20.0851" height="20.0851" stroke="white"/>
<rect x="110.367" y="269.235" width="20.0851" height="20.0851" stroke="white"/>
<rect x="131.453" y="269.235" width="20.0851" height="20.0851" stroke="white"/>
<rect x="152.538" y="269.235" width="20.0851" height="20.0851" stroke="white"/>
<rect x="173.623" y="269.235" width="20.0851" height="20.0851" stroke="white"/>
<rect x="194.708" y="269.235" width="20.0851" height="20.0851" stroke="white"/>
<rect x="215.793" y="269.235" width="20.0851" height="20.0851" stroke="white"/>
<rect x="236.878" y="269.235" width="20.0851" height="20.0851" stroke="white"/>
<rect x="257.963" y="269.235" width="20.0851" height="20.0851" stroke="white"/>
<rect x="279.048" y="269.235" width="20.0851" height="20.0851" stroke="white"/>
<rect x="300.133" y="269.235" width="20.0851" height="20.0851" stroke="white"/>
<rect x="321.218" y="269.235" width="20.0851" height="20.0851" stroke="white"/>
<rect x="342.303" y="269.235" width="20.0851" height="20.0851" stroke="white"/>
<rect x="363.388" y="269.235" width="20.0851" height="20.0851" stroke="white"/>
<rect x="384.474" y="269.235" width="20.0851" height="20.0851" stroke="white"/>
<rect x="405.559" y="269.235" width="20.0851" height="20.0851" stroke="white"/>
<rect x="426.644" y="269.235" width="20.0851" height="20.0851" stroke="white"/>
<rect x="447.729" y="269.235" width="20.0851" height="20.0851" stroke="white"/>
<rect x="468.814" y="269.235" width="20.0851" height="20.0851" stroke="white"/>
<rect x="489.899" y="269.235" width="20.0851" height="20.0851" stroke="white"/>
<rect x="510.984" y="269.235" width="20.0851" height="20.0851" stroke="white"/>
<rect x="532.069" y="269.235" width="20.0851" height="20.0851" stroke="white"/>
<rect x="553.154" y="269.235" width="20.085" height="20.0851" stroke="white"/>
<rect x="574.239" y="269.235" width="20.0851" height="20.0851" stroke="white"/>
<rect x="595.324" y="269.235" width="20.0851" height="20.0851" stroke="white"/>
<rect x="616.41" y="269.235" width="20.0851" height="20.0851" stroke="white"/>
<rect x="637.495" y="269.235" width="20.0851" height="20.0851" stroke="white"/>
<rect x="658.58" y="269.235" width="20.0851" height="20.0851" stroke="white"/>
<rect x="679.665" y="269.235" width="20.0851" height="20.0851" stroke="white"/>
<rect x="700.75" y="269.235" width="20.0851" height="20.0851" stroke="white"/>
<rect x="721.835" y="269.235" width="20.0851" height="20.0851" stroke="white"/>
<rect x="742.92" y="269.235" width="20.0851" height="20.0851" stroke="white"/>
<rect x="764.005" y="269.235" width="20.0851" height="20.0851" stroke="white"/>
<rect x="785.09" y="269.235" width="20.0851" height="20.0851" stroke="white"/>
<rect x="806.175" y="269.235" width="20.085" height="20.0851" stroke="white"/>
<rect x="26.0271" y="290.321" width="20.0851" height="20.0851" stroke="white"/>
<rect x="47.1122" y="290.321" width="20.0851" height="20.0851" stroke="white"/>
<rect x="68.1972" y="290.321" width="20.0851" height="20.0851" stroke="white"/>
<rect x="89.2823" y="290.321" width="20.0851" height="20.0851" stroke="white"/>
<rect x="110.367" y="290.321" width="20.0851" height="20.0851" stroke="white"/>
<rect x="131.453" y="290.321" width="20.0851" height="20.0851" stroke="white"/>
<rect x="152.538" y="290.321" width="20.0851" height="20.0851" stroke="white"/>
<rect x="173.623" y="290.321" width="20.0851" height="20.0851" stroke="white"/>
<rect x="194.708" y="290.321" width="20.0851" height="20.0851" stroke="white"/>
<rect x="215.793" y="290.321" width="20.0851" height="20.0851" stroke="white"/>
<rect x="236.878" y="290.321" width="20.0851" height="20.0851" stroke="white"/>
<rect x="257.963" y="290.321" width="20.0851" height="20.0851" stroke="white"/>
<rect x="279.048" y="290.321" width="20.0851" height="20.0851" stroke="white"/>
<rect x="300.133" y="290.321" width="20.0851" height="20.0851" stroke="white"/>
<rect x="321.218" y="290.321" width="20.0851" height="20.0851" stroke="white"/>
<rect x="342.303" y="290.321" width="20.0851" height="20.0851" stroke="white"/>
<rect x="363.388" y="290.321" width="20.0851" height="20.0851" stroke="white"/>
<rect x="384.474" y="290.321" width="20.0851" height="20.0851" stroke="white"/>
<rect x="405.559" y="290.321" width="20.0851" height="20.0851" stroke="white"/>
<rect x="426.644" y="290.321" width="20.0851" height="20.0851" stroke="white"/>
<rect x="447.729" y="290.321" width="20.0851" height="20.0851" stroke="white"/>
<rect x="468.814" y="290.321" width="20.0851" height="20.0851" stroke="white"/>
<rect x="489.899" y="290.321" width="20.0851" height="20.0851" stroke="white"/>
<rect x="510.984" y="290.321" width="20.0851" height="20.0851" stroke="white"/>
<rect x="532.069" y="290.321" width="20.0851" height="20.0851" stroke="white"/>
<rect x="553.154" y="290.321" width="20.085" height="20.0851" stroke="white"/>
<rect x="574.239" y="290.321" width="20.0851" height="20.0851" stroke="white"/>
<rect x="595.324" y="290.321" width="20.0851" height="20.0851" stroke="white"/>
<rect x="616.41" y="290.321" width="20.0851" height="20.0851" stroke="white"/>
<rect x="637.495" y="290.321" width="20.0851" height="20.0851" stroke="white"/>
<rect x="658.58" y="290.321" width="20.0851" height="20.0851" stroke="white"/>
<rect x="679.665" y="290.321" width="20.0851" height="20.0851" stroke="white"/>
<rect x="700.75" y="290.321" width="20.0851" height="20.0851" stroke="white"/>
<rect x="721.835" y="290.321" width="20.0851" height="20.0851" stroke="white"/>
<rect x="742.92" y="290.321" width="20.0851" height="20.0851" stroke="white"/>
<rect x="764.005" y="290.321" width="20.0851" height="20.0851" stroke="white"/>
<rect x="785.09" y="290.321" width="20.0851" height="20.0851" stroke="white"/>
<rect x="806.175" y="290.321" width="20.085" height="20.0851" stroke="white"/>
</g>
<path d="M545.22 296.054H725.387C722.31 287.201 706.242 260.477 635.304 259.74C578.553 259.149 545.22 285.725 545.22 296.054Z" fill="#11269C"/>
<path d="M17.7966 280.072H165.998C163.467 284.675 150.25 298.571 91.8974 298.955C45.2153 299.262 17.7966 285.442 17.7966 280.072Z" fill="#11269C"/>
<path d="M649.833 316.396H830C826.923 290.263 810.855 248.885 739.916 246.708C683.166 244.965 649.833 285.907 649.833 316.396Z" fill="#FF94B8" stroke="#11269C" stroke-width="2"/>
<path fill-rule="evenodd" clip-rule="evenodd" d="M797.342 174.704C800.568 176.327 801.866 180.258 800.242 183.484L744.304 287.37C742.68 290.595 741.689 292.592 738.464 290.968C735.238 289.345 735.387 287.656 737.011 284.43L788.562 177.604C790.186 174.378 794.117 173.08 797.342 174.704Z" fill="#11269C"/>
<path d="M791.837 161.223C788.931 165.291 789.317 170.615 790.044 173.279C784.813 172.117 784.232 176.185 786.411 178.365L798.761 188.535C802.394 191.441 804.573 186.356 802.394 184.176C805.3 184.419 812.565 183.159 818.376 176.185C825.641 167.467 824.188 160.203 822.735 159.476C821.573 158.895 819.345 159.234 818.376 159.476C818.861 158.265 819.539 155.553 818.376 154.391C817.214 153.228 814.502 153.906 813.291 154.391C814.744 148.579 810.385 148.579 808.206 149.305C806.462 149.887 803.12 154.875 801.667 157.297C798.761 157.297 799.578 150.641 798.761 147.852C796.493 140.105 791.284 137.724 787.651 137.724C784.019 137.724 786.786 142.74 789.692 146.226C791.392 148.267 795.469 156.138 791.837 161.223Z" fill="white"/>
<path d="M795.129 177.638L797.309 179.818M801.667 170.373L808.206 161.656M808.206 171.826L814.018 167.467M790.044 173.279C789.317 170.615 788.931 165.291 791.837 161.223C795.469 156.138 791.392 148.267 789.692 146.226C786.786 142.74 784.019 137.724 787.651 137.724C791.284 137.724 796.493 140.105 798.761 147.852C799.578 150.641 798.761 157.297 801.667 157.297C803.12 154.875 806.462 149.887 808.206 149.305C810.385 148.579 814.744 148.579 813.291 154.391C814.502 153.906 817.214 153.228 818.376 154.391C819.539 155.553 818.861 158.265 818.376 159.476C819.345 159.234 821.573 158.895 822.735 159.476C824.188 160.203 825.641 167.467 818.376 176.185C812.565 183.159 805.3 184.419 802.394 184.176C804.573 186.356 802.394 191.441 798.761 188.535L786.411 178.365C784.232 176.185 784.813 172.117 790.044 173.279Z" stroke="#11269C" stroke-width="2" stroke-linecap="round"/>
<circle cx="739.917" cy="287.336" r="13.5296" fill="white" stroke="#11269C" stroke-width="2"/>
<path d="M133.307 319.668V86.1015L373.771 77.3838V307.668L133.307 319.668Z" fill="#11269C"/>
<path d="M152.922 283.704V71.0529L389.754 63.5806V272.806L152.922 283.704Z" fill="white" stroke="#11269C" stroke-width="2"/>
<path d="M415.907 280.798V262.636L155.101 275.713V291.695L415.907 280.798Z" fill="white" stroke="#11269C" stroke-width="2"/>
<path d="M184.686 290.024V274.437L152.718 275.854V291.441L184.686 290.024Z" fill="white" stroke="#11269C" stroke-width="2"/>
<path fill-rule="evenodd" clip-rule="evenodd" d="M31.3092 123.258C33.4791 122.142 36.1571 122.969 37.2906 125.105C40.8886 131.887 47.3492 142.471 55.2148 151.289C59.1455 155.696 63.3182 159.538 67.5448 162.253C71.7815 164.974 75.8237 166.405 79.5886 166.405C82.0367 166.405 84.0213 168.359 84.0213 170.769C84.0213 173.179 82.0367 175.133 79.5886 175.133C73.5382 175.133 67.8179 172.85 62.7011 169.563C57.574 166.27 52.8021 161.812 48.5534 157.049C40.0602 147.527 33.2226 136.29 29.4327 129.147C28.2992 127.01 29.1393 124.374 31.3092 123.258Z" fill="white" stroke="#11269C" stroke-linecap="round"/>
<path d="M37.5548 118.918C39.5668 121.445 39.2315 125.869 38.8123 127.764C38.1836 129.66 36.0458 133.704 32.5247 134.715C28.1234 135.979 24.0109 132.82 22.7534 130.292C21.4959 127.764 15.837 129.028 14.9196 129.028C13.7855 129.028 13.28 126.061 14.9196 125.237C17.8003 123.789 21.4167 124.394 23.0934 125.237C20.9975 123.762 15.7997 123.215 14.2907 122.709C12.4044 122.077 11.7058 118.484 14.2907 118.286C16.7169 118.1 23.303 119.971 26.2372 122.077C25.6084 120.182 19.3209 117.654 18.0633 117.022C16.8058 116.39 16.8058 113.863 18.6921 113.231C23.464 111.632 31.896 119.339 34.411 122.077C32.5247 119.55 32.9771 111.931 36.2973 112.599C39.441 113.231 35.0398 115.758 37.5548 118.918Z" fill="white" stroke="#11269C" stroke-linejoin="round"/>
<path d="M35.124 136.667L41.3804 129.993C42.3739 128.934 42.2707 127.256 41.1547 126.326C40.1273 125.47 38.6105 125.563 37.6957 126.539L31.4393 133.212C30.4458 134.272 30.549 135.95 31.665 136.88C32.6924 137.736 34.2093 137.643 35.124 136.667Z" fill="white" stroke="#11269C"/>
<mask id="mask2" mask-type="alpha" maskUnits="userSpaceOnUse" x="66" y="123" width="74" height="101">
<path d="M137.074 177.854C133.265 153.096 126.872 138.291 124.151 133.983V125.481L117.349 131.262C97.2165 122.284 83.1145 135.003 78.58 142.485L69.0577 140.445L74.4991 147.926C71.7784 154.728 76.1553 160.289 82.3209 191.117C88.1023 220.024 104.086 225.125 119.73 221.724C135.374 218.323 141.835 208.801 137.074 177.854Z" fill="white" stroke="#11269C" stroke-width="2"/>
</mask>
<g mask="url(#mask2)">
<path d="M137.074 177.854C133.265 153.096 126.872 138.291 124.151 133.983V125.481L117.349 131.262C97.2165 122.284 83.1145 135.003 78.58 142.485L69.0577 140.445L74.4991 147.926C71.7784 154.728 76.1553 160.289 82.3209 191.117C88.1023 220.024 104.086 225.125 119.73 221.724C135.374 218.323 141.835 208.801 137.074 177.854Z" fill="white" stroke="#11269C" stroke-width="2"/>
<path d="M110.786 211.056C127.64 204.663 132.822 174.005 133.307 159.476C135.728 168.678 140.717 189.116 141.298 197.252C142.024 207.423 131.854 217.594 131.127 217.594C130.401 217.594 120.956 227.765 103.521 221.953C89.5725 217.303 85.6011 205.486 85.3589 200.158C86.8119 206.455 93.9314 217.449 110.786 211.056Z" fill="#11269C"/>
<path d="M97.044 157.909C96.2979 158.787 95.1987 159.161 94.0704 158.922C92.6907 158.63 91.4833 157.469 90.9555 155.928L89.1186 150.564C88.7332 149.438 88.7535 148.231 89.1747 147.232C89.9688 145.349 91.9637 144.669 93.7472 145.675C94.5018 146.1 95.1357 146.786 95.557 147.618L92.9293 150.757L96.746 150.937L97.6718 153.641C98.1996 155.182 97.9562 156.837 97.044 157.909Z" fill="#11269C"/>
<path d="M113.853 152.085C113.107 152.962 112.008 153.336 110.879 153.097C109.5 152.805 108.292 151.645 107.765 150.103L105.928 144.739C105.542 143.614 105.563 142.407 105.984 141.408C106.778 139.524 108.773 138.845 110.556 139.85C111.311 140.276 111.945 140.962 112.366 141.793L109.738 144.933L113.555 145.112L114.481 147.816C115.009 149.357 114.765 151.012 113.853 152.085Z" fill="#11269C"/>
<circle cx="104.247" cy="158.749" r="2.17944" fill="#11269C"/>
<path d="M104.264 160.351C104.681 160.231 105.094 160.111 105.504 159.991L105.505 159.996C107.672 159.373 108.974 158.904 110.723 157.128C115.398 152.379 123.864 151.816 124.677 161.268C125.161 166.896 120.386 175.495 110.927 178.801L110.929 178.808C110.525 178.944 110.114 179.073 109.697 179.193C109.28 179.313 108.864 179.423 108.449 179.523L108.447 179.516C98.6805 181.754 90.0602 177.017 87.4732 171.995C83.1288 163.562 90.5952 159.53 97.0813 161.062C99.5068 161.634 100.859 161.337 103.025 160.712L103.023 160.706C103.434 160.589 103.847 160.471 104.264 160.351Z" fill="white" stroke="#11269C"/>
<path d="M96.3608 165.141C94.1141 166.09 92.7901 168.246 94.4761 171.386C96.06 174.337 101.507 177.033 107.786 175.564L107.788 175.568C108.055 175.503 108.322 175.432 108.591 175.354C108.859 175.277 109.123 175.195 109.384 175.108L109.383 175.104C115.48 173.004 118.656 167.822 118.426 164.481C118.183 160.952 115.947 159.822 113.56 160.189C113.24 161.574 112.735 162.614 112.073 163.351C111.307 164.203 110.374 164.601 109.415 164.686C107.898 164.819 105.381 164.223 105.381 164.223C105.381 164.223 102.445 167.325 99.7768 167.045C98.3696 166.898 97.1902 166.048 96.3608 165.141Z" fill="#11269C" stroke="#11269C"/>
<path d="M97.7092 169.646V166.741C101.342 168.193 102.795 166.741 105.7 164.561C108.988 165.876 111.036 165.161 112.239 163.941V163.835L112.321 163.855C113.187 162.93 113.59 161.745 113.692 160.929L115.145 164.561L112.321 163.855C112.294 163.884 112.267 163.912 112.239 163.941V166.741L109.333 165.288L108.606 168.193L105.7 164.561V168.92L102.795 166.741L102.068 169.646L99.8887 167.467L97.7092 169.646Z" fill="white"/>
<path fill-rule="evenodd" clip-rule="evenodd" d="M88.6567 125.483C89.633 124.506 91.2159 124.506 92.1922 125.483C92.3722 125.663 92.6039 125.84 93.0336 126.164L93.0452 126.173C93.4183 126.455 93.957 126.862 94.4456 127.371C96.5608 129.574 97.9743 132 98.816 134.946C99.1953 136.274 98.4266 137.658 97.099 138.037C95.7714 138.416 94.3877 137.648 94.0084 136.32C93.3956 134.175 92.402 132.462 90.8387 130.834C90.6592 130.647 90.4231 130.459 90.0199 130.154C89.9949 130.135 89.9688 130.116 89.9419 130.095C89.5954 129.834 89.0982 129.46 88.6567 129.018C87.6804 128.042 87.6804 126.459 88.6567 125.483Z" fill="#11269C"/>
<path fill-rule="evenodd" clip-rule="evenodd" d="M81.771 132.628C81.998 131.266 83.286 130.346 84.648 130.573C87.1058 130.983 89.7297 131.962 91.694 134.172C92.6113 135.204 92.5184 136.784 91.4864 137.702C90.4544 138.619 88.8743 138.526 87.957 137.494C87.0174 136.437 85.6271 135.805 83.826 135.505C82.464 135.278 81.544 133.99 81.771 132.628Z" fill="#11269C"/>
<path fill-rule="evenodd" clip-rule="evenodd" d="M102.001 123.353C103.381 123.353 104.501 124.472 104.501 125.853C104.501 127.843 104.513 129.502 104.849 131.139C105.126 132.491 104.255 133.813 102.902 134.09C101.55 134.368 100.228 133.496 99.9508 132.144C99.5006 129.949 99.5006 127.807 99.5006 125.895L99.5006 125.853C99.5006 124.472 100.62 123.353 102.001 123.353Z" fill="#11269C"/>
</g>
<path fill-rule="evenodd" clip-rule="evenodd" d="M60.365 215.952C61.9955 214.129 64.357 213.174 66.7668 213.174L110.548 214.4C112.989 214.4 114.969 216.38 114.969 218.821C114.969 221.263 112.989 223.242 110.548 223.242L67.5912 222.016C71.6964 234.659 78.8329 246.174 83.7463 258.511C85.3251 262.475 86.6547 266.462 86.8645 269.607C87.0269 272.044 85.1835 274.15 82.7473 274.313C80.311 274.475 78.2043 272.632 78.0419 270.195C77.9343 268.581 77.1124 265.752 75.5317 261.783C70.3654 248.81 62.5649 236.701 58.7211 223.242C57.9442 220.522 58.6657 217.852 60.365 215.952Z" fill="#11269C"/>
<path d="M131.127 212.509L144.204 231.397" stroke="#11269C" stroke-width="6"/>
<path d="M72.3513 257.55L86.0618 254.372L87.5385 262.635C92.4786 267.285 91.0498 273.29 89.718 275.712H81.0002V273.533C78.3365 274.986 70.8295 277.31 62.1118 274.986C51.2146 272.08 56.3 260.56 62.8383 263.362C67.9236 265.541 72.7668 263.604 75.9149 262.635L72.3513 257.55Z" fill="#11269C"/>
<path d="M52.009 39.6201L20.1632 55.5267L6.20293 19.0142C5.10074 16.1315 6.3652 12.8829 9.12618 11.5038L23.4419 4.35329C26.2028 2.97422 29.5597 3.91459 31.2024 6.52732L52.009 39.6201Z" fill="#11269C"/>
<path d="M20.1633 55.5265C22.2804 48.9395 25.0665 42.8753 31.8368 39.9868C35.5008 38.4236 39.5928 37.7496 43.5575 37.842C46.6441 37.9139 49.6887 38.1204 52.591 39.159" stroke="white" stroke-linecap="round" stroke-linejoin="round"/>
<path d="M10.8796 20.2739C13.296 27.6697 16.1137 34.8434 18.9795 42.066" stroke="white" stroke-linecap="round" stroke-linejoin="round"/>
<path d="M13.9146 15.199C16.5588 22.6624 19.178 30.1634 23.0049 37.1153" stroke="white" stroke-linecap="round" stroke-linejoin="round"/>
<path d="M20.0421 16.3164C22.9058 22.0496 26.6195 27.2464 29.6917 32.8477" stroke="white" stroke-linecap="round" stroke-linejoin="round"/>
<path d="M22.9533 11.9219C25.4444 15.6252 28.0423 19.2594 30.48 22.9982C32.534 26.1486 34.4591 29.3816 36.501 32.5401" stroke="white" stroke-linecap="round" stroke-linejoin="round"/>
<path d="M27.906 10.0674C32.7077 17.525 38.0388 24.6558 43.3721 31.7387" stroke="white" stroke-linecap="round" stroke-linejoin="round"/>
<path d="M38.5653 41.4621C38.7936 41.9193 38.6783 42.6445 38.008 43.5374C37.3579 44.4035 36.2697 45.2981 34.8883 45.988C33.507 46.678 32.1382 47.0107 31.0552 47.0103C29.9387 47.0098 29.2896 46.6664 29.0612 46.2092C28.8329 45.7521 28.9482 45.0268 29.6185 44.134C30.2686 43.2678 31.3568 42.3733 32.7382 41.6833C34.1195 40.9933 35.4883 40.6606 36.5714 40.6611C37.6878 40.6615 38.3369 41.0049 38.5653 41.4621Z" fill="#11269C" stroke="white"/>
<path d="M38.6557 41.5321C38.0765 40.6777 37.6638 39.7116 37.2033 38.7895" stroke="white" stroke-linecap="round" stroke-linejoin="round"/>
<path d="M27.3572 43.0469C27.8853 44.1042 28.4135 45.1616 28.9416 46.219" stroke="white" stroke-linecap="round" stroke-linejoin="round"/>
<path d="M302.576 237.209L282.235 222.679L283.688 211.782C283.688 211.782 323.576 152.06 325.097 150.031L317.832 144.946L348.345 133.322L353.43 139.861V175.458L345.439 170.373L302.576 237.209Z" fill="#FF596A" stroke="#FF596A" stroke-width="2"/>
<path d="M284.414 211.782C297.249 192.167 323.354 152.356 325.097 150.031L317.832 144.946L347.618 134.049V166.014L339.627 160.929L300.397 222.679L284.414 211.782Z" fill="white" stroke="#FF596A" stroke-width="2"/>
<path d="M185.193 198.514C189.835 195.587 213.236 197.294 224.356 198.514C224.839 198.514 228.707 198.807 240.311 199.977C254.815 201.441 252.609 214.746 250.464 224.124C248.288 233.636 232.333 230.709 201.148 231.441C191.723 231.662 181.567 232.904 179.392 221.197C177.216 209.49 179.392 202.173 185.193 198.514Z" fill="#11269C"/>
<path d="M182.473 195.793C187.114 192.866 210.515 194.574 221.635 195.793C222.119 195.793 225.986 196.086 237.59 197.257C252.095 198.72 249.888 212.025 247.743 221.403C245.568 230.915 229.613 227.988 198.428 228.72C189.002 228.941 178.847 230.184 176.671 218.476C174.495 206.769 176.671 199.452 182.473 195.793Z" fill="#FF94B8"/>
<path d="M182.534 156.993C187.219 154.123 210.836 155.797 222.059 156.993C222.547 156.993 226.451 157.28 238.162 158.427C252.801 159.862 250.574 172.906 248.409 182.1C246.213 191.426 230.11 188.556 198.637 189.274C189.124 189.491 178.875 190.708 176.679 179.231C174.483 167.753 176.679 160.579 182.534 156.993Z" fill="#11269C"/>
<path d="M179.752 153.623C184.394 150.697 207.794 152.404 218.914 153.623C219.398 153.623 223.266 153.916 234.869 155.087C249.374 156.55 247.167 169.855 245.023 179.233C242.847 188.745 226.892 185.819 195.707 186.55C186.282 186.771 176.126 188.014 173.95 176.306C171.775 164.599 173.95 157.282 179.752 153.623Z" fill="white"/>
<path d="M179.752 153.623C184.394 150.697 207.794 152.404 218.914 153.623C219.398 153.623 223.266 153.916 234.869 155.087C249.374 156.55 247.167 169.855 245.023 179.233C242.847 188.745 226.892 185.819 195.707 186.55C186.282 186.771 176.126 188.014 173.95 176.306C171.775 164.599 173.95 157.282 179.752 153.623Z" fill="#FF596A" fill-opacity="0.3"/>
<mask id="mask3" mask-type="alpha" maskUnits="userSpaceOnUse" x="430" y="42" width="244" height="108">
<path d="M449.11 102.399L626.586 48.3241C630.703 47.3555 639.983 43.7379 645.474 43.2388C653.466 42.5123 667.269 48.3241 671.628 63.5802C675.987 78.8362 666.542 91.1864 662.91 93.3658C659.278 95.5452 474.025 148.578 456.59 148.578C449.035 148.578 444.24 140.829 442.787 136.955C432.616 139.86 431.163 131.143 431.163 127.51C431.163 122.918 437.459 121.941 440.607 120.972V113.878C440.607 108.598 444.059 103.938 449.11 102.399Z" fill="white" stroke="#11269C"/>
</mask>
<g mask="url(#mask3)">
<path d="M443.723 136.603L443.399 135.74L442.512 135.993C440.099 136.682 438.302 136.654 436.965 136.257C435.639 135.863 434.679 135.081 433.973 134.1C432.521 132.084 432.163 129.253 432.163 127.51C432.163 125.797 433.292 124.665 435.136 123.785C436.477 123.144 437.966 122.741 439.331 122.371C439.88 122.222 440.41 122.079 440.901 121.928L441.607 121.711V120.972V113.878C441.607 109.038 444.771 104.766 449.401 103.355L626.847 49.29C628.241 48.9586 630.214 48.2791 632.374 47.5345C633.489 47.1502 634.655 46.7487 635.817 46.3687C639.35 45.2138 642.899 44.2388 645.474 44.2388C654.581 44.2388 666.457 49.1245 670.666 63.8549C672.77 71.2171 671.546 77.8795 669.347 82.9809C668.247 85.533 666.907 87.6846 665.629 89.3227C664.337 90.9795 663.154 92.0532 662.395 92.5083C662.402 92.5045 662.4 92.5054 662.388 92.5112C662.368 92.5205 662.32 92.5425 662.232 92.5782C662.105 92.6295 661.932 92.6949 661.71 92.7747C661.266 92.9341 660.653 93.1413 659.876 93.3942C658.325 93.8994 656.147 94.5786 653.426 95.4073C647.984 97.0643 640.386 99.3133 631.313 101.952C613.166 107.229 589.129 114.061 564.66 120.825C540.189 127.59 515.293 134.285 495.428 139.288C485.495 141.79 476.826 143.867 470.101 145.318C463.328 146.779 458.641 147.578 456.59 147.578C453.179 147.578 450.335 145.832 448.121 143.527C445.905 141.219 444.41 138.435 443.723 136.603Z" fill="white" stroke="#11269C" stroke-width="2"/>
<path d="M637.335 104.055C625.13 99.9865 618.595 81.0152 618.595 73.0239L467.487 120.245C464 134.775 474.096 146.917 480.416 146.917L637.335 104.055Z" fill="#11269C" stroke="#11269C"/>
<path d="M647.654 97.7247C625.569 91.9128 627.313 61.4007 630.945 46.8711L649.107 34.521L677.44 48.3241L680.345 81.0156L667.269 101.357L647.654 97.7247Z" fill="#11269C" stroke="#11269C"/>
<path d="M637.304 50.3066C634.314 58.4906 634.173 67.9094 636.542 76.2786C637.764 80.5937 640.389 84.7153 643.599 87.8268C644.884 89.0732 646.352 90.176 647.958 90.9743C649.149 91.5659 650.319 91.7637 651.572 92.1322" stroke="white" stroke-linecap="round" stroke-linejoin="round"/>
</g>
<path d="M423.898 128.963L431.163 128.236C431.163 132.305 433.343 135.501 435.522 136.954L420.992 142.766L423.898 128.963Z" fill="#11269C" stroke="#11269C"/>
<path d="M600.396 103.705C598.735 104.848 594.631 108.943 592.786 110.847C597.826 113.133 615.178 108.466 623.224 105.848C624.885 108.705 621.61 112.276 619.765 113.704C622.533 122.275 588.635 127.275 585.176 118.704C581.717 110.133 591.402 100.134 597.628 98.7051C603.854 97.2767 602.471 102.276 600.396 103.705Z" fill="white" stroke="#11269C"/>
<path fill-rule="evenodd" clip-rule="evenodd" d="M555.799 173.16C553.499 152.412 556.643 135.779 559.023 123.878L567.741 121.699C565.52 132.803 562.271 152.421 564.464 172.199C566.661 192.027 572.721 212.333 585.559 227.082L578.983 232.806C564.504 216.171 558.093 193.857 555.799 173.16Z" fill="white" stroke="#11269C"/>
<path d="M620.774 112.98C619.188 114.272 617.24 114.98 615.419 115.613C614.163 116.051 612.901 116.499 611.622 116.832C610.314 117.172 609.026 117.244 607.697 117.339" stroke="#11269C" stroke-linecap="round" stroke-linejoin="round"/>
<path fill-rule="evenodd" clip-rule="evenodd" d="M603.495 337.683L585.333 272.3L592.333 270.355L610.495 335.739L603.495 337.683Z" fill="white" stroke="#11269C"/>
<path d="M607.13 201.148C605.426 197.893 602.908 195.67 599.98 194.225V185.629L598.037 185.296L595.45 192.625C588.329 190.825 582.281 191.138 575.487 193.8L572.994 188.814L571.941 186.707L571.157 188.929L568.329 196.941C560.337 202.061 552.608 214.055 555.852 238.792C558.776 261.087 566.124 272.896 575.222 278.298C584.306 283.691 594.823 282.511 603.655 279.567C609.739 277.539 614.321 274.038 617.357 269.624C623.807 271.858 634.76 271.974 652.527 261.314C669.536 251.108 677.067 238.862 680.051 227.414C683.018 216.031 681.464 205.528 680.475 198.845L680.47 198.81C680.197 196.966 679.974 195.453 679.89 194.276C679.624 190.55 681.463 186.246 684.32 181.951C687.154 177.691 690.879 173.603 694.129 170.354L696.847 167.636L693.149 168.684C674.687 173.92 663.887 182.601 657.059 192.749C650.277 202.827 647.467 214.284 644.856 224.934L644.838 225.006C643.087 232.148 641.428 238.9 638.752 244.786C635.373 252.22 631.784 256.469 628.515 258.743C625.747 260.67 623.184 261.2 621.089 261.043C622.722 253.88 621.428 245.764 617.293 238.183C612.932 230.188 612.48 224.838 612.022 219.405L612.022 219.4L612.021 219.397C611.577 214.132 611.125 208.774 607.13 201.148Z" fill="white" stroke="#11269C" stroke-width="2"/>
<mask id="mask4" mask-type="alpha" maskUnits="userSpaceOnUse" x="556" y="169" width="138" height="113">
<path d="M618.884 261.619C618.81 261.888 618.852 262.174 618.998 262.411C619.145 262.647 619.383 262.812 619.657 262.865C622.465 263.413 625.98 262.944 629.657 260.385C633.316 257.839 637.101 253.252 640.573 245.614C643.333 239.542 645.031 232.618 646.767 225.538L646.781 225.482C649.41 214.761 652.15 203.626 658.718 193.865C664.942 184.617 674.652 176.539 691.15 171.367C689.242 174.239 687.241 176.721 685.368 179.044C684.435 180.201 683.533 181.319 682.691 182.426C679.788 186.243 677.576 189.954 677.895 194.418C677.985 195.68 678.22 197.266 678.486 199.065L678.491 199.102C679.481 205.788 680.975 215.941 678.116 226.909C675.268 237.832 668.076 249.652 651.498 259.599C633.341 270.493 622.895 269.668 617.327 267.481C616.882 267.307 616.376 267.471 616.119 267.874C613.357 272.192 609.009 275.674 603.022 277.67C594.418 280.538 584.594 281.537 576.243 276.578C567.906 271.628 560.723 260.552 557.835 238.532C554.619 214.01 562.447 202.929 569.682 198.453C569.876 198.333 570.023 198.15 570.099 197.935L571.1 195.099V196.086C571.1 196.42 571.267 196.733 571.545 196.918C571.824 197.104 572.176 197.138 572.485 197.009C572.717 196.912 572.947 196.822 573.175 196.737C578.619 194.715 588.188 192.699 595.822 194.791C596.328 194.93 596.855 194.654 597.029 194.159L597.98 191.467V193.878L597.936 193.915C597.668 194.138 597.536 194.485 597.587 194.83C597.639 195.175 597.866 195.469 598.188 195.604C601.181 196.866 603.704 198.917 605.359 202.076C609.165 209.343 609.591 214.378 610.029 219.568C610.495 225.097 610.976 230.778 615.537 239.141C619.679 246.734 620.761 254.768 618.884 261.619Z" fill="white" stroke="black" stroke-width="2" stroke-linecap="round" stroke-linejoin="round"/>
</mask>
<g mask="url(#mask4)">
<path fill-rule="evenodd" clip-rule="evenodd" d="M615.924 221.257C616.81 221.916 616.995 223.168 616.336 224.055C613.839 227.417 611.053 230.428 607.948 233.219C606.016 234.956 603.961 236.651 601.374 237.878C600.376 238.351 599.183 237.926 598.71 236.928C598.237 235.93 598.662 234.737 599.66 234.264C601.705 233.294 603.408 231.922 605.274 230.244C608.196 227.618 610.798 224.802 613.125 221.67C613.784 220.783 615.037 220.598 615.924 221.257Z" fill="#11269C"/>
<path fill-rule="evenodd" clip-rule="evenodd" d="M617.937 229.838C618.921 230.34 619.312 231.544 618.81 232.528C616.767 236.536 614.273 241.056 610.191 244.129C609.309 244.794 608.055 244.617 607.39 243.734C606.726 242.852 606.903 241.598 607.785 240.934C611.051 238.475 613.194 234.738 615.246 230.712C615.748 229.728 616.952 229.337 617.937 229.838Z" fill="#11269C"/>
<path fill-rule="evenodd" clip-rule="evenodd" d="M620.049 236.821C621.142 236.983 621.896 238 621.734 239.092C621.164 242.944 619.537 246.301 617.559 249.36C616.96 250.288 615.722 250.554 614.794 249.955C613.866 249.355 613.6 248.117 614.2 247.189C616.004 244.398 617.321 241.588 617.778 238.506C617.94 237.413 618.957 236.659 620.049 236.821Z" fill="#11269C"/>
<path fill-rule="evenodd" clip-rule="evenodd" d="M628.665 252.309C629.767 252.234 630.721 253.067 630.796 254.169C630.818 254.49 630.839 254.805 630.859 255.115C631.056 258.151 631.221 260.693 632.336 263.077C632.803 264.078 632.371 265.268 631.371 265.736C630.37 266.204 629.18 265.772 628.712 264.771C627.258 261.661 627.051 258.344 626.869 255.421C626.848 255.089 626.827 254.762 626.806 254.441C626.73 253.339 627.563 252.385 628.665 252.309Z" fill="#11269C"/>
<path fill-rule="evenodd" clip-rule="evenodd" d="M644.224 239.403C644.275 239.432 644.31 239.452 644.33 239.463C645.606 240.15 646.719 241.055 647.695 241.94C648.185 242.385 648.659 242.841 649.105 243.272C649.137 243.304 649.17 243.335 649.202 243.367C649.619 243.77 650.01 244.147 650.399 244.506C651.212 245.254 651.264 246.519 650.516 247.332C649.768 248.144 648.503 248.197 647.69 247.449C647.263 247.055 646.837 246.644 646.428 246.249C646.394 246.215 646.359 246.181 646.324 246.148C645.876 245.715 645.445 245.3 645.008 244.903C644.128 244.106 643.293 243.447 642.433 242.984C642.4 242.967 642.367 242.948 642.332 242.929C642.705 243.694 643.136 244.45 643.607 245.201C644.311 246.321 645.027 247.354 645.77 248.427C646.255 249.126 646.751 249.842 647.263 250.611C647.876 251.53 647.627 252.772 646.708 253.384C645.789 253.997 644.547 253.749 643.935 252.83C643.509 252.191 643.046 251.522 642.572 250.836C641.779 249.69 640.955 248.498 640.22 247.328C639.392 246.01 638.612 244.579 638.021 243.042C638.018 243.034 638.015 243.026 638.012 243.018C637.918 242.775 637.74 242.312 637.64 241.806C637.542 241.316 637.446 240.453 637.87 239.591C638.445 238.421 639.549 238.074 640.358 238.053C641.078 238.034 641.761 238.244 642.233 238.422C643.054 238.732 643.913 239.224 644.224 239.403Z" fill="#11269C"/>
<path fill-rule="evenodd" clip-rule="evenodd" d="M639.146 257.842C640.206 257.529 641.318 258.135 641.631 259.194C642.323 261.542 643.724 263.316 645.83 264.689C646.755 265.293 647.016 266.532 646.413 267.457C645.809 268.382 644.57 268.643 643.645 268.04C640.823 266.199 638.782 263.675 637.794 260.326C637.482 259.267 638.087 258.155 639.146 257.842Z" fill="#11269C"/>
<path fill-rule="evenodd" clip-rule="evenodd" d="M657.488 242.494C658.381 241.844 659.632 242.041 660.281 242.935C662.476 245.953 665.306 249.865 664.361 254.822C664.155 255.907 663.108 256.62 662.023 256.413C660.937 256.206 660.225 255.159 660.432 254.074C661.007 251.053 659.396 248.517 657.046 245.287C656.397 244.394 656.594 243.143 657.488 242.494Z" fill="#11269C"/>
<path d="M660.004 185.629C661.166 180.398 685.189 166.498 695.601 161.655C697.539 168.678 695.892 187.518 685.431 195.073C674.969 202.629 671.385 196.284 670.901 192.167C665.089 196.526 658.551 192.167 660.004 185.629Z" fill="#11269C"/>
</g>
<path fill-rule="evenodd" clip-rule="evenodd" d="M590.549 118.515C592.708 117.87 594.982 119.099 595.626 121.259C599.858 135.45 607.866 174.818 606.692 220.605C606.634 222.858 604.761 224.637 602.508 224.58C600.254 224.522 598.475 222.648 598.532 220.395C599.683 175.518 591.805 137.007 587.804 123.592C587.16 121.432 588.389 119.159 590.549 118.515Z" fill="white" stroke="#11269C" stroke-linecap="round" stroke-linejoin="round"/>
<path fill-rule="evenodd" clip-rule="evenodd" d="M639.326 350.723L600.822 274.443L607.308 271.169L645.811 347.449L639.326 350.723Z" fill="white" stroke="#11269C"/>
<path d="M609.108 215.262L594.825 204.039V230.565L609.108 223.084V215.262Z" fill="white"/>
<path d="M601.294 123.029C601.234 123.458 600.971 123.879 600.459 124.271C599.946 124.665 599.209 125.005 598.282 125.258C596.43 125.764 593.915 125.9 591.184 125.52C588.453 125.14 586.069 124.325 584.426 123.333C583.603 122.836 582.987 122.308 582.6 121.789C582.215 121.273 582.077 120.795 582.136 120.367C582.196 119.938 582.459 119.516 582.97 119.124C583.484 118.73 584.221 118.391 585.148 118.137C587 117.631 589.515 117.496 592.246 117.876C594.977 118.255 597.36 119.071 599.004 120.063C599.827 120.559 600.443 121.087 600.83 121.606C601.215 122.123 601.353 122.6 601.294 123.029Z" fill="white" stroke="#11269C"/>
<path d="M603.336 336.711L600.411 327.993C596.778 329.446 596.052 326.54 596.052 324.361C596.052 322.181 603.317 322.181 607.676 321.455C612.034 320.729 611.308 323.634 611.308 325.087C611.308 326.25 609.371 326.54 608.402 326.54L610.601 335.258L603.336 336.711Z" fill="white" stroke="#11269C"/>
<path d="M567.777 217.32C566.73 217.798 565.575 217.67 564.655 216.975C563.529 216.126 562.928 214.562 563.104 212.943L563.716 207.306C563.844 206.123 564.374 205.039 565.18 204.313C566.698 202.944 568.792 203.175 569.981 204.842C570.484 205.547 570.767 206.437 570.796 207.369L567.084 209.098L570.465 210.879L570.156 213.72C569.981 215.34 569.058 216.735 567.777 217.32Z" fill="#11269C"/>
<path d="M582.307 218.772C581.259 219.25 580.105 219.122 579.185 218.428C578.059 217.578 577.458 216.015 577.634 214.395L578.245 208.758C578.374 207.575 578.904 206.491 579.709 205.765C581.227 204.396 583.322 204.627 584.511 206.294C585.013 206.999 585.297 207.889 585.325 208.821L581.614 210.55L584.994 212.331L584.686 215.172C584.51 216.792 583.588 218.187 582.307 218.772Z" fill="#11269C"/>
<path d="M576.483 345.428C577.064 355.308 593.677 351.482 601.91 348.334V350.514H612.807V348.334C618.619 340.343 611.354 331.625 606.269 330.899C602.201 330.317 594.887 335.5 591.739 338.163C586.412 336.468 575.902 335.548 576.483 345.428Z" fill="#11269C"/>
<path d="M628.833 331.23C631.111 331.255 633.942 329.448 634.954 326.469C636.004 323.379 641.416 328.169 637.483 330.924L642.568 341.822L636.757 345.454L631.671 335.283C627.312 337.463 626.328 331.203 628.833 331.23Z" fill="white" stroke="#11269C"/>
<circle cx="571.24" cy="219.083" r="2.17944" transform="rotate(25.0963 571.24 219.083)" fill="#11269C"/>
<path d="M571.076 221.993C571.431 222.061 571.783 222.127 572.132 222.192L572.131 222.198C573.975 222.552 575.117 222.68 577.052 221.813C582.226 219.495 588.773 222.576 586.063 231.481C584.449 236.783 577.847 242.545 569.593 241.527L569.592 241.534C569.24 241.486 568.887 241.428 568.533 241.36C568.178 241.292 567.827 241.215 567.481 241.13L567.482 241.123C559.371 239.006 554.57 231.061 554.394 225.416C554.098 215.936 561.113 215.452 565.44 219.59C567.058 221.137 568.176 221.441 570.02 221.794L570.021 221.788C570.37 221.856 570.722 221.925 571.076 221.993Z" fill="white" stroke="#11269C"/>
<path d="M633.124 338.915C637.774 340.078 639.905 337.947 640.389 336.736C647.654 336.736 648.38 352.718 646.927 357.077C645.474 361.436 633.124 359.983 628.039 359.983C622.954 359.983 620.177 356.301 620.774 352.718C621.501 348.36 627.07 347.149 630.218 346.18L633.124 338.915Z" fill="#11269C"/>
<path d="M563.994 221.793C561.887 221.779 560.015 223.396 560.075 227.329C560.132 231.023 563.267 236.143 568.688 237.386L568.688 237.39C568.919 237.44 569.154 237.484 569.391 237.523C569.629 237.561 569.865 237.593 570.1 237.618L570.101 237.613C575.631 238.134 580.126 234.244 581.268 230.742C582.473 227.044 581.196 224.919 579.211 224.252C578.417 225.522 577.617 226.361 576.816 226.822C575.889 227.355 575.012 227.354 574.239 227.021C573.017 226.496 571.312 224.792 571.312 224.792C571.312 224.792 567.823 226.669 565.876 225.221C564.849 224.457 564.276 223.078 563.994 221.793Z" fill="#11269C" stroke="#11269C"/>
<path d="M576.459 231.396L574.279 227.038C575.732 227.764 577.185 226.795 577.912 226.311L576.459 231.396Z" fill="white"/>
<path d="M567.015 229.944L565.562 225.585C566.143 226.166 567.741 226.796 568.468 226.311L567.015 229.944Z" fill="white"/>
<path d="M576.459 243.747L569.194 246.653L563.382 243.021V251.738L569.194 248.106L575.006 252.465L576.459 243.747Z" fill="#11269C"/>
<path fill-rule="evenodd" clip-rule="evenodd" d="M582.277 201.173C582.062 201.194 581.746 201.304 581.122 201.647C580.396 202.046 579.484 201.781 579.085 201.055C578.686 200.329 578.95 199.417 579.676 199.018C580.337 198.655 581.114 198.273 581.983 198.187C582.938 198.093 583.816 198.367 584.667 198.935C585.357 199.394 585.543 200.326 585.083 201.015C584.624 201.704 583.692 201.891 583.003 201.431C582.603 201.164 582.405 201.16 582.277 201.173Z" fill="#11269C"/>
<path fill-rule="evenodd" clip-rule="evenodd" d="M566.948 199.287C566.948 198.458 567.62 197.787 568.448 197.787C569.195 197.787 570.04 197.849 570.801 198.329C571.563 198.809 572.001 199.553 572.348 200.297C572.697 201.048 572.372 201.94 571.621 202.29C570.87 202.639 569.977 202.314 569.628 201.563C569.344 200.952 569.207 200.87 569.202 200.867C569.202 200.867 569.202 200.867 569.202 200.867C569.202 200.867 569.202 200.867 569.202 200.867C569.196 200.863 569.082 200.787 568.448 200.787C567.62 200.787 566.948 200.115 566.948 199.287Z" fill="#11269C"/>
<ellipse cx="600.266" cy="269.335" rx="10.8826" ry="7.82189" fill="white"/>
<path d="M505.001 137.724C502.095 144.262 493.49 151.438 487.678 146.353C476.743 136.785 487.565 143.535 505.001 137.724Z" fill="#FFFEFE" stroke="#11269C"/>
<path fill-rule="evenodd" clip-rule="evenodd" d="M496.346 147.333C496.346 147.333 490.018 167.405 491.887 177.871C492.782 182.885 495.05 187.605 497.681 193.084C497.986 193.719 498.296 194.364 498.609 195.02C501.476 201.034 504.579 207.991 504.804 215.829C504.884 218.646 502.667 220.994 499.851 221.075C497.035 221.155 494.686 218.938 494.605 216.122C494.449 210.662 492.282 205.456 489.4 199.411C489.098 198.778 488.787 198.133 488.47 197.477C485.916 192.186 483.001 186.148 481.843 179.664C479.518 166.646 487.844 144.272 487.844 144.272L496.346 147.333Z" fill="#11269C"/>
<path d="M497.659 149.364C497.478 149.842 496.868 150.25 495.757 150.365C494.68 150.476 493.284 150.286 491.84 149.741C490.395 149.196 489.221 148.418 488.485 147.623C487.727 146.803 487.538 146.094 487.718 145.616C487.899 145.138 488.509 144.729 489.62 144.615C490.697 144.503 492.093 144.694 493.537 145.239C494.982 145.783 496.156 146.562 496.892 147.357C497.65 148.176 497.839 148.886 497.659 149.364Z" fill="white" stroke="#11269C"/>
<mask id="mask5" mask-type="alpha" maskUnits="userSpaceOnUse" x="436" y="186" width="107" height="142">
<path d="M481.29 195.073C469.085 193.911 467.971 204.275 468.94 209.603C462.886 219.773 452.231 244.474 458.043 261.909C458.512 263.318 459.094 264.629 459.772 265.844C456.246 269.02 452.86 272.554 449.955 276.631C444.962 283.637 441.13 291.664 438.918 300.026C437.468 305.512 436.593 311.191 436.472 316.959C436.47 317.061 436.467 317.17 436.464 317.285C436.429 318.632 436.37 320.885 437.108 323.235C438.068 326.298 441.33 328.002 444.393 327.041C447.455 326.08 449.159 322.818 448.198 319.756C448.078 319.371 448.056 318.977 448.093 317.204C448.193 312.448 448.916 307.686 450.156 302.998C451.997 296.037 455.212 289.282 459.421 283.377C461.808 280.027 464.692 277.024 467.926 274.146C469.739 275.219 471.686 276.046 473.698 276.633C473.545 281.508 473.9 287.837 475.974 294.305C479.537 308.445 494.921 320.548 507.979 326.241C510.922 327.523 514.347 326.178 515.629 323.235C516.912 320.293 515.566 316.868 512.624 315.585C503.016 311.397 492.46 302.998 487.042 290.756C485.539 286.067 485.214 281.328 485.305 277.422C490.621 276.628 495.501 274.232 498.704 270.325C500.715 270.52 502.572 270.826 504.121 271.429C505.811 272.086 506.883 272.993 507.47 274.33C508.267 276.145 508.356 278.551 508.371 281.503C508.373 281.951 508.368 282.438 508.364 282.955C508.347 284.957 508.326 287.4 508.655 289.671C509.089 292.672 510.185 295.955 513.018 298.557C516.267 301.54 520.19 302.102 523.338 302.287C524.138 302.334 524.934 302.358 525.675 302.379L525.803 302.383C526.512 302.403 527.171 302.422 527.819 302.456C529.199 302.528 530.34 302.661 531.329 302.936C533.597 303.569 534.877 304.809 535.218 306.232C535.869 308.95 535.635 311.81 534.937 315.004C534.508 316.963 535.749 318.9 537.709 319.328C539.669 319.757 541.605 318.516 542.034 316.556C542.839 312.878 543.299 308.783 542.282 304.54C541.109 299.641 537.04 296.987 533.279 295.938C531.531 295.451 529.771 295.283 528.197 295.201C527.459 295.162 526.72 295.141 526.03 295.122L525.882 295.118C525.134 295.096 524.44 295.075 523.764 295.035C521.01 294.873 519.255 294.421 517.931 293.205C516.77 292.139 516.141 290.682 515.845 288.631C515.603 286.962 515.615 285.27 515.629 283.353C515.634 282.749 515.638 282.123 515.635 281.469L515.635 281.346C515.622 278.684 515.604 274.785 514.122 271.41C512.544 267.815 509.672 265.793 506.756 264.658C505.224 264.062 503.616 263.685 502.075 263.433C502.189 262.937 502.284 262.429 502.358 261.909C504.778 244.969 505.183 244.152 509.446 235.541C510.302 233.812 511.314 231.769 512.529 229.218C517.921 217.894 518.911 205.769 513.417 197.003L519.793 194.347L509.067 191.952C507.93 190.973 506.664 190.072 505.264 189.261C494.221 182.868 484.68 190.472 481.29 195.073Z" fill="#11269C"/>
</mask>
<g mask="url(#mask5)">
<path d="M481.29 195.073C469.085 193.911 467.971 204.275 468.94 209.603C462.886 219.773 452.231 244.474 458.043 261.909C458.512 263.318 459.094 264.629 459.772 265.844C456.246 269.02 452.86 272.554 449.955 276.631C444.962 283.637 441.13 291.664 438.918 300.026C437.468 305.512 436.593 311.191 436.472 316.959C436.47 317.061 436.467 317.17 436.464 317.285C436.429 318.632 436.37 320.885 437.108 323.235C438.068 326.298 441.33 328.002 444.393 327.041C447.455 326.08 449.159 322.818 448.198 319.756C448.078 319.371 448.056 318.977 448.093 317.204C448.193 312.448 448.916 307.686 450.156 302.998C451.997 296.037 455.212 289.282 459.421 283.377C461.808 280.027 464.692 277.024 467.926 274.146C469.739 275.219 471.686 276.046 473.698 276.633C473.545 281.508 473.9 287.837 475.974 294.305C478.516 306.232 494.926 320.548 507.985 326.241C510.927 327.523 514.352 326.178 515.635 323.235C516.917 320.293 515.572 316.868 512.629 315.585C503.022 311.397 493.14 304.54 487.042 290.756C485.539 286.067 485.214 281.328 485.305 277.422C490.621 276.628 495.501 274.232 498.704 270.325C500.715 270.52 502.572 270.826 504.121 271.429C505.811 272.086 506.883 272.993 507.47 274.33C508.267 276.145 508.356 278.551 508.371 281.503C508.373 281.951 508.368 282.438 508.364 282.955C508.347 284.957 508.326 287.4 508.655 289.671C509.089 292.672 510.185 295.955 513.018 298.557C516.267 301.54 520.19 302.102 523.338 302.287C524.138 302.334 524.934 302.358 525.675 302.379L525.803 302.383C526.512 302.403 527.171 302.422 527.819 302.456C529.199 302.528 530.34 302.661 531.329 302.936C533.597 303.569 534.877 304.809 535.218 306.232C535.869 308.95 535.635 311.81 534.937 315.004C534.508 316.963 535.749 318.9 537.709 319.328C539.669 319.757 541.605 318.516 542.034 316.556C542.839 312.878 543.299 308.783 542.282 304.54C541.109 299.641 537.04 296.987 533.279 295.938C531.531 295.451 529.771 295.283 528.197 295.201C527.459 295.162 526.72 295.141 526.03 295.122L525.882 295.118C525.134 295.096 524.44 295.075 523.764 295.035C521.01 294.873 519.255 294.421 517.931 293.205C516.77 292.139 516.141 290.682 515.845 288.631C515.603 286.962 515.615 285.27 515.629 283.353C515.634 282.749 515.638 282.123 515.635 281.469L515.635 281.346C515.622 278.684 515.604 274.785 514.122 271.41C512.544 267.815 509.672 265.793 506.756 264.658C505.224 264.062 503.616 263.685 502.075 263.433C502.189 262.937 502.284 262.429 502.358 261.909C504.778 244.969 505.183 244.152 509.446 235.541C510.302 233.812 511.314 231.769 512.529 229.218C517.921 217.894 518.911 205.769 513.417 197.003L519.793 194.347L509.067 191.952C507.93 190.973 506.664 190.072 505.264 189.261C494.221 182.868 484.68 190.472 481.29 195.073Z" fill="#11269C" stroke="#11269C" stroke-width="2"/>
<path d="M464.581 222.679L461.675 216.867C450.536 224.131 432.761 242.293 450.778 256.823C473.299 274.985 476.931 251.011 474.025 241.567C471.7 234.012 474.994 226.795 476.931 224.131L469.666 226.311V218.32L464.581 222.679Z" fill="white"/>
<path d="M428.984 297.506L453.684 303.318L459.496 336.736L428.984 333.104V297.506Z" fill="white"/>
<path d="M500.031 323.476C499.348 315.884 500.522 312.909 507.852 311.913L531.229 323.476L527.175 343.48L500.031 323.476Z" fill="white"/>
<path d="M481.29 195.073C469.085 193.911 467.971 204.275 468.94 209.603C462.886 219.773 452.231 244.474 458.043 261.909C458.512 263.318 459.094 264.629 459.772 265.844C456.246 269.02 452.86 272.554 449.955 276.631C444.962 283.637 441.13 291.664 438.918 300.026C437.468 305.512 436.593 311.191 436.472 316.959C436.47 317.061 436.467 317.17 436.464 317.285C436.429 318.632 436.37 320.885 437.108 323.235C438.068 326.298 441.33 328.002 444.393 327.041C447.455 326.08 449.159 322.818 448.198 319.756C448.078 319.371 448.056 318.977 448.093 317.204C448.193 312.448 448.916 307.686 450.156 302.998C451.997 296.037 455.212 289.282 459.421 283.377C461.808 280.027 464.692 277.024 467.926 274.146C469.739 275.219 471.686 276.046 473.698 276.633C473.545 281.508 474.82 287.611 475.974 294.305C478.176 307.085 495.136 320.548 508.195 326.241C511.137 327.523 514.562 326.178 515.845 323.235C517.127 320.293 515.782 316.868 512.839 315.585C503.232 311.397 490.968 302.998 487.042 290.756C485.539 286.067 485.214 281.328 485.305 277.422C490.621 276.628 495.501 274.232 498.704 270.325C500.715 270.52 502.572 270.826 504.121 271.429C505.811 272.086 506.883 272.992 507.47 274.33C508.267 276.145 508.356 278.551 508.371 281.503C508.373 281.951 508.368 282.438 508.364 282.955C508.347 284.957 508.326 287.4 508.655 289.671C509.089 292.672 510.185 295.955 513.018 298.557C516.267 301.54 520.19 302.102 523.338 302.287C524.138 302.334 524.934 302.358 525.675 302.379L525.803 302.383C526.512 302.403 527.171 302.422 527.819 302.456C529.199 302.528 530.34 302.661 531.329 302.936C533.597 303.569 534.877 304.809 535.218 306.232C535.869 308.95 535.635 311.81 534.937 315.004C534.508 316.963 535.749 318.9 537.709 319.328C539.669 319.757 541.605 318.516 542.034 316.556C542.839 312.878 543.299 308.783 542.282 304.54C541.109 299.641 537.04 296.987 533.279 295.938C531.531 295.451 529.771 295.283 528.197 295.201C527.459 295.162 526.72 295.141 526.03 295.122L525.882 295.117C525.134 295.096 524.44 295.075 523.764 295.035C521.01 294.873 519.255 294.421 517.931 293.205C516.77 292.139 516.141 290.682 515.845 288.631C515.603 286.962 515.615 285.27 515.629 283.353C515.634 282.749 515.638 282.123 515.635 281.469L515.635 281.346C515.622 278.684 515.604 274.785 514.122 271.41C512.544 267.815 509.672 265.793 506.756 264.658C505.224 264.062 503.616 263.685 502.075 263.433C502.189 262.937 502.284 262.429 502.358 261.909C504.778 244.969 505.183 244.152 509.446 235.541C510.302 233.812 511.314 231.769 512.529 229.218C517.921 217.894 518.911 205.769 513.417 197.003L519.793 194.347L509.067 191.952C507.93 190.973 506.664 190.072 505.264 189.261C494.221 182.868 484.68 190.472 481.29 195.073Z" stroke="#11269C" stroke-width="2"/>
<path d="M469.799 210.114L469.991 209.792L469.924 209.424C469.462 206.885 469.519 203.219 471.054 200.38C471.81 198.983 472.921 197.789 474.518 197.001C476.121 196.209 478.285 195.791 481.195 196.069L481.759 196.122L482.095 195.666C483.702 193.485 486.795 190.568 490.779 188.973C494.72 187.395 499.54 187.103 504.763 190.127C506.111 190.908 507.326 191.772 508.414 192.71L508.604 192.874L508.849 192.928L516.499 194.636L513.033 196.08L511.943 196.534L512.57 197.534C517.808 205.893 516.942 217.623 511.626 228.788C510.415 231.331 509.406 233.369 508.55 235.097L508.524 235.149C506.414 239.411 505.209 241.845 504.247 245.336C503.29 248.808 502.575 253.316 501.368 261.768C500.009 271.284 491.326 276.534 481.816 276.71C472.332 276.886 462.452 271.976 458.991 261.593C456.179 253.157 457.33 242.857 460.005 233.301C462.672 223.77 466.812 215.133 469.799 210.114Z" stroke="#11269C" stroke-width="2"/>
</g>
<path d="M480.335 145.677C480.406 145.476 480.466 145.305 480.517 145.164L488.101 147.894C488.064 148.016 488.021 148.16 487.971 148.326C487.801 148.898 487.56 149.726 487.277 150.752C486.711 152.804 485.976 155.65 485.299 158.825C483.951 165.149 482.814 172.871 483.767 178.211C484.676 183.297 486.975 188.081 489.601 193.548C489.907 194.185 490.218 194.831 490.531 195.488C493.399 201.502 496.456 208.374 496.677 216.096C496.75 218.636 494.75 220.755 492.209 220.827C489.669 220.9 487.551 218.9 487.478 216.36C487.318 210.783 485.105 205.491 482.224 199.448C481.922 198.814 481.61 198.169 481.294 197.513L481.293 197.512C478.735 192.211 475.852 186.234 474.708 179.829C473.566 173.433 475.04 164.676 476.83 157.459C477.722 153.863 478.686 150.671 479.428 148.378C479.799 147.231 480.114 146.31 480.335 145.677Z" fill="#11269C" stroke="white" stroke-linecap="round" stroke-linejoin="round"/>
<path d="M494.5 209.141L483.958 211.521L487.358 224.784L498.581 223.084V212.201H494.5V209.141Z" fill="#11269C"/>
<path d="M500.631 138.148C497.725 143.96 489.734 149.309 486.102 148.319C478.111 146.139 479.563 142.507 481.016 138.875L481.016 138.875C481.87 136.742 486.102 133.789 486.102 129.43C486.102 125.071 487.555 122.892 489.734 123.619C491.914 124.345 489.976 131.61 489.008 135.242L489.008 135.242C489.976 133.789 492.059 130.157 492.64 127.251C493.367 123.619 495.725 122.434 496.999 124.345C498.452 126.524 495.788 132.821 494.093 136.695C494.82 135.242 496.708 131.9 498.452 130.157C500.631 127.977 502.811 128.586 502.811 130.883C502.811 133.063 498.694 137.422 496.272 139.601L500.631 138.148Z" fill="white" stroke="#11269C"/>
<path d="M507.826 319.759C508.408 316.271 512.427 316.368 514.365 316.853C521.63 319.759 523.809 338.647 519.45 343.006C517.271 345.185 502.015 347.365 499.835 339.373C497.656 331.382 511.459 332.835 510.732 330.656C510.006 328.476 507.1 324.117 507.826 319.759Z" fill="white" stroke="#11269C"/>
<path d="M510.287 331.765C510.721 332.542 512.03 335.659 510.467 336.112C509.067 336.517 507.944 334.739 507.393 333.778C506.008 331.765 507.65 331.867 507.132 335.21C507.001 336.058 506.409 337.379 505.369 336.693C504.532 336.14 504.053 335.156 503.76 334.107" stroke="#11269C" stroke-linecap="round" stroke-linejoin="round"/>
<path d="M444.966 313.489C450.778 317.558 450.778 324.871 450.051 328.019L420.266 328.745C410.095 308.404 437.701 308.404 444.966 313.489Z" fill="white" stroke="#11269C"/>
<path d="M450.051 322.933H418.813" stroke="#11269C"/>
<path d="M425.596 312.553C425.772 313.375 425.981 314.189 426.254 314.988C426.512 315.741 426.934 316.399 427.667 316.765C429.118 317.491 429.695 315.337 429.892 314.317C430.497 311.178 429.666 309.856 430.374 311.762C430.942 313.289 431.984 314.894 433.27 315.918C434.457 316.863 434.806 315.419 434.954 314.411C435.124 313.25 435.09 312.07 434.925 310.902" stroke="#11269C" stroke-linecap="round" stroke-linejoin="round"/>
<path d="M489.27 148.448C489.089 148.926 488.479 149.334 487.368 149.449C486.291 149.56 484.895 149.37 483.451 148.825C482.006 148.28 480.832 147.502 480.096 146.707C479.338 145.887 479.149 145.178 479.329 144.7C479.51 144.221 480.12 143.813 481.231 143.699C482.308 143.587 483.704 143.778 485.148 144.323C486.593 144.867 487.767 145.646 488.503 146.441C489.261 147.26 489.45 147.97 489.27 148.448Z" fill="white" stroke="#11269C"/>
<path d="M513.436 317.194C512.453 317.935 511.993 318.992 511.606 320.142C511.031 321.853 510.967 323.822 511.285 325.592C511.673 327.755 512.431 329.83 513.364 331.814C513.984 333.132 514.829 334.48 515.126 335.924C515.32 336.868 515.319 337.906 514.852 338.768C514.169 340.03 512.9 340.715 511.715 341.431C510.994 341.866 509.524 342.712 509.881 343.804C509.992 344.143 510.257 344.34 510.566 344.458" stroke="#11269C" stroke-linecap="round" stroke-linejoin="round"/>
<path d="M289.531 67.2533L233.175 69.4521C235.641 64.575 243.191 59.5438 246.659 57.6378L248.285 48.2781L255.174 54.6495C267.78 50.9703 279.094 55.0442 283.176 57.541L289.039 54.6562L286.672 62.0527L289.531 67.2533Z" fill="#11269C"/>
<path d="M226.892 58.7212C216.611 61.5252 214.43 66.51 214.625 68.6519H223.387C226.892 72.741 224.555 74.4935 226.892 76.246C229.228 77.9985 231.565 76.246 231.565 74.4935C234.369 78.2321 236.628 75.2724 237.407 73.3252C237.796 74.4935 239.276 76.0123 242.08 72.741C245.585 68.6519 239.743 55.2163 226.892 58.7212Z" fill="white" stroke="#11269C"/>
<path d="M231.606 74.5098C231.267 71.6875 230.399 69.0517 229.465 66.374" stroke="#11269C" stroke-linecap="round" stroke-linejoin="round"/>
<path d="M237.505 73.4633C237.524 72.1498 237.579 70.862 237.368 69.5566C237.066 67.6935 236.41 66.0202 235.507 64.376" stroke="#11269C" stroke-linecap="round" stroke-linejoin="round"/>
<path d="M399.103 131.526C400.014 139.269 393.409 146.139 389.993 148.606V138.927H388.285C387.336 140.825 384.983 143.937 383.161 141.205C381.339 138.472 383.92 135.131 385.438 133.803C383.617 127.426 387.716 125.452 389.993 125.263C389.614 122.606 389.082 116.609 389.993 113.876C391.132 110.46 394.548 111.598 394.548 117.292C394.548 122.985 397.964 121.847 399.103 131.526Z" fill="white" stroke="#11269C"/>
<path d="M382.76 137.804C383.447 136.449 384.4 135.287 385.641 134.396C386.969 133.443 388.602 132.846 390.249 132.908C390.858 132.931 391.456 133.044 392.034 133.239C392.642 133.444 393.118 133.774 393.655 134.105" stroke="#11269C" stroke-linecap="round" stroke-linejoin="round"/>
<path d="M386.419 126.91C387.766 125.909 389.292 125.158 391.011 125.525C391.938 125.723 392.794 126.213 393.474 126.867C394.011 127.384 394.335 127.947 394.66 128.598" stroke="#11269C" stroke-linecap="round" stroke-linejoin="round"/>
<path fill-rule="evenodd" clip-rule="evenodd" d="M254.266 249.917C251.286 241.324 247.142 234.418 241.177 229.627L251.823 216.373C261.108 223.831 266.714 233.926 270.328 244.348C273.926 254.725 275.729 265.966 277.055 276.223C277.442 279.221 277.786 282.098 278.116 284.854C278.955 291.875 279.701 298.118 280.839 303.611C282.498 311.621 284.482 314.998 286.069 316.176C291.786 320.424 297.087 321.551 301.709 321.144C306.494 320.722 311.169 318.587 315.196 315.342C319.25 312.074 322.235 308.004 323.76 304.395C325.329 300.681 324.78 299.059 324.73 298.91C324.726 298.899 324.725 298.896 324.727 298.899L339.273 290.1C343.389 296.904 341.969 304.977 339.419 311.012C336.717 317.407 331.925 323.692 325.864 328.577C319.775 333.485 311.998 337.302 303.202 338.078C294.243 338.868 284.837 336.439 275.931 329.823C268.768 324.502 265.877 315.191 264.192 307.06C262.896 300.801 262.018 293.453 261.145 286.147C260.834 283.543 260.524 280.944 260.195 278.402C258.896 268.346 257.261 258.556 254.266 249.917Z" fill="#11269C"/>
<path d="M261.167 219.773C260.005 218.611 258.745 218.805 258.261 219.047C260.44 216.141 264.799 212.509 261.893 205.97C258.987 199.432 261.893 199.432 263.346 192.894C264.799 186.355 257.535 187.082 253.902 192.894C250.996 197.543 252.207 203.549 253.176 207.423C250.996 200.158 230.57 189.205 226.296 186.355C221.937 183.449 216.852 179.817 214.672 184.902C212.929 188.971 226.538 198.221 233.561 202.338C226.005 200.594 225.085 207.423 225.569 211.056C223.148 210.813 218.886 212.073 221.211 219.047C223.535 226.021 237.193 229.46 242.278 231.397C241.552 232.124 240.39 234.158 241.552 236.482C243.005 239.388 245.911 238.662 247.364 237.209C248.817 235.756 258.987 226.312 261.167 224.859C263.346 223.406 262.62 221.226 261.167 219.773Z" fill="white" stroke="#11269C" stroke-width="2" stroke-linejoin="round"/>
<path fill-rule="evenodd" clip-rule="evenodd" d="M333.513 88.8739C331.343 84.4833 324.112 85.9468 321.219 88.1421C317.66 90.843 314.154 93.6168 310.382 96.0143C309.088 95.18 307.454 94.9377 305.947 94.9377C303.542 94.9377 301.246 96.1896 299.923 98.2473C299.467 98.4269 299.052 98.7267 298.725 99.0107C298.183 99.4806 297.709 100.059 297.444 100.514C296.967 101.332 296.631 102.191 296.346 103.026C296.213 103.417 296.098 103.78 295.986 104.132C295.845 104.575 295.709 105.004 295.546 105.459C294.658 107.942 293.486 108.79 290.846 107.9C289.497 107.445 289.826 102.462 290.093 98.4061C290.256 95.9405 290.396 93.8179 290.123 93.2645C289.72 92.4497 286.184 93.4356 285.481 93.9555C282.499 96.1606 282.729 102.807 281.773 106.067C281.404 107.328 280.876 108.266 279.985 108.717C279.511 108.957 279.027 108.832 278.453 108.3C277.876 107.766 277.385 106.959 277.071 106.324C276.507 105.183 276.324 103.912 276.312 102.546C277.226 99.1588 277.409 95.5136 277.676 92.0281C279.403 91.9717 281.117 91.6871 282.491 90.992C284.574 89.9384 287.194 89.2307 289.455 89.0547C290.586 88.9667 291.592 89.0145 292.378 89.1982C292.998 89.3429 293.846 90.0208 294.462 89.6057C294.794 89.3815 294.887 88.9186 294.584 88.6548C294.077 88.2127 293.409 87.9368 292.704 87.7721C291.727 87.5442 290.564 87.5005 289.344 87.5954C286.905 87.7853 284.101 88.5412 281.845 89.6829C280.753 90.2354 279.323 90.4959 277.784 90.5595C277.873 89.2737 277.933 88.2269 277.963 87.6356C277.972 87.4472 277.979 87.3022 277.982 87.2096C277.984 87.167 277.985 87.1237 277.985 87.092C277.985 87.0842 277.985 87.0677 277.984 87.0485C277.983 87.04 277.982 87.0193 277.979 86.9934C277.978 86.9798 277.972 86.9461 277.968 86.9258C277.96 86.8922 277.927 86.7949 277.898 86.7331C277.803 86.5951 277.372 86.3565 277.041 86.3825C276.852 86.476 276.649 86.6889 276.609 86.7624C276.593 86.7991 276.571 86.8585 276.565 86.8808C276.561 86.8953 276.555 86.92 276.553 86.9304C276.546 86.9636 276.542 86.9926 276.541 86.9994C276.394 88.2178 276.245 89.3491 275.94 90.5494C273.999 90.4567 272.102 90.1287 270.765 89.8106C270.376 89.7181 269.979 89.9475 269.874 90.3374C269.769 90.7273 269.996 91.1302 270.385 91.2235C271.75 91.5512 273.654 91.8862 275.637 91.999C275.05 95.394 274.875 98.9027 274.865 102.346C274.51 103.598 274.085 104.61 273.495 105.47C272.862 106.393 272.016 107.176 270.796 107.889C269.873 108.429 269.041 108.472 268.222 108.238C268.885 107.081 269.301 105.765 269.574 104.345C269.732 103.522 270.074 101.697 269.983 100.06C269.938 99.248 269.783 98.3894 269.372 97.7134C268.93 96.9858 268.212 96.51 267.212 96.51C263.22 96.51 261.163 100.413 261.919 104.241C262.426 106.804 264.081 107.572 266.017 108.801C263.552 111.435 259.994 110.865 257.118 109.092C255.128 107.864 253.187 106.44 250.938 105.735C251.834 105.082 252.715 104.298 253.447 103.414C254.674 101.934 255.557 100.08 255.249 98.054C255.05 96.7466 254.24 95.7003 252.921 95.4492C251.816 95.2389 250.51 95.5462 249.3 96.0018C248.228 96.4054 247.139 96.9621 246.181 97.5217C244.87 92.8446 239.909 94.1926 238.778 98.3869C232.993 101.558 220.699 108.193 217.807 109.364C214.914 110.534 211.298 109.851 209.852 109.364C219.267 120.479 230.279 109.814 238.778 102.778C240.707 104.729 243.84 110.534 240.948 118.145C238.055 125.755 234.439 128.634 232.993 129.121C240.383 136.6 249.626 125.471 249.626 118.145C249.626 114.879 249.105 110.959 248.426 107.283C249.984 106.301 252.562 108.95 253.242 110.095C256.183 115.056 260.494 113.701 264.649 111.598C265.772 111.03 266.656 110.317 267.353 109.487C268.654 109.987 270.078 110 271.52 109.156C272.897 108.351 273.912 107.428 274.683 106.305C274.873 106.027 275.048 105.739 275.208 105.44C275.344 105.962 275.529 106.476 275.777 106.978C276.122 107.677 276.708 108.668 277.476 109.38C278.247 110.094 279.376 110.661 280.632 110.026C282.074 109.296 282.758 107.856 283.16 106.484C283.933 103.848 283.355 96.0087 286.664 94.9487C287.541 96.31 286.923 98.9902 286.828 100.591C286.781 101.371 286.73 102.152 286.705 102.934C286.655 104.51 286.704 106.168 287.17 107.581C287.62 108.947 288.543 110.09 289.717 110.685C290.914 111.292 292.344 111.309 293.672 110.449C295.488 109.273 296.314 107.612 296.906 105.957C297.067 105.506 297.226 105.009 297.381 104.525C297.494 104.169 297.606 103.821 297.714 103.504C298.005 102.649 298.324 101.741 298.857 101.004C298.559 102.52 298.8 104.095 299.295 105.543C300.256 108.353 304.006 109.756 306.752 109.292C311.714 108.452 314.345 101.145 311.478 97.0466C315.295 94.6191 320.417 93.9031 324.835 93.2645C328.884 92.6791 333.754 96.9234 335.682 99.1187C335.682 95.4015 335.222 92.3329 333.513 88.8739ZM248.106 105.623C249.856 104.873 251.078 103.996 252.339 102.474C253.428 101.159 254.039 99.7192 253.819 98.2765C253.713 97.5774 253.37 97.0241 252.653 96.8875C251.95 96.7536 250.953 96.9407 249.804 97.3735C248.69 97.7929 247.545 98.399 246.576 98.9836C247.054 100.808 247.605 103.123 248.106 105.623ZM301.494 99.5513C301.416 103.015 301.854 106.935 305.861 107.907C310.448 109.02 312.286 100.528 310.248 97.8251C308.529 98.906 306.745 100.274 304.669 100.43C303.609 100.509 302.204 100.492 301.494 99.5513ZM268.154 104.065C267.893 105.427 267.504 106.619 266.897 107.631C266.601 107.449 266.301 107.239 265.997 107.005C265.477 106.603 265.019 105.853 264.719 104.862C264.422 103.885 264.302 102.752 264.392 101.682C264.483 100.605 264.78 99.6539 265.257 98.9917C265.716 98.356 266.344 97.9736 267.212 97.9736C268.307 97.9736 268.491 99.2802 268.539 100.142C268.618 101.573 268.315 103.229 268.154 104.065ZM308.953 96.9147C307.602 97.7568 306.189 98.8484 304.562 98.9704C304.014 99.0115 303.191 99.0894 302.715 98.7325C301.884 98.1098 303.664 96.8287 304.094 96.6807C305.594 96.1642 307.506 96.3245 308.953 96.9147Z" fill="#11269C" stroke="#11269C"/>
<path d="M246.259 228.482C249.239 225.934 250.783 224.658 253.722 222.064" stroke="#11269C" stroke-linecap="round" stroke-linejoin="round"/>
</g>
</svg>
