<svg width="608" height="257" viewBox="0 0 608 257" fill="none" xmlns="http://www.w3.org/2000/svg">
<path d="M0 0H608V257H0V0Z" fill="white"/>
<path fill-rule="evenodd" clip-rule="evenodd" d="M411.515 133.3C404.787 131.848 397.052 132.247 390.203 133.072C388.009 133.336 386.017 131.772 385.753 129.579C385.489 127.386 387.053 125.394 389.246 125.129C396.332 124.276 405.141 123.741 413.202 125.48C421.358 127.24 429.193 131.45 433.353 140.363C434.287 142.365 433.421 144.745 431.419 145.679C429.417 146.613 427.037 145.748 426.103 143.746C423.346 137.838 418.148 134.732 411.515 133.3Z" fill="white" stroke="#11269C" stroke-width="2" stroke-linecap="round" stroke-linejoin="round"/>
<path d="M444.366 180.167C444.544 176.431 445.483 172.751 448.189 172.751C453.219 172.751 459.164 175.251 458.249 179.251C457.731 181.519 456.416 184.088 455.314 185.926C457.505 188.352 460.443 190.836 468.218 191.751C485.218 193.751 479.718 213.251 468.218 212.751C456.718 212.251 436.218 204.751 434.718 198.251C433.218 191.751 436.27 177.774 439.74 180.838C436.988 188.53 440.646 188.518 444.366 180.167Z" fill="#FF94B8" stroke="#11269C"/>
<path fill-rule="evenodd" clip-rule="evenodd" d="M459.36 189.373C459.36 189.373 455.644 192.92 453.891 195.504C453.581 195.961 452.96 196.081 452.502 195.771C452.045 195.461 451.926 194.839 452.236 194.382C454.112 191.614 457.6 188.173 457.6 188.173L459.36 189.373Z" fill="#11269C"/>
<path fill-rule="evenodd" clip-rule="evenodd" d="M456.263 187.18C456.263 187.18 451.625 188.411 448.919 189.968C448.44 190.244 447.829 190.079 447.553 189.601C447.278 189.122 447.442 188.51 447.921 188.235C450.819 186.567 455.461 184.998 455.461 184.998L455.354 186.173L456.263 187.18Z" fill="#11269C"/>
<path fill-rule="evenodd" clip-rule="evenodd" d="M464.883 191.214C464.883 191.214 461.046 194.686 459.294 197.271C458.984 197.728 458.362 197.847 457.905 197.537C457.448 197.227 457.329 196.606 457.638 196.149C459.515 193.381 462.362 190.613 462.362 190.613L464.883 191.214Z" fill="#11269C"/>
<path fill-rule="evenodd" clip-rule="evenodd" d="M471.441 192.573C471.441 192.573 467.289 196.248 465.537 198.832C465.227 199.29 464.605 199.409 464.148 199.099C463.691 198.789 463.572 198.167 463.881 197.71C465.758 194.942 468.925 191.894 468.925 191.894L471.441 192.573Z" fill="#11269C"/>
<path d="M457.303 182.215C457.303 179.792 450.589 175.152 449.124 180.919C448.819 182.12 447.719 182.197 447.433 182.503C447.241 182.708 444.551 192.712 445.712 194.193C446.783 195.559 474.902 204.641 473.688 207.532C472.929 209.338 444.808 198.23 443.423 195.608C441.196 191.392 444.369 185.029 445.177 182.884C443.442 182.272 443.838 176.811 444.875 174.519C446.934 169.966 455.831 172.605 458.266 175.04C460.7 177.475 459.292 182.051 457.303 182.215Z" fill="white" stroke="#11269C"/>
<path d="M480.343 201.751C480.343 213.251 471.343 214.251 461.343 212.251C434.543 206.25 432.177 197.417 434.343 193.751C439.543 203.351 461.843 208.084 472.343 209.251C470.343 200.251 480.343 190.251 480.343 201.751Z" fill="white" stroke="#11269C"/>
<path d="M425.002 169.77L427.545 147.206L441.205 151.8L434.666 171.92L425.002 169.77Z" fill="#11269C" stroke="white" stroke-width="2"/>
<path fill-rule="evenodd" clip-rule="evenodd" d="M444.982 172.269L445.452 174.013C446.779 178.935 448.979 187.48 448.311 194.912C447.974 198.667 446.879 202.503 444.224 205.435C441.494 208.453 437.492 210.102 432.227 210.154C426.805 210.208 422.49 208.288 419.273 205.082C416.129 201.947 414.185 197.743 413.066 193.382C410.842 184.72 411.636 174.519 413.876 167.951L414.748 165.395L444.982 172.269ZM418.819 172.474C416.36 182.891 416.392 197.775 431.451 197.625C445.555 197.485 442.387 186.064 440.12 177.316L418.819 172.474Z" fill="#11269C" stroke="white" stroke-width="2"/>
<path fill-rule="evenodd" clip-rule="evenodd" d="M409.182 84.3118C411.384 83.1594 414.103 84.0102 415.256 86.2121C420.105 95.4782 427.698 103.234 435.743 111.037C436.066 111.351 436.388 111.664 436.707 111.974C442.326 117.436 447.279 122.252 453.499 124.695C455.812 125.604 456.951 128.216 456.042 130.529C455.133 132.842 452.521 133.981 450.208 133.072C442.226 129.936 436.025 123.885 430.724 118.713C430.303 118.302 429.887 117.896 429.476 117.497C421.484 109.744 412.882 101.087 407.282 90.3854C406.129 88.1835 406.98 85.4642 409.182 84.3118Z" fill="white"/>
<path fill-rule="evenodd" clip-rule="evenodd" d="M409.182 84.3118C411.384 83.1594 414.103 84.0102 415.256 86.2121C420.105 95.4782 427.698 103.234 435.743 111.037C436.066 111.351 436.388 111.664 436.707 111.974C442.326 117.436 447.279 122.252 453.499 124.695C455.812 125.604 456.951 128.216 456.042 130.529C455.133 132.842 452.521 133.981 450.208 133.072C442.226 129.936 436.025 123.885 430.724 118.713C430.303 118.302 429.887 117.896 429.476 117.497C421.484 109.744 412.882 101.087 407.282 90.3854C406.129 88.1835 406.98 85.4642 409.182 84.3118Z" fill="#11269C" fill-opacity="0.6"/>
<path fill-rule="evenodd" clip-rule="evenodd" d="M409.182 84.3118C411.384 83.1594 414.103 84.0102 415.256 86.2121C420.105 95.4782 427.698 103.234 435.743 111.037C436.066 111.351 436.388 111.664 436.707 111.974C442.326 117.436 447.279 122.252 453.499 124.695C455.812 125.604 456.951 128.216 456.042 130.529C455.133 132.842 452.521 133.981 450.208 133.072C442.226 129.936 436.025 123.885 430.724 118.713C430.303 118.302 429.887 117.896 429.476 117.497C421.484 109.744 412.882 101.087 407.282 90.3854C406.129 88.1835 406.98 85.4642 409.182 84.3118Z" stroke="#11269C" stroke-width="2" stroke-linecap="round" stroke-linejoin="round"/>
<path d="M563.047 129.063L580.683 150.948L606.548 47.8281L504.225 57.13L520.934 76.8024C499.75 96.3674 466.958 119.545 430.876 132.128C391.161 145.979 351.525 145.952 316.586 119.874C249.529 69.8236 178.793 63.8195 120.746 91.0153C64.222 117.497 13.1498 185.261 1.45239 249.156H78.8666C87.1401 203.964 114.545 167.909 149.171 151.686C182.273 136.178 226.869 136.516 276.51 173.567C334.929 217.17 399.865 213.901 452.939 195.392C497.511 179.847 536.536 152.839 563.047 129.063Z" fill="#FF94B8" stroke="#11269C" stroke-width="2"/>
<path d="M394.096 221.491L384.495 200.913L398.546 197.707L403.463 218.284L394.096 221.491Z" fill="#11269C" stroke="white" stroke-width="2"/>
<path fill-rule="evenodd" clip-rule="evenodd" d="M412.446 213.2L413.757 214.443C417.456 217.95 423.791 224.093 427.098 230.782C428.769 234.162 429.835 238.006 429.101 241.892C428.345 245.891 425.791 249.385 421.326 252.176C416.729 255.051 412.046 255.663 407.629 254.606C403.311 253.572 399.459 250.999 396.23 247.862C389.814 241.632 385.17 232.515 383.655 225.742L383.066 223.107L412.446 213.2ZM390.232 227.023C393.568 237.193 401.359 249.875 414.129 241.892C426.089 234.415 417.428 226.324 410.931 220.043L390.232 227.023Z" fill="#11269C" stroke="white" stroke-width="2"/>
<path d="M396.843 163.452C380.667 186.601 365.306 170.155 359.647 159.039C356.901 173.751 375 203.572 375 203.572C412.815 210.473 412.4 182.464 396.843 163.452Z" fill="#11269C" stroke="white" stroke-width="2"/>
<path d="M368.138 185.666C412.514 189.705 430.353 143.343 431.561 120.511C431.561 113.859 424.549 114.031 424.874 122.354C424.761 123.535 424.354 124.825 423.831 126.146C384.709 151.933 348.254 135.285 329.704 119.287C332.745 110.024 325.512 107.499 323.562 113.343C315.589 137.237 323.715 181.622 368.138 185.666Z" fill="#11269C" stroke="white" stroke-width="2"/>
<path d="M424.77 123.118C383.564 153.132 344.435 131.808 330.021 117.395C323.026 136.471 330.155 171.908 369.128 175.137C408.06 178.362 423.71 141.347 424.77 123.118Z" fill="#11269C" stroke="white" stroke-width="2"/>
<path d="M401.309 35.6212L407.406 28L406.217 39.885C427.147 62.6579 418.312 122.022 396.906 135.5C394.779 136.839 392.622 137.929 390.454 138.794C402.2 145.214 410.205 153.044 415.173 160.975C420.546 169.553 424.833 179.502 426.778 189.661C429.933 206.145 427.782 221.27 423.293 236.609C422.595 238.995 420.095 240.362 417.71 239.664C415.325 238.966 413.957 236.467 414.655 234.081C418.905 219.562 420.735 205.962 417.938 191.353C416.238 182.471 412.434 173.557 407.546 165.753C402.17 157.171 391.915 147.925 374.473 141.392C363.755 140.777 354.093 135.665 348.236 129.002C347.588 129.763 346.878 130.503 346.096 131.215C340.312 136.477 332.592 138.122 325.464 137.363C321.481 136.939 315.361 135.43 312.283 130.284C311.255 128.565 310.679 126.804 310.252 125.336C310.115 124.865 309.997 124.441 309.888 124.047C309.622 123.092 309.406 122.316 309.095 121.5C308.077 118.826 306.749 117.807 305.322 117.296C303.59 116.675 301.202 116.624 297.814 117.008C294.121 117.427 289.43 117.525 285.203 115.91C276.086 112.428 269.863 102.322 269.213 93.287C269.054 91.0836 270.712 89.1688 272.915 89.0102C275.119 88.8517 277.033 90.5094 277.192 92.7129C277.658 99.1916 282.321 106.245 288.058 108.437C290.486 109.364 293.64 109.43 296.913 109.059C300.49 108.653 304.451 108.485 308.021 109.765C311.894 111.153 314.818 114.05 316.571 118.653C317.025 119.845 317.386 121.143 317.681 122.205L317.682 122.207C317.772 122.531 317.856 122.832 317.934 123.102C318.312 124.4 318.661 125.362 319.149 126.178C320.162 127.872 322.798 129.034 326.311 129.408C331.746 129.987 337.007 128.669 340.712 125.297C341.544 124.54 342.766 122.877 343.406 122C343.545 121.809 345.463 125.495 345.595 125.297C345.715 125.118 343.551 121.906 343.665 121.721C342.322 118.333 341.981 114.831 342.906 111.5C344.995 103.979 348.131 99.4261 350.857 95.4703C354.654 89.9584 357.652 85.6059 355.906 76C355.831 75.5906 355.76 75.176 355.691 74.7566C347.569 77.491 338.734 77.4527 329.936 73.4466C315.431 66.8423 304.196 52.2499 302.484 36.0836C302.222 33.6121 304.014 31.3964 306.485 31.1348C308.957 30.8731 311.172 32.6645 311.434 35.1359C312.788 47.9256 321.864 59.8824 333.665 65.2557C340.768 68.4898 347.997 68.3279 354.832 65.4766C354.697 57.8577 356.065 49.8091 360.494 43.3647L356.906 33L366.484 37.1643C370.652 34.0825 376.174 31.8726 383.406 30.9998C390.576 30.6225 396.504 32.3526 401.309 35.6212Z" fill="white"/>
<path d="M401.309 35.6212L407.406 28L406.217 39.885C427.147 62.6579 418.312 122.022 396.906 135.5C394.779 136.839 392.622 137.929 390.454 138.794C402.2 145.214 410.205 153.044 415.173 160.975C420.546 169.553 424.833 179.502 426.778 189.661C429.933 206.145 427.782 221.27 423.293 236.609C422.595 238.995 420.095 240.362 417.71 239.664C415.325 238.966 413.957 236.467 414.655 234.081C418.905 219.562 420.735 205.962 417.938 191.353C416.238 182.471 412.434 173.557 407.546 165.753C402.17 157.171 391.915 147.925 374.473 141.392C363.755 140.777 354.093 135.665 348.236 129.002C347.588 129.763 346.878 130.503 346.096 131.215C340.312 136.477 332.592 138.122 325.464 137.363C321.481 136.939 315.361 135.43 312.283 130.284C311.255 128.565 310.679 126.804 310.252 125.336C310.115 124.865 309.997 124.441 309.888 124.047C309.622 123.092 309.406 122.316 309.095 121.5C308.077 118.826 306.749 117.807 305.322 117.296C303.59 116.675 301.202 116.624 297.814 117.008C294.121 117.427 289.43 117.525 285.203 115.91C276.086 112.428 269.863 102.322 269.213 93.287C269.054 91.0836 270.712 89.1688 272.915 89.0102C275.119 88.8517 277.033 90.5094 277.192 92.7129C277.658 99.1916 282.321 106.245 288.058 108.437C290.486 109.364 293.64 109.43 296.913 109.059C300.49 108.653 304.451 108.485 308.021 109.765C311.894 111.153 314.818 114.05 316.571 118.653C317.025 119.845 317.386 121.143 317.681 122.205L317.682 122.207C317.772 122.531 317.856 122.832 317.934 123.102C318.312 124.4 318.661 125.362 319.149 126.178C320.162 127.872 322.798 129.034 326.311 129.408C331.746 129.987 337.007 128.669 340.712 125.297C341.544 124.54 342.766 122.877 343.406 122C343.545 121.809 345.463 125.495 345.595 125.297C345.715 125.118 343.551 121.906 343.665 121.721C342.322 118.333 341.981 114.831 342.906 111.5C344.995 103.979 348.131 99.4261 350.857 95.4703C354.654 89.9584 357.652 85.6059 355.906 76C355.831 75.5906 355.76 75.176 355.691 74.7566C347.569 77.491 338.734 77.4527 329.936 73.4466C315.431 66.8423 304.196 52.2499 302.484 36.0836C302.222 33.6121 304.014 31.3964 306.485 31.1348C308.957 30.8731 311.172 32.6645 311.434 35.1359C312.788 47.9256 321.864 59.8824 333.665 65.2557C340.768 68.4898 347.997 68.3279 354.832 65.4766C354.697 57.8577 356.065 49.8091 360.494 43.3647L356.906 33L366.484 37.1643C370.652 34.0825 376.174 31.8726 383.406 30.9998C390.576 30.6225 396.504 32.3526 401.309 35.6212Z" fill="#11269C" fill-opacity="0.6"/>
<path d="M401.309 35.6212L407.406 28L406.217 39.885C427.147 62.6579 418.312 122.022 396.906 135.5C394.779 136.839 392.622 137.929 390.454 138.794C402.2 145.214 410.205 153.044 415.173 160.975C420.546 169.553 424.833 179.502 426.778 189.661C429.933 206.145 427.782 221.27 423.293 236.609C422.595 238.995 420.095 240.362 417.71 239.664C415.325 238.966 413.957 236.467 414.655 234.081C418.905 219.562 420.735 205.962 417.938 191.353C416.238 182.471 412.434 173.557 407.546 165.753C402.17 157.171 391.915 147.925 374.473 141.392C363.755 140.777 354.093 135.665 348.236 129.002C347.588 129.763 346.878 130.503 346.096 131.215C340.312 136.477 332.592 138.122 325.464 137.363C321.481 136.939 315.361 135.43 312.283 130.284C311.255 128.565 310.679 126.804 310.252 125.336C310.115 124.865 309.997 124.441 309.888 124.047C309.622 123.092 309.406 122.316 309.095 121.5C308.077 118.826 306.749 117.807 305.322 117.296C303.59 116.675 301.202 116.624 297.814 117.008C294.121 117.427 289.43 117.525 285.203 115.91C276.086 112.428 269.863 102.322 269.213 93.287C269.054 91.0836 270.712 89.1688 272.915 89.0102C275.119 88.8517 277.033 90.5094 277.192 92.7129C277.658 99.1916 282.321 106.245 288.058 108.437C290.486 109.364 293.64 109.43 296.913 109.059C300.49 108.653 304.451 108.485 308.021 109.765C311.894 111.153 314.818 114.05 316.571 118.653C317.025 119.845 317.386 121.143 317.681 122.205L317.682 122.207C317.772 122.531 317.856 122.832 317.934 123.102C318.312 124.4 318.661 125.362 319.149 126.178C320.162 127.872 322.798 129.034 326.311 129.408C331.746 129.987 337.007 128.669 340.712 125.297C341.544 124.54 342.766 122.877 343.406 122C343.545 121.809 345.463 125.495 345.595 125.297C345.715 125.118 343.551 121.906 343.665 121.721C342.322 118.333 341.981 114.831 342.906 111.5C344.995 103.979 348.131 99.4261 350.857 95.4703C354.654 89.9584 357.652 85.6059 355.906 76C355.831 75.5906 355.76 75.176 355.691 74.7566C347.569 77.491 338.734 77.4527 329.936 73.4466C315.431 66.8423 304.196 52.2499 302.484 36.0836C302.222 33.6121 304.014 31.3964 306.485 31.1348C308.957 30.8731 311.172 32.6645 311.434 35.1359C312.788 47.9256 321.864 59.8824 333.665 65.2557C340.768 68.4898 347.997 68.3279 354.832 65.4766C354.697 57.8577 356.065 49.8091 360.494 43.3647L356.906 33L366.484 37.1643C370.652 34.0825 376.174 31.8726 383.406 30.9998C390.576 30.6225 396.504 32.3526 401.309 35.6212Z" stroke="#11269C" stroke-width="2" stroke-linecap="round" stroke-linejoin="round"/>
<circle cx="387.406" cy="63.0002" r="2.23655" fill="#11269C"/>
<path d="M402.137 66.6699C406.063 72.9217 399.014 79.9076 388.537 80.6086C378.061 81.3097 370.273 76.3189 372.271 69.6706C374.422 62.511 381.084 66.5752 387.569 66.1412C393.057 65.774 398.513 60.899 402.137 66.6699Z" fill="white" stroke="#11269C" stroke-width="2"/>
<path d="M379.688 69.1997C380.138 70.6298 381.103 72.5274 382.57 73.1335C384.032 73.7377 385.491 73.1449 386.422 71.9743C386.987 71.2642 387.461 70.3674 387.49 69.4393C387.495 69.2623 387.338 68.71 387.445 69.1781C387.724 70.4041 388.233 71.8255 389.41 72.4575C390.487 73.0362 391.858 72.6628 392.814 72.0193C393.995 71.2242 394.296 70.1686 394.641 68.869" stroke="#11269C" stroke-width="2" stroke-linecap="round" stroke-linejoin="round"/>
<path d="M422.665 221.594C422.844 217.858 423.782 214.178 426.489 214.178C431.519 214.178 437.464 216.678 436.549 220.678C436.03 222.946 434.716 225.515 433.614 227.353C435.805 229.779 438.742 232.263 446.518 233.178C463.518 235.178 458.018 254.678 446.518 254.178C435.018 253.678 414.518 246.178 413.018 239.678C411.518 233.178 414.57 219.2 418.039 222.264C415.288 229.957 418.945 229.945 422.665 221.594Z" fill="#FF94B8" stroke="#11269C"/>
<path fill-rule="evenodd" clip-rule="evenodd" d="M437.66 230.8C437.66 230.8 433.943 234.346 432.191 236.931C431.881 237.388 431.259 237.507 430.802 237.197C430.345 236.888 430.226 236.266 430.535 235.809C432.412 233.041 435.899 229.6 435.899 229.6L437.66 230.8Z" fill="#11269C"/>
<path fill-rule="evenodd" clip-rule="evenodd" d="M434.562 228.607C434.562 228.607 429.925 229.838 427.218 231.395C426.74 231.671 426.128 231.506 425.853 231.027C425.577 230.549 425.742 229.937 426.221 229.662C429.119 227.994 433.76 226.425 433.76 226.425L433.653 227.6L434.562 228.607Z" fill="#11269C"/>
<path fill-rule="evenodd" clip-rule="evenodd" d="M443.183 232.641C443.183 232.641 439.346 236.113 437.593 238.698C437.284 239.155 436.662 239.274 436.205 238.964C435.747 238.654 435.628 238.032 435.938 237.575C437.815 234.807 440.662 232.04 440.662 232.04L443.183 232.641Z" fill="#11269C"/>
<path fill-rule="evenodd" clip-rule="evenodd" d="M449.741 233.999C449.741 233.999 445.589 237.675 443.836 240.259C443.527 240.716 442.905 240.836 442.448 240.526C441.99 240.216 441.871 239.594 442.181 239.137C444.058 236.369 447.225 233.32 447.225 233.32L449.741 233.999Z" fill="#11269C"/>
<path d="M435.603 223.642C435.603 221.219 428.888 216.579 427.424 222.345C427.119 223.547 426.018 223.624 425.733 223.929C425.54 224.135 422.851 234.139 424.012 235.62C425.083 236.986 453.202 246.067 451.987 248.959C451.229 250.765 423.108 239.657 421.723 237.035C419.495 232.819 422.668 226.456 423.476 224.311C421.742 223.699 422.137 218.238 423.174 215.945C425.233 211.393 434.13 214.032 436.565 216.467C439 218.902 437.592 223.478 435.603 223.642Z" fill="white" stroke="#11269C"/>
<path d="M458.643 243.177C458.643 254.677 449.643 255.677 439.643 253.677C412.843 247.677 410.476 238.844 412.643 235.178C417.843 244.778 440.143 249.511 450.643 250.677C448.643 241.677 458.643 231.677 458.643 243.177Z" fill="white" stroke="#11269C"/>
<path d="M302.612 39.434L311.986 32.3175C313.475 31.1874 313.705 29.0375 312.49 27.6174C311.371 26.31 309.427 26.1014 308.057 27.1419L298.683 34.2583C297.194 35.3885 296.964 37.5384 298.179 38.9585C299.298 40.2659 301.242 40.4744 302.612 39.434Z" fill="white" stroke="#11269C" stroke-width="2"/>
<path d="M309.52 15.4445C311.528 19.0842 310.149 24.6225 309.209 26.9367C308.003 29.2057 304.42 33.8747 299.736 34.3983C293.881 35.0528 289.345 30.159 288.295 26.6819C287.244 23.2049 279.794 23.5883 278.631 23.3906C277.192 23.1462 277.19 19.2732 279.448 18.5816C283.414 17.3663 287.87 18.9131 289.815 20.3431C287.475 18.0212 281 16.2064 279.195 15.24C276.938 14.032 276.827 9.32301 280.148 9.62942C283.265 9.91702 291.216 13.709 294.484 17.0131C294.095 14.473 286.665 9.91196 285.206 8.83944C283.747 7.76693 284.291 4.56089 286.82 4.16589C293.218 3.1666 302.252 14.7594 304.852 18.7746C303.004 15.162 305.22 5.59641 309.287 7.15844C313.138 8.63745 307.011 10.895 309.52 15.4445Z" fill="white" stroke="#11269C" stroke-width="2" stroke-linejoin="round"/>
<path d="M406.401 49.0132C401.11 49.1231 391.014 51.0775 392.962 58.0157C395.397 66.6883 411.724 62.2011 406.401 49.0132Z" fill="#11269C"/>
<path d="M365.877 54.179C370.965 52.4193 381.093 50.7306 380.907 58.0532C380.674 67.2064 363.974 68.6686 365.877 54.179Z" fill="#11269C"/>
<path d="M348.977 51.569C350.812 49.1623 358.752 51.3006 363.007 52.9489L361.167 56.0538C358.598 54.5589 353.209 52.137 351.392 52.9489C350.21 53.4771 352.632 56.9702 350.21 56.9702C349.041 56.9702 347.19 53.9137 348.977 51.569Z" fill="#FF596A" stroke="#11269C"/>
<path fill-rule="evenodd" clip-rule="evenodd" d="M391.108 59.1166C394.386 67.354 408.679 67.9823 409.604 55.3895C409.693 54.1703 409.658 52.8273 409.475 51.3552C410.898 51.5649 411.954 51.3207 412.664 50.8439C414.686 49.4858 413.907 46.2409 410.862 46.2231C404.149 45.7346 391.256 46.871 390.482 54.8855C389.306 54.6243 388.219 54.4793 387.091 54.4905C385.858 54.5029 384.623 54.701 383.207 55.087C380.956 47.4293 368.141 49.903 361.688 52.2443C358.729 53.1053 358.598 56.478 360.828 57.239C361.611 57.5061 362.684 57.4514 364.029 56.8529C364.135 58.3357 364.36 59.6522 364.683 60.8134C368.039 72.8857 381.979 68.1772 383.427 59.1412C384.923 58.6983 386.065 58.5065 387.146 58.4957C388.336 58.4838 389.522 58.69 391.108 59.1166ZM406.294 51.9325L406.076 50.1845C403.572 50.3142 400.889 50.6949 398.585 51.4602C396.645 52.1048 395.271 52.9274 394.473 53.7896C393.8 54.5164 393.61 55.1481 393.677 55.9973C393.783 57.3478 394.441 58.6215 395.793 59.6377C397.176 60.6765 399.062 61.2368 400.914 61.0752C402.763 60.9139 404.261 60.0725 405.181 58.789C406.034 57.6 406.743 55.545 406.294 51.9325ZM367.109 54.7724L367.235 56.5331C367.496 60.1722 368.583 61.9749 369.642 62.8954C370.786 63.889 372.406 64.2925 374.236 63.9373C376.069 63.5814 377.795 62.5138 378.94 61.12C380.059 59.7567 380.453 58.3352 380.296 56.992C380.196 56.1474 379.89 55.5854 379.094 55.0648C378.151 54.4472 376.656 54.0275 374.643 53.938C372.254 53.8318 369.571 54.2047 367.109 54.7724Z" fill="#FF596A"/>
<path d="M411.194 50.2736C411.194 50.2736 411.192 50.2722 411.187 50.2702M362.147 56.277C362.147 56.277 362.149 56.275 362.154 56.2717M406.076 50.1845L406.294 51.9325C406.743 55.545 406.034 57.6 405.181 58.789C404.261 60.0725 402.763 60.9139 400.914 61.0752C399.062 61.2368 397.176 60.6765 395.793 59.6377C394.441 58.6215 393.783 57.3478 393.677 55.9973C393.61 55.1481 393.8 54.5164 394.473 53.7896C395.271 52.9274 396.645 52.1048 398.585 51.4602C400.889 50.6949 403.572 50.3142 406.076 50.1845ZM409.604 55.3895C408.679 67.9823 394.386 67.354 391.108 59.1166C389.522 58.69 388.336 58.4838 387.146 58.4957C386.065 58.5065 384.923 58.6983 383.427 59.1412C381.979 68.1772 368.039 72.8857 364.683 60.8134C364.36 59.6522 364.135 58.3357 364.029 56.8529C362.684 57.4514 361.611 57.5061 360.828 57.239C358.598 56.478 358.729 53.1053 361.688 52.2443C368.141 49.903 380.956 47.4293 383.207 55.087C384.623 54.701 385.858 54.5029 387.091 54.4905C388.219 54.4793 389.306 54.6243 390.482 54.8855C391.256 46.871 404.149 45.7346 410.862 46.2231C413.907 46.2409 414.686 49.4858 412.664 50.8439C411.954 51.3207 410.898 51.5649 409.475 51.3552C409.658 52.8273 409.693 54.1703 409.604 55.3895ZM367.235 56.5331L367.109 54.7724C369.571 54.2047 372.254 53.8318 374.643 53.938C376.656 54.0275 378.151 54.4472 379.094 55.0648C379.89 55.5854 380.196 56.1474 380.296 56.992C380.453 58.3352 380.059 59.7567 378.94 61.12C377.795 62.5138 376.069 63.5814 374.236 63.9373C372.406 64.2925 370.786 63.889 369.642 62.8954C368.583 61.9749 367.496 60.1722 367.235 56.5331Z" stroke="#11269C"/>
<path d="M256.318 8H22V56.4897H256.318V48.2892L304.031 75.2573L256.318 34.584V8Z" stroke="#11269C" stroke-width="2"/>
<path d="M49.5777 25.6272H51.2607V35.3342H56.6157V36.7622H49.5777V25.6272ZM58.717 32.6142C58.717 31.9342 58.836 31.3279 59.074 30.7952C59.312 30.2512 59.6294 29.7922 60.026 29.4182C60.4227 29.0329 60.876 28.7439 61.386 28.5512C61.896 28.3472 62.423 28.2452 62.967 28.2452C63.579 28.2452 64.1174 28.3415 64.582 28.5342C65.058 28.7269 65.4604 28.9989 65.789 29.3502C66.1177 29.6902 66.367 30.1039 66.537 30.5912C66.707 31.0672 66.792 31.5942 66.792 32.1722C66.792 32.3422 66.7807 32.5065 66.758 32.6652C66.7467 32.8125 66.7297 32.9372 66.707 33.0392H60.451C60.5077 33.8552 60.808 34.4955 61.352 34.9602C61.9074 35.4135 62.6044 35.6402 63.443 35.6402C63.8964 35.6402 64.3157 35.5779 64.701 35.4532C65.0977 35.3285 65.483 35.1529 65.857 34.9262L66.452 35.9972C66.0214 36.2692 65.534 36.5015 64.99 36.6942C64.4574 36.8755 63.868 36.9662 63.222 36.9662C62.5987 36.9662 62.0094 36.8699 61.454 36.6772C60.91 36.4732 60.434 36.1842 60.026 35.8102C59.618 35.4362 59.295 34.9829 59.057 34.4502C58.8304 33.9062 58.717 33.2942 58.717 32.6142ZM65.228 31.8832C65.228 31.1352 65.0354 30.5629 64.65 30.1662C64.2647 29.7695 63.715 29.5712 63.001 29.5712C62.3777 29.5712 61.8224 29.7695 61.335 30.1662C60.8477 30.5629 60.5474 31.1352 60.434 31.8832H65.228ZM71.1714 29.8092H68.8934V28.5342L71.2394 28.4492L71.4604 26.1542H72.8544V28.4492H76.7814V29.8092H72.8544V33.4812C72.8544 34.1952 72.996 34.7279 73.2794 35.0792C73.574 35.4305 74.101 35.6062 74.8604 35.6062C75.223 35.6062 75.5574 35.5779 75.8634 35.5212C76.1807 35.4532 76.481 35.3625 76.7644 35.2492L77.1044 36.4902C76.7304 36.6149 76.3167 36.7225 75.8634 36.8132C75.41 36.9152 74.9454 36.9662 74.4694 36.9662C73.8574 36.9662 73.336 36.8812 72.9054 36.7112C72.486 36.5412 72.146 36.3032 71.8854 35.9972C71.636 35.6912 71.4547 35.3285 71.3414 34.9092C71.228 34.4785 71.1714 34.0025 71.1714 33.4812V29.8092ZM81.6197 30.1322C82.1637 29.8375 82.5887 29.4749 82.8947 29.0442C83.2121 28.6135 83.3877 28.1092 83.4217 27.5312C83.2744 27.5879 83.1384 27.6162 83.0137 27.6162C82.6284 27.6162 82.3167 27.4972 82.0787 27.2592C81.8407 27.0212 81.7217 26.7039 81.7217 26.3072C81.7217 25.8879 81.8464 25.5479 82.0957 25.2872C82.3451 25.0265 82.6681 24.8962 83.0647 24.8962C83.5634 24.8962 83.9601 25.0889 84.2547 25.4742C84.5607 25.8595 84.7137 26.4092 84.7137 27.1232C84.7137 27.9959 84.4871 28.7722 84.0337 29.4522C83.5917 30.1322 82.9627 30.6762 82.1467 31.0842L81.6197 30.1322ZM90.1301 34.5862C90.6061 34.9149 91.1048 35.1812 91.6261 35.3852C92.1474 35.5779 92.7538 35.6742 93.4451 35.6742C94.1591 35.6742 94.6804 35.5665 95.0091 35.3512C95.3378 35.1359 95.5021 34.8639 95.5021 34.5352C95.5021 34.2292 95.3038 33.9629 94.9071 33.7362C94.5104 33.5095 93.8531 33.2829 92.9351 33.0562C92.5271 32.9542 92.1304 32.8295 91.7451 32.6822C91.3711 32.5349 91.0424 32.3649 90.7591 32.1722C90.4758 31.9682 90.2491 31.7472 90.0791 31.5092C89.9091 31.2599 89.8241 30.9822 89.8241 30.6762C89.8241 30.3249 89.8978 30.0019 90.0451 29.7072C90.2038 29.4125 90.4361 29.1575 90.7421 28.9422C91.0481 28.7269 91.4221 28.5569 91.8641 28.4322C92.3061 28.3075 92.8161 28.2452 93.3941 28.2452C94.0514 28.2452 94.6748 28.3585 95.2641 28.5852C95.8648 28.8005 96.3748 29.0499 96.7941 29.3332L96.0121 30.3872C95.6381 30.1379 95.2358 29.9339 94.8051 29.7752C94.3744 29.6165 93.9098 29.5372 93.4111 29.5372C92.7084 29.5372 92.2154 29.6392 91.9321 29.8432C91.6601 30.0472 91.5241 30.2965 91.5241 30.5912C91.5241 30.9085 91.7508 31.1692 92.2041 31.3732C92.6574 31.5772 93.2411 31.7699 93.9551 31.9512C94.9978 32.2119 95.7968 32.5292 96.3521 32.9032C96.9188 33.2659 97.2021 33.7759 97.2021 34.4332C97.2021 34.7845 97.1171 35.1132 96.9471 35.4192C96.7771 35.7252 96.5278 35.9972 96.1991 36.2352C95.8818 36.4619 95.4851 36.6375 95.0091 36.7622C94.5444 36.8982 94.0061 36.9662 93.3941 36.9662C92.6008 36.9662 91.8528 36.8415 91.1501 36.5922C90.4474 36.3315 89.8411 36.0255 89.3311 35.6742L90.1301 34.5862ZM111.146 38.0542C111.146 38.4509 111.361 38.7682 111.792 39.0062C112.234 39.2555 112.868 39.3802 113.696 39.3802C114.138 39.3802 114.534 39.3349 114.886 39.2442C115.248 39.1649 115.554 39.0515 115.804 38.9042C116.064 38.7682 116.263 38.6095 116.399 38.4282C116.535 38.2469 116.603 38.0542 116.603 37.8502C116.603 37.4875 116.45 37.2439 116.144 37.1192C115.849 37.0059 115.401 36.9492 114.801 36.9492H113.339C113.078 36.9492 112.846 36.9379 112.642 36.9152C112.438 36.9039 112.245 36.8699 112.064 36.8132C111.724 37.0059 111.486 37.2042 111.35 37.4082C111.214 37.6122 111.146 37.8275 111.146 38.0542ZM109.718 38.2582C109.718 37.9295 109.831 37.6065 110.058 37.2892C110.296 36.9832 110.63 36.7055 111.061 36.4562V36.3882C110.834 36.2635 110.636 36.0935 110.466 35.8782C110.296 35.6515 110.211 35.3625 110.211 35.0112C110.211 34.7392 110.296 34.4672 110.466 34.1952C110.647 33.9119 110.896 33.6625 111.214 33.4472V33.3792C110.919 33.1639 110.67 32.8805 110.466 32.5292C110.262 32.1665 110.16 31.7359 110.16 31.2372C110.16 30.7725 110.25 30.3589 110.432 29.9962C110.613 29.6222 110.857 29.3049 111.163 29.0442C111.469 28.7835 111.82 28.5852 112.217 28.4492C112.625 28.3132 113.055 28.2452 113.509 28.2452C113.973 28.2452 114.393 28.3132 114.767 28.4492H118.184V29.7242H116.11C116.28 29.9055 116.433 30.1322 116.569 30.4042C116.705 30.6649 116.773 30.9595 116.773 31.2882C116.773 31.7415 116.688 32.1439 116.518 32.4952C116.348 32.8465 116.115 33.1469 115.821 33.3962C115.526 33.6342 115.18 33.8155 114.784 33.9402C114.387 34.0649 113.962 34.1272 113.509 34.1272C113.305 34.1272 113.084 34.1045 112.846 34.0592C112.619 34.0139 112.392 33.9459 112.166 33.8552C111.78 34.1045 111.588 34.3935 111.588 34.7222C111.588 35.0282 111.729 35.2492 112.013 35.3852C112.296 35.5212 112.704 35.5892 113.237 35.5892H115.005C116.093 35.5892 116.897 35.7479 117.419 36.0652C117.951 36.3712 118.218 36.8812 118.218 37.5952C118.218 37.9919 118.104 38.3659 117.878 38.7172C117.662 39.0685 117.351 39.3745 116.943 39.6352C116.535 39.9072 116.042 40.1169 115.464 40.2642C114.886 40.4229 114.24 40.5022 113.526 40.5022C112.347 40.5022 111.418 40.3095 110.738 39.9242C110.058 39.5502 109.718 38.9949 109.718 38.2582ZM113.509 33.0392C113.985 33.0392 114.393 32.8805 114.733 32.5632C115.073 32.2459 115.243 31.8039 115.243 31.2372C115.243 30.6932 115.073 30.2569 114.733 29.9282C114.393 29.5995 113.985 29.4352 113.509 29.4352C113.033 29.4352 112.625 29.5995 112.285 29.9282C111.945 30.2569 111.775 30.6932 111.775 31.2372C111.775 31.8039 111.945 32.2459 112.285 32.5632C112.625 32.8805 113.033 33.0392 113.509 33.0392ZM119.877 32.6142C119.877 31.9342 119.996 31.3279 120.234 30.7952C120.472 30.2512 120.79 29.7922 121.186 29.4182C121.583 29.0329 122.036 28.7439 122.546 28.5512C123.056 28.3472 123.583 28.2452 124.127 28.2452C124.739 28.2452 125.278 28.3415 125.742 28.5342C126.218 28.7269 126.621 28.9989 126.949 29.3502C127.278 29.6902 127.527 30.1039 127.697 30.5912C127.867 31.0672 127.952 31.5942 127.952 32.1722C127.952 32.3422 127.941 32.5065 127.918 32.6652C127.907 32.8125 127.89 32.9372 127.867 33.0392H121.611C121.668 33.8552 121.968 34.4955 122.512 34.9602C123.068 35.4135 123.765 35.6402 124.603 35.6402C125.057 35.6402 125.476 35.5779 125.861 35.4532C126.258 35.3285 126.643 35.1529 127.017 34.9262L127.612 35.9972C127.182 36.2692 126.694 36.5015 126.15 36.6942C125.618 36.8755 125.028 36.9662 124.382 36.9662C123.759 36.9662 123.17 36.8699 122.614 36.6772C122.07 36.4732 121.594 36.1842 121.186 35.8102C120.778 35.4362 120.455 34.9829 120.217 34.4502C119.991 33.9062 119.877 33.2942 119.877 32.6142ZM126.388 31.8832C126.388 31.1352 126.196 30.5629 125.81 30.1662C125.425 29.7695 124.875 29.5712 124.161 29.5712C123.538 29.5712 122.983 29.7695 122.495 30.1662C122.008 30.5629 121.708 31.1352 121.594 31.8832H126.388ZM132.332 29.8092H130.054V28.5342L132.4 28.4492L132.621 26.1542H134.015V28.4492H137.942V29.8092H134.015V33.4812C134.015 34.1952 134.156 34.7279 134.44 35.0792C134.734 35.4305 135.261 35.6062 136.021 35.6062C136.383 35.6062 136.718 35.5779 137.024 35.5212C137.341 35.4532 137.641 35.3625 137.925 35.2492L138.265 36.4902C137.891 36.6149 137.477 36.7225 137.024 36.8132C136.57 36.9152 136.106 36.9662 135.63 36.9662C135.018 36.9662 134.496 36.8812 134.066 36.7112C133.646 36.5412 133.306 36.3032 133.046 35.9972C132.796 35.6912 132.615 35.3285 132.502 34.9092C132.388 34.4785 132.332 34.0025 132.332 33.4812V29.8092ZM151.29 34.5862C151.766 34.9149 152.265 35.1812 152.786 35.3852C153.308 35.5779 153.914 35.6742 154.605 35.6742C155.319 35.6742 155.841 35.5665 156.169 35.3512C156.498 35.1359 156.662 34.8639 156.662 34.5352C156.662 34.2292 156.464 33.9629 156.067 33.7362C155.671 33.5095 155.013 33.2829 154.095 33.0562C153.687 32.9542 153.291 32.8295 152.905 32.6822C152.531 32.5349 152.203 32.3649 151.919 32.1722C151.636 31.9682 151.409 31.7472 151.239 31.5092C151.069 31.2599 150.984 30.9822 150.984 30.6762C150.984 30.3249 151.058 30.0019 151.205 29.7072C151.364 29.4125 151.596 29.1575 151.902 28.9422C152.208 28.7269 152.582 28.5569 153.024 28.4322C153.466 28.3075 153.976 28.2452 154.554 28.2452C155.212 28.2452 155.835 28.3585 156.424 28.5852C157.025 28.8005 157.535 29.0499 157.954 29.3332L157.172 30.3872C156.798 30.1379 156.396 29.9339 155.965 29.7752C155.535 29.6165 155.07 29.5372 154.571 29.5372C153.869 29.5372 153.376 29.6392 153.092 29.8432C152.82 30.0472 152.684 30.2965 152.684 30.5912C152.684 30.9085 152.911 31.1692 153.364 31.3732C153.818 31.5772 154.401 31.7699 155.115 31.9512C156.158 32.2119 156.957 32.5292 157.512 32.9032C158.079 33.2659 158.362 33.7759 158.362 34.4332C158.362 34.7845 158.277 35.1132 158.107 35.4192C157.937 35.7252 157.688 35.9972 157.359 36.2352C157.042 36.4619 156.645 36.6375 156.169 36.7622C155.705 36.8982 155.166 36.9662 154.554 36.9662C153.761 36.9662 153.013 36.8415 152.31 36.5922C151.608 36.3315 151.001 36.0255 150.491 35.6742L151.29 34.5862ZM162.912 29.8092H160.634V28.5342L162.98 28.4492L163.201 26.1542H164.595V28.4492H168.522V29.8092H164.595V33.4812C164.595 34.1952 164.736 34.7279 165.02 35.0792C165.314 35.4305 165.841 35.6062 166.601 35.6062C166.963 35.6062 167.298 35.5779 167.604 35.5212C167.921 35.4532 168.221 35.3625 168.505 35.2492L168.845 36.4902C168.471 36.6149 168.057 36.7225 167.604 36.8132C167.15 36.9152 166.686 36.9662 166.21 36.9662C165.598 36.9662 165.076 36.8812 164.646 36.7112C164.226 36.5412 163.886 36.3032 163.626 35.9972C163.376 35.6912 163.195 35.3285 163.082 34.9092C162.968 34.4785 162.912 34.0025 162.912 33.4812V29.8092ZM171.031 34.5692C171.031 34.1045 171.139 33.6965 171.354 33.3452C171.581 32.9939 171.926 32.6935 172.391 32.4442C172.867 32.1949 173.473 31.9909 174.21 31.8322C174.958 31.6735 175.853 31.5545 176.896 31.4752C176.873 30.9652 176.703 30.5289 176.386 30.1662C176.08 29.8035 175.559 29.6222 174.822 29.6222C174.312 29.6222 173.813 29.7185 173.326 29.9112C172.85 30.1039 172.408 30.3192 172 30.5572L171.371 29.4182C171.598 29.2822 171.853 29.1462 172.136 29.0102C172.419 28.8629 172.72 28.7325 173.037 28.6192C173.366 28.5059 173.7 28.4152 174.04 28.3472C174.391 28.2792 174.748 28.2452 175.111 28.2452C176.267 28.2452 177.134 28.5569 177.712 29.1802C178.29 29.8035 178.579 30.6649 178.579 31.7642V36.7622H177.202L177.066 35.6912H177.015C176.573 36.0312 176.074 36.3315 175.519 36.5922C174.975 36.8415 174.414 36.9662 173.836 36.9662C173.439 36.9662 173.065 36.9095 172.714 36.7962C172.374 36.6829 172.079 36.5242 171.83 36.3202C171.581 36.1049 171.382 35.8499 171.235 35.5552C171.099 35.2605 171.031 34.9319 171.031 34.5692ZM172.663 34.4502C172.663 34.8695 172.822 35.1699 173.139 35.3512C173.468 35.5325 173.859 35.6232 174.312 35.6232C174.754 35.6232 175.185 35.5269 175.604 35.3342C176.035 35.1415 176.465 34.8695 176.896 34.5182V32.5462C176.08 32.6142 175.4 32.7049 174.856 32.8182C174.312 32.9202 173.876 33.0562 173.547 33.2262C173.23 33.3849 173.003 33.5662 172.867 33.7702C172.731 33.9742 172.663 34.2009 172.663 34.4502ZM182.278 28.4492H183.672L183.808 30.3872H183.859C184.29 29.7072 184.811 29.1802 185.423 28.8062C186.047 28.4322 186.732 28.2452 187.48 28.2452C187.809 28.2452 188.098 28.2735 188.347 28.3302C188.597 28.3755 188.852 28.4605 189.112 28.5852L188.738 30.0302C188.455 29.9395 188.211 29.8715 188.007 29.8262C187.803 29.7809 187.543 29.7582 187.225 29.7582C186.625 29.7582 186.047 29.9282 185.491 30.2682C184.936 30.6082 184.426 31.1975 183.961 32.0362V36.7622H182.278V28.4492ZM193.492 29.8092H191.214V28.5342L193.56 28.4492L193.781 26.1542H195.175V28.4492H199.102V29.8092H195.175V33.4812C195.175 34.1952 195.316 34.7279 195.6 35.0792C195.894 35.4305 196.421 35.6062 197.181 35.6062C197.543 35.6062 197.878 35.5779 198.184 35.5212C198.501 35.4532 198.801 35.3625 199.085 35.2492L199.425 36.4902C199.051 36.6149 198.637 36.7225 198.184 36.8132C197.73 36.9152 197.266 36.9662 196.79 36.9662C196.178 36.9662 195.656 36.8812 195.226 36.7112C194.806 36.5412 194.466 36.3032 194.206 35.9972C193.956 35.6912 193.775 35.3285 193.662 34.9092C193.548 34.4785 193.492 34.0025 193.492 33.4812V29.8092ZM201.424 32.6142C201.424 31.9342 201.543 31.3279 201.781 30.7952C202.019 30.2512 202.336 29.7922 202.733 29.4182C203.13 29.0329 203.583 28.7439 204.093 28.5512C204.603 28.3472 205.13 28.2452 205.674 28.2452C206.286 28.2452 206.824 28.3415 207.289 28.5342C207.765 28.7269 208.167 28.9989 208.496 29.3502C208.825 29.6902 209.074 30.1039 209.244 30.5912C209.414 31.0672 209.499 31.5942 209.499 32.1722C209.499 32.3422 209.488 32.5065 209.465 32.6652C209.454 32.8125 209.437 32.9372 209.414 33.0392H203.158C203.215 33.8552 203.515 34.4955 204.059 34.9602C204.614 35.4135 205.311 35.6402 206.15 35.6402C206.603 35.6402 207.023 35.5779 207.408 35.4532C207.805 35.3285 208.19 35.1529 208.564 34.9262L209.159 35.9972C208.728 36.2692 208.241 36.5015 207.697 36.6942C207.164 36.8755 206.575 36.9662 205.929 36.9662C205.306 36.9662 204.716 36.8699 204.161 36.6772C203.617 36.4732 203.141 36.1842 202.733 35.8102C202.325 35.4362 202.002 34.9829 201.764 34.4502C201.537 33.9062 201.424 33.2942 201.424 32.6142ZM207.935 31.8832C207.935 31.1352 207.742 30.5629 207.357 30.1662C206.972 29.7695 206.422 29.5712 205.708 29.5712C205.085 29.5712 204.529 29.7695 204.042 30.1662C203.555 30.5629 203.254 31.1352 203.141 31.8832H207.935ZM211.464 32.6142C211.464 31.9342 211.566 31.3279 211.77 30.7952C211.986 30.2512 212.263 29.7922 212.603 29.4182C212.955 29.0442 213.351 28.7552 213.793 28.5512C214.247 28.3472 214.711 28.2452 215.187 28.2452C215.697 28.2452 216.134 28.3359 216.496 28.5172C216.87 28.6985 217.239 28.9535 217.601 29.2822L217.533 27.8032V24.7092H219.216V36.7622H217.839L217.703 35.7422H217.652C217.324 36.0709 216.933 36.3599 216.479 36.6092C216.026 36.8472 215.55 36.9662 215.051 36.9662C214.507 36.9662 214.014 36.8699 213.572 36.6772C213.142 36.4845 212.768 36.2012 212.45 35.8272C212.133 35.4532 211.889 34.9999 211.719 34.4672C211.549 33.9232 211.464 33.3055 211.464 32.6142ZM213.198 32.5972C213.198 33.5605 213.391 34.2972 213.776 34.8072C214.173 35.3172 214.728 35.5722 215.442 35.5722C216.19 35.5722 216.887 35.1982 217.533 34.4502V30.5062C217.205 30.1889 216.876 29.9679 216.547 29.8432C216.219 29.7185 215.89 29.6562 215.561 29.6562C215.233 29.6562 214.927 29.7242 214.643 29.8602C214.36 29.9962 214.111 30.1945 213.895 30.4552C213.68 30.7045 213.51 31.0105 213.385 31.3732C213.261 31.7359 213.198 32.1439 213.198 32.5972ZM224.276 35.3852C224.276 34.9205 224.423 34.5409 224.718 34.2462C225.012 33.9515 225.375 33.8042 225.806 33.8042C226.236 33.8042 226.599 33.9515 226.894 34.2462C227.188 34.5409 227.336 34.9205 227.336 35.3852C227.336 35.8612 227.188 36.2465 226.894 36.5412C226.599 36.8245 226.236 36.9662 225.806 36.9662C225.375 36.9662 225.012 36.8245 224.718 36.5412C224.423 36.2465 224.276 35.8612 224.276 35.3852Z" fill="#11269C"/>
</svg>
