<!-- prettier-ignore -->
<svg
  width="814"
  height="246"
  viewBox="0 0 814 246"
  fill="none"
  xmlns="http://www.w3.org/2000/svg"
>
  <path d="M0 0H813.733V245.439H0V0Z" fill="white" />
  <path
    d="M2.324 185.462H4.704L10.668 197.054L12.516 200.806H12.572C12.5347 199.891 12.4693 198.939 12.376 197.95C12.3013 196.942 12.264 195.953 12.264 194.982V185.462H14.476V203.83H12.096L6.132 192.238L4.284 188.486H4.228C4.26533 189.438 4.32133 190.399 4.396 191.37C4.48933 192.322 4.536 193.274 4.536 194.226V203.83H2.324V185.462ZM18.4691 197.054C18.4691 195.915 18.6464 194.907 19.0011 194.03C19.3744 193.134 19.8691 192.378 20.4851 191.762C21.1011 191.146 21.8104 190.679 22.6131 190.362C23.4344 190.045 24.2931 189.886 25.1891 189.886C26.0851 189.886 26.9344 190.045 27.7371 190.362C28.5584 190.679 29.2771 191.146 29.8931 191.762C30.5091 192.378 30.9944 193.134 31.3491 194.03C31.7224 194.907 31.9091 195.915 31.9091 197.054C31.9091 198.174 31.7224 199.182 31.3491 200.078C30.9944 200.955 30.5091 201.702 29.8931 202.318C29.2771 202.915 28.5584 203.373 27.7371 203.69C26.9344 204.007 26.0851 204.166 25.1891 204.166C24.2931 204.166 23.4344 204.007 22.6131 203.69C21.8104 203.373 21.1011 202.915 20.4851 202.318C19.8691 201.702 19.3744 200.955 19.0011 200.078C18.6464 199.182 18.4691 198.174 18.4691 197.054ZM20.8491 197.054C20.8491 197.838 20.9517 198.547 21.1571 199.182C21.3624 199.817 21.6517 200.367 22.0251 200.834C22.4171 201.282 22.8744 201.637 23.3971 201.898C23.9384 202.141 24.5357 202.262 25.1891 202.262C25.8424 202.262 26.4304 202.141 26.9531 201.898C27.4944 201.637 27.9517 201.282 28.3251 200.834C28.7171 200.367 29.0157 199.817 29.2211 199.182C29.4264 198.547 29.5291 197.838 29.5291 197.054C29.5291 196.27 29.4264 195.561 29.2211 194.926C29.0157 194.273 28.7171 193.713 28.3251 193.246C27.9517 192.779 27.4944 192.425 26.9531 192.182C26.4304 191.921 25.8424 191.79 25.1891 191.79C24.5357 191.79 23.9384 191.921 23.3971 192.182C22.8744 192.425 22.4171 192.779 22.0251 193.246C21.6517 193.713 21.3624 194.273 21.1571 194.926C20.9517 195.561 20.8491 196.27 20.8491 197.054ZM39.3461 192.098H35.5101V190.362L39.4301 190.222L39.7381 186.414H41.6421V190.222H48.3341V192.098H41.6421V198.566C41.6421 199.182 41.6981 199.723 41.8101 200.19C41.9221 200.638 42.1088 201.021 42.3701 201.338C42.6315 201.655 42.9861 201.898 43.4341 202.066C43.8821 202.215 44.4328 202.29 45.0861 202.29C45.7395 202.29 46.3275 202.234 46.8501 202.122C47.3728 202.01 47.8768 201.861 48.3621 201.674L48.8661 203.354C48.2501 203.578 47.5688 203.765 46.8221 203.914C46.0755 204.082 45.3288 204.166 44.5821 204.166C43.5928 204.166 42.7621 204.035 42.0901 203.774C41.4181 203.494 40.8768 203.111 40.4661 202.626C40.0741 202.122 39.7848 201.525 39.5981 200.834C39.4301 200.143 39.3461 199.378 39.3461 198.538V192.098ZM52.9712 183.894H55.2672V189.326L55.1552 192.546C55.8832 191.781 56.6579 191.146 57.4792 190.642C58.3005 190.138 59.2432 189.886 60.3072 189.886C61.9312 189.886 63.1165 190.353 63.8632 191.286C64.6285 192.201 65.0112 193.563 65.0112 195.374V203.83H62.7152V195.682C62.7152 194.394 62.4725 193.442 61.9872 192.826C61.5019 192.191 60.6992 191.874 59.5792 191.874C59.1685 191.874 58.7859 191.93 58.4312 192.042C58.0952 192.135 57.7592 192.285 57.4232 192.49C57.0872 192.695 56.7419 192.957 56.3872 193.274C56.0325 193.573 55.6592 193.927 55.2672 194.338V203.83H52.9712V183.894ZM69.6763 190.222H78.3003V203.83H76.0043V192.098H69.6763V190.222ZM76.9003 187.422C76.3589 187.422 75.9109 187.263 75.5563 186.946C75.2203 186.629 75.0523 186.199 75.0523 185.658C75.0523 185.117 75.2203 184.687 75.5563 184.37C75.9109 184.034 76.3589 183.866 76.9003 183.866C77.4229 183.866 77.8616 184.034 78.2163 184.37C78.5709 184.687 78.7483 185.117 78.7483 185.658C78.7483 186.199 78.5709 186.629 78.2163 186.946C77.8616 187.263 77.4229 187.422 76.9003 187.422ZM86.5493 190.222H88.4533L88.6493 192.546H88.7613C89.4706 191.781 90.236 191.146 91.0573 190.642C91.8786 190.138 92.8213 189.886 93.8853 189.886C95.5093 189.886 96.6946 190.353 97.4413 191.286C98.2066 192.201 98.5893 193.563 98.5893 195.374V203.83H96.2933V195.682C96.2933 194.394 96.0506 193.442 95.5653 192.826C95.08 192.191 94.2773 191.874 93.1573 191.874C92.7466 191.874 92.364 191.93 92.0093 192.042C91.6733 192.135 91.3373 192.285 91.0013 192.49C90.6653 192.695 90.32 192.957 89.9653 193.274C89.6106 193.573 89.2373 193.927 88.8453 194.338V203.83H86.5493V190.222ZM104.738 206.098C104.738 206.807 105.112 207.386 105.858 207.834C106.624 208.282 107.734 208.506 109.19 208.506C109.974 208.506 110.684 208.422 111.318 208.254C111.953 208.105 112.494 207.899 112.942 207.638C113.39 207.377 113.726 207.078 113.95 206.742C114.193 206.406 114.314 206.061 114.314 205.706C114.314 205.053 114.053 204.614 113.53 204.39C113.026 204.166 112.252 204.054 111.206 204.054H108.546C108.154 204.054 107.781 204.035 107.426 203.998C107.09 203.979 106.773 203.923 106.474 203.83C105.821 204.185 105.364 204.549 105.102 204.922C104.86 205.314 104.738 205.706 104.738 206.098ZM102.75 206.322C102.75 205.781 102.937 205.249 103.31 204.726C103.702 204.203 104.262 203.727 104.99 203.298V203.186C104.617 202.981 104.29 202.701 104.01 202.346C103.73 201.991 103.59 201.525 103.59 200.946C103.59 200.517 103.73 200.078 104.01 199.63C104.29 199.163 104.692 198.753 105.214 198.398V198.286C104.748 197.931 104.346 197.465 104.01 196.886C103.693 196.289 103.534 195.579 103.534 194.758C103.534 194.011 103.674 193.339 103.954 192.742C104.253 192.145 104.645 191.641 105.13 191.23C105.616 190.801 106.176 190.474 106.81 190.25C107.464 190.007 108.154 189.886 108.882 189.886C109.629 189.886 110.301 189.998 110.898 190.222H116.526V191.986H112.886C113.204 192.322 113.493 192.733 113.754 193.218C114.016 193.703 114.146 194.245 114.146 194.842C114.146 195.57 114.006 196.223 113.726 196.802C113.465 197.381 113.092 197.875 112.606 198.286C112.14 198.678 111.58 198.986 110.926 199.21C110.292 199.415 109.61 199.518 108.882 199.518C108.528 199.518 108.145 199.481 107.734 199.406C107.342 199.313 106.96 199.182 106.586 199.014C105.877 199.462 105.522 199.985 105.522 200.582C105.522 201.123 105.765 201.525 106.25 201.786C106.754 202.029 107.454 202.15 108.35 202.15H111.402C113.157 202.15 114.454 202.393 115.294 202.878C116.153 203.363 116.582 204.185 116.582 205.342C116.582 205.977 116.405 206.583 116.05 207.162C115.696 207.741 115.192 208.245 114.538 208.674C113.885 209.103 113.092 209.449 112.158 209.71C111.225 209.971 110.18 210.102 109.022 210.102C107.025 210.102 105.476 209.775 104.374 209.122C103.292 208.469 102.75 207.535 102.75 206.322ZM108.882 197.978C109.76 197.978 110.497 197.689 111.094 197.11C111.71 196.531 112.018 195.747 112.018 194.758C112.018 194.291 111.934 193.862 111.766 193.47C111.598 193.078 111.374 192.742 111.094 192.462C110.814 192.182 110.478 191.967 110.086 191.818C109.713 191.65 109.312 191.566 108.882 191.566C108.453 191.566 108.042 191.65 107.65 191.818C107.277 191.967 106.95 192.182 106.67 192.462C106.39 192.742 106.166 193.078 105.998 193.47C105.83 193.862 105.746 194.291 105.746 194.758C105.746 195.747 106.054 196.531 106.67 197.11C107.286 197.689 108.024 197.978 108.882 197.978ZM136.917 183.894H139.213V189.326L139.157 191.958C139.81 191.323 140.538 190.819 141.341 190.446C142.162 190.073 142.974 189.886 143.777 189.886C144.691 189.886 145.503 190.054 146.213 190.39C146.922 190.707 147.51 191.174 147.977 191.79C148.462 192.387 148.826 193.115 149.069 193.974C149.311 194.814 149.433 195.757 149.433 196.802C149.433 197.959 149.265 198.995 148.929 199.91C148.593 200.825 148.135 201.599 147.557 202.234C146.997 202.869 146.343 203.354 145.597 203.69C144.85 204.007 144.075 204.166 143.273 204.166C142.619 204.166 141.91 204.007 141.145 203.69C140.398 203.354 139.698 202.897 139.045 202.318H138.961L138.765 203.83H136.917V183.894ZM139.213 200.638C139.866 201.217 140.519 201.627 141.173 201.87C141.845 202.113 142.423 202.234 142.909 202.234C143.506 202.234 144.057 202.113 144.561 201.87C145.065 201.609 145.503 201.254 145.877 200.806C146.25 200.339 146.539 199.77 146.745 199.098C146.95 198.426 147.053 197.67 147.053 196.83C147.053 196.083 146.978 195.402 146.829 194.786C146.679 194.17 146.446 193.647 146.129 193.218C145.83 192.77 145.438 192.425 144.953 192.182C144.467 191.939 143.889 191.818 143.217 191.818C142.619 191.818 141.975 191.986 141.285 192.322C140.613 192.639 139.922 193.153 139.213 193.862V200.638ZM165.242 203.83H163.366L163.17 201.45H163.058C162.367 202.253 161.611 202.906 160.79 203.41C159.987 203.914 159.054 204.166 157.99 204.166C156.347 204.166 155.143 203.709 154.378 202.794C153.631 201.861 153.258 200.489 153.258 198.678V190.222H155.582V198.37C155.582 199.658 155.815 200.619 156.282 201.254C156.767 201.87 157.579 202.178 158.718 202.178C159.502 202.178 160.211 201.982 160.846 201.59C161.48 201.179 162.18 200.535 162.946 199.658V190.222H165.242V203.83ZM173.659 192.098H169.823V190.362L173.743 190.222L174.051 186.414H175.955V190.222H182.647V192.098H175.955V198.566C175.955 199.182 176.011 199.723 176.123 200.19C176.235 200.638 176.421 201.021 176.683 201.338C176.944 201.655 177.299 201.898 177.747 202.066C178.195 202.215 178.745 202.29 179.399 202.29C180.052 202.29 180.64 202.234 181.163 202.122C181.685 202.01 182.189 201.861 182.675 201.674L183.179 203.354C182.563 203.578 181.881 203.765 181.135 203.914C180.388 204.082 179.641 204.166 178.895 204.166C177.905 204.166 177.075 204.035 176.403 203.774C175.731 203.494 175.189 203.111 174.779 202.626C174.387 202.122 174.097 201.525 173.911 200.834C173.743 200.143 173.659 199.378 173.659 198.538V192.098ZM203.709 197.054C203.709 195.915 203.905 194.907 204.297 194.03C204.707 193.134 205.258 192.378 205.949 191.762C206.639 191.146 207.442 190.679 208.357 190.362C209.29 190.045 210.27 189.886 211.297 189.886C212.417 189.886 213.378 190.082 214.181 190.474C215.002 190.866 215.693 191.333 216.253 191.874L215.105 193.358C214.545 192.873 213.957 192.49 213.341 192.21C212.743 191.93 212.09 191.79 211.381 191.79C210.597 191.79 209.878 191.921 209.225 192.182C208.571 192.425 208.011 192.779 207.545 193.246C207.097 193.713 206.742 194.273 206.481 194.926C206.219 195.561 206.089 196.27 206.089 197.054C206.089 197.838 206.21 198.547 206.453 199.182C206.714 199.817 207.069 200.367 207.517 200.834C207.983 201.282 208.534 201.637 209.169 201.898C209.822 202.141 210.541 202.262 211.325 202.262C212.165 202.262 212.93 202.103 213.621 201.786C214.33 201.45 214.974 201.039 215.553 200.554L216.561 202.038C215.814 202.71 214.974 203.233 214.041 203.606C213.126 203.979 212.165 204.166 211.157 204.166C210.093 204.166 209.103 204.007 208.189 203.69C207.293 203.373 206.509 202.915 205.837 202.318C205.165 201.702 204.642 200.955 204.269 200.078C203.895 199.182 203.709 198.174 203.709 197.054ZM222.346 190.222H224.25L224.446 193.442H224.53C225.239 192.341 226.107 191.473 227.134 190.838C228.179 190.203 229.336 189.886 230.606 189.886C231.11 189.886 231.576 189.933 232.006 190.026C232.435 190.101 232.864 190.241 233.294 190.446L232.762 192.434C232.276 192.266 231.866 192.145 231.53 192.07C231.212 191.995 230.783 191.958 230.242 191.958C229.215 191.958 228.226 192.257 227.274 192.854C226.34 193.433 225.463 194.431 224.642 195.85V203.83H222.346V190.222ZM237.567 190.222H246.191V203.83H243.895V192.098H237.567V190.222ZM244.791 187.422C244.25 187.422 243.802 187.263 243.447 186.946C243.111 186.629 242.943 186.199 242.943 185.658C242.943 185.117 243.111 184.687 243.447 184.37C243.802 184.034 244.25 183.866 244.791 183.866C245.314 183.866 245.752 184.034 246.107 184.37C246.462 184.687 246.639 185.117 246.639 185.658C246.639 186.199 246.462 186.629 246.107 186.946C245.752 187.263 245.314 187.422 244.791 187.422ZM254.076 197.054C254.076 195.915 254.272 194.907 254.664 194.03C255.075 193.134 255.625 192.378 256.316 191.762C257.007 191.146 257.809 190.679 258.724 190.362C259.657 190.045 260.637 189.886 261.664 189.886C262.784 189.886 263.745 190.082 264.548 190.474C265.369 190.866 266.06 191.333 266.62 191.874L265.472 193.358C264.912 192.873 264.324 192.49 263.708 192.21C263.111 191.93 262.457 191.79 261.748 191.79C260.964 191.79 260.245 191.921 259.592 192.182C258.939 192.425 258.379 192.779 257.912 193.246C257.464 193.713 257.109 194.273 256.848 194.926C256.587 195.561 256.456 196.27 256.456 197.054C256.456 197.838 256.577 198.547 256.82 199.182C257.081 199.817 257.436 200.367 257.884 200.834C258.351 201.282 258.901 201.637 259.536 201.898C260.189 202.141 260.908 202.262 261.692 202.262C262.532 202.262 263.297 202.103 263.988 201.786C264.697 201.45 265.341 201.039 265.92 200.554L266.928 202.038C266.181 202.71 265.341 203.233 264.408 203.606C263.493 203.979 262.532 204.166 261.524 204.166C260.46 204.166 259.471 204.007 258.556 203.69C257.66 203.373 256.876 202.915 256.204 202.318C255.532 201.702 255.009 200.955 254.636 200.078C254.263 199.182 254.076 198.174 254.076 197.054ZM271.593 183.894H273.889V197.39H274.001L281.337 190.222H283.969L278.537 195.626L284.697 203.83H282.121L277.109 197.026L273.889 200.134V203.83H271.593V183.894ZM287.346 197.054C287.346 195.934 287.542 194.935 287.934 194.058C288.326 193.162 288.839 192.406 289.474 191.79C290.127 191.174 290.865 190.707 291.686 190.39C292.526 190.054 293.385 189.886 294.262 189.886C295.233 189.886 296.101 190.045 296.866 190.362C297.631 190.661 298.275 191.09 298.798 191.65C299.339 192.21 299.75 192.882 300.03 193.666C300.31 194.45 300.45 195.318 300.45 196.27C300.45 196.513 300.441 196.755 300.422 196.998C300.422 197.222 300.403 197.418 300.366 197.586H289.726C289.745 198.314 289.885 198.967 290.146 199.546C290.426 200.125 290.79 200.619 291.238 201.03C291.705 201.441 292.246 201.758 292.862 201.982C293.497 202.206 294.187 202.318 294.934 202.318C295.737 202.318 296.465 202.206 297.118 201.982C297.79 201.758 298.443 201.45 299.078 201.058L299.89 202.57C299.218 202.999 298.453 203.373 297.594 203.69C296.735 204.007 295.755 204.166 294.654 204.166C293.646 204.166 292.694 204.007 291.798 203.69C290.921 203.354 290.146 202.887 289.474 202.29C288.821 201.674 288.298 200.927 287.906 200.05C287.533 199.173 287.346 198.174 287.346 197.054ZM298.322 195.934C298.322 194.571 297.967 193.526 297.258 192.798C296.549 192.07 295.559 191.706 294.29 191.706C293.73 191.706 293.189 191.799 292.666 191.986C292.162 192.173 291.705 192.453 291.294 192.826C290.883 193.181 290.538 193.619 290.258 194.142C289.978 194.665 289.791 195.262 289.698 195.934H298.322ZM307.971 192.098H304.135V190.362L308.055 190.222L308.363 186.414H310.267V190.222H316.959V192.098H310.267V198.566C310.267 199.182 310.323 199.723 310.435 200.19C310.547 200.638 310.734 201.021 310.995 201.338C311.256 201.655 311.611 201.898 312.059 202.066C312.507 202.215 313.058 202.29 313.711 202.29C314.364 202.29 314.952 202.234 315.475 202.122C315.998 202.01 316.502 201.861 316.987 201.674L317.491 203.354C316.875 203.578 316.194 203.765 315.447 203.914C314.7 204.082 313.954 204.166 313.207 204.166C312.218 204.166 311.387 204.035 310.715 203.774C310.043 203.494 309.502 203.111 309.091 202.626C308.699 202.122 308.41 201.525 308.223 200.834C308.055 200.143 307.971 199.378 307.971 198.538V192.098ZM322.128 200.526C322.894 201.086 323.715 201.534 324.592 201.87C325.47 202.206 326.524 202.374 327.756 202.374C328.988 202.374 329.903 202.169 330.5 201.758C331.098 201.347 331.396 200.843 331.396 200.246C331.396 199.723 331.07 199.257 330.416 198.846C329.782 198.435 328.634 198.025 326.972 197.614C326.263 197.446 325.591 197.241 324.956 196.998C324.34 196.755 323.799 196.475 323.332 196.158C322.866 195.822 322.492 195.458 322.212 195.066C321.932 194.674 321.792 194.235 321.792 193.75C321.792 193.209 321.914 192.705 322.156 192.238C322.399 191.753 322.754 191.342 323.22 191.006C323.706 190.651 324.303 190.381 325.012 190.194C325.74 189.989 326.571 189.886 327.504 189.886C328.531 189.886 329.53 190.063 330.5 190.418C331.471 190.754 332.292 191.155 332.964 191.622L331.844 193.106C331.247 192.677 330.584 192.331 329.856 192.07C329.128 191.809 328.344 191.678 327.504 191.678C326.87 191.678 326.338 191.734 325.908 191.846C325.479 191.939 325.134 192.079 324.872 192.266C324.611 192.434 324.424 192.639 324.312 192.882C324.2 193.125 324.144 193.377 324.144 193.638C324.144 194.198 324.527 194.665 325.292 195.038C326.058 195.393 327.056 195.729 328.288 196.046C330.136 196.513 331.499 197.045 332.376 197.642C333.272 198.239 333.72 199.061 333.72 200.106C333.72 200.666 333.59 201.189 333.328 201.674C333.067 202.159 332.675 202.589 332.152 202.962C331.648 203.335 331.014 203.625 330.248 203.83C329.502 204.054 328.643 204.166 327.672 204.166C326.328 204.166 325.087 203.961 323.948 203.55C322.828 203.121 321.848 202.617 321.008 202.038L322.128 200.526ZM355.174 183.894H357.47V189.326L357.358 192.546C358.086 191.781 358.861 191.146 359.682 190.642C360.504 190.138 361.446 189.886 362.51 189.886C364.134 189.886 365.32 190.353 366.066 191.286C366.832 192.201 367.214 193.563 367.214 195.374V203.83H364.918V195.682C364.918 194.394 364.676 193.442 364.19 192.826C363.705 192.191 362.902 191.874 361.782 191.874C361.372 191.874 360.989 191.93 360.634 192.042C360.298 192.135 359.962 192.285 359.626 192.49C359.29 192.695 358.945 192.957 358.59 193.274C358.236 193.573 357.862 193.927 357.47 194.338V203.83H355.174V183.894ZM371.291 197.054C371.291 195.934 371.487 194.935 371.879 194.058C372.271 193.162 372.785 192.406 373.419 191.79C374.073 191.174 374.81 190.707 375.631 190.39C376.471 190.054 377.33 189.886 378.207 189.886C379.178 189.886 380.046 190.045 380.811 190.362C381.577 190.661 382.221 191.09 382.743 191.65C383.285 192.21 383.695 192.882 383.975 193.666C384.255 194.45 384.395 195.318 384.395 196.27C384.395 196.513 384.386 196.755 384.367 196.998C384.367 197.222 384.349 197.418 384.311 197.586H373.671C373.69 198.314 373.83 198.967 374.091 199.546C374.371 200.125 374.735 200.619 375.183 201.03C375.65 201.441 376.191 201.758 376.807 201.982C377.442 202.206 378.133 202.318 378.879 202.318C379.682 202.318 380.41 202.206 381.063 201.982C381.735 201.758 382.389 201.45 383.023 201.058L383.835 202.57C383.163 202.999 382.398 203.373 381.539 203.69C380.681 204.007 379.701 204.166 378.599 204.166C377.591 204.166 376.639 204.007 375.743 203.69C374.866 203.354 374.091 202.887 373.419 202.29C372.766 201.674 372.243 200.927 371.851 200.05C371.478 199.173 371.291 198.174 371.291 197.054ZM382.267 195.934C382.267 194.571 381.913 193.526 381.203 192.798C380.494 192.07 379.505 191.706 378.235 191.706C377.675 191.706 377.134 191.799 376.611 191.986C376.107 192.173 375.65 192.453 375.239 192.826C374.829 193.181 374.483 193.619 374.203 194.142C373.923 194.665 373.737 195.262 373.643 195.934H382.267ZM390.236 190.222H392.14L392.336 193.442H392.42C393.13 192.341 393.998 191.473 395.024 190.838C396.07 190.203 397.227 189.886 398.496 189.886C399 189.886 399.467 189.933 399.896 190.026C400.326 190.101 400.755 190.241 401.184 190.446L400.652 192.434C400.167 192.266 399.756 192.145 399.42 192.07C399.103 191.995 398.674 191.958 398.132 191.958C397.106 191.958 396.116 192.257 395.164 192.854C394.231 193.433 393.354 194.431 392.532 195.85V203.83H390.236V190.222ZM404.87 197.054C404.87 195.934 405.066 194.935 405.458 194.058C405.85 193.162 406.363 192.406 406.998 191.79C407.651 191.174 408.388 190.707 409.21 190.39C410.05 190.054 410.908 189.886 411.786 189.886C412.756 189.886 413.624 190.045 414.39 190.362C415.155 190.661 415.799 191.09 416.322 191.65C416.863 192.21 417.274 192.882 417.554 193.666C417.834 194.45 417.974 195.318 417.974 196.27C417.974 196.513 417.964 196.755 417.946 196.998C417.946 197.222 417.927 197.418 417.89 197.586H407.25C407.268 198.314 407.408 198.967 407.67 199.546C407.95 200.125 408.314 200.619 408.762 201.03C409.228 201.441 409.77 201.758 410.386 201.982C411.02 202.206 411.711 202.318 412.458 202.318C413.26 202.318 413.988 202.206 414.642 201.982C415.314 201.758 415.967 201.45 416.602 201.058L417.414 202.57C416.742 202.999 415.976 203.373 415.118 203.69C414.259 204.007 413.279 204.166 412.178 204.166C411.17 204.166 410.218 204.007 409.322 203.69C408.444 203.354 407.67 202.887 406.998 202.29C406.344 201.674 405.822 200.927 405.43 200.05C405.056 199.173 404.87 198.174 404.87 197.054ZM415.846 195.934C415.846 194.571 415.491 193.526 414.782 192.798C414.072 192.07 413.083 191.706 411.814 191.706C411.254 191.706 410.712 191.799 410.19 191.986C409.686 192.173 409.228 192.453 408.818 192.826C408.407 193.181 408.062 193.619 407.782 194.142C407.502 194.665 407.315 195.262 407.222 195.934H415.846ZM425.859 201.814C425.859 201.105 426.073 200.535 426.503 200.106C426.951 199.658 427.492 199.434 428.127 199.434C428.761 199.434 429.293 199.658 429.723 200.106C430.171 200.535 430.395 201.105 430.395 201.814C430.395 202.523 430.171 203.093 429.723 203.522C429.293 203.951 428.761 204.166 428.127 204.166C427.492 204.166 426.951 203.951 426.503 203.522C426.073 203.093 425.859 202.523 425.859 201.814ZM456.189 185.462H461.229C462.162 185.462 463.011 185.546 463.777 185.714C464.561 185.882 465.223 186.143 465.765 186.498C466.325 186.853 466.754 187.319 467.053 187.898C467.37 188.458 467.529 189.139 467.529 189.942C467.529 190.857 467.258 191.687 466.717 192.434C466.194 193.162 465.391 193.666 464.309 193.946V194.058C465.653 194.263 466.698 194.73 467.445 195.458C468.191 196.186 468.565 197.185 468.565 198.454C468.565 199.35 468.397 200.134 468.061 200.806C467.725 201.478 467.249 202.038 466.633 202.486C466.035 202.934 465.307 203.27 464.449 203.494C463.609 203.718 462.675 203.83 461.649 203.83H456.189V185.462ZM460.837 193.302C462.405 193.302 463.525 193.031 464.197 192.49C464.887 191.949 465.233 191.165 465.233 190.138C465.233 189.13 464.869 188.411 464.141 187.982C463.431 187.534 462.367 187.31 460.949 187.31H458.541V193.302H460.837ZM461.313 201.982C462.899 201.982 464.122 201.693 464.981 201.114C465.839 200.517 466.269 199.593 466.269 198.342C466.269 197.203 465.849 196.373 465.009 195.85C464.169 195.309 462.937 195.038 461.313 195.038H458.541V201.982H461.313ZM472.026 197.054C472.026 195.934 472.222 194.935 472.614 194.058C473.006 193.162 473.519 192.406 474.154 191.79C474.807 191.174 475.544 190.707 476.366 190.39C477.206 190.054 478.064 189.886 478.942 189.886C479.912 189.886 480.78 190.045 481.546 190.362C482.311 190.661 482.955 191.09 483.478 191.65C484.019 192.21 484.43 192.882 484.71 193.666C484.99 194.45 485.13 195.318 485.13 196.27C485.13 196.513 485.12 196.755 485.102 196.998C485.102 197.222 485.083 197.418 485.046 197.586H474.406C474.424 198.314 474.564 198.967 474.826 199.546C475.106 200.125 475.47 200.619 475.918 201.03C476.384 201.441 476.926 201.758 477.542 201.982C478.176 202.206 478.867 202.318 479.614 202.318C480.416 202.318 481.144 202.206 481.798 201.982C482.47 201.758 483.123 201.45 483.758 201.058L484.57 202.57C483.898 202.999 483.132 203.373 482.274 203.69C481.415 204.007 480.435 204.166 479.334 204.166C478.326 204.166 477.374 204.007 476.478 203.69C475.6 203.354 474.826 202.887 474.154 202.29C473.5 201.674 472.978 200.927 472.586 200.05C472.212 199.173 472.026 198.174 472.026 197.054ZM483.002 195.934C483.002 194.571 482.647 193.526 481.938 192.798C481.228 192.07 480.239 191.706 478.97 191.706C478.41 191.706 477.868 191.799 477.346 191.986C476.842 192.173 476.384 192.453 475.974 192.826C475.563 193.181 475.218 193.619 474.938 194.142C474.658 194.665 474.471 195.262 474.378 195.934H483.002ZM492.651 192.098H488.815V190.362L492.735 190.222L493.043 186.414H494.947V190.222H501.639V192.098H494.947V198.566C494.947 199.182 495.003 199.723 495.115 200.19C495.227 200.638 495.413 201.021 495.675 201.338C495.936 201.655 496.291 201.898 496.739 202.066C497.187 202.215 497.737 202.29 498.391 202.29C499.044 202.29 499.632 202.234 500.155 202.122C500.677 202.01 501.181 201.861 501.667 201.674L502.171 203.354C501.555 203.578 500.873 203.765 500.127 203.914C499.38 204.082 498.633 204.166 497.887 204.166C496.897 204.166 496.067 204.035 495.395 203.774C494.723 203.494 494.181 203.111 493.771 202.626C493.379 202.122 493.089 201.525 492.903 200.834C492.735 200.143 492.651 199.378 492.651 198.538V192.098ZM509.44 192.098H505.604V190.362L509.524 190.222L509.832 186.414H511.736V190.222H518.428V192.098H511.736V198.566C511.736 199.182 511.792 199.723 511.904 200.19C512.016 200.638 512.203 201.021 512.464 201.338C512.725 201.655 513.08 201.898 513.528 202.066C513.976 202.215 514.527 202.29 515.18 202.29C515.833 202.29 516.421 202.234 516.944 202.122C517.467 202.01 517.971 201.861 518.456 201.674L518.96 203.354C518.344 203.578 517.663 203.765 516.916 203.914C516.169 204.082 515.423 204.166 514.676 204.166C513.687 204.166 512.856 204.035 512.184 203.774C511.512 203.494 510.971 203.111 510.56 202.626C510.168 202.122 509.879 201.525 509.692 200.834C509.524 200.143 509.44 199.378 509.44 198.538V192.098ZM522.393 197.054C522.393 195.934 522.589 194.935 522.981 194.058C523.373 193.162 523.886 192.406 524.521 191.79C525.174 191.174 525.912 190.707 526.733 190.39C527.573 190.054 528.432 189.886 529.309 189.886C530.28 189.886 531.148 190.045 531.913 190.362C532.678 190.661 533.322 191.09 533.845 191.65C534.386 192.21 534.797 192.882 535.077 193.666C535.357 194.45 535.497 195.318 535.497 196.27C535.497 196.513 535.488 196.755 535.469 196.998C535.469 197.222 535.45 197.418 535.413 197.586H524.773C524.792 198.314 524.932 198.967 525.193 199.546C525.473 200.125 525.837 200.619 526.285 201.03C526.752 201.441 527.293 201.758 527.909 201.982C528.544 202.206 529.234 202.318 529.981 202.318C530.784 202.318 531.512 202.206 532.165 201.982C532.837 201.758 533.49 201.45 534.125 201.058L534.937 202.57C534.265 202.999 533.5 203.373 532.641 203.69C531.782 204.007 530.802 204.166 529.701 204.166C528.693 204.166 527.741 204.007 526.845 203.69C525.968 203.354 525.193 202.887 524.521 202.29C523.868 201.674 523.345 200.927 522.953 200.05C522.58 199.173 522.393 198.174 522.393 197.054ZM533.369 195.934C533.369 194.571 533.014 193.526 532.305 192.798C531.596 192.07 530.606 191.706 529.337 191.706C528.777 191.706 528.236 191.799 527.713 191.986C527.209 192.173 526.752 192.453 526.341 192.826C525.93 193.181 525.585 193.619 525.305 194.142C525.025 194.665 524.838 195.262 524.745 195.934H533.369ZM541.338 190.222H543.242L543.438 193.442H543.522C544.231 192.341 545.099 191.473 546.126 190.838C547.171 190.203 548.329 189.886 549.598 189.886C550.102 189.886 550.569 189.933 550.998 190.026C551.427 190.101 551.857 190.241 552.286 190.446L551.754 192.434C551.269 192.266 550.858 192.145 550.522 192.07C550.205 191.995 549.775 191.958 549.234 191.958C548.207 191.958 547.218 192.257 546.266 192.854C545.333 193.433 544.455 194.431 543.634 195.85V203.83H541.338V190.222ZM573.096 200.302C573.096 199.537 573.273 198.874 573.628 198.314C574.001 197.735 574.58 197.241 575.364 196.83C576.167 196.419 577.193 196.083 578.444 195.822C579.695 195.561 581.197 195.355 582.952 195.206C582.933 194.739 582.859 194.301 582.728 193.89C582.597 193.479 582.392 193.125 582.112 192.826C581.832 192.509 581.459 192.257 580.992 192.07C580.544 191.883 579.993 191.79 579.34 191.79C578.444 191.79 577.585 191.967 576.764 192.322C575.943 192.658 575.215 193.022 574.58 193.414L573.684 191.846C574.02 191.622 574.412 191.398 574.86 191.174C575.327 190.931 575.812 190.717 576.316 190.53C576.839 190.343 577.389 190.194 577.968 190.082C578.547 189.951 579.135 189.886 579.732 189.886C581.599 189.886 582.98 190.399 583.876 191.426C584.791 192.434 585.248 193.787 585.248 195.486V203.83H583.372L583.176 201.982H583.092C582.327 202.579 581.477 203.093 580.544 203.522C579.629 203.951 578.687 204.166 577.716 204.166C577.081 204.166 576.484 204.073 575.924 203.886C575.364 203.718 574.869 203.475 574.44 203.158C574.029 202.822 573.703 202.421 573.46 201.954C573.217 201.469 573.096 200.918 573.096 200.302ZM575.336 200.134C575.336 200.526 575.42 200.862 575.588 201.142C575.756 201.403 575.971 201.627 576.232 201.814C576.512 201.982 576.829 202.113 577.184 202.206C577.557 202.281 577.94 202.318 578.332 202.318C579.116 202.318 579.881 202.15 580.628 201.814C581.393 201.459 582.168 200.955 582.952 200.302V196.718C581.496 196.83 580.273 196.989 579.284 197.194C578.313 197.399 577.529 197.651 576.932 197.95C576.353 198.23 575.943 198.557 575.7 198.93C575.457 199.285 575.336 199.686 575.336 200.134ZM589.297 197.054C589.297 195.953 589.465 194.963 589.801 194.086C590.156 193.19 590.613 192.434 591.173 191.818C591.752 191.202 592.415 190.726 593.161 190.39C593.908 190.054 594.683 189.886 595.485 189.886C596.325 189.886 597.063 190.045 597.697 190.362C598.332 190.679 598.967 191.109 599.601 191.65L599.517 189.13V183.894H601.813V203.83H599.909L599.713 202.038H599.629C599.069 202.617 598.397 203.121 597.613 203.55C596.848 203.961 596.045 204.166 595.205 204.166C594.309 204.166 593.497 204.007 592.769 203.69C592.06 203.373 591.444 202.915 590.921 202.318C590.399 201.702 589.997 200.955 589.717 200.078C589.437 199.201 589.297 198.193 589.297 197.054ZM591.677 197.026C591.677 198.669 592.023 199.947 592.713 200.862C593.423 201.777 594.412 202.234 595.681 202.234C597.025 202.234 598.304 201.553 599.517 200.19V193.414C598.901 192.835 598.295 192.425 597.697 192.182C597.119 191.939 596.531 191.818 595.933 191.818C595.336 191.818 594.776 191.949 594.253 192.21C593.749 192.453 593.301 192.807 592.909 193.274C592.536 193.722 592.237 194.263 592.013 194.898C591.789 195.533 591.677 196.242 591.677 197.026ZM606.086 197.054C606.086 195.953 606.254 194.963 606.59 194.086C606.945 193.19 607.402 192.434 607.962 191.818C608.541 191.202 609.204 190.726 609.95 190.39C610.697 190.054 611.472 189.886 612.274 189.886C613.114 189.886 613.852 190.045 614.486 190.362C615.121 190.679 615.756 191.109 616.39 191.65L616.306 189.13V183.894H618.602V203.83H616.698L616.502 202.038H616.418C615.858 202.617 615.186 203.121 614.402 203.55C613.637 203.961 612.834 204.166 611.994 204.166C611.098 204.166 610.286 204.007 609.558 203.69C608.849 203.373 608.233 202.915 607.71 202.318C607.188 201.702 606.786 200.955 606.506 200.078C606.226 199.201 606.086 198.193 606.086 197.054ZM608.466 197.026C608.466 198.669 608.812 199.947 609.502 200.862C610.212 201.777 611.201 202.234 612.47 202.234C613.814 202.234 615.093 201.553 616.306 200.19V193.414C615.69 192.835 615.084 192.425 614.486 192.182C613.908 191.939 613.32 191.818 612.722 191.818C612.125 191.818 611.565 191.949 611.042 192.21C610.538 192.453 610.09 192.807 609.698 193.274C609.325 193.722 609.026 194.263 608.802 194.898C608.578 195.533 608.466 196.242 608.466 197.026ZM640.336 207.582C640.523 207.638 640.719 207.685 640.924 207.722C641.148 207.759 641.363 207.778 641.568 207.778C642.52 207.778 643.295 207.498 643.892 206.938C644.49 206.397 644.956 205.706 645.292 204.866L645.712 203.858L639.356 190.222H641.68L645.012 197.754C645.274 198.351 645.544 198.995 645.824 199.686C646.123 200.377 646.412 201.049 646.692 201.702H646.804C647.047 201.049 647.29 200.386 647.532 199.714C647.794 199.023 648.036 198.37 648.26 197.754L651.228 190.222H653.412L647.42 204.95C647.159 205.622 646.86 206.247 646.524 206.826C646.188 207.405 645.787 207.899 645.32 208.31C644.854 208.739 644.312 209.075 643.696 209.318C643.099 209.561 642.418 209.682 641.652 209.682C640.98 209.682 640.383 209.589 639.86 209.402L640.336 207.582ZM656.453 197.054C656.453 195.915 656.631 194.907 656.985 194.03C657.359 193.134 657.853 192.378 658.469 191.762C659.085 191.146 659.795 190.679 660.597 190.362C661.419 190.045 662.277 189.886 663.173 189.886C664.069 189.886 664.919 190.045 665.721 190.362C666.543 190.679 667.261 191.146 667.877 191.762C668.493 192.378 668.979 193.134 669.333 194.03C669.707 194.907 669.893 195.915 669.893 197.054C669.893 198.174 669.707 199.182 669.333 200.078C668.979 200.955 668.493 201.702 667.877 202.318C667.261 202.915 666.543 203.373 665.721 203.69C664.919 204.007 664.069 204.166 663.173 204.166C662.277 204.166 661.419 204.007 660.597 203.69C659.795 203.373 659.085 202.915 658.469 202.318C657.853 201.702 657.359 200.955 656.985 200.078C656.631 199.182 656.453 198.174 656.453 197.054ZM658.833 197.054C658.833 197.838 658.936 198.547 659.141 199.182C659.347 199.817 659.636 200.367 660.009 200.834C660.401 201.282 660.859 201.637 661.381 201.898C661.923 202.141 662.52 202.262 663.173 202.262C663.827 202.262 664.415 202.141 664.937 201.898C665.479 201.637 665.936 201.282 666.309 200.834C666.701 200.367 667 199.817 667.205 199.182C667.411 198.547 667.513 197.838 667.513 197.054C667.513 196.27 667.411 195.561 667.205 194.926C667 194.273 666.701 193.713 666.309 193.246C665.936 192.779 665.479 192.425 664.937 192.182C664.415 191.921 663.827 191.79 663.173 191.79C662.52 191.79 661.923 191.921 661.381 192.182C660.859 192.425 660.401 192.779 660.009 193.246C659.636 193.713 659.347 194.273 659.141 194.926C658.936 195.561 658.833 196.27 658.833 197.054ZM685.702 203.83H683.827L683.631 201.45H683.519C682.828 202.253 682.072 202.906 681.251 203.41C680.448 203.914 679.515 204.166 678.451 204.166C676.808 204.166 675.604 203.709 674.839 202.794C674.092 201.861 673.719 200.489 673.719 198.678V190.222H676.043V198.37C676.043 199.658 676.276 200.619 676.743 201.254C677.228 201.87 678.04 202.178 679.179 202.178C679.963 202.178 680.672 201.982 681.307 201.59C681.941 201.179 682.641 200.535 683.407 199.658V190.222H685.702V203.83ZM692.44 190.222H694.344L694.54 193.442H694.624C695.333 192.341 696.201 191.473 697.228 190.838C698.273 190.203 699.43 189.886 700.7 189.886C701.204 189.886 701.67 189.933 702.1 190.026C702.529 190.101 702.958 190.241 703.388 190.446L702.856 192.434C702.37 192.266 701.96 192.145 701.624 192.07C701.306 191.995 700.877 191.958 700.336 191.958C699.309 191.958 698.32 192.257 697.368 192.854C696.434 193.433 695.557 194.431 694.736 195.85V203.83H692.44V190.222ZM727.698 192.098H723.862V190.362L727.782 190.222L728.09 186.414H729.994V190.222H736.686V192.098H729.994V198.566C729.994 199.182 730.05 199.723 730.162 200.19C730.274 200.638 730.46 201.021 730.722 201.338C730.983 201.655 731.338 201.898 731.786 202.066C732.234 202.215 732.784 202.29 733.438 202.29C734.091 202.29 734.679 202.234 735.202 202.122C735.724 202.01 736.228 201.861 736.714 201.674L737.218 203.354C736.602 203.578 735.92 203.765 735.174 203.914C734.427 204.082 733.68 204.166 732.934 204.166C731.944 204.166 731.114 204.035 730.442 203.774C729.77 203.494 729.228 203.111 728.818 202.626C728.426 202.122 728.136 201.525 727.95 200.834C727.782 200.143 727.698 199.378 727.698 198.538V192.098ZM740.651 197.054C740.651 195.934 740.847 194.935 741.239 194.058C741.631 193.162 742.144 192.406 742.779 191.79C743.432 191.174 744.169 190.707 744.991 190.39C745.831 190.054 746.689 189.886 747.567 189.886C748.537 189.886 749.405 190.045 750.171 190.362C750.936 190.661 751.58 191.09 752.103 191.65C752.644 192.21 753.055 192.882 753.335 193.666C753.615 194.45 753.755 195.318 753.755 196.27C753.755 196.513 753.745 196.755 753.727 196.998C753.727 197.222 753.708 197.418 753.671 197.586H743.031C743.049 198.314 743.189 198.967 743.451 199.546C743.731 200.125 744.095 200.619 744.543 201.03C745.009 201.441 745.551 201.758 746.167 201.982C746.801 202.206 747.492 202.318 748.239 202.318C749.041 202.318 749.769 202.206 750.423 201.982C751.095 201.758 751.748 201.45 752.383 201.058L753.195 202.57C752.523 202.999 751.757 203.373 750.899 203.69C750.04 204.007 749.06 204.166 747.959 204.166C746.951 204.166 745.999 204.007 745.103 203.69C744.225 203.354 743.451 202.887 742.779 202.29C742.125 201.674 741.603 200.927 741.211 200.05C740.837 199.173 740.651 198.174 740.651 197.054ZM751.627 195.934C751.627 194.571 751.272 193.526 750.563 192.798C749.853 192.07 748.864 191.706 747.595 191.706C747.035 191.706 746.493 191.799 745.971 191.986C745.467 192.173 745.009 192.453 744.599 192.826C744.188 193.181 743.843 193.619 743.563 194.142C743.283 194.665 743.096 195.262 743.003 195.934H751.627ZM757.776 200.302C757.776 199.537 757.953 198.874 758.308 198.314C758.681 197.735 759.26 197.241 760.044 196.83C760.846 196.419 761.873 196.083 763.124 195.822C764.374 195.561 765.877 195.355 767.632 195.206C767.613 194.739 767.538 194.301 767.408 193.89C767.277 193.479 767.072 193.125 766.792 192.826C766.512 192.509 766.138 192.257 765.672 192.07C765.224 191.883 764.673 191.79 764.02 191.79C763.124 191.79 762.265 191.967 761.444 192.322C760.622 192.658 759.894 193.022 759.26 193.414L758.364 191.846C758.7 191.622 759.092 191.398 759.54 191.174C760.006 190.931 760.492 190.717 760.996 190.53C761.518 190.343 762.069 190.194 762.648 190.082C763.226 189.951 763.814 189.886 764.412 189.886C766.278 189.886 767.66 190.399 768.556 191.426C769.47 192.434 769.928 193.787 769.928 195.486V203.83H768.052L767.856 201.982H767.772C767.006 202.579 766.157 203.093 765.224 203.522C764.309 203.951 763.366 204.166 762.396 204.166C761.761 204.166 761.164 204.073 760.604 203.886C760.044 203.718 759.549 203.475 759.12 203.158C758.709 202.822 758.382 202.421 758.14 201.954C757.897 201.469 757.776 200.918 757.776 200.302ZM760.016 200.134C760.016 200.526 760.1 200.862 760.268 201.142C760.436 201.403 760.65 201.627 760.912 201.814C761.192 201.982 761.509 202.113 761.864 202.206C762.237 202.281 762.62 202.318 763.012 202.318C763.796 202.318 764.561 202.15 765.308 201.814C766.073 201.459 766.848 200.955 767.632 200.302V196.718C766.176 196.83 764.953 196.989 763.964 197.194C762.993 197.399 762.209 197.651 761.612 197.95C761.033 198.23 760.622 198.557 760.38 198.93C760.137 199.285 760.016 199.686 760.016 200.134ZM773.977 190.222H775.769L775.965 192.014H776.049C776.385 191.379 776.777 190.866 777.225 190.474C777.692 190.082 778.317 189.886 779.101 189.886C780.482 189.886 781.341 190.67 781.677 192.238C782.088 191.529 782.536 190.959 783.021 190.53C783.506 190.101 784.132 189.886 784.897 189.886C785.849 189.886 786.577 190.25 787.081 190.978C787.604 191.687 787.865 192.723 787.865 194.086V203.83H785.653V194.282C785.653 192.677 785.158 191.874 784.169 191.874C783.684 191.874 783.264 192.051 782.909 192.406C782.554 192.742 782.2 193.265 781.845 193.974V203.83H779.997V194.282C779.997 192.677 779.484 191.874 778.457 191.874C777.972 191.874 777.561 192.051 777.225 192.406C776.889 192.742 776.544 193.265 776.189 193.974V203.83H773.977V190.222ZM795.218 201.814C795.218 201.105 795.433 200.535 795.862 200.106C796.31 199.658 796.851 199.434 797.486 199.434C798.121 199.434 798.653 199.658 799.082 200.106C799.53 200.535 799.754 201.105 799.754 201.814C799.754 202.523 799.53 203.093 799.082 203.522C798.653 203.951 798.121 204.166 797.486 204.166C796.851 204.166 796.31 203.951 795.862 203.522C795.433 203.093 795.218 202.523 795.218 201.814Z"
    fill="#11269C"
  />
  <path
    d="M201.18 92.199C150.157 109.27 133.852 100.447 134.428 93.7344C152.011 89.1946 189.364 80.3835 198.11 81.4577C206.857 82.5319 203.801 89.0662 201.18 92.199Z"
    fill="white"
    stroke="#11269C"
    stroke-width="2"
  />
  <path
    d="M222.485 84.8701C222.485 87.2053 221.016 90.0139 218.44 92.2784C215.888 94.5216 212.374 96.1124 208.515 96.1124C204.657 96.1124 201.143 94.5216 198.591 92.2784C196.015 90.0139 194.546 87.2053 194.546 84.8701C194.546 82.5973 195.948 80.4114 198.48 78.7467C201.004 77.0874 204.549 76.0286 208.515 76.0286C212.482 76.0286 216.027 77.0874 218.551 78.7467C221.083 80.4114 222.485 82.5973 222.485 84.8701Z"
    fill="white"
    stroke="#11269C"
    stroke-width="2"
  />
  <path
    d="M107.957 88.7463C138.712 80.3701 202.868 65.6895 213.456 73.9762C188.456 87.7232 132.356 109.923 107.957 88.7463Z"
    fill="white"
    stroke="#11269C"
    stroke-width="2"
  />
  <path
    d="M254.817 128.259H239.735C239.238 126.039 239.941 124.224 240.355 123.594C231.553 104.144 220.899 94.1816 216.672 91.6316C213.808 89.2563 210.28 85.4907 219.082 89.4309C227.885 93.3711 239.377 113.289 244.023 122.755C260.475 117.251 258.484 128.259 254.817 128.259Z"
    fill="white"
    stroke="#11269C"
    stroke-width="2"
  />
  <path
    d="M106.263 128.26H121.345C121.842 126.04 121.138 124.225 120.725 123.595C129.527 104.145 156.515 63.7878 160.741 61.2378C163.606 58.8625 167.134 55.0969 158.331 59.0371C149.528 62.9773 121.703 113.29 117.057 122.756C100.605 117.252 102.596 128.26 106.263 128.26Z"
    fill="white"
    stroke="#11269C"
    stroke-width="2"
  />
  <path
    d="M169.372 71.6954C166.191 65.6216 151.918 60.8532 152.199 58.5C153.768 45.3774 178.591 66.9958 184.737 73.8648C190.883 80.7339 191.606 90.1336 184.737 91.9413C177.868 93.7489 173.349 79.2878 169.372 71.6954Z"
    fill="white"
    stroke="#11269C"
    stroke-width="2"
  />
  <path
    fill-rule="evenodd"
    clip-rule="evenodd"
    d="M203.111 92.2392C204.223 92.2737 205.097 93.203 205.062 94.315C204.949 97.9624 208.158 109.411 223.752 121.147C224.64 121.816 224.819 123.079 224.15 123.968C223.481 124.856 222.218 125.035 221.329 124.366C205.065 112.125 200.869 99.5549 201.035 94.1902C201.07 93.0782 201.999 92.2047 203.111 92.2392Z"
    fill="white"
    stroke="#11269C"
    stroke-width="2"
    stroke-linecap="round"
  />
  <path
    d="M229.876 128.101H215.729C214.157 119.087 228.828 118.459 229.876 128.101Z"
    fill="white"
    stroke="#11269C"
    stroke-width="2"
  />
  <circle
    cx="218.918"
    cy="71.2544"
    r="8.8415"
    fill="white"
    stroke="#11269C"
    stroke-width="2"
  />
  <path
    fill-rule="evenodd"
    clip-rule="evenodd"
    d="M218.177 68.4501L216.91 69.884L218.314 70.8073C218.095 72.2744 217.328 73.3577 216.416 73.3577C215.334 73.3577 214.456 71.8315 214.456 69.9487C214.456 68.066 215.334 66.5397 216.416 66.5397C217.19 66.5397 217.858 67.3187 218.177 68.4501Z"
    fill="#11269C"
  />
  <path
    fill-rule="evenodd"
    clip-rule="evenodd"
    d="M225.118 68.45L223.851 69.884L225.254 70.8073C225.035 72.2744 224.269 73.3577 223.357 73.3577C222.274 73.3577 221.397 71.8315 221.397 69.9487C221.397 68.066 222.274 66.5397 223.357 66.5397C224.13 66.5397 224.799 67.3187 225.118 68.45Z"
    fill="#11269C"
  />
  <path
    d="M217.516 75.0651C218.365 76.1772 220.527 77.7342 222.388 75.0651"
    stroke="#11269C"
    stroke-width="2"
    stroke-linecap="round"
  />
  <path
    d="M229.717 77.3607C227.953 75.5514 223.215 78.8684 221.067 80.753L220.501 85.2762C221.161 86.4069 223.294 88.9511 226.551 90.0818C230.621 91.4952 231.922 79.6222 229.717 77.3607Z"
    fill="#FF596A"
    stroke="#11269C"
    stroke-width="2"
  />
  <path
    d="M220.897 82.3923C223.543 82.3155 229.169 81.7036 230.5 79.8704"
    stroke="#11269C"
    stroke-width="2"
  />
  <path
    d="M206.411 77.0956C208.423 75.1647 213.828 78.7047 216.279 80.7161L216.924 85.5436C216.171 86.7504 213.738 89.4657 210.022 90.6725C205.379 92.181 203.895 79.5092 206.411 77.0956Z"
    fill="#FF596A"
    stroke="#11269C"
    stroke-width="2"
  />
  <path
    d="M216.472 82.4673C213.453 82.3853 207.036 81.7323 205.516 79.7758"
    stroke="#11269C"
    stroke-width="2"
  />
  <circle
    cx="218.444"
    cy="83.2101"
    r="2.98812"
    fill="#FF596A"
    stroke="#11269C"
    stroke-width="2"
  />
  <path
    d="M200.898 93.4408C201.896 92.9503 202.308 91.7432 201.818 90.7447C201.327 89.7462 200.12 89.3344 199.122 89.8248C194.096 92.2935 190.628 95.2778 188.419 98.5764C186.203 101.885 185.328 105.402 185.326 108.802C185.324 113.171 186.757 117.329 188.598 120.714C188.619 120.752 191.738 122.022 191.759 122.059C191.724 122.056 188.592 120.82 188.558 120.817C187.524 120.727 186.559 120.773 185.754 120.987C181.982 121.993 180.484 127.388 182.721 128.137H198.021C199.353 126.216 197.5 124.129 194.72 122.67C192.077 119.415 189.352 114.169 189.355 108.804C189.356 106.121 190.037 103.4 191.766 100.818C193.502 98.2259 196.366 95.6667 200.898 93.4408Z"
    fill="white"
  />
  <path
    d="M201.818 90.7447L200.92 91.1856L201.818 90.7447ZM200.898 93.4408L201.339 94.3384V94.3384L200.898 93.4408ZM199.122 89.8248L199.563 90.7224V90.7224L199.122 89.8248ZM188.419 98.5764L187.588 98.02V98.02L188.419 98.5764ZM185.326 108.802L186.326 108.802L185.326 108.802ZM191.759 122.059L191.663 123.055C192.032 123.09 192.39 122.919 192.594 122.609C192.798 122.299 192.813 121.903 192.635 121.578L191.759 122.059ZM185.754 120.987L186.012 121.953H186.012L185.754 120.987ZM182.721 128.137L182.404 129.085L182.558 129.137H182.721V128.137ZM198.021 128.137V129.137H198.545L198.843 128.707L198.021 128.137ZM194.72 122.67L193.943 123.3L194.073 123.46L194.255 123.555L194.72 122.67ZM189.355 108.804L188.355 108.804L189.355 108.804ZM191.766 100.818L190.935 100.262L191.766 100.818ZM188.598 120.714L187.72 121.192L188.598 120.714ZM188.558 120.817L188.47 121.814L188.558 120.817ZM200.92 91.1856C201.167 91.6884 200.96 92.2963 200.457 92.5433L201.339 94.3384C202.833 93.6044 203.449 91.7981 202.715 90.3038L200.92 91.1856ZM199.563 90.7224C200.065 90.4754 200.673 90.6828 200.92 91.1856L202.715 90.3038C201.981 88.8096 200.175 88.1933 198.681 88.9273L199.563 90.7224ZM189.25 99.1328C191.341 96.0096 194.66 93.1308 199.563 90.7224L198.681 88.9273C193.533 91.4561 189.914 94.5459 187.588 98.02L189.25 99.1328ZM186.326 108.802C186.328 105.581 187.155 102.261 189.25 99.1328L187.588 98.02C185.251 101.509 184.328 105.224 184.326 108.801L186.326 108.802ZM185.497 120.021C183.211 120.63 181.688 122.533 181.044 124.318C180.719 125.216 180.581 126.177 180.737 127.026C180.897 127.895 181.401 128.749 182.404 129.085L183.039 127.189C182.923 127.15 182.775 127.049 182.704 126.664C182.63 126.26 182.683 125.668 182.925 124.998C183.413 123.647 184.525 122.35 186.012 121.953L185.497 120.021ZM182.721 129.137H198.021V127.137H182.721V129.137ZM198.843 128.707C199.294 128.056 199.501 127.346 199.456 126.617C199.413 125.902 199.133 125.245 198.739 124.667C197.963 123.529 196.641 122.549 195.185 121.784L194.255 123.555C195.579 124.25 196.574 125.043 197.087 125.794C197.336 126.16 197.444 126.475 197.46 126.738C197.475 126.986 197.415 127.257 197.199 127.567L198.843 128.707ZM188.355 108.804C188.351 114.476 191.214 119.938 193.943 123.3L195.496 122.039C192.941 118.892 190.352 113.862 190.355 108.805L188.355 108.804ZM190.935 100.262C189.086 103.024 188.356 105.942 188.355 108.804L190.355 108.805C190.356 106.299 190.989 103.776 192.597 101.374L190.935 100.262ZM200.457 92.5433C195.803 94.8295 192.788 97.4942 190.935 100.262L192.597 101.374C194.215 98.9576 196.93 96.504 201.339 94.3384L200.457 92.5433ZM192.635 121.578C192.537 121.4 192.408 121.299 192.394 121.287C192.353 121.253 192.318 121.229 192.301 121.218C192.265 121.195 192.234 121.179 192.222 121.172C192.193 121.156 192.165 121.143 192.148 121.135C192.111 121.117 192.066 121.097 192.02 121.077C191.926 121.035 191.797 120.98 191.648 120.917C191.35 120.791 190.954 120.627 190.563 120.464C190.169 120.3 189.78 120.137 189.487 120.014C189.34 119.952 189.222 119.901 189.142 119.866C189.1 119.848 189.076 119.837 189.066 119.832C189.058 119.828 189.067 119.832 189.084 119.841C189.09 119.844 189.116 119.858 189.148 119.879C189.163 119.889 189.197 119.912 189.237 119.945C189.251 119.957 189.38 120.058 189.477 120.236L187.72 121.192C187.817 121.371 187.946 121.473 187.961 121.485C188.002 121.519 188.038 121.543 188.055 121.554C188.091 121.578 188.121 121.594 188.134 121.601C188.163 121.617 188.191 121.63 188.208 121.638C188.245 121.656 188.29 121.676 188.336 121.696C188.431 121.738 188.56 121.793 188.708 121.856C189.007 121.982 189.402 122.147 189.794 122.31C190.187 122.474 190.577 122.636 190.87 122.76C191.017 122.822 191.135 122.872 191.215 122.908C191.257 122.926 191.281 122.937 191.291 122.942C191.299 122.945 191.29 122.941 191.274 122.933C191.267 122.929 191.242 122.916 191.21 122.895C191.195 122.885 191.161 122.863 191.121 122.83C191.108 122.818 190.979 122.718 190.882 122.541L192.635 121.578ZM189.477 120.236C187.69 116.952 186.324 112.958 186.326 108.802L184.326 108.801C184.323 113.383 185.824 117.707 187.72 121.192L189.477 120.236ZM191.854 121.064C191.913 121.07 191.959 121.079 191.974 121.083C191.994 121.087 192.011 121.092 192.02 121.094C192.038 121.099 192.052 121.104 192.058 121.105C192.07 121.109 192.078 121.112 192.078 121.112C192.08 121.113 192.076 121.111 192.066 121.108C192.046 121.1 192.014 121.088 191.97 121.071C191.884 121.038 191.761 120.99 191.611 120.932C191.313 120.816 190.918 120.662 190.522 120.507C190.127 120.352 189.73 120.197 189.43 120.08C189.28 120.022 189.153 119.973 189.061 119.938C189.016 119.92 188.977 119.905 188.947 119.894C188.933 119.889 188.916 119.883 188.9 119.877C188.893 119.875 188.879 119.87 188.863 119.865C188.855 119.863 188.839 119.858 188.819 119.852C188.809 119.849 188.791 119.845 188.77 119.84C188.754 119.837 188.707 119.827 188.645 119.821L188.47 121.814C188.409 121.808 188.362 121.798 188.347 121.795C188.325 121.79 188.308 121.786 188.299 121.783C188.28 121.778 188.265 121.774 188.26 121.772C188.248 121.768 188.239 121.765 188.239 121.765C188.237 121.764 188.24 121.765 188.251 121.769C188.271 121.777 188.302 121.789 188.346 121.805C188.432 121.838 188.556 121.886 188.705 121.944C189.003 122.06 189.398 122.215 189.794 122.37C190.189 122.524 190.586 122.679 190.886 122.796C191.036 122.855 191.163 122.904 191.255 122.939C191.3 122.956 191.339 122.971 191.369 122.982C191.383 122.987 191.399 122.993 191.415 122.999C191.422 123.001 191.436 123.006 191.452 123.011C191.459 123.014 191.475 123.018 191.494 123.024C191.504 123.027 191.521 123.031 191.542 123.036C191.558 123.039 191.603 123.049 191.663 123.055L191.854 121.064ZM188.645 119.821C187.538 119.724 186.449 119.767 185.497 120.021L186.012 121.953C186.669 121.778 187.509 121.729 188.47 121.814L188.645 119.821Z"
    fill="#11269C"
  />
  <path
    fill-rule="evenodd"
    clip-rule="evenodd"
    d="M86.9376 28.5005C87.3739 28.1554 88.0073 28.2293 88.3523 28.6656C95.7335 37.9978 117.972 55.0539 147.605 48.3101C178.129 41.3636 205.536 55.2226 215.472 63.0483C215.909 63.3924 215.984 64.0257 215.64 64.4627C215.296 64.8996 214.663 64.9749 214.226 64.6307C204.593 57.0435 177.795 43.5054 148.052 50.2742C117.419 57.2456 94.458 39.6322 86.7724 29.9152C86.4274 29.4789 86.5013 28.8455 86.9376 28.5005Z"
    fill="#11269C"
  />
  <path
    fill-rule="evenodd"
    clip-rule="evenodd"
    d="M126.702 36.1365C167.604 21.1914 195.994 33.5188 211.771 44.0372C218.133 48.2786 221.127 52.3462 222.475 55.7745C223.717 58.9312 223.518 61.4547 223.412 62.8047C223.402 62.9215 223.394 63.0296 223.387 63.1285C223.349 63.6835 222.868 64.1023 222.313 64.064C221.758 64.0257 221.339 63.5449 221.377 62.9899C221.385 62.8867 221.393 62.7769 221.402 62.6607C221.504 61.3496 221.669 59.2272 220.601 56.5116C219.438 53.5538 216.761 49.7848 210.654 45.7132C195.258 35.4494 167.539 23.3597 127.393 38.0285C126.87 38.2194 126.292 37.9507 126.101 37.4282C125.91 36.9057 126.179 36.3274 126.702 36.1365Z"
    fill="#11269C"
  />
  <path
    d="M670.772 92.199C619.749 109.27 603.445 100.447 604.02 93.7344C621.603 89.1946 658.956 80.3835 667.703 81.4577C676.45 82.5319 673.394 89.0662 670.772 92.199Z"
    fill="white"
  />
  <path
    d="M670.772 92.199C619.749 109.27 603.445 100.447 604.02 93.7344C621.603 89.1946 658.956 80.3835 667.703 81.4577C676.45 82.5319 673.394 89.0662 670.772 92.199Z"
    fill="#11269C"
    fill-opacity="0.6"
  />
  <path
    d="M670.772 92.199C619.749 109.27 603.445 100.447 604.02 93.7344C621.603 89.1946 658.956 80.3835 667.703 81.4577C676.45 82.5319 673.394 89.0662 670.772 92.199Z"
    stroke="#11269C"
    stroke-width="2"
  />
  <path
    d="M692.077 84.8701C692.077 87.2053 690.609 90.0139 688.033 92.2784C685.481 94.5216 681.967 96.1124 678.108 96.1124C674.249 96.1124 670.735 94.5216 668.183 92.2784C665.607 90.0139 664.139 87.2053 664.139 84.8701C664.139 82.5973 665.54 80.4114 668.072 78.7467C670.596 77.0874 674.141 76.0286 678.108 76.0286C682.074 76.0286 685.62 77.0874 688.143 78.7467C690.675 80.4114 692.077 82.5973 692.077 84.8701Z"
    fill="white"
  />
  <path
    d="M692.077 84.8701C692.077 87.2053 690.609 90.0139 688.033 92.2784C685.481 94.5216 681.967 96.1124 678.108 96.1124C674.249 96.1124 670.735 94.5216 668.183 92.2784C665.607 90.0139 664.139 87.2053 664.139 84.8701C664.139 82.5973 665.54 80.4114 668.072 78.7467C670.596 77.0874 674.141 76.0286 678.108 76.0286C682.074 76.0286 685.62 77.0874 688.143 78.7467C690.675 80.4114 692.077 82.5973 692.077 84.8701Z"
    fill="#11269C"
    fill-opacity="0.6"
  />
  <path
    d="M692.077 84.8701C692.077 87.2053 690.609 90.0139 688.033 92.2784C685.481 94.5216 681.967 96.1124 678.108 96.1124C674.249 96.1124 670.735 94.5216 668.183 92.2784C665.607 90.0139 664.139 87.2053 664.139 84.8701C664.139 82.5973 665.54 80.4114 668.072 78.7467C670.596 77.0874 674.141 76.0286 678.108 76.0286C682.074 76.0286 685.62 77.0874 688.143 78.7467C690.675 80.4114 692.077 82.5973 692.077 84.8701Z"
    stroke="#11269C"
    stroke-width="2"
  />
  <path
    d="M577.55 88.7463C608.304 80.3701 672.46 65.6895 683.048 73.9762C658.048 87.7232 601.949 109.923 577.55 88.7463Z"
    fill="white"
  />
  <path
    d="M577.55 88.7463C608.304 80.3701 672.46 65.6895 683.048 73.9762C658.048 87.7232 601.949 109.923 577.55 88.7463Z"
    fill="#11269C"
    fill-opacity="0.6"
  />
  <path
    d="M577.55 88.7463C608.304 80.3701 672.46 65.6895 683.048 73.9762C658.048 87.7232 601.949 109.923 577.55 88.7463Z"
    stroke="#11269C"
    stroke-width="2"
  />
  <path
    d="M724.409 128.259H709.327C708.831 126.039 709.534 124.224 709.948 123.594C701.145 104.144 690.491 94.1816 686.264 91.6316C683.4 89.2563 679.872 85.4907 688.675 89.4309C697.477 93.3711 708.97 113.289 713.615 122.755C730.068 117.251 728.077 128.259 724.409 128.259Z"
    fill="white"
  />
  <path
    d="M724.409 128.259H709.327C708.831 126.039 709.534 124.224 709.948 123.594C701.145 104.144 690.491 94.1816 686.264 91.6316C683.4 89.2563 679.872 85.4907 688.675 89.4309C697.477 93.3711 708.97 113.289 713.615 122.755C730.068 117.251 728.077 128.259 724.409 128.259Z"
    fill="#11269C"
    fill-opacity="0.6"
  />
  <path
    d="M724.409 128.259H709.327C708.831 126.039 709.534 124.224 709.948 123.594C701.145 104.144 690.491 94.1816 686.264 91.6316C683.4 89.2563 679.872 85.4907 688.675 89.4309C697.477 93.3711 708.97 113.289 713.615 122.755C730.068 117.251 728.077 128.259 724.409 128.259Z"
    stroke="#11269C"
    stroke-width="2"
  />
  <path
    d="M575.856 128.26H590.938C591.434 126.04 590.731 124.225 590.317 123.595C599.12 104.145 626.107 63.7878 630.334 61.2378C633.198 58.8625 636.726 55.0969 627.924 59.0371C619.121 62.9773 591.295 113.29 586.65 122.756C570.197 117.252 572.188 128.26 575.856 128.26Z"
    fill="white"
  />
  <path
    d="M575.856 128.26H590.938C591.434 126.04 590.731 124.225 590.317 123.595C599.12 104.145 626.107 63.7878 630.334 61.2378C633.198 58.8625 636.726 55.0969 627.924 59.0371C619.121 62.9773 591.295 113.29 586.65 122.756C570.197 117.252 572.188 128.26 575.856 128.26Z"
    fill="#11269C"
    fill-opacity="0.6"
  />
  <path
    d="M575.856 128.26H590.938C591.434 126.04 590.731 124.225 590.317 123.595C599.12 104.145 626.107 63.7878 630.334 61.2378C633.198 58.8625 636.726 55.0969 627.924 59.0371C619.121 62.9773 591.295 113.29 586.65 122.756C570.197 117.252 572.188 128.26 575.856 128.26Z"
    stroke="#11269C"
    stroke-width="2"
  />
  <path
    d="M638.965 71.6954C635.783 65.6216 621.511 60.8532 621.792 58.5C623.36 45.3774 648.184 66.9958 654.33 73.8648C660.476 80.7339 661.199 90.1336 654.33 91.9413C647.461 93.7489 642.941 79.2878 638.965 71.6954Z"
    fill="white"
  />
  <path
    d="M638.965 71.6954C635.783 65.6216 621.511 60.8532 621.792 58.5C623.36 45.3774 648.184 66.9958 654.33 73.8648C660.476 80.7339 661.199 90.1336 654.33 91.9413C647.461 93.7489 642.941 79.2878 638.965 71.6954Z"
    fill="#11269C"
    fill-opacity="0.6"
  />
  <path
    d="M638.965 71.6954C635.783 65.6216 621.511 60.8532 621.792 58.5C623.36 45.3774 648.184 66.9958 654.33 73.8648C660.476 80.7339 661.199 90.1336 654.33 91.9413C647.461 93.7489 642.941 79.2878 638.965 71.6954Z"
    stroke="#11269C"
    stroke-width="2"
  />
  <path
    fill-rule="evenodd"
    clip-rule="evenodd"
    d="M672.704 92.2392C673.816 92.2737 674.689 93.203 674.655 94.315C674.542 97.9624 677.751 109.411 693.344 121.147C694.233 121.816 694.411 123.079 693.742 123.968C693.073 124.856 691.81 125.035 690.921 124.366C674.658 112.125 670.462 99.5549 670.628 94.1902C670.662 93.0782 671.592 92.2047 672.704 92.2392Z"
    fill="white"
  />
  <path
    fill-rule="evenodd"
    clip-rule="evenodd"
    d="M672.704 92.2392C673.816 92.2737 674.689 93.203 674.655 94.315C674.542 97.9624 677.751 109.411 693.344 121.147C694.233 121.816 694.411 123.079 693.742 123.968C693.073 124.856 691.81 125.035 690.921 124.366C674.658 112.125 670.462 99.5549 670.628 94.1902C670.662 93.0782 671.592 92.2047 672.704 92.2392Z"
    fill="#11269C"
    fill-opacity="0.6"
  />
  <path
    fill-rule="evenodd"
    clip-rule="evenodd"
    d="M672.704 92.2392C673.816 92.2737 674.689 93.203 674.655 94.315C674.542 97.9624 677.751 109.411 693.344 121.147C694.233 121.816 694.411 123.079 693.742 123.968C693.073 124.856 691.81 125.035 690.921 124.366C674.658 112.125 670.462 99.5549 670.628 94.1902C670.662 93.0782 671.592 92.2047 672.704 92.2392Z"
    stroke="#11269C"
    stroke-width="2"
    stroke-linecap="round"
  />
  <path
    d="M699.468 128.101H685.321C683.749 119.087 698.42 118.459 699.468 128.101Z"
    fill="white"
  />
  <path
    d="M699.468 128.101H685.321C683.749 119.087 698.42 118.459 699.468 128.101Z"
    fill="#11269C"
    fill-opacity="0.6"
  />
  <path
    d="M699.468 128.101H685.321C683.749 119.087 698.42 118.459 699.468 128.101Z"
    stroke="#11269C"
    stroke-width="2"
  />
  <circle cx="688.51" cy="71.2544" r="8.8415" fill="white" />
  <circle cx="688.51" cy="71.2544" r="8.8415" fill="#11269C" fill-opacity="0.6" />
  <circle cx="688.51" cy="71.2544" r="8.8415" stroke="#11269C" stroke-width="2" />
  <path
    fill-rule="evenodd"
    clip-rule="evenodd"
    d="M687.77 68.4501L686.502 69.884L687.906 70.8073C687.687 72.2744 686.921 73.3577 686.009 73.3577C684.926 73.3577 684.049 71.8315 684.049 69.9487C684.049 68.066 684.926 66.5397 686.009 66.5397C686.782 66.5397 687.451 67.3187 687.77 68.4501Z"
    fill="#11269C"
  />
  <path
    fill-rule="evenodd"
    clip-rule="evenodd"
    d="M694.71 68.45L693.443 69.884L694.847 70.8073C694.628 72.2744 693.861 73.3577 692.949 73.3577C691.867 73.3577 690.989 71.8315 690.989 69.9487C690.989 68.066 691.867 66.5397 692.949 66.5397C693.723 66.5397 694.392 67.3187 694.71 68.45Z"
    fill="#11269C"
  />
  <path
    d="M687.108 75.0651C687.957 76.1772 690.12 77.7342 691.981 75.0651"
    stroke="#11269C"
    stroke-width="2"
    stroke-linecap="round"
  />
  <path
    d="M699.309 77.3607C697.545 75.5514 692.808 78.8684 690.659 80.753L690.094 85.2762C690.753 86.4069 692.887 88.9511 696.143 90.0818C700.214 91.4952 701.514 79.6222 699.309 77.3607Z"
    fill="#FF596A"
    stroke="#11269C"
    stroke-width="2"
  />
  <path
    d="M690.49 82.3923C693.136 82.3155 698.761 81.7036 700.093 79.8704"
    stroke="#11269C"
    stroke-width="2"
  />
  <path
    d="M676.003 77.0956C678.015 75.1647 683.42 78.7047 685.871 80.7161L686.516 85.5436C685.764 86.7504 683.33 89.4657 679.615 90.6725C674.971 92.181 673.488 79.5092 676.003 77.0956Z"
    fill="#FF596A"
    stroke="#11269C"
    stroke-width="2"
  />
  <path
    d="M686.065 82.4673C683.046 82.3853 676.628 81.7323 675.109 79.7758"
    stroke="#11269C"
    stroke-width="2"
  />
  <circle
    cx="688.037"
    cy="83.2101"
    r="2.98812"
    fill="#FF596A"
    stroke="#11269C"
    stroke-width="2"
  />
  <path
    d="M670.49 93.4408C671.489 92.9503 671.901 91.7432 671.41 90.7447C670.92 89.7462 669.713 89.3344 668.714 89.8248C663.689 92.2935 660.22 95.2778 658.011 98.5764C655.796 101.885 654.921 105.402 654.919 108.802C654.916 113.171 656.35 117.329 658.191 120.714C658.211 120.752 661.33 122.022 661.351 122.059C661.317 122.056 658.184 120.82 658.15 120.817C657.116 120.727 656.151 120.773 655.347 120.987C651.574 121.993 650.077 127.388 652.314 128.137H667.614C668.946 126.216 667.093 124.129 664.312 122.67C661.67 119.415 658.944 114.169 658.947 108.804C658.949 106.121 659.63 103.4 661.359 100.818C663.095 98.2259 665.959 95.6667 670.49 93.4408Z"
    fill="white"
  />
  <path
    d="M670.49 93.4408C671.489 92.9503 671.901 91.7432 671.41 90.7447C670.92 89.7462 669.713 89.3344 668.714 89.8248C663.689 92.2935 660.22 95.2778 658.011 98.5764C655.796 101.885 654.921 105.402 654.919 108.802C654.916 113.171 656.35 117.329 658.191 120.714C658.211 120.752 661.33 122.022 661.351 122.059C661.317 122.056 658.184 120.82 658.15 120.817C657.116 120.727 656.151 120.773 655.347 120.987C651.574 121.993 650.077 127.388 652.314 128.137H667.614C668.946 126.216 667.093 124.129 664.312 122.67C661.67 119.415 658.944 114.169 658.947 108.804C658.949 106.121 659.63 103.4 661.359 100.818C663.095 98.2259 665.959 95.6667 670.49 93.4408Z"
    fill="#11269C"
    fill-opacity="0.6"
  />
  <path
    d="M671.41 90.7447L670.513 91.1856L671.41 90.7447ZM670.49 93.4408L670.931 94.3384V94.3384L670.49 93.4408ZM668.714 89.8248L669.155 90.7224V90.7224L668.714 89.8248ZM658.011 98.5764L657.18 98.02V98.02L658.011 98.5764ZM654.919 108.802L655.919 108.802L654.919 108.802ZM661.351 122.059L661.256 123.055C661.624 123.09 661.983 122.919 662.186 122.609C662.39 122.299 662.406 121.903 662.228 121.578L661.351 122.059ZM655.347 120.987L655.604 121.953H655.604L655.347 120.987ZM652.314 128.137L651.996 129.085L652.151 129.137H652.314V128.137ZM667.614 128.137V129.137H668.137L668.435 128.707L667.614 128.137ZM664.312 122.67L663.536 123.3L663.666 123.46L663.847 123.555L664.312 122.67ZM658.947 108.804L657.947 108.804L658.947 108.804ZM661.359 100.818L660.528 100.262L661.359 100.818ZM658.191 120.714L657.312 121.192L658.191 120.714ZM658.15 120.817L658.063 121.814L658.15 120.817ZM670.513 91.1856C670.76 91.6884 670.552 92.2963 670.05 92.5433L670.931 94.3384C672.426 93.6044 673.042 91.7981 672.308 90.3038L670.513 91.1856ZM669.155 90.7224C669.658 90.4754 670.266 90.6828 670.513 91.1856L672.308 90.3038C671.574 88.8096 669.768 88.1933 668.273 88.9273L669.155 90.7224ZM658.842 99.1328C660.934 96.0096 664.252 93.1308 669.155 90.7224L668.273 88.9273C663.125 91.4561 659.507 94.5459 657.18 98.02L658.842 99.1328ZM655.919 108.802C655.92 105.581 656.747 102.261 658.842 99.1328L657.18 98.02C654.844 101.509 653.921 105.224 653.919 108.801L655.919 108.802ZM655.089 120.021C652.803 120.63 651.281 122.533 650.636 124.318C650.312 125.216 650.174 126.177 650.33 127.026C650.49 127.895 650.993 128.749 651.996 129.085L652.631 127.189C652.516 127.15 652.368 127.049 652.297 126.664C652.223 126.26 652.275 125.668 652.517 124.998C653.005 123.647 654.118 122.35 655.604 121.953L655.089 120.021ZM652.314 129.137H667.614V127.137H652.314V129.137ZM668.435 128.707C668.886 128.056 669.094 127.346 669.049 126.617C669.005 125.902 668.726 125.245 668.331 124.667C667.555 123.529 666.234 122.549 664.777 121.784L663.847 123.555C665.171 124.25 666.167 125.043 666.679 125.794C666.929 126.16 667.037 126.475 667.053 126.738C667.068 126.986 667.007 127.257 666.792 127.567L668.435 128.707ZM657.947 108.804C657.944 114.476 660.806 119.938 663.536 123.3L665.089 122.039C662.533 118.892 659.944 113.862 659.947 108.805L657.947 108.804ZM660.528 100.262C658.678 103.024 657.949 105.942 657.947 108.804L659.947 108.805C659.949 106.299 660.582 103.776 662.19 101.374L660.528 100.262ZM670.05 92.5433C665.395 94.8295 662.381 97.4942 660.528 100.262L662.19 101.374C663.808 98.9576 666.523 96.504 670.931 94.3384L670.05 92.5433ZM662.228 121.578C662.13 121.4 662.001 121.299 661.986 121.287C661.945 121.253 661.91 121.229 661.893 121.218C661.857 121.195 661.827 121.179 661.814 121.172C661.785 121.156 661.758 121.143 661.741 121.135C661.704 121.117 661.659 121.097 661.613 121.077C661.518 121.035 661.389 120.98 661.241 120.917C660.942 120.791 660.547 120.627 660.155 120.464C659.762 120.3 659.372 120.137 659.08 120.014C658.933 119.952 658.815 119.901 658.734 119.866C658.693 119.848 658.669 119.837 658.658 119.832C658.651 119.828 658.66 119.832 658.676 119.841C658.683 119.844 658.708 119.858 658.74 119.879C658.756 119.889 658.79 119.912 658.83 119.945C658.844 119.957 658.972 120.058 659.069 120.236L657.312 121.192C657.409 121.371 657.539 121.473 657.554 121.485C657.595 121.519 657.63 121.543 657.647 121.554C657.683 121.578 657.714 121.594 657.727 121.601C657.756 121.617 657.784 121.63 657.801 121.638C657.838 121.656 657.883 121.676 657.929 121.696C658.023 121.738 658.152 121.793 658.301 121.856C658.6 121.982 658.995 122.147 659.386 122.31C659.78 122.474 660.17 122.636 660.462 122.76C660.609 122.822 660.727 122.872 660.808 122.908C660.849 122.926 660.873 122.937 660.884 122.942C660.891 122.945 660.882 122.941 660.866 122.933C660.86 122.929 660.835 122.916 660.803 122.895C660.787 122.885 660.754 122.863 660.714 122.83C660.7 122.818 660.572 122.718 660.475 122.541L662.228 121.578ZM659.069 120.236C657.283 116.952 655.916 112.958 655.919 108.802L653.919 108.801C653.916 113.383 655.417 117.707 657.312 121.192L659.069 120.236ZM661.447 121.064C661.506 121.07 661.551 121.079 661.566 121.083C661.587 121.087 661.603 121.092 661.613 121.094C661.631 121.099 661.645 121.104 661.65 121.105C661.662 121.109 661.67 121.112 661.67 121.112C661.672 121.113 661.669 121.111 661.658 121.108C661.638 121.1 661.607 121.088 661.563 121.071C661.476 121.038 661.353 120.99 661.204 120.932C660.906 120.816 660.511 120.662 660.115 120.507C659.719 120.352 659.322 120.197 659.022 120.08C658.873 120.022 658.745 119.973 658.654 119.938C658.608 119.92 658.569 119.905 658.539 119.894C658.525 119.889 658.509 119.883 658.493 119.877C658.486 119.875 658.472 119.87 658.456 119.865C658.448 119.863 658.432 119.858 658.412 119.852C658.401 119.849 658.384 119.845 658.362 119.84C658.346 119.837 658.299 119.827 658.238 119.821L658.063 121.814C658.001 121.808 657.954 121.798 657.939 121.795C657.918 121.79 657.901 121.786 657.891 121.783C657.872 121.778 657.858 121.774 657.852 121.772C657.84 121.768 657.832 121.765 657.832 121.765C657.83 121.764 657.833 121.765 657.843 121.769C657.863 121.777 657.895 121.789 657.938 121.805C658.025 121.838 658.148 121.886 658.297 121.944C658.595 122.06 658.99 122.215 659.386 122.37C659.782 122.524 660.179 122.679 660.479 122.796C660.629 122.855 660.756 122.904 660.847 122.939C660.893 122.956 660.932 122.971 660.961 122.982C660.976 122.987 660.992 122.993 661.008 122.999C661.015 123.001 661.028 123.006 661.044 123.011C661.051 123.014 661.067 123.018 661.087 123.024C661.097 123.027 661.114 123.031 661.135 123.036C661.15 123.039 661.196 123.049 661.256 123.055L661.447 121.064ZM658.238 119.821C657.131 119.724 656.041 119.767 655.089 120.021L655.604 121.953C656.261 121.778 657.102 121.729 658.063 121.814L658.238 119.821Z"
    fill="#11269C"
  />
  <path
    fill-rule="evenodd"
    clip-rule="evenodd"
    d="M556.53 28.5005C556.966 28.1554 557.6 28.2293 557.945 28.6656C565.326 37.9978 587.565 55.0539 617.198 48.3101C647.721 41.3636 675.129 55.2226 685.065 63.0483C685.502 63.3924 685.577 64.0257 685.233 64.4627C684.889 64.8996 684.255 64.9749 683.818 64.6307C674.185 57.0435 647.387 43.5054 617.645 50.2742C587.012 57.2456 564.05 39.6322 556.365 29.9152C556.02 29.4789 556.094 28.8455 556.53 28.5005Z"
    fill="#11269C"
  />
  <path
    fill-rule="evenodd"
    clip-rule="evenodd"
    d="M596.294 36.1365C637.196 21.1914 665.586 33.5188 681.363 44.0372C687.725 48.2786 690.72 52.3462 692.068 55.7745C693.309 58.9312 693.11 61.4547 693.004 62.8047C692.995 62.9215 692.986 63.0296 692.98 63.1285C692.941 63.6835 692.46 64.1023 691.906 64.064C691.351 64.0257 690.932 63.5449 690.97 62.9899C690.977 62.8867 690.986 62.7769 690.995 62.6607C691.096 61.3496 691.261 59.2272 690.193 56.5116C689.03 53.5538 686.353 49.7848 680.246 45.7132C664.851 35.4494 637.131 23.3597 596.985 38.0285C596.463 38.2194 595.885 37.9507 595.694 37.4282C595.503 36.9057 595.772 36.3274 596.294 36.1365Z"
    fill="#11269C"
  />
  <path
    d="M435.976 95.2957C384.953 112.367 368.648 103.544 369.224 96.831C386.807 92.2913 424.16 83.4802 432.907 84.5544C441.654 85.6285 438.597 92.1628 435.976 95.2957Z"
    fill="#11269C"
    stroke="white"
    stroke-width="2"
  />
  <path
    d="M457.281 87.9667C457.281 90.302 455.813 93.1106 453.236 95.3751C450.684 97.6183 447.17 99.2091 443.312 99.2091C439.453 99.2091 435.939 97.6183 433.387 95.3751C430.811 93.1106 429.342 90.302 429.342 87.9667C429.342 85.694 430.744 83.508 433.276 81.8433C435.8 80.1841 439.345 79.1252 443.312 79.1252C447.278 79.1252 450.823 80.1841 453.347 81.8433C455.879 83.508 457.281 85.694 457.281 87.9667Z"
    fill="#11269C"
    stroke="white"
    stroke-width="2"
  />
  <path
    d="M342.753 91.843C373.508 83.4668 437.664 68.7862 448.252 77.0728C423.252 90.8199 367.152 113.02 342.753 91.843Z"
    fill="#11269C"
    stroke="white"
    stroke-width="2"
  />
  <path
    d="M489.613 131.356H474.531C474.035 129.135 474.738 127.32 475.151 126.69C466.349 107.241 455.695 97.2783 451.468 94.7282C448.604 92.3529 445.076 88.5874 453.878 92.5276C462.681 96.4678 474.173 116.385 478.819 125.852C495.272 120.348 493.281 131.356 489.613 131.356Z"
    fill="#11269C"
    stroke="white"
    stroke-width="2"
  />
  <path
    d="M341.06 131.357H356.142C356.638 129.137 355.935 127.321 355.521 126.691C364.324 107.242 391.311 66.8845 395.538 64.3344C398.402 61.9591 401.93 58.1936 393.127 62.1338C384.325 66.074 356.499 116.386 351.853 125.853C335.401 120.349 337.392 131.357 341.06 131.357Z"
    fill="#11269C"
    stroke="white"
    stroke-width="2"
  />
  <path
    d="M404.168 74.7921C400.987 68.7183 386.714 63.9499 386.996 61.5967C388.564 48.4741 413.387 70.0924 419.533 76.9615C425.679 83.8306 426.402 93.2303 419.533 95.0379C412.664 96.8456 408.145 82.3844 404.168 74.7921Z"
    fill="#11269C"
    stroke="white"
    stroke-width="2"
  />
  <path
    fill-rule="evenodd"
    clip-rule="evenodd"
    d="M437.907 95.3359C439.019 95.3704 439.893 96.2997 439.858 97.4117C439.745 101.059 442.955 112.508 458.548 124.243C459.437 124.912 459.615 126.175 458.946 127.064C458.277 127.953 457.014 128.131 456.125 127.462C439.861 115.222 435.665 102.652 435.832 97.2868C435.866 96.1749 436.795 95.3014 437.907 95.3359Z"
    fill="#11269C"
    stroke="white"
    stroke-width="2"
    stroke-linecap="round"
  />
  <path
    d="M464.672 131.197H450.525C448.953 122.184 463.624 121.556 464.672 131.197Z"
    fill="#11269C"
    stroke="white"
    stroke-width="2"
  />
  <circle
    cx="453.714"
    cy="74.3511"
    r="8.8415"
    fill="#11269C"
    stroke="white"
    stroke-width="2"
  />
  <path
    fill-rule="evenodd"
    clip-rule="evenodd"
    d="M452.767 71.9077L451.805 72.9966L452.87 73.6976C452.704 74.8115 452.122 75.6339 451.43 75.6339C450.608 75.6339 449.941 74.475 449.941 73.0454C449.941 71.6158 450.608 70.4568 451.43 70.4568C452.017 70.4568 452.525 71.0484 452.767 71.9077Z"
    fill="white"
  />
  <path
    fill-rule="evenodd"
    clip-rule="evenodd"
    d="M459.032 71.9077L458.069 72.9966L459.135 73.6976C458.969 74.8115 458.387 75.6339 457.694 75.6339C456.872 75.6339 456.206 74.475 456.206 73.0454C456.206 71.6158 456.872 70.4568 457.694 70.4568C458.282 70.4568 458.789 71.0484 459.032 71.9077Z"
    fill="white"
  />
  <path
    d="M452.312 78.1617C453.161 78.9967 455.323 80.1657 457.185 78.1617"
    stroke="white"
    stroke-width="2"
    stroke-linecap="round"
  />
  <path
    d="M464.513 80.4573C462.749 78.6481 458.011 81.965 455.863 83.8496L455.297 88.3728C455.957 89.5036 458.09 92.0477 461.347 93.1785C465.418 94.5919 466.718 82.7188 464.513 80.4573Z"
    fill="#FF94B8"
    stroke="#11269C"
    stroke-width="2"
  />
  <path
    d="M455.693 85.489C458.34 85.4121 463.965 84.8002 465.297 82.9671"
    stroke="#11269C"
    stroke-width="2"
  />
  <path
    d="M441.207 80.1923C443.219 78.2614 448.624 81.8014 451.075 83.8128L451.72 88.6402C450.967 89.847 448.534 92.5623 444.819 93.7691C440.175 95.2776 438.691 82.6059 441.207 80.1923Z"
    fill="#FF94B8"
    stroke="#11269C"
    stroke-width="2"
  />
  <path
    d="M451.268 85.564C448.25 85.482 441.832 84.8289 440.313 82.8725"
    stroke="#11269C"
    stroke-width="2"
  />
  <circle
    cx="453.241"
    cy="86.3068"
    r="2.98812"
    fill="#FF94B8"
    stroke="#11269C"
    stroke-width="2"
  />
  <path
    d="M435.694 96.5375C436.693 96.047 437.105 94.8399 436.614 93.8414C436.124 92.8429 434.917 92.431 433.918 92.9215C428.892 95.3901 425.424 98.3745 423.215 101.673C420.999 104.982 420.124 108.499 420.122 111.899C420.12 116.267 421.553 120.426 423.394 123.811C423.415 123.848 426.534 125.118 426.555 125.156C426.521 125.153 423.388 123.917 423.354 123.914C422.32 123.823 421.355 123.869 420.551 124.084C416.778 125.089 415.28 130.484 417.518 131.234H432.817C434.15 129.312 432.297 127.226 429.516 125.766C426.873 122.512 424.148 117.266 424.151 111.901C424.153 109.217 424.834 106.496 426.563 103.915C428.298 101.323 431.163 98.7634 435.694 96.5375Z"
    fill="#11269C"
  />
  <path
    d="M436.614 93.8414L435.717 94.2823L436.614 93.8414ZM435.694 96.5375L436.135 97.4351V97.4351L435.694 96.5375ZM433.918 92.9215L434.359 93.8191V93.8191L433.918 92.9215ZM423.215 101.673L422.384 101.117V101.117L423.215 101.673ZM420.122 111.899L421.122 111.899L420.122 111.899ZM426.555 125.156L426.459 126.151C426.828 126.187 427.186 126.015 427.39 125.706C427.594 125.396 427.61 124.999 427.431 124.674L426.555 125.156ZM420.551 124.084L420.808 125.05H420.808L420.551 124.084ZM417.518 131.234L417.2 132.182L417.355 132.234H417.518V131.234ZM432.817 131.234V132.234H433.341L433.639 131.803L432.817 131.234ZM429.516 125.766L428.74 126.397L428.869 126.556L429.051 126.652L429.516 125.766ZM424.151 111.901L423.151 111.9L424.151 111.901ZM426.563 103.915L425.732 103.358L426.563 103.915ZM423.394 123.811L422.516 124.289L423.394 123.811ZM423.354 123.914L423.267 124.91L423.354 123.914ZM435.717 94.2823C435.964 94.7851 435.756 95.3929 435.253 95.6399L436.135 97.4351C437.629 96.7011 438.246 94.8947 437.512 93.4005L435.717 94.2823ZM434.359 93.8191C434.862 93.5721 435.47 93.7795 435.717 94.2823L437.512 93.4005C436.778 91.9063 434.971 91.29 433.477 92.024L434.359 93.8191ZM424.046 102.229C426.137 99.1063 429.456 96.2275 434.359 93.8191L433.477 92.024C428.329 94.5528 424.71 97.6426 422.384 101.117L424.046 102.229ZM421.122 111.899C421.124 108.677 421.951 105.358 424.046 102.229L422.384 101.117C420.047 104.606 419.124 108.321 419.122 111.898L421.122 111.899ZM420.293 123.117C418.007 123.727 416.485 125.63 415.84 127.415C415.516 128.313 415.378 129.273 415.534 130.123C415.694 130.992 416.197 131.846 417.2 132.182L417.835 130.285C417.72 130.247 417.571 130.145 417.501 129.761C417.426 129.356 417.479 128.765 417.721 128.094C418.209 126.744 419.322 125.446 420.808 125.05L420.293 123.117ZM417.518 132.234H432.817V130.234H417.518V132.234ZM433.639 131.803C434.09 131.153 434.297 130.443 434.253 129.713C434.209 128.999 433.93 128.342 433.535 127.763C432.759 126.626 431.438 125.646 429.981 124.881L429.051 126.652C430.375 127.347 431.371 128.14 431.883 128.891C432.133 129.257 432.24 129.572 432.257 129.835C432.272 130.083 432.211 130.353 431.996 130.664L433.639 131.803ZM423.151 111.9C423.148 117.572 426.01 123.035 428.74 126.397L430.292 125.136C427.737 121.989 425.148 116.959 425.151 111.901L423.151 111.9ZM425.732 103.358C423.882 106.12 423.153 109.039 423.151 111.9L425.151 111.901C425.152 109.396 425.785 106.872 427.393 104.471L425.732 103.358ZM435.253 95.6399C430.599 97.9261 427.585 100.591 425.732 103.358L427.393 104.471C429.012 102.054 431.726 99.6007 436.135 97.4351L435.253 95.6399ZM427.431 124.674C427.334 124.497 427.205 124.396 427.19 124.383C427.149 124.35 427.114 124.326 427.097 124.315C427.061 124.292 427.031 124.275 427.018 124.268C426.989 124.253 426.961 124.239 426.945 124.232C426.907 124.214 426.862 124.194 426.816 124.174C426.722 124.132 426.593 124.077 426.444 124.014C426.146 123.888 425.751 123.723 425.359 123.56C424.966 123.396 424.576 123.234 424.283 123.11C424.136 123.048 424.018 122.998 423.938 122.963C423.897 122.944 423.873 122.933 423.862 122.928C423.855 122.925 423.864 122.929 423.88 122.938C423.886 122.941 423.912 122.955 423.944 122.976C423.959 122.986 423.993 123.009 424.034 123.042C424.048 123.053 424.176 123.155 424.273 123.333L422.516 124.289C422.613 124.467 422.742 124.569 422.757 124.582C422.799 124.616 422.834 124.64 422.851 124.651C422.887 124.674 422.918 124.691 422.93 124.698C422.96 124.714 422.988 124.727 423.004 124.735C423.042 124.753 423.087 124.773 423.133 124.793C423.227 124.835 423.356 124.89 423.505 124.953C423.803 125.079 424.199 125.243 424.59 125.407C424.984 125.57 425.373 125.733 425.666 125.856C425.813 125.919 425.931 125.969 426.011 126.004C426.053 126.023 426.077 126.034 426.088 126.039C426.095 126.042 426.086 126.038 426.07 126.029C426.064 126.026 426.038 126.012 426.006 125.992C425.991 125.982 425.957 125.959 425.918 125.926C425.904 125.915 425.776 125.815 425.678 125.637L427.431 124.674ZM424.273 123.333C422.486 120.048 421.12 116.055 421.122 111.899L419.122 111.898C419.12 116.48 420.621 120.804 422.516 124.289L424.273 123.333ZM426.65 124.161C426.71 124.166 426.755 124.176 426.77 124.179C426.791 124.184 426.807 124.188 426.816 124.191C426.835 124.196 426.849 124.2 426.854 124.202C426.866 124.206 426.874 124.209 426.874 124.209C426.876 124.209 426.873 124.208 426.862 124.204C426.842 124.197 426.81 124.185 426.767 124.168C426.68 124.135 426.557 124.087 426.408 124.029C426.11 123.913 425.715 123.759 425.319 123.604C424.923 123.449 424.526 123.294 424.226 123.177C424.076 123.119 423.949 123.069 423.857 123.034C423.812 123.017 423.773 123.002 423.743 122.991C423.729 122.986 423.712 122.98 423.697 122.974C423.689 122.972 423.676 122.967 423.659 122.962C423.652 122.959 423.636 122.954 423.615 122.949C423.605 122.946 423.588 122.942 423.566 122.937C423.55 122.933 423.503 122.923 423.441 122.918L423.267 124.91C423.205 124.905 423.158 124.895 423.143 124.892C423.122 124.887 423.105 124.883 423.095 124.88C423.076 124.875 423.062 124.87 423.056 124.869C423.044 124.865 423.036 124.862 423.035 124.862C423.034 124.861 423.036 124.862 423.047 124.866C423.067 124.873 423.098 124.885 423.142 124.902C423.229 124.935 423.352 124.983 423.501 125.041C423.799 125.157 424.194 125.311 424.59 125.466C424.986 125.621 425.382 125.776 425.682 125.893C425.832 125.951 425.96 126.001 426.051 126.036C426.096 126.053 426.136 126.068 426.165 126.079C426.179 126.084 426.196 126.09 426.211 126.096C426.218 126.098 426.232 126.103 426.248 126.108C426.255 126.11 426.271 126.115 426.291 126.121C426.301 126.123 426.317 126.128 426.339 126.132C426.354 126.136 426.4 126.146 426.459 126.151L426.65 124.161ZM423.441 122.918C422.334 122.821 421.245 122.864 420.293 123.117L420.808 125.05C421.465 124.875 422.305 124.826 423.267 124.91L423.441 122.918Z"
    fill="white"
  />
  <path
    fill-rule="evenodd"
    clip-rule="evenodd"
    d="M321.734 31.5971C322.17 31.2521 322.804 31.326 323.149 31.7623C330.53 41.0945 352.769 58.1505 382.402 51.4067C412.925 44.4603 440.332 58.3193 450.268 66.1449C450.705 66.4891 450.781 67.1224 450.436 67.5593C450.092 67.9963 449.459 68.0716 449.022 67.7274C439.389 60.1401 412.591 46.6021 382.849 53.3709C352.215 60.3423 329.254 42.7289 321.569 33.0119C321.224 32.5756 321.298 31.9422 321.734 31.5971Z"
    fill="#11269C"
  />
  <path
    fill-rule="evenodd"
    clip-rule="evenodd"
    d="M361.498 39.2332C402.4 24.2881 430.79 36.6155 446.567 47.1339C452.929 51.3753 455.924 55.4429 457.272 58.8712C458.513 62.0279 458.314 64.5513 458.208 65.9014C458.199 66.0182 458.19 66.1263 458.183 66.2252C458.145 66.7801 457.664 67.199 457.109 67.1607C456.554 67.1224 456.135 66.6415 456.174 66.0866C456.181 65.9833 456.189 65.8736 456.198 65.7574C456.3 64.4462 456.465 62.3239 455.397 59.6083C454.234 56.6505 451.557 52.8814 445.45 48.8099C430.055 38.546 402.335 26.4564 362.189 41.1252C361.667 41.3161 361.088 41.0473 360.898 40.5249C360.707 40.0024 360.975 39.4241 361.498 39.2332Z"
    fill="#11269C"
  />
</svg>
